<svg width="15" height="15" viewBox="0 0 15 15" fill="none" xmlns="http://www.w3.org/2000/svg">
<path d="M7.50037 0C11.6476 0 15.0064 3.36407 15 7.52325C14.9936 11.6626 11.5981 15.0543 7.39427 14.9993C3.35412 14.9454 -0.018115 11.6359 7.32321e-05 7.42521C0.0175878 3.35733 3.39555 0 7.50037 0ZM5.65628 4.25756C5.48154 5.30553 5.39647 6.36649 5.40198 7.42892H9.60347C9.59808 6.35653 9.52802 5.30637 9.34648 4.25756H5.65628ZM9.60212 8.01312H5.42556C5.41994 8.0316 5.41599 8.05054 5.41377 8.06973C5.42492 9.08875 5.52921 10.1046 5.72533 11.1046C5.73274 11.1434 5.81459 11.1946 5.86208 11.1949C6.95405 11.2 8.04635 11.198 9.13832 11.2003C9.2333 11.2003 9.27642 11.1781 9.28922 11.075C9.37107 10.4258 9.47043 9.77888 9.54251 9.12864C9.58326 8.76309 9.58326 8.3935 9.60212 8.01312ZM9.23971 3.69054C9.09049 2.97932 8.91131 2.28696 8.58291 1.64683C8.4302 1.3616 8.25173 1.09094 8.04972 0.838238C7.98799 0.75423 7.90748 0.685827 7.81461 0.638501C7.72173 0.591174 7.61908 0.566235 7.51485 0.565675C7.18679 0.561632 6.99009 0.766138 6.81124 0.991196C6.46465 1.42649 6.25649 1.93455 6.09078 2.45912C5.9638 2.86072 5.86141 3.27041 5.74453 3.68953L9.23971 3.69054ZM9.9541 4.25756C10.0373 5.32322 10.1198 6.38011 10.2023 7.43195H12.4109C12.4179 7.41301 12.4229 7.39335 12.4257 7.37333C12.422 7.217 12.4206 7.06034 12.4112 6.90401C12.3609 6.04311 12.1909 5.19343 11.906 4.37952C11.8696 4.27845 11.815 4.24745 11.7099 4.24847C11.167 4.25318 10.624 4.25049 10.0811 4.25116C10.0319 4.25116 9.98273 4.25621 9.9541 4.25756ZM5.04967 4.26059C5.03074 4.25558 5.01131 4.25264 4.99174 4.25183C4.4151 4.25183 3.83847 4.25183 3.26183 4.24847C3.16079 4.24847 3.1271 4.29934 3.10016 4.37919C2.81554 5.18714 2.64548 6.031 2.59493 6.88615C2.58348 7.06708 2.59493 7.24934 2.59493 7.43397H4.80143C4.88463 6.37101 4.96681 5.31985 5.04967 4.26059ZM12.4543 8.01481H10.1976C10.0895 9.08282 9.98307 10.1374 9.87528 11.1983C10.4304 11.1983 11.0067 11.2013 11.5826 11.1929C11.6318 11.1929 11.7059 11.1215 11.7241 11.0679C11.8814 10.6084 12.0609 10.1529 12.17 9.68152C12.2967 9.1401 12.3603 8.58352 12.4543 8.01481ZM2.58752 8.01144C2.60099 8.1772 2.61076 8.33218 2.62625 8.48615C2.71277 9.3836 2.9349 10.2627 3.28507 11.0935C3.32347 11.1838 3.37635 11.2013 3.46426 11.2003C3.81119 11.1959 4.15811 11.2003 4.50503 11.2003H5.12714C5.01936 10.1326 4.91292 9.07777 4.80548 8.01312L2.58752 8.01144ZM5.87959 11.7606C5.87946 11.785 5.88126 11.8093 5.88498 11.8334C6.05339 12.5028 6.2602 13.1601 6.63239 13.748C6.75485 13.9423 6.90381 14.1185 7.07497 14.2716C7.34038 14.5075 7.64183 14.5044 7.91702 14.2817C8.05575 14.1685 8.17767 14.0361 8.2791 13.8885C8.71023 13.2605 8.93993 12.548 9.12114 11.8165C9.12129 11.798 9.11798 11.7796 9.11138 11.7623L5.87959 11.7606ZM12.4415 4.25116C12.812 5.30266 12.9693 6.35855 12.9892 7.43229H14.4523C14.4328 7.16983 14.4227 6.91951 14.3947 6.67154C14.304 5.87542 14.0708 5.10212 13.7063 4.38862C13.678 4.33269 13.6113 4.25891 13.5604 4.25723C13.198 4.24611 12.8349 4.25116 12.4415 4.25116ZM2.01627 7.43734C2.02262 6.35302 2.20462 5.2769 2.55519 4.25082C2.19445 4.25082 1.85965 4.25689 1.52553 4.24745C1.39855 4.24409 1.33624 4.2926 1.28336 4.40142C0.854921 5.28211 0.60298 6.20694 0.569635 7.1887C0.56694 7.26922 0.569635 7.35008 0.569635 7.43734H2.01627ZM12.2731 11.1986C12.6069 11.1986 12.9198 11.1929 13.232 11.2013C13.3428 11.2044 13.4116 11.173 13.456 11.0733C13.6793 10.5747 13.9276 10.0861 14.1219 9.57606C14.3102 9.07979 14.389 8.55219 14.425 8.01414H12.9717C12.92 9.10745 12.6838 10.1841 12.2731 11.1986ZM0.582434 8.01178C0.593212 8.90493 1.07352 10.3968 1.58144 11.1225C1.60401 11.1562 1.64611 11.1939 1.67979 11.1946C2.02368 11.2 2.36758 11.198 2.73 11.198C2.30796 10.164 2.09004 9.1091 2.02874 8.01178H0.582434ZM8.77792 0.825436C8.85741 0.965928 8.94095 1.1044 9.01606 1.24725C9.39532 1.97195 9.60953 2.75257 9.7766 3.54668C9.80455 3.68144 9.85979 3.70065 9.97565 3.6993C10.4064 3.69424 10.8372 3.69728 11.268 3.69728H11.6257C10.9905 2.39983 10.1474 1.35675 8.77792 0.825436ZM3.37905 3.69728H4.90315C5.19248 3.69728 5.18945 3.69728 5.25143 3.42067C5.43567 2.59389 5.67144 1.78395 6.09752 1.04274C6.13996 0.969296 6.18408 0.896522 6.22719 0.823749C4.85432 1.35809 4.01193 2.40185 3.37905 3.69728ZM8.79477 14.1806C9.56945 14.0378 11.2333 12.4698 11.3546 11.7515C10.8393 11.7515 10.3253 11.7488 9.81162 11.7569C9.76952 11.7569 9.7062 11.8243 9.69003 11.8735C9.53813 12.3344 9.41216 12.8047 9.24206 13.2585C9.12047 13.5782 8.94398 13.8767 8.79477 14.1806ZM6.21305 14.1827C5.77518 13.4725 5.52256 12.6976 5.32856 11.9014C5.2969 11.771 5.23896 11.7478 5.12242 11.7491C4.67984 11.7545 4.23726 11.7512 3.79468 11.7515C3.74281 11.7515 3.6906 11.7562 3.6101 11.7603C4.24333 12.8566 5.03148 13.7288 6.21305 14.1827ZM10.6641 1.35776C10.6775 1.37917 10.6925 1.39955 10.7089 1.41874C11.2407 1.94938 11.6638 2.55784 12.0053 3.2256C12.0855 3.38294 12.1343 3.59957 12.264 3.67639C12.3937 3.7532 12.6123 3.6966 12.7915 3.69728C12.9548 3.69728 13.1178 3.69728 13.3122 3.69728C12.6136 2.66599 11.7534 1.88502 10.6641 1.35776ZM1.69259 3.69728C2.02571 3.69728 2.32042 3.69222 2.6148 3.69997C2.73033 3.70267 2.78961 3.66999 2.84014 3.55847C3.16685 2.83444 3.58619 2.16938 4.1315 1.58753C4.2019 1.5124 4.27296 1.43794 4.3437 1.36315L4.31271 1.33181C3.2524 1.88705 2.3888 2.6643 1.69259 3.69728ZM2.01459 11.7518C2.67981 12.587 3.44574 13.2272 4.36795 13.676C3.83155 13.1337 3.37945 12.5141 3.02673 11.8378C3.01303 11.8156 2.99461 11.7967 2.97277 11.7825C2.95094 11.7683 2.92623 11.7591 2.90043 11.7555C2.62188 11.7481 2.34265 11.7518 2.01459 11.7518ZM10.6618 13.6386C11.5806 13.2029 12.3384 12.5776 12.9858 11.7518C12.6776 11.7518 12.4156 11.7562 12.1535 11.7495C12.0491 11.7468 11.9942 11.7832 11.9467 11.8765C11.6639 12.431 11.305 12.9433 10.8804 13.3983C10.8076 13.4772 10.7352 13.558 10.6618 13.6382V13.6386Z" fill="#FE0000"/>
</svg>
