<svg width="15" height="15" viewBox="0 0 15 15" fill="none" xmlns="http://www.w3.org/2000/svg">
<path fill-rule="evenodd" clip-rule="evenodd" d="M5.61672 5.51327H8.27336V6.83658C8.65604 6.0755 9.63744 5.39167 11.1117 5.39167C13.9378 5.39167 14.6088 6.90668 14.6088 9.68635V14.8344H11.7476V10.3194C11.7476 8.73642 11.3649 7.84373 10.3907 7.84373C9.03945 7.84373 8.47793 8.80581 8.47793 10.3187V14.8344H5.61672V5.51327ZM0.710457 14.7128H3.57167V5.39167H0.710457V14.7128ZM3.98154 2.35234C3.98164 2.59217 3.93408 2.82962 3.84162 3.0509C3.74915 3.27218 3.61362 3.47288 3.44292 3.64132C3.09699 3.98511 2.62876 4.17755 2.14106 4.17637C1.65422 4.17604 1.18707 3.98409 0.840642 3.64204C0.670551 3.47302 0.535484 3.2721 0.44318 3.05079C0.350875 2.82948 0.303149 2.59213 0.302734 2.35234C0.302734 1.86808 0.495866 1.40457 0.841358 1.06265C1.18748 0.720135 1.65483 0.528106 2.14178 0.52832C2.62962 0.52832 3.09742 0.720737 3.44292 1.06265C3.78769 1.40457 3.98154 1.86808 3.98154 2.35234Z" fill="white"/>
</svg>
