<svg width="24" height="24" viewBox="0 0 24 24" fill="none" xmlns="http://www.w3.org/2000/svg">
<rect width="24" height="24" rx="3" fill="#ECECEC"/>
<path d="M9.08923 18.3346C8.28767 18.5623 7.81414 18.2982 7.58395 17.5092C6.82254 17.4603 6.33894 17.0702 6.44682 16.1419C5.54115 15.7656 5.35236 15.3065 5.77259 14.4309L5.20437 14.0458C4.5985 14.5476 4.33758 14.572 3.66648 14.1895C3.1227 13.8796 2.58141 13.566 2 13.2317L5.73372 6.7854C6.40921 7.17677 7.06712 7.53803 7.70247 7.93504C8.09447 8.17965 8.20423 8.67263 8.01607 9.10164C7.9659 9.21579 7.90255 9.32429 7.82791 9.47482C8.03238 9.60339 8.22997 9.75393 8.45012 9.8593C8.76936 10.0123 9.07731 9.922 9.29056 9.65921C9.53588 9.33983 9.89143 9.12337 10.2878 9.05208C10.8636 8.95111 11.4456 8.88087 12.0214 8.77738C12.5338 8.68581 13.0173 8.76608 13.4946 8.9511C13.8841 9.10163 14.2705 9.26847 14.6713 9.38011C14.9391 9.45537 15.2307 9.44659 15.5261 9.4767C15.4346 9.17815 15.3286 8.96428 15.3104 8.74288C15.2933 8.57943 15.3239 8.41453 15.3986 8.26815C15.4733 8.12177 15.5889 8.00017 15.7312 7.91811C16.3641 7.53552 17.0095 7.17362 17.6756 6.78915L21.4099 13.2305L20.0758 14.0044C19.9222 14.0929 19.7673 14.1807 19.6123 14.2679C19.0698 14.5739 18.6646 14.5049 18.2507 14.0339C18.2079 13.975 18.1686 13.9136 18.1328 13.8501C17.9333 14.0722 17.7677 14.2465 17.616 14.4322C17.5665 14.4946 17.5388 14.5715 17.5369 14.6511C17.5432 15.5561 17.1782 15.9099 16.2575 15.8785C15.9514 16.6311 15.6967 16.8193 14.9736 16.8042C14.7108 17.5136 14.5665 17.6478 13.9155 17.7733C13.8998 17.8448 13.8829 17.9238 13.8659 18.0028C13.7562 18.5127 13.4727 18.7994 12.9496 18.7611C12.4146 18.7222 11.8834 18.5874 11.3609 18.4569C11.1464 18.4036 11.0241 18.3898 10.8692 18.5911C10.3806 19.2259 9.56966 19.1073 9.08923 18.3346ZM7.94772 14.0427C8.78628 13.5278 9.36519 13.8156 9.69698 14.8932C10.481 15.0562 10.7206 15.3805 10.6949 16.2103L11.4349 16.6355C11.5215 16.3846 11.7065 16.3734 11.9593 16.4787C12.5275 16.7158 13.1045 16.9303 13.6759 17.1599C13.9763 17.2803 14.2454 17.1981 14.3658 16.936C14.4863 16.6738 14.4079 16.5389 14.056 16.384C13.5308 16.1528 13.005 15.9228 12.4786 15.6941C12.2904 15.6138 12.1192 15.5185 12.2277 15.2802C12.3318 15.055 12.5137 15.1296 12.6837 15.2049C13.4288 15.5335 14.1752 15.8603 14.919 16.1908C15.2389 16.3332 15.5117 16.2605 15.639 15.9895C15.7582 15.7386 15.6723 15.568 15.3311 15.3931C14.6249 15.0312 13.9143 14.6762 13.2156 14.3005C13.1643 14.2643 13.1214 14.2177 13.0897 14.1636C13.058 14.1095 13.0382 14.0492 13.0318 13.9869C13.0268 13.9241 13.1679 13.7987 13.2551 13.7837C13.3535 13.7699 13.4708 13.8464 13.5718 13.8947C14.4555 14.3456 15.3367 14.8016 16.2198 15.2538C16.5334 15.4162 16.8125 15.3604 16.9549 15.1108C17.0973 14.8612 17.0132 14.599 16.704 14.4027C15.2146 13.4548 13.7238 12.5092 12.2315 11.5659C11.7749 11.2774 11.2606 11.3583 10.9075 11.7635C10.7293 11.9686 10.5638 12.1849 10.3794 12.3844C10.0087 12.7858 9.54017 12.9871 8.99953 12.9106C8.69659 12.868 8.40307 12.7325 8.11707 12.6102C7.60653 12.3925 7.52435 12.0457 7.85802 11.5941C8.12708 11.2278 8.39804 10.8628 8.64704 10.5279L7.5231 9.97281L5.43957 13.5723L6.08181 13.9919C6.73827 13.2836 7.36024 13.3005 7.94772 14.0427ZM8.17664 12.057C8.33845 12.1297 8.46891 12.1881 8.6 12.2451C9.21779 12.5192 9.66623 12.4183 10.1053 11.9033C10.2483 11.7371 10.3831 11.5634 10.528 11.4016C11.0354 10.8233 11.8307 10.6991 12.4811 11.103C13.2526 11.5835 14.0215 12.0677 14.7879 12.5556C15.5895 13.063 16.3885 13.5729 17.1769 14.0747L17.8725 13.4055C17.219 12.2796 16.5779 11.167 15.9225 10.0625C15.887 10.0209 15.8419 9.98849 15.7911 9.96817C15.7403 9.94784 15.6853 9.94018 15.6309 9.94584C15.2426 10.0394 14.8353 10.0156 14.4605 9.87747C14.0215 9.71565 13.5825 9.53691 13.1321 9.40958C12.8456 9.32158 12.5458 9.28506 12.2465 9.30171C11.6638 9.35419 11.0846 9.44006 10.5117 9.55887C10.2677 9.60904 9.97358 9.70814 9.82619 9.88689C9.25794 10.5749 8.73923 11.31 8.17664 12.057ZM20.6867 13.036L17.483 7.51043C17.0201 7.77761 16.5949 8.0216 16.1709 8.26809C15.8002 8.48447 15.75 8.68392 15.9696 9.064C16.2033 9.47084 16.4385 9.87726 16.6752 10.2833C17.3132 11.3846 17.9517 12.4858 18.5906 13.5867C18.7788 13.911 18.9807 14.0051 19.2504 13.8583C19.7265 13.6011 20.1912 13.322 20.6867 13.036ZM5.92626 7.51043C4.84811 9.3707 3.79378 11.1927 2.72002 13.0417C3.22178 13.3264 3.70598 13.6131 4.20147 13.8752C4.4329 14.0007 4.63548 13.8966 4.76092 13.6821C5.67538 12.1132 6.58649 10.5425 7.49425 8.96992C7.65105 8.69834 7.59963 8.49325 7.33056 8.3283C6.87898 8.04857 6.41485 7.79329 5.92626 7.51043ZM9.18392 14.7596C9.05346 14.6247 8.94496 14.461 8.79318 14.3682C8.59812 14.2484 8.39993 14.3369 8.27011 14.51C7.86494 15.0514 7.46603 15.5977 7.07341 16.1488C6.88525 16.416 6.93105 16.6964 7.16687 16.8619C7.4027 17.0275 7.67865 16.9661 7.87308 16.7014C8.24271 16.1996 8.6069 15.6924 8.96566 15.1798C9.04155 15.0732 9.08921 14.9477 9.18392 14.7596ZM10.2301 15.8691C10.1116 15.738 10.0131 15.5737 9.86882 15.4853C9.66498 15.3598 9.4555 15.4413 9.31689 15.6264C8.95437 16.1093 8.59896 16.5973 8.25066 17.0902C8.0625 17.3599 8.10265 17.6416 8.33659 17.8053C8.57054 17.969 8.85152 17.9144 9.0447 17.6522C9.3838 17.1923 9.71705 16.7267 10.0444 16.2555C10.1134 16.1564 10.1517 16.0353 10.2301 15.8691ZM11.4575 17.9551C11.7122 18.0279 11.9975 18.1326 12.2923 18.186C12.547 18.2363 12.808 18.2459 13.0657 18.2142C13.1729 18.1979 13.3165 18.016 13.3303 17.8956C13.3441 17.7751 13.2519 17.5675 13.1503 17.523C12.6323 17.2928 12.096 17.1034 11.6124 16.9178L11.4575 17.9551ZM10.4929 16.7936C10.4452 16.8174 10.3129 16.8419 10.2502 16.919C10.023 17.203 9.81357 17.5006 9.62296 17.8103C9.49752 18.0179 9.59222 18.2236 9.77599 18.3597C9.9723 18.5058 10.215 18.5215 10.3762 18.339C10.6195 18.0678 10.8329 17.7713 11.0128 17.4546C11.1834 17.1492 10.915 16.7823 10.4929 16.7936ZM6.64316 15.5825C6.70149 15.5492 6.85011 15.5047 6.93667 15.4056C7.11177 15.1993 7.27093 14.98 7.41273 14.7496C7.56326 14.5137 7.51871 14.2892 7.30358 14.1117C7.08846 13.9342 6.82755 13.963 6.63688 14.187C6.45319 14.3995 6.28865 14.6278 6.14517 14.8693C5.95575 15.1942 6.18593 15.5706 6.64316 15.5825Z" fill="black"/>
<path d="M11.2405 5.76683V4H11.7423V5.76683H11.2405Z" fill="black"/>
<path d="M13.8628 6.30051C14.1996 5.88656 14.5076 5.50775 14.8337 5.10571C14.9786 5.22551 15.1034 5.32773 15.2433 5.44251L14.268 6.63418L13.8628 6.30051Z" fill="black"/>
<path d="M8.17227 5.4419L8.57683 5.11011C8.74805 5.3152 8.90736 5.50462 9.06416 5.69592C9.22096 5.88721 9.37774 6.08477 9.55085 6.30367L9.14945 6.63671L8.17227 5.4419Z" fill="black"/>
</svg>
