<svg width="24" height="24" viewBox="0 0 24 24" fill="none" xmlns="http://www.w3.org/2000/svg">
<rect width="24" height="24" rx="3" fill="#ECECEC"/>
<path d="M16.1917 15.9162C15.6094 16.7824 14.8253 17.1594 13.7984 17.0788V17.2821C13.7984 18.1833 13.7984 19.083 13.7984 19.9813C13.7984 20.2987 13.7038 20.3923 13.3844 20.3923C10.447 20.3923 7.50965 20.3923 4.5723 20.3923C3.64553 20.3923 3.00012 19.7515 3.00012 18.8292C3.00012 15.0744 3.00012 11.3192 3.00012 7.56376C3.00012 6.64049 3.64401 5.99961 4.56978 5.99811C5.66928 5.99811 6.76896 5.99811 7.8688 5.99811H8.09812V5.0403C8.09812 4.9652 8.09562 4.8901 8.09812 4.81499C8.10814 4.61472 8.21777 4.50257 8.41804 4.50056C8.90571 4.49656 9.39323 4.49656 9.88057 4.50056C10.0713 4.50056 10.197 4.63074 10.195 4.80097C10.193 4.97121 10.0668 5.09437 9.87504 5.09637C9.48901 5.10088 9.10299 5.09637 8.70745 5.09637V5.99761C8.96981 5.99761 9.23567 5.9946 9.50153 5.99761C9.70181 6.00061 9.82299 6.10927 9.8305 6.28151C9.83851 6.46376 9.71533 6.59143 9.51305 6.59494C9.25069 6.59994 8.98883 6.59494 8.69743 6.59494V6.79821C8.69743 7.3044 8.69743 7.8106 8.69743 8.31679C8.69743 8.55361 8.58628 8.6913 8.40002 8.69281C8.21377 8.69431 8.09961 8.55612 8.09961 8.3213C8.09961 7.75402 8.09961 7.18625 8.09961 6.59494H7.89083C6.78932 6.59494 5.68949 6.59494 4.59132 6.59494C3.96846 6.59494 3.60295 6.96093 3.60295 7.58528V17.6991C4.00901 17.3892 4.44911 17.3882 4.89623 17.3887C7.58291 17.3937 10.2699 17.3946 12.9573 17.3912H13.1981C13.2062 17.2577 13.204 17.1238 13.1916 16.9907C13.1812 16.958 13.1642 16.9278 13.1416 16.9019C13.119 16.8761 13.0914 16.8552 13.0604 16.8405C12.5571 16.5931 12.1565 16.177 11.9285 15.6646C11.7005 15.1522 11.6595 14.5761 11.8127 14.0366C11.9063 13.7047 12.1452 13.6361 12.3955 13.8769C12.8296 14.2905 13.2582 14.7106 13.6973 15.1191C13.7524 15.1692 13.856 15.1767 13.9391 15.1862C13.9955 15.1854 14.0512 15.174 14.1033 15.1527C14.238 15.1136 14.4508 15.1091 14.4904 15.024C14.58 14.8332 14.5905 14.6029 14.6155 14.3861C14.6206 14.343 14.5535 14.286 14.5099 14.2429C14.0828 13.8308 13.6527 13.4218 13.2256 13.0097C12.9753 12.7694 13.0254 12.5205 13.3548 12.4184C14.2215 12.148 15.0171 12.2942 15.6995 12.8936C16.3714 13.4834 16.6188 14.2454 16.4701 15.1226C16.4446 15.2728 16.4701 15.373 16.5797 15.4806C17.729 16.6198 18.874 17.7632 20.0149 18.9108C20.4615 19.3584 20.5357 19.9743 20.2117 20.4629C19.7876 21.1038 18.9069 21.1864 18.3426 20.6282C17.512 19.8065 16.6904 18.9759 15.8628 18.1513C15.7035 17.9925 15.5433 17.8348 15.3861 17.6736C15.2289 17.5124 15.2199 17.3401 15.3496 17.212C15.4792 17.0838 15.656 17.0963 15.8117 17.252C16.7797 18.22 17.7477 19.188 18.7157 20.156C18.8909 20.3317 19.0882 20.4254 19.3395 20.3628C19.4391 20.3404 19.5311 20.2925 19.6065 20.2238C19.6819 20.1551 19.7382 20.0679 19.7697 19.9709C19.8012 19.8738 19.807 19.7703 19.7863 19.6703C19.7657 19.5704 19.7193 19.4776 19.6519 19.401C19.6159 19.3579 19.5748 19.3194 19.5348 19.2793C18.4667 18.2112 17.3977 17.1419 16.3279 16.0714C16.2828 16.0299 16.2458 15.9793 16.1917 15.9162ZM13.1906 17.993H4.64588C4.57729 17.993 4.5082 17.993 4.44011 17.993C4.25822 18.006 4.08448 18.0736 3.94157 18.1868C3.79866 18.3001 3.69322 18.4538 3.63901 18.6279C3.46027 19.2237 3.89637 19.7885 4.54325 19.789C7.37146 19.789 10.1998 19.789 13.0284 19.789C13.0819 19.789 13.1355 19.7825 13.1976 19.778C13.1976 19.2077 13.1976 18.653 13.1976 18.0982C13.1981 18.0712 13.1941 18.0431 13.1906 17.993ZM14.0292 12.9041L13.9842 12.9586C14.0384 12.9873 14.0898 13.0208 14.1379 13.0588C14.4508 13.3547 14.7567 13.6596 15.0737 13.9505C15.2154 14.0817 15.2739 14.2169 15.2304 14.4141C15.1633 14.7116 15.1197 15.015 15.0692 15.3154C15.0401 15.4916 14.9395 15.5893 14.7658 15.6253C14.4653 15.6869 14.1649 15.745 13.871 15.8231C13.6838 15.8731 13.5496 15.8231 13.4174 15.6909C13.1075 15.383 12.789 15.0836 12.4731 14.7812C12.4351 14.7451 12.3925 14.7136 12.3434 14.6725C12.2363 15.5517 13.0674 16.4364 14.0262 16.4865C15.0927 16.5421 15.9559 15.7204 15.9449 14.6615C15.9423 14.4179 15.8897 14.1774 15.7905 13.9548C15.6912 13.7323 15.5474 13.5326 15.3678 13.3679C15.1882 13.2032 14.9768 13.0771 14.7466 12.9974C14.5163 12.9177 14.2722 12.8861 14.0292 12.9046V12.9041Z" fill="black"/>
<path d="M17.3648 4.62121C17.14 4.75039 16.9306 4.86105 16.7324 4.98822C16.5521 5.10388 16.3924 5.11289 16.2177 4.9757C16.1096 4.89082 15.9903 4.82123 15.8632 4.76891C15.6599 4.6848 15.5838 4.54462 15.5953 4.32932C15.6073 4.094 15.5978 3.85717 15.5978 3.61033H13.7989C13.7989 3.85116 13.7903 4.098 13.8014 4.34433C13.8114 4.55412 13.7298 4.68431 13.537 4.76742C13.4055 4.82531 13.2812 4.89822 13.1665 4.98471C13.0033 5.10538 12.8541 5.10538 12.6843 4.99723C12.4801 4.86705 12.2643 4.7539 12.0335 4.62121L11.1322 6.17585C11.3585 6.30703 11.5763 6.4392 11.8001 6.56037C11.9629 6.64899 12.0289 6.77067 12.0114 6.95792C11.9976 7.12587 11.9976 7.29466 12.0114 7.46261C12.0215 7.53402 12.0088 7.60679 11.9752 7.67059C11.9416 7.7344 11.8887 7.786 11.8242 7.8181C11.5963 7.94677 11.371 8.07896 11.1307 8.21865L12.0294 9.77577C12.2638 9.64109 12.4871 9.51893 12.7029 9.38575C12.8616 9.28811 13.0033 9.29512 13.1535 9.40377C13.2808 9.49386 13.4161 9.57228 13.5575 9.63808C13.7328 9.7202 13.8079 9.84487 13.7999 10.0386C13.7904 10.282 13.7974 10.5253 13.7974 10.7832H15.5968C15.5968 10.5328 15.6033 10.279 15.5968 10.0256C15.5903 9.83837 15.6674 9.7222 15.8351 9.6431C15.9819 9.57384 16.1222 9.49192 16.2547 9.39827C16.4024 9.29262 16.5381 9.29412 16.6883 9.38374C16.9066 9.51442 17.1284 9.63959 17.3658 9.77728C17.6692 9.25256 17.9636 8.74186 18.267 8.22015C18.0352 8.08597 17.8164 7.95379 17.5926 7.83212C17.4283 7.743 17.3693 7.61783 17.3873 7.43157C17.3997 7.26354 17.3989 7.09478 17.3848 6.92687C17.3755 6.85858 17.3877 6.78909 17.4197 6.72807C17.4518 6.66704 17.502 6.61753 17.5635 6.58641C17.8729 6.41117 18.1784 6.22792 18.4878 6.05268C18.67 5.94904 18.8383 5.98309 18.9319 6.13229C19.0255 6.2815 18.9765 6.45773 18.7862 6.57138C18.5614 6.70607 18.3321 6.83325 18.1063 6.96693C17.945 7.06206 17.9486 7.33845 18.1118 7.43458C18.3321 7.56476 18.5559 7.68942 18.7757 7.8201C18.9955 7.95078 19.031 8.08997 18.9084 8.30426C18.5308 8.96584 18.1507 9.62557 17.7678 10.2835C17.6386 10.5058 17.4949 10.5398 17.2671 10.4107C17.0498 10.288 16.835 10.1603 16.6162 10.0371C16.4395 9.937 16.2002 10.0687 16.1987 10.27C16.1987 10.5258 16.1987 10.7822 16.1987 11.038C16.1987 11.2843 16.0885 11.3955 15.8482 11.3965C15.0855 11.3985 14.3231 11.3985 13.561 11.3965C13.3147 11.3965 13.2061 11.2868 13.2031 11.043C13.2005 10.7807 13.2031 10.5183 13.2031 10.2559C13.2031 10.0792 12.9612 9.939 12.8075 10.0261C12.5792 10.1548 12.3569 10.2905 12.1261 10.4177C11.9088 10.5388 11.7626 10.5013 11.6389 10.2885C11.2564 9.63025 10.876 8.97068 10.4978 8.30977C10.3707 8.08747 10.4122 7.94777 10.638 7.81409C10.8638 7.68041 11.0821 7.55924 11.3025 7.42906C11.4527 7.34094 11.4527 7.05656 11.3055 6.96844C11.0801 6.83475 10.8508 6.70757 10.6255 6.57339C10.4122 6.44621 10.3752 6.30552 10.4973 6.08923C10.8752 5.42866 11.2554 4.76909 11.6379 4.11052C11.7626 3.89672 11.9073 3.86018 12.1241 3.97884C12.3529 4.10652 12.5777 4.24169 12.806 4.37087C12.9592 4.45699 13.201 4.3208 13.2031 4.14356C13.2056 3.8812 13.2031 3.61884 13.2031 3.35648C13.2031 3.11114 13.3137 3.002 13.559 3.0015C14.3211 2.9995 15.0833 2.9995 15.8457 3.0015C16.0905 3.0015 16.1987 3.11165 16.2012 3.35698C16.2037 3.61934 16.2012 3.8817 16.2012 4.14406C16.2012 4.3188 16.4475 4.45799 16.6017 4.37187C16.83 4.2422 17.0523 4.10752 17.2831 3.97884C17.4979 3.85818 17.6421 3.89672 17.7683 4.11152C17.9582 4.43429 18.1452 4.75874 18.3291 5.08485C18.4352 5.27311 18.3947 5.45536 18.2364 5.53998C18.0782 5.62459 17.9215 5.56851 17.8134 5.38676C17.6627 5.13993 17.521 4.89058 17.3648 4.62121Z" fill="black"/>
<path d="M8.09954 14.6884H8.70036C8.70036 14.5883 8.70487 14.4912 8.70036 14.394C8.68784 14.1908 8.77996 14.0801 8.96872 13.999C9.18435 13.9039 9.38943 13.7864 9.58057 13.6485C9.77834 13.5093 9.85495 13.4883 10.0717 13.6105L10.3291 13.7552L10.627 13.2425L10.3111 13.0552C10.1784 12.9761 10.1393 12.8634 10.1503 12.7072C10.1754 12.4544 10.1774 12.1998 10.1564 11.9467C10.1328 11.7339 10.1854 11.5962 10.3752 11.5041C10.4578 11.4635 10.5344 11.4104 10.6255 11.3539L10.3311 10.8437C10.2345 10.8967 10.1413 10.9438 10.0542 10.9969C9.88899 11.1 9.7508 11.076 9.59209 10.9603C9.39744 10.8168 9.18776 10.695 8.96674 10.5968C8.77848 10.5142 8.68686 10.4036 8.69987 10.2003C8.70538 10.1082 8.69987 10.015 8.69987 9.90989H8.09905C8.09905 10.0235 8.09905 10.1342 8.09905 10.2448C8.09905 10.4081 8.02195 10.5032 7.87575 10.5768C7.63759 10.6963 7.40684 10.8301 7.18478 10.9773C7.04309 11.072 6.91642 11.096 6.76971 11.0099C6.67358 10.9533 6.57545 10.8997 6.4693 10.8407L6.17241 11.3519C6.27756 11.415 6.37667 11.476 6.47781 11.5341C6.6195 11.6157 6.65808 11.7344 6.64706 11.8956C6.62954 12.1613 6.62954 12.428 6.64706 12.6937C6.65758 12.8564 6.62251 12.9746 6.48082 13.0567C6.29707 13.1628 6.11582 13.273 5.93006 13.3746C5.75783 13.4688 5.59412 13.4292 5.50499 13.2815C5.48159 13.2459 5.46645 13.2054 5.46072 13.1632C5.45499 13.121 5.4588 13.078 5.47187 13.0374C5.48493 12.9968 5.50691 12.9597 5.53621 12.9287C5.56551 12.8977 5.60137 12.8737 5.64117 12.8584C5.94158 12.7328 6.04171 12.547 6.01367 12.218C5.99565 12.0208 5.96861 11.8921 5.77885 11.822C5.72723 11.7995 5.67821 11.7715 5.63266 11.7384C5.45642 11.6247 5.41386 11.475 5.518 11.2878C5.70125 10.9613 5.88834 10.637 6.07927 10.3149C6.19993 10.1117 6.35466 10.0581 6.54893 10.1973C6.79627 10.3745 6.99103 10.383 7.2584 10.2068C7.44966 10.0811 7.50873 9.96997 7.50273 9.75617C7.4877 9.37215 7.57432 9.29555 7.95334 9.29555C8.2843 9.29555 8.61524 9.29304 8.9467 9.29555C9.18102 9.29555 9.31771 9.4107 9.28867 9.63801C9.24861 9.95594 9.36728 10.1202 9.64717 10.2679C9.83893 10.368 9.96559 10.382 10.1253 10.2609C10.1708 10.2279 10.2192 10.1993 10.27 10.1753C10.4528 10.0836 10.5975 10.1187 10.7026 10.2949C10.8979 10.6214 11.0885 10.9508 11.2744 11.2833C11.3835 11.477 11.35 11.6508 11.1467 11.7379C10.8543 11.8631 10.7637 12.0453 10.7792 12.3643C10.7902 12.5775 10.8438 12.6827 11.022 12.7778C11.3891 12.9736 11.4091 13.0782 11.1983 13.4417C11.0421 13.7116 10.8869 13.9825 10.7291 14.2513C10.595 14.4796 10.4447 14.5372 10.237 14.389C9.99513 14.2158 9.78635 14.1762 9.55053 14.389C9.48393 14.4496 9.38731 14.4771 9.29568 14.5242C9.29568 14.6744 9.29969 14.8221 9.29568 14.9713C9.28867 15.1716 9.17802 15.2873 8.97975 15.2898C8.59222 15.2954 8.20486 15.2954 7.81766 15.2898C7.61738 15.2873 7.47719 15.1681 7.50473 14.9753C7.5548 14.6349 7.42461 14.4481 7.12019 14.3054C6.96048 14.2303 6.85134 14.1862 6.70864 14.3054C6.64356 14.3541 6.57278 14.3946 6.49786 14.4261C6.4314 14.4624 6.35342 14.4717 6.28032 14.4518C6.20722 14.4319 6.14469 14.3844 6.10582 14.3194C6.08459 14.2863 6.07032 14.2491 6.06386 14.2103C6.05741 14.1714 6.0589 14.1317 6.06826 14.0935C6.07763 14.0552 6.09467 14.0193 6.11833 13.9878C6.142 13.9563 6.17181 13.93 6.20595 13.9104C6.40072 13.7872 6.603 13.6755 6.80678 13.5634C6.93495 13.4923 7.05011 13.5238 7.17278 13.6024C7.40159 13.7496 7.6369 13.8883 7.87873 14.013C8.01592 14.0836 8.09854 14.1712 8.09954 14.3269C8.10004 14.4406 8.09954 14.5527 8.09954 14.6884Z" fill="black"/>
<path d="M16.1972 7.20583C16.1943 7.60064 16.0361 7.97844 15.7568 8.25749C15.4775 8.53653 15.0995 8.69438 14.7047 8.69687C14.3065 8.69793 13.9242 8.54084 13.6417 8.26011C13.3593 7.97939 13.1999 7.59801 13.1986 7.19981C13.1986 6.80144 13.3569 6.41939 13.6386 6.1377C13.9203 5.85601 14.3023 5.69775 14.7007 5.69775C14.898 5.69848 15.0932 5.73806 15.2752 5.81425C15.4572 5.89043 15.6224 6.00173 15.7614 6.14177C15.9003 6.28181 16.0104 6.44787 16.0852 6.63044C16.1599 6.81301 16.198 7.00853 16.1972 7.20583ZM15.5964 7.20883C15.5975 7.0901 15.575 6.97233 15.5304 6.86229C15.4858 6.75225 15.4199 6.6521 15.3365 6.56761C15.2531 6.48312 15.1538 6.41595 15.0443 6.36995C14.9349 6.32395 14.8174 6.30004 14.6987 6.29958C14.462 6.29955 14.2348 6.39265 14.0661 6.55875C13.8975 6.72485 13.801 6.95062 13.7975 7.18729C13.7964 7.30602 13.8188 7.4238 13.8634 7.53384C13.908 7.64388 13.9739 7.74401 14.0573 7.82851C14.1408 7.913 14.24 7.98018 14.3495 8.02618C14.459 8.07217 14.5764 8.09609 14.6952 8.09655C14.932 8.09684 15.1595 8.00385 15.3284 7.83772C15.4972 7.67159 15.5938 7.44568 15.5974 7.20883H15.5964Z" fill="black"/>
<path d="M18.5977 13.3266V10.328C18.5942 10.2719 18.5957 10.2156 18.6022 10.1597C18.6317 9.99802 18.7314 9.90089 18.8971 9.90039C19.0628 9.89989 19.162 10.0005 19.1925 10.1592C19.199 10.2151 19.2005 10.2714 19.197 10.3275C19.197 12.3392 19.197 14.3508 19.197 16.3622C19.2005 16.4183 19.199 16.4746 19.1925 16.5305C19.1625 16.6917 19.0628 16.7898 18.8976 16.7898C18.7324 16.7898 18.6322 16.6922 18.6022 16.531C18.5957 16.475 18.5941 16.4185 18.5977 16.3622V13.3266Z" fill="black"/>
<path d="M9.59927 12.2973C9.59874 12.4552 9.56711 12.6114 9.50617 12.7571C9.44523 12.9028 9.35618 13.035 9.24412 13.1462C9.13206 13.2574 8.99919 13.3455 8.85308 13.4053C8.70697 13.4652 8.5505 13.4956 8.39261 13.495C8.074 13.4924 7.76942 13.3635 7.54587 13.1365C7.32231 12.9094 7.19807 12.6029 7.20047 12.2843C7.20415 11.969 7.33161 11.6678 7.55538 11.4456C7.77915 11.2234 8.08129 11.0981 8.39662 11.0967C8.55442 11.0965 8.71071 11.1275 8.85655 11.1878C9.00239 11.248 9.13494 11.3364 9.24661 11.4479C9.35829 11.5594 9.44691 11.6918 9.50742 11.8376C9.56793 11.9833 9.59914 12.1395 9.59927 12.2973ZM8.39161 11.6965C8.234 11.6991 8.08373 11.7636 7.97321 11.876C7.86269 11.9884 7.80079 12.1397 7.80081 12.2973C7.80212 12.4552 7.86552 12.6062 7.97729 12.7177C8.08907 12.8292 8.24023 12.8922 8.39811 12.8931C8.4779 12.8931 8.5569 12.8773 8.63048 12.8464C8.70407 12.8156 8.77079 12.7704 8.82672 12.7135C8.88266 12.6565 8.92668 12.5891 8.95625 12.515C8.98582 12.4408 9.00033 12.3616 8.99893 12.2818C8.99474 12.1241 8.92869 11.9744 8.81506 11.865C8.70143 11.7556 8.54934 11.6952 8.39161 11.697V11.6965Z" fill="black"/>
<path d="M8.40196 16.7936C8.12108 16.7936 7.8397 16.7936 7.55881 16.7936C7.33701 16.7936 7.20332 16.6785 7.20132 16.4967C7.19931 16.315 7.3335 16.1963 7.5518 16.1963C8.1139 16.1943 8.67601 16.1943 9.23812 16.1963C9.45992 16.1963 9.59409 16.312 9.59559 16.4932C9.59709 16.6745 9.46241 16.7936 9.24511 16.7936C8.96422 16.7956 8.68335 16.7936 8.40196 16.7936Z" fill="black"/>
</svg>
