<svg width="24" height="24" viewBox="0 0 24 24" fill="none" xmlns="http://www.w3.org/2000/svg">
<rect width="24" height="24" rx="3" fill="#ECECEC"/>
<path d="M18.5648 4H18.9447C18.9804 4.01221 19.0154 4.02693 19.0518 4.03664C19.7367 4.21671 20.1408 4.90817 19.9531 5.57959C19.8832 5.83843 19.7313 6.06763 19.5201 6.23284C19.3089 6.39804 19.0499 6.49034 18.7818 6.4959C18.2181 6.50906 17.7332 6.16896 17.5632 5.62782C17.53 5.52322 17.4858 5.49097 17.3812 5.49566C17.2058 5.50381 17.0298 5.49785 16.8541 5.49785H16.2512V5.67667C16.2512 6.25748 16.2512 6.8385 16.2512 7.41973C16.2512 7.67026 16.1682 7.74981 15.9151 7.75012H14.4973V8.14314C14.4973 8.36924 14.6323 8.50171 14.8653 8.50202C15.5343 8.50202 16.2033 8.49952 16.8723 8.50484C16.9828 8.50484 17.0289 8.47603 17.0658 8.36642C17.1596 8.0674 17.3635 7.81519 17.6363 7.66088C17.9091 7.50656 18.2304 7.46167 18.535 7.53529C18.8204 7.60213 19.0733 7.76709 19.2495 8.00136C19.4257 8.23563 19.514 8.52433 19.499 8.81706C19.4677 9.42867 19.006 9.91063 18.3743 9.99393C17.8134 10.0678 17.245 9.69893 17.0655 9.13179C17.0317 9.025 16.985 8.99964 16.8829 9.00058C16.4043 9.00528 15.9258 9.00246 15.4472 9.00308C15.4062 9.00308 15.3652 9.00841 15.3219 9.01154C15.3247 9.02484 15.329 9.03777 15.3348 9.05006C15.8484 9.66104 16.1557 10.3591 16.2315 11.157C16.2349 11.1905 16.2941 11.2416 16.3298 11.245C16.4507 11.256 16.5735 11.2475 16.6956 11.25C16.9102 11.2544 16.9985 11.3405 17.0019 11.5532C17.005 11.7533 17.0019 11.9537 17.0019 12.1538C17.0019 12.348 17.0019 12.5418 17.0019 12.7529C17.1209 12.7529 17.2233 12.7435 17.3233 12.7551C17.4651 12.7714 17.5293 12.7275 17.5785 12.581C17.793 11.9409 18.499 11.6026 19.142 11.8153C19.4542 11.9177 19.7133 12.1393 19.863 12.4317C20.0127 12.7242 20.041 13.0639 19.9416 13.377C19.8434 13.6879 19.6272 13.9479 19.3395 14.1013C19.0518 14.2546 18.7154 14.289 18.4025 14.1972C17.9327 14.0572 17.6509 13.7312 17.5199 13.2518C17.2901 13.2518 17.0614 13.2518 16.8328 13.2518C16.5822 13.2518 16.5017 13.1694 16.5005 12.9157C16.5005 12.6026 16.5005 12.291 16.5005 11.9784V11.7686C16.255 11.7295 16.238 11.7373 16.2236 11.8792C16.1536 12.5978 15.8743 13.28 15.4203 13.8414C15.3852 13.8853 15.352 13.9307 15.3013 13.998H15.6163C15.9352 13.998 15.9988 14.0625 15.9988 14.3863C15.9988 15.3628 15.9988 16.3392 15.9988 17.3157V17.5036H16.1597C16.565 17.5036 16.9703 17.4989 17.3756 17.507C17.4892 17.5092 17.5322 17.4722 17.566 17.3664C17.6458 17.1104 17.8073 16.8877 18.0257 16.7322C18.2442 16.5767 18.5075 16.4969 18.7755 16.5052C19.0409 16.509 19.298 16.598 19.5089 16.759C19.7198 16.9201 19.8734 17.1446 19.9469 17.3996C20.0218 17.6543 20.0136 17.9263 19.9235 18.1761C19.8334 18.4259 19.6661 18.6405 19.4458 18.7888C19.223 18.9381 18.9581 19.0116 18.6902 18.9985C18.4224 18.9854 18.1659 18.8864 17.9587 18.7161C17.7301 18.532 17.5964 18.2887 17.5203 18.0021H15.8603C15.5722 18.0021 15.4983 17.9276 15.4983 17.636C15.4983 16.6496 15.4983 15.6633 15.4983 14.6773C15.4983 14.6212 15.4926 14.5652 15.4889 14.4985C15.2781 14.4985 15.0817 14.4906 14.8891 14.5019C14.7991 14.5059 14.7116 14.5326 14.6348 14.5796C14.3075 14.7969 13.9624 14.9751 13.5834 15.0806C13.3927 15.1345 13.1985 15.1768 12.9996 15.2259V15.6393C12.9996 15.929 12.9276 16.0004 12.6344 16.0007H12.008V16.5193L12.1214 16.5562C12.7647 16.7654 13.1283 17.4174 12.9608 18.0619C12.7932 18.7064 12.1581 19.1007 11.4957 18.9701C10.9632 18.8658 10.5401 18.3879 10.5075 17.8577C10.4706 17.258 10.8013 16.7438 11.3556 16.5685C11.4809 16.529 11.5122 16.4745 11.5047 16.3555C11.496 16.1851 11.5022 16.0139 11.5025 15.8429C11.5025 15.5707 11.5749 15.4984 11.8521 15.4984C12.0657 15.4984 12.2789 15.4984 12.501 15.4984C12.501 15.4398 12.501 15.4013 12.501 15.3628C12.501 15.3243 12.4941 15.2892 12.4904 15.25C11.6817 15.2331 10.9557 14.9995 10.3061 14.5298C10.2837 14.5114 10.2564 14.4999 10.2275 14.4966C9.9065 14.4941 9.58548 14.4966 9.25004 14.4966V14.6845C9.25004 15.6853 9.25004 16.6862 9.25004 17.6871C9.25004 17.9088 9.16079 17.998 8.93905 18.0002C8.50934 18.0002 8.07964 18.0002 7.64994 18.0002H7.48081C7.4639 18.0532 7.45231 18.0901 7.4401 18.1255C7.35793 18.386 7.19244 18.6123 6.96909 18.7696C6.74575 18.9269 6.47691 19.0065 6.20392 18.9961C5.65677 18.9801 5.17946 18.5927 5.03695 18.0503C5.02756 18.0137 5.01284 17.9786 5.00063 17.9426V17.5618C5.00987 17.5509 5.01708 17.5383 5.02192 17.5249C5.12089 16.943 5.63202 16.529 6.16508 16.5033C6.77769 16.4739 7.24435 16.7993 7.45294 17.4153C7.48206 17.5014 7.52873 17.5001 7.59325 17.4998C7.94465 17.4998 8.29606 17.4998 8.64715 17.4998C8.68205 17.4975 8.71678 17.493 8.75113 17.4863V17.3188C8.75113 16.3236 8.75113 15.3282 8.75113 14.3328C8.75113 14.0801 8.83224 13.9974 9.08186 13.9961C9.27917 13.9961 9.47648 13.9961 9.66941 13.9961C9.67474 13.9727 9.67818 13.9648 9.6763 13.9648C9.64091 13.9185 9.6049 13.8709 9.56856 13.8264C9.1398 13.29 8.86812 12.6452 8.7837 11.9637C8.75238 11.7248 8.75708 11.7241 8.49963 11.7696V11.9218C8.49963 12.2537 8.49963 12.5853 8.49963 12.9173C8.49963 13.1697 8.41757 13.2505 8.16608 13.2514C7.93776 13.2514 7.70913 13.2514 7.48144 13.2514L7.44135 13.3745C7.26314 13.916 6.76391 14.2698 6.20799 14.2492C5.93522 14.2385 5.67332 14.1394 5.46177 13.9669C5.25022 13.7944 5.10046 13.5578 5.03508 13.2928C5.02443 13.2514 5.01222 13.2104 5.00063 13.1675V12.8193C5.07611 12.6414 5.12591 12.4435 5.23239 12.2888C5.52429 11.8629 5.95023 11.6906 6.45385 11.7718C6.94118 11.8504 7.26815 12.1444 7.4379 12.6113C7.45669 12.6633 7.49772 12.7422 7.53499 12.746C7.68313 12.7617 7.83409 12.7526 7.99789 12.7526V12.5753C7.99789 12.2334 7.9957 11.8917 7.99789 11.5497C8.00009 11.344 8.08904 11.2563 8.29355 11.251C8.4157 11.2475 8.53816 11.255 8.65967 11.2466C8.69726 11.2441 8.75896 11.2096 8.76397 11.1814C8.78871 11.0443 8.79779 10.9043 8.81408 10.749H8.64057C8.03015 10.749 7.41911 10.749 6.80932 10.749C6.58508 10.749 6.49957 10.6616 6.49613 10.4389C6.49613 10.288 6.49613 10.137 6.49613 9.98422C6.43725 9.96418 6.38651 9.94727 6.3364 9.92973C5.76764 9.73024 5.41561 9.14682 5.51395 8.56779C5.62044 7.94146 6.12155 7.50742 6.74167 7.50303C7.03735 7.50227 7.3238 7.60594 7.55048 7.79576C7.77716 7.98558 7.92952 8.24935 7.98067 8.54054C8.03031 8.83218 7.97483 9.13198 7.82411 9.38654C7.67338 9.64111 7.43719 9.83393 7.1576 9.93067C6.97344 9.9933 6.95872 10.0284 7.02292 10.2495C7.64492 10.2495 8.26975 10.2495 8.89426 10.246C8.91587 10.2422 8.9363 10.2334 8.95391 10.2203C8.97153 10.2072 8.98585 10.1902 8.99573 10.1706C9.36989 9.22981 10.0126 8.53981 10.9238 8.10055C10.9419 8.09173 10.9578 8.07906 10.9706 8.06343C10.9833 8.0478 10.9924 8.02958 10.9974 8.01005C11.0049 7.84626 11.0008 7.68185 11.0008 7.50116H10.8254C10.3274 7.50116 9.82935 7.50116 9.33116 7.50116C9.07685 7.50116 9.00012 7.42318 8.99949 7.16732C8.99949 6.6694 8.99949 6.17116 8.99949 5.67323C8.99949 5.61749 8.99323 5.56174 8.98916 5.50005C8.52719 5.50005 8.08308 5.50443 7.63898 5.49723C7.51714 5.49504 7.46672 5.53042 7.4282 5.65036C7.35043 5.89109 7.19982 6.10174 6.99718 6.2532C6.79454 6.40466 6.54986 6.48947 6.29694 6.4959C5.76451 6.51187 5.29158 6.2103 5.09396 5.72552C5.05606 5.63158 5.03132 5.53293 5 5.43616V5.05536C5.01221 5.01966 5.026 4.98458 5.03633 4.94826C5.16505 4.50012 5.4463 4.19854 5.89292 4.05449C5.9471 4.03727 6.00097 4.01879 6.05484 4.00063H6.436C6.51429 4.02505 6.59259 4.04604 6.67058 4.07453C7.10059 4.23581 7.35961 4.54929 7.47893 4.99899H9.14857C9.42481 4.99899 9.50185 5.07697 9.50217 5.3585C9.50217 5.85121 9.50217 6.34402 9.50217 6.83694C9.50217 6.88798 9.50718 6.93934 9.51 6.99884H9.68727C10.1849 6.99884 10.6829 6.99884 11.1806 6.99884C11.4127 6.99884 11.5003 7.0881 11.5019 7.3167C11.5019 7.50116 11.5019 7.68592 11.5019 7.88353L11.7481 7.82309V7.63989C11.7481 6.86888 11.7481 6.09798 11.7481 5.32718C11.7481 5.08573 11.8352 4.99993 12.0735 4.99868C12.2232 4.99868 12.3729 4.99868 12.5232 4.99868C12.6219 4.5972 12.8436 4.3069 13.2013 4.12934C13.3128 4.07391 13.4365 4.04259 13.5549 4.00031H13.9357C13.9671 4.01096 13.9984 4.02411 14.0297 4.03163C14.2737 4.08863 14.4951 4.21723 14.6654 4.40092C14.8358 4.58461 14.9474 4.81501 14.9859 5.06256C15.0229 5.313 14.9833 5.56878 14.8723 5.79631C14.7613 6.02385 14.5841 6.21248 14.3639 6.33744C14.1438 6.46148 13.8914 6.5159 13.6398 6.49354C13.3881 6.47118 13.1492 6.37308 12.9545 6.21218C12.7265 6.02741 12.5953 5.78221 12.5217 5.50694H12.2598V7.75764C12.8618 7.72287 13.4321 7.82778 13.999 8.06234C13.999 7.87444 13.9971 7.71035 13.999 7.54594C14.0025 7.34363 14.093 7.25344 14.2984 7.25282C14.7278 7.25282 15.1575 7.25282 15.5869 7.25282H15.752V7.074C15.752 6.48839 15.752 5.90277 15.752 5.31716C15.752 5.08636 15.8384 5.00149 16.072 5.00055C16.3057 4.99961 16.5309 5.00055 16.7611 5.00055H17.5234C17.6236 4.60565 17.8391 4.3116 18.198 4.13466C18.3126 4.07547 18.4414 4.04353 18.5648 4ZM9.24817 11.4934C9.24504 13.2859 10.7008 14.748 12.4919 14.7502C14.2831 14.7524 15.7463 13.2947 15.7491 11.5049C15.7491 10.6433 15.4077 9.81671 14.7994 9.20628C14.1912 8.59584 13.3659 8.25128 12.5041 8.24805C11.6423 8.24771 10.8155 8.58919 10.2051 9.19758C9.59471 9.80597 9.25057 10.6316 9.24817 11.4934ZM18.7445 5.99672C18.8435 5.99789 18.9417 5.97937 19.0335 5.94226C19.1252 5.90516 19.2087 5.85019 19.2791 5.78056C19.3494 5.71092 19.4052 5.62801 19.4432 5.53663C19.4813 5.44526 19.5008 5.34724 19.5006 5.24826C19.499 5.05104 19.4202 4.86228 19.2812 4.72235C19.1422 4.58242 18.954 4.50243 18.7567 4.49949C18.6578 4.49883 18.5598 4.51781 18.4683 4.55535C18.3768 4.59288 18.2937 4.64822 18.2238 4.71814C18.1538 4.78807 18.0985 4.87119 18.0609 4.96268C18.0234 5.05416 18.0044 5.1522 18.0051 5.25108C18.0044 5.34867 18.023 5.44543 18.0598 5.53581C18.0966 5.62618 18.151 5.70838 18.2197 5.77768C18.2884 5.84698 18.3702 5.902 18.4602 5.9396C18.5503 5.97719 18.6469 5.9966 18.7445 5.99672ZM11.0017 17.7491C11.0012 17.8479 11.0203 17.9459 11.0579 18.0373C11.0955 18.1287 11.1509 18.2118 11.2208 18.2816C11.2907 18.3515 11.3737 18.4069 11.4652 18.4445C11.5566 18.4821 11.6546 18.5012 11.7534 18.5007C11.9507 18.498 12.1392 18.4181 12.2783 18.2781C12.4174 18.1381 12.4961 17.9492 12.4976 17.7519C12.4979 17.6529 12.4786 17.5548 12.4407 17.4634C12.4027 17.3719 12.347 17.2889 12.2766 17.2192C12.2063 17.1496 12.1227 17.0946 12.0309 17.0576C11.9391 17.0205 11.8408 17.0021 11.7418 17.0034C11.6442 17.0035 11.5475 17.0228 11.4573 17.0604C11.3672 17.0979 11.2854 17.153 11.2166 17.2223C11.1478 17.2916 11.0934 17.3738 11.0565 17.4642C11.0197 17.5546 11.001 17.6514 11.0017 17.7491ZM6.99505 17.7563C6.99662 17.6586 6.97884 17.5616 6.94272 17.4709C6.9066 17.3801 6.85286 17.2974 6.78461 17.2275C6.71636 17.1577 6.63494 17.102 6.54505 17.0637C6.45517 17.0255 6.3586 17.0054 6.26092 17.0047C6.16195 17.0024 6.0635 17.0198 5.97134 17.056C5.87918 17.0921 5.79514 17.1463 5.72412 17.2153C5.6531 17.2842 5.59653 17.3666 5.55771 17.4577C5.51888 17.5488 5.49858 17.6466 5.49798 17.7456C5.49756 17.9455 5.57648 18.1374 5.71741 18.2791C5.85834 18.4208 6.04976 18.5009 6.24965 18.5016C6.44714 18.5009 6.63635 18.4222 6.77599 18.2826C6.91564 18.1429 6.99439 17.9538 6.99505 17.7563ZM18.7552 17.0047C18.6575 17.0031 18.5604 17.0208 18.4696 17.057C18.3788 17.0931 18.2961 17.1468 18.2262 17.2151C18.1563 17.2834 18.1006 17.3649 18.0624 17.4548C18.0242 17.5447 18.0042 17.6413 18.0035 17.7391C18.0014 17.838 18.019 17.9364 18.0552 18.0285C18.0914 18.1206 18.1456 18.2046 18.2146 18.2755C18.2836 18.3465 18.366 18.4031 18.457 18.442C18.548 18.4808 18.6459 18.5012 18.7448 18.5019C18.9446 18.5019 19.1362 18.4229 19.2778 18.282C19.4194 18.1412 19.4995 17.95 19.5006 17.7503C19.5003 17.5529 19.422 17.3636 19.2826 17.2237C19.1433 17.0838 18.9542 17.0047 18.7567 17.0038L18.7552 17.0047ZM6.99473 5.25578C6.99594 5.15678 6.97743 5.05853 6.94029 4.96675C6.90314 4.87497 6.84811 4.79151 6.77838 4.72121C6.70866 4.65091 6.62564 4.59518 6.53417 4.55728C6.44269 4.51937 6.34459 4.50005 6.24557 4.50043C6.04826 4.50222 5.85948 4.5812 5.71969 4.72045C5.57989 4.8597 5.5002 5.04816 5.49767 5.24545C5.49708 5.34431 5.51613 5.4423 5.5537 5.53375C5.59127 5.6252 5.64661 5.70829 5.71653 5.7782C5.78644 5.84811 5.86953 5.90345 5.96099 5.94101C6.05245 5.97858 6.15046 5.99762 6.24933 5.99704C6.34715 5.99774 6.44414 5.97905 6.53469 5.94203C6.62524 5.90502 6.70755 5.85043 6.77687 5.78141C6.84619 5.71239 6.90113 5.63032 6.93853 5.53994C6.97592 5.44956 6.99502 5.35265 6.99473 5.25484V5.25578ZM13.7456 5.99798C13.8435 5.99943 13.9407 5.98146 14.0316 5.94513C14.1225 5.90879 14.2053 5.8548 14.2752 5.78628C14.3451 5.71776 14.4007 5.63607 14.4388 5.54593C14.4769 5.45579 14.4968 5.35898 14.4973 5.26111C14.4992 5.16214 14.4814 5.06377 14.4449 4.97175C14.4085 4.87972 14.354 4.79587 14.2849 4.72508C14.2157 4.65429 14.1331 4.59797 14.0419 4.5594C13.9507 4.52084 13.8528 4.50079 13.7538 4.50043C13.5542 4.50101 13.3629 4.58073 13.222 4.7221C13.0811 4.86346 13.002 5.05494 13.0021 5.25453C13.0034 5.45121 13.0822 5.63945 13.2214 5.77844C13.3606 5.91743 13.5489 5.99597 13.7456 5.99704V5.99798ZM6.74919 8.00222C6.55181 8.00162 6.36217 8.0789 6.22144 8.21727C6.08071 8.35564 6.00024 8.54394 5.99752 8.74128C5.99693 8.94123 6.07536 9.13331 6.21573 9.27572C6.3561 9.41813 6.54704 9.49933 6.747 9.50164C6.84597 9.5014 6.94391 9.48156 7.03517 9.44329C7.12644 9.40501 7.20922 9.34905 7.27875 9.27863C7.34828 9.2082 7.40317 9.12471 7.44027 9.03297C7.47737 8.94123 7.49594 8.84305 7.49491 8.7441C7.49491 8.64637 7.47559 8.54961 7.43806 8.45937C7.40054 8.36913 7.34554 8.2872 7.27624 8.21828C7.20694 8.14937 7.12471 8.09483 7.03426 8.0578C6.94381 8.02078 6.84693 8.00199 6.74919 8.00253V8.00222ZM17.504 8.74817C17.5034 8.94536 17.5805 9.13484 17.7187 9.27554C17.8569 9.41623 18.045 9.49679 18.2422 9.49976C18.4423 9.50001 18.6345 9.42116 18.7767 9.28038C18.919 9.13959 18.9998 8.9483 19.0017 8.74817C19.0016 8.6492 18.9819 8.55122 18.9438 8.4599C18.9056 8.36858 18.8497 8.28572 18.7794 8.21611C18.709 8.14649 18.6256 8.0915 18.5339 8.0543C18.4421 8.01711 18.344 7.99844 18.245 7.9994C18.147 7.99931 18.0499 8.01867 17.9595 8.05637C17.869 8.09406 17.787 8.14934 17.718 8.21899C17.6491 8.28864 17.5947 8.37128 17.5579 8.46212C17.5212 8.55296 17.5028 8.65019 17.504 8.74817ZM18.0051 12.9997C18.0046 13.197 18.0819 13.3866 18.2202 13.5273C18.3586 13.668 18.5469 13.7484 18.7442 13.7513C18.9442 13.7513 19.1361 13.6724 19.2782 13.5316C19.4202 13.3908 19.5008 13.1996 19.5025 12.9997C19.5025 12.9006 19.4829 12.8026 19.4447 12.7113C19.4065 12.6199 19.3505 12.5371 19.28 12.4675C19.2095 12.398 19.1259 12.3432 19.034 12.3063C18.9422 12.2693 18.8439 12.251 18.7448 12.2525C18.6468 12.2522 18.5498 12.2713 18.4592 12.3089C18.3687 12.3465 18.2865 12.4016 18.2175 12.4712C18.1485 12.5408 18.094 12.6234 18.0572 12.7142C18.0205 12.8051 18.0021 12.9023 18.0032 13.0003L18.0051 12.9997ZM6.24871 12.2528C6.05125 12.2521 5.86157 12.3297 5.72122 12.4686C5.58086 12.6074 5.50126 12.7963 5.49986 12.9937C5.4996 13.1937 5.57853 13.3856 5.71938 13.5275C5.86023 13.6695 6.05155 13.7499 6.25152 13.7513C6.35049 13.7507 6.44838 13.7306 6.53953 13.6921C6.63069 13.6535 6.71331 13.5973 6.78264 13.5267C6.85196 13.4561 6.90662 13.3724 6.94345 13.2806C6.98028 13.1887 6.99856 13.0905 6.99724 12.9915C6.997 12.8936 6.97734 12.7967 6.93939 12.7065C6.90144 12.6163 6.84596 12.5344 6.77617 12.4658C6.70637 12.3971 6.62365 12.343 6.53278 12.3066C6.44192 12.2701 6.34472 12.252 6.24682 12.2534L6.24871 12.2528Z" fill="black"/>
</svg>
