<svg width="24" height="25" viewBox="0 0 24 25" fill="none" xmlns="http://www.w3.org/2000/svg">
<rect y="0.887207" width="24" height="24" rx="3" fill="#ECECEC"/>
<path d="M12.4144 19.8871C12.282 19.8023 12.2475 19.6784 12.249 19.5257C12.2547 18.9503 12.2513 18.3746 12.2513 17.7991V17.6386C11.9954 17.6052 11.7546 17.5765 11.5147 17.5419C11.331 17.5154 11.2288 17.4006 11.2482 17.2569C11.2697 17.0985 11.397 17.013 11.5873 17.0485C12.1879 17.1624 12.8045 17.1629 13.4052 17.0498C13.5901 17.015 13.716 17.0953 13.7387 17.246C13.7632 17.4061 13.6707 17.5145 13.4754 17.5428C13.2403 17.5772 13.0043 17.6052 12.7531 17.638V17.7982C12.7531 18.3738 12.7497 18.9494 12.7553 19.5248C12.7569 19.6774 12.7221 19.8009 12.59 19.8864L12.4144 19.8871Z" fill="black"/>
<path d="M5.00028 12.2984C5.08167 12.1712 5.19881 12.132 5.3469 12.1333C5.92723 12.1383 6.50757 12.1353 7.08776 12.1353H7.22835C7.29802 11.7538 7.36302 11.3908 7.43127 11.0286C7.44769 10.9524 7.46864 10.8773 7.494 10.8036C7.55053 10.6243 7.67233 10.5405 7.81406 10.5807C7.96793 10.6242 8.02177 10.7584 7.97472 10.9465C7.91226 11.1965 7.84755 11.4469 7.80515 11.7008C7.7711 11.9065 7.76474 12.1173 7.75428 12.3263C7.7434 12.5468 7.66187 12.6358 7.43876 12.6364C6.73224 12.6383 6.02459 12.6352 5.31751 12.6386C5.1779 12.6386 5.07517 12.5882 5 12.4741L5.00028 12.2984Z" fill="black"/>
<path d="M12.5096 16.1364C10.4376 16.1402 8.75168 14.4579 8.75098 12.3864C8.75098 10.3198 10.4278 8.63942 12.4935 8.63575C14.5645 8.63222 16.2531 10.3173 16.2522 12.3865C16.2532 14.4528 14.5761 16.1326 12.5096 16.1364ZM13.7404 11.0919C13.7404 10.9034 13.7591 10.6923 13.737 10.4856C13.6692 9.85195 13.1369 9.38748 12.5 9.38889C11.8691 9.39017 11.3374 9.85166 11.2693 10.4758C11.2461 10.687 11.2656 10.9031 11.2656 11.1153C11.2116 11.1295 11.1844 11.1381 11.1564 11.1436C10.7411 11.2253 10.5064 11.4997 10.5053 11.9174C10.5027 12.6541 10.5016 13.3909 10.5053 14.1276C10.5078 14.5565 10.8144 14.8766 11.2378 14.8804C12.0819 14.8875 12.9261 14.8875 13.7704 14.8804C14.1801 14.8767 14.4935 14.5609 14.4971 14.1527C14.5036 13.3916 14.5008 12.6304 14.4979 11.8692C14.4971 11.6115 14.3826 11.4029 14.1666 11.2682C14.0508 11.1952 13.9095 11.1603 13.74 11.0922L13.7404 11.0919Z" fill="black"/>
<path d="M10.2498 18.6343C10.2498 18.2721 10.2248 17.9245 10.257 17.5821C10.2877 17.2557 10.1923 17.0712 9.8847 16.921C9.36371 16.6666 8.93344 16.2773 8.55037 15.8406C8.42828 15.7014 8.41924 15.5537 8.52677 15.4519C8.64335 15.3412 8.78917 15.357 8.92101 15.507C9.37266 16.0227 9.92955 16.4357 10.5542 16.7182C10.692 16.7808 10.752 16.8758 10.7509 17.0261C10.7474 17.5532 10.7509 18.0805 10.7489 18.6076C10.7472 18.936 10.5492 19.1328 10.2159 19.1341C9.50299 19.1369 8.79016 19.1369 8.07743 19.1341C7.99123 19.1341 7.92722 19.1482 7.86293 19.2217C7.67118 19.4397 7.34887 19.4413 7.14638 19.2388C7.09945 19.1923 7.06227 19.1369 7.03705 19.0758C7.01183 19.0148 6.99908 18.9493 6.99952 18.8832C6.99997 18.8172 7.01362 18.7519 7.03966 18.6912C7.06571 18.6305 7.10362 18.5756 7.15118 18.5297C7.35028 18.3367 7.66468 18.3445 7.86265 18.543C7.90052 18.5812 7.95322 18.6302 7.99943 18.6305C8.74113 18.636 9.48311 18.6343 10.2498 18.6343Z" fill="black"/>
<path d="M17.2455 10.1337C17.5441 10.7766 17.7048 11.4348 17.7479 12.1351H17.9913C18.543 12.1351 19.0947 12.1351 19.6466 12.1351C19.7048 12.1351 19.765 12.1351 19.8208 12.1492C19.9392 12.1797 20.0015 12.2652 20.0014 12.3849C20.0012 12.5046 19.9392 12.5902 19.8205 12.6206C19.7648 12.6347 19.7045 12.6347 19.6463 12.6347C18.968 12.6356 18.2893 12.6356 17.6102 12.6347C17.3289 12.6347 17.257 12.5603 17.2506 12.2803C17.2348 11.4999 17.0324 10.7697 16.6622 10.0834C16.6227 10.0102 16.5892 9.91846 16.5958 9.83891C16.6073 9.6993 16.7196 9.63289 16.9015 9.63246C17.4141 9.63119 17.9268 9.63501 18.4394 9.62822C18.5123 9.62393 18.5815 9.59423 18.6348 9.54429C18.839 9.34378 19.1609 9.33233 19.3589 9.53016C19.4057 9.5768 19.4427 9.63231 19.4678 9.69344C19.493 9.75457 19.5056 9.82009 19.5051 9.88617C19.5046 9.95225 19.491 10.0176 19.4649 10.0783C19.4389 10.1391 19.401 10.194 19.3535 10.2399C19.1533 10.4351 18.8377 10.4334 18.647 10.2221C18.5791 10.1468 18.5119 10.1286 18.4193 10.1294C18.0361 10.1356 17.6521 10.1337 17.2455 10.1337Z" fill="black"/>
<path d="M14.7553 6.14698C14.7553 6.63165 14.7524 7.09993 14.7599 7.56807C14.7599 7.61272 14.8174 7.67433 14.8636 7.69793C15.3652 7.95192 15.8236 8.28345 16.2218 8.68027C16.352 8.81027 16.3623 8.9592 16.2528 9.06659C16.1433 9.17398 16.0001 9.16169 15.8669 9.03028C15.51 8.67815 15.112 8.38297 14.6641 8.15618C14.2402 7.94139 14.2525 8.04031 14.2543 7.48569C14.2563 7.05133 14.2543 6.61682 14.2552 6.18245C14.2565 5.83329 14.4492 5.63928 14.7998 5.63829C15.5126 5.63617 16.2254 5.63985 16.9381 5.63377C17.0042 5.63377 17.0858 5.59562 17.1332 5.54899C17.3397 5.34339 17.6514 5.33081 17.8554 5.53161C17.9025 5.57789 17.9399 5.63308 17.9654 5.69396C17.991 5.75484 18.0041 5.82019 18.0041 5.88621C18.0041 5.95222 17.991 6.01758 17.9654 6.07846C17.9399 6.13934 17.9025 6.19453 17.8554 6.24081C17.6528 6.43991 17.3388 6.42903 17.1337 6.22258C17.0941 6.18273 17.0314 6.14275 16.9789 6.14246C16.2662 6.13723 15.5535 6.13893 14.8407 6.13935C14.8184 6.13879 14.795 6.14303 14.7553 6.14698Z" fill="black"/>
<path d="M14.7554 18.6345H15.8285C16.2046 18.6345 16.5808 18.6378 16.9566 18.6311C17.0209 18.6272 17.0818 18.6006 17.1283 18.5561C17.336 18.3467 17.6447 18.33 17.8501 18.527C17.8992 18.5731 17.9383 18.6289 17.965 18.6907C17.9918 18.7525 18.0055 18.8192 18.0055 18.8866C18.0055 18.954 17.9918 19.0206 17.965 19.0825C17.9383 19.1443 17.8992 19.2 17.8501 19.2462C17.6434 19.4447 17.3362 19.4282 17.1295 19.2179C17.0797 19.1703 17.0145 19.1421 16.9458 19.1384C16.2425 19.1329 15.5391 19.1354 14.8358 19.1347C14.439 19.1347 14.2565 18.9498 14.2556 18.5514C14.2556 18.0533 14.2597 17.5551 14.2532 17.0571C14.251 16.8832 14.3147 16.7768 14.4761 16.7053C14.9903 16.4779 15.4419 16.1569 15.8449 15.7655C15.8986 15.7132 15.967 15.6637 16.0373 15.6437C16.1477 15.6123 16.2415 15.6663 16.2941 15.7662C16.3529 15.8778 16.3343 15.9911 16.2397 16.0731C15.9927 16.2867 15.7485 16.5056 15.4855 16.6984C15.2862 16.8446 15.0582 16.9517 14.8464 17.0817C14.8077 17.1055 14.7599 17.1556 14.7594 17.1948C14.7533 17.6671 14.7554 18.1401 14.7554 18.6345Z" fill="black"/>
<path d="M10.7493 7.42256C10.9851 7.36166 11.2006 7.30231 11.418 7.25102C11.5786 7.21329 11.707 7.28522 11.7406 7.42058C11.7775 7.56881 11.6983 7.68355 11.5329 7.73442C11.2305 7.82725 10.9279 7.91995 10.6286 8.02084C10.4073 8.09531 10.2539 7.99258 10.2512 7.7494C10.2472 7.39289 10.25 7.03652 10.25 6.68001V6.14659C10.1896 6.1432 10.1424 6.13854 10.0946 6.13854C9.42073 6.13854 8.74671 6.13854 8.07269 6.13684C7.98508 6.13684 7.92249 6.15592 7.85876 6.22615C7.66531 6.43895 7.33876 6.43612 7.14094 6.23194C7.09542 6.18572 7.05945 6.13098 7.0351 6.07085C7.01076 6.01072 6.9985 5.94638 6.99904 5.88151C6.99958 5.81664 7.0129 5.75251 7.03824 5.69279C7.06358 5.63307 7.10045 5.57894 7.14673 5.53348C7.35105 5.33071 7.67224 5.33254 7.863 5.55171C7.92757 5.62589 7.99215 5.63861 8.07792 5.63847C8.77634 5.63696 9.47475 5.63696 10.1732 5.63847C10.5629 5.63847 10.7486 5.824 10.7493 6.21103C10.7498 6.61035 10.7493 7.01052 10.7493 7.42256Z" fill="black"/>
<path d="M7.33726 10.1337C7.15173 10.1337 6.96634 10.1359 6.78095 10.133C6.59725 10.1304 6.43602 10.1299 6.2813 10.2851C6.09676 10.47 5.77261 10.4035 5.60643 10.1935C5.52828 10.0949 5.49047 9.97032 5.50065 9.84492C5.51083 9.71952 5.56823 9.60265 5.66126 9.51794C5.85908 9.33976 6.1684 9.34103 6.34785 9.53674C6.41851 9.61417 6.48774 9.63706 6.58651 9.63565C7.01594 9.63127 7.4455 9.62816 7.87478 9.6372C7.99969 9.63989 8.06455 9.5958 8.12912 9.49491C8.44617 9.0009 8.84856 8.56722 9.31749 8.21414C9.46882 8.0994 9.62468 8.11664 9.71087 8.25243C9.78605 8.37084 9.75651 8.50268 9.61959 8.6088C9.20755 8.92843 8.85104 9.29991 8.56194 9.73428C8.26096 10.1864 8.40325 10.1299 7.80568 10.1332C7.64982 10.1344 7.4934 10.1337 7.33726 10.1337Z" fill="black"/>
<path d="M17.2552 14.6385C17.6867 14.6385 18.0999 14.6407 18.5128 14.6353C18.5513 14.6353 18.5957 14.594 18.6267 14.5615C18.8361 14.3409 19.1482 14.327 19.3556 14.5323C19.4029 14.5783 19.4405 14.6334 19.4663 14.6942C19.492 14.7549 19.5053 14.8203 19.5055 14.8863C19.5056 14.9523 19.4926 15.0176 19.4671 15.0785C19.4416 15.1394 19.4043 15.1946 19.3572 15.2409C19.1543 15.4421 18.8334 15.4255 18.6247 15.2126C18.5775 15.1693 18.5163 15.1443 18.4523 15.142C17.9402 15.1366 17.428 15.1396 16.9158 15.1386C16.6162 15.1386 16.5097 14.9613 16.6528 14.7006C16.8763 14.2921 17.0448 13.8632 17.1407 13.4068C17.1457 13.3831 17.1527 13.3596 17.1598 13.3361C17.2044 13.1893 17.3183 13.1175 17.4592 13.1472C17.592 13.1755 17.6833 13.3049 17.6421 13.4478C17.5422 13.7933 17.4287 14.1348 17.3195 14.4774C17.3039 14.5259 17.2815 14.5734 17.2552 14.6385Z" fill="black"/>
<path d="M7.7452 14.6388C7.67342 14.4518 7.5998 14.2828 7.54399 14.1082C7.47574 13.8952 7.41681 13.6788 7.36439 13.4614C7.3261 13.3047 7.40678 13.1753 7.54399 13.1461C7.68981 13.1153 7.80978 13.1884 7.84581 13.3491C7.95546 13.8394 8.13451 14.3115 8.37754 14.7513C8.49058 14.9573 8.36665 15.1362 8.11853 15.1374C7.60635 15.1402 7.09408 15.1402 6.58171 15.1374C6.49029 15.1374 6.42317 15.1516 6.35464 15.2284C6.16896 15.4357 5.84284 15.4349 5.64727 15.2426C5.60024 15.1963 5.56289 15.141 5.5374 15.0802C5.51191 15.0193 5.49878 14.9539 5.49878 14.8879C5.49878 14.8219 5.51191 14.7565 5.5374 14.6957C5.56289 14.6348 5.60024 14.5796 5.64727 14.5332C5.84651 14.3354 6.16359 14.3339 6.35266 14.5445C6.42486 14.6251 6.4965 14.6418 6.59287 14.6409C6.97227 14.6368 7.35153 14.6388 7.7452 14.6388Z" fill="black"/>
<path d="M12.7533 7.13345C13.0096 7.16708 13.2463 7.19506 13.482 7.22982C13.6758 7.25808 13.7738 7.37366 13.7452 7.52811C13.717 7.68001 13.5964 7.74656 13.4091 7.72593C13.1188 7.69329 12.8279 7.66362 12.5368 7.6396C12.3451 7.62377 12.2533 7.54068 12.2526 7.34286C12.2501 6.6207 12.2501 5.89846 12.2526 5.17611C12.2526 4.99765 12.3496 4.89082 12.4965 4.88729C12.6483 4.88376 12.7509 4.99496 12.7519 5.17965C12.7547 5.77015 12.7531 6.36066 12.7531 6.95103L12.7533 7.13345Z" fill="black"/>
<path d="M12.4936 14.3842C12.0979 14.3842 11.7023 14.3853 11.3066 14.3842C11.0887 14.3833 11.0048 14.2994 11.0045 14.0836C11.0034 13.3708 11.0034 12.6579 11.0045 11.9449C11.0045 11.7217 11.0893 11.636 11.3168 11.6355C12.1081 11.6339 12.8994 11.6339 13.6907 11.6355C13.9168 11.6355 14.0001 11.7224 14.0004 11.9474C14.0014 12.6554 14.0014 13.3635 14.0004 14.0716C14.0004 14.3049 13.9189 14.3838 13.6805 14.3843C13.2849 14.3849 12.8892 14.3842 12.4936 14.3842ZM13.2529 12.8937C13.2493 12.5178 12.987 12.2078 12.635 12.1485C12.2734 12.0876 11.9285 12.2816 11.8013 12.6176C11.7375 12.7832 11.7352 12.9662 11.7946 13.1334C11.854 13.3006 11.9713 13.441 12.1253 13.5292C12.2004 13.5724 12.2525 13.6113 12.2703 13.7075C12.2918 13.8252 12.3858 13.8848 12.5077 13.8821C12.6296 13.8794 12.6993 13.8115 12.7442 13.6984C12.7681 13.6389 12.8129 13.5749 12.8662 13.543C13.1161 13.3888 13.2412 13.1687 13.2529 12.8943V12.8937Z" fill="black"/>
<path d="M13.2464 11.1246H11.741C11.7526 10.894 11.7403 10.6673 11.7804 10.4503C11.844 10.1067 12.176 9.87717 12.5379 9.89017C12.8861 9.90275 13.189 10.1626 13.2357 10.5057C13.2572 10.6642 13.2498 10.8267 13.2539 10.9875C13.255 11.0302 13.2494 11.0732 13.2464 11.1246Z" fill="black"/>
<path d="M12.4993 13.1341C12.4666 13.1336 12.4342 13.1266 12.4042 13.1135C12.3742 13.1004 12.347 13.0815 12.3244 13.0578C12.3017 13.0341 12.284 13.0062 12.2722 12.9757C12.2604 12.9451 12.2548 12.9125 12.2557 12.8798C12.2562 12.847 12.2633 12.8146 12.2766 12.7846C12.2899 12.7547 12.3091 12.7277 12.3331 12.7054C12.3571 12.683 12.3854 12.6657 12.4162 12.6546C12.4471 12.6435 12.4799 12.6387 12.5126 12.6405C12.5763 12.6422 12.6368 12.6688 12.6811 12.7146C12.7254 12.7605 12.7498 12.822 12.7491 12.8857C12.7492 12.9184 12.7428 12.9509 12.7303 12.9812C12.7177 13.0114 12.6993 13.0389 12.6761 13.062C12.6528 13.0851 12.6252 13.1034 12.5949 13.1158C12.5646 13.1281 12.5321 13.1344 12.4993 13.1341Z" fill="black"/>
</svg>
