<svg width="24" height="24" viewBox="0 0 24 24" fill="none" xmlns="http://www.w3.org/2000/svg">
<rect width="24" height="24" rx="3" fill="#ECECEC"/>
<path d="M16.8122 17.4357C16.9189 17.4357 17.0261 17.4357 17.1328 17.4357C17.3416 17.4423 17.4668 17.5455 17.4688 17.7486C17.476 18.395 17.476 19.0413 17.4688 19.6877C17.4663 19.8929 17.3365 19.9955 17.1097 19.9955C16.8153 20.0006 16.5208 19.9955 16.2264 19.9955H12.6719C12.3092 19.9955 12.222 19.9062 12.222 19.5384C12.222 18.9946 12.222 18.4509 12.222 17.9071C12.222 17.5085 12.2887 17.4398 12.6837 17.43C12.7088 17.43 12.735 17.4259 12.7919 17.4208V17.2274C12.7919 16.7606 12.8196 16.2912 12.7863 15.8269C12.7114 14.7938 13.587 13.4913 14.8931 13.182C14.9475 13.1627 15.0043 13.1511 15.0619 13.1476C15.442 13.1671 15.7031 12.9676 15.9499 12.707C16.2129 12.427 16.4923 12.1629 16.7865 11.9159C16.9481 11.781 17.158 11.7046 17.3416 11.5943C17.4077 11.5548 17.4653 11.5025 17.5109 11.4404C17.554 11.3788 17.5653 11.2968 17.6017 11.2301C17.7802 10.9002 17.7946 10.5775 17.6992 10.2041C17.436 9.16478 17.9875 8.06801 18.9565 7.59658C19.3115 7.42421 19.6747 7.60119 19.7455 7.98747C20.0942 9.88456 20.1442 11.8245 19.8937 13.737C19.8424 14.1187 19.6552 14.4321 19.3807 14.6999C18.5921 15.4677 17.807 16.2389 17.0256 17.0135C16.9194 17.1161 16.8507 17.2618 16.7645 17.3869L16.8122 17.4357ZM19.1596 8.18651C19.0868 8.23012 19.0365 8.25679 18.9903 8.28911C18.6908 8.49654 18.4653 8.79404 18.3464 9.1384C18.2275 9.48276 18.2214 9.85606 18.3291 10.2041C18.4384 10.5596 18.4317 10.8935 18.2701 11.2301C18.2029 11.3722 18.1496 11.5209 18.0921 11.662C18.6374 12.0693 18.7133 12.6649 18.3019 13.1933C18.2706 13.2338 18.2378 13.2728 18.2039 13.3113C17.7323 13.8427 17.2609 14.3742 16.7896 14.9056C16.6244 15.0913 16.4341 15.1226 16.2925 14.9897C16.151 14.8569 16.1679 14.682 16.3305 14.4998C16.8004 13.9679 17.2759 13.4395 17.7387 12.9009C17.8329 12.7902 17.9006 12.6595 17.9367 12.5187C17.9823 12.3304 17.8792 12.2145 17.6868 12.1847C17.4945 12.155 17.3401 12.2278 17.2021 12.3602C16.8235 12.7239 16.4393 13.0809 16.0607 13.4441C15.893 13.6148 15.6658 13.7141 15.4266 13.7211C15.3436 13.7261 15.261 13.7368 15.1794 13.7529C14.1534 13.9191 13.328 14.9467 13.4013 15.8321C13.4398 16.2938 13.408 16.7657 13.4085 17.233C13.4085 17.2951 13.4147 17.3572 13.4178 17.4275H16.1766C16.193 17.0263 16.4069 16.7462 16.6788 16.4841C17.4442 15.7469 18.1967 14.9964 18.9565 14.2546C19.1521 14.0762 19.2732 13.8306 19.2956 13.5667C19.3176 13.2989 19.3535 13.0327 19.3766 12.7649C19.5034 11.2358 19.4305 9.69675 19.1596 8.18651ZM16.8512 18.0651H12.8514V19.3696H16.8491L16.8512 18.0651Z" fill="black"/>
<path d="M10.2634 17.4213C10.8277 17.4725 10.8354 17.4823 10.8354 18.024C10.8354 18.5421 10.8354 19.0602 10.8354 19.5784C10.8354 19.8954 10.7364 19.9995 10.425 20C8.94657 20 7.46832 20 5.99023 20C5.68911 20 5.58343 19.8944 5.57984 19.5963C5.57984 19.0201 5.57984 18.4441 5.57984 17.8686C5.57984 17.5285 5.67217 17.4366 6.01228 17.4356H6.23903L6.28674 17.3843C6.20158 17.2586 6.13284 17.1155 6.03024 17.0103C5.28641 16.2701 4.54258 15.5268 3.78182 14.8045C3.3968 14.4522 3.15869 13.9677 3.11493 13.4476C2.91393 11.6329 2.97682 9.79853 3.30166 8.00178C3.37912 7.58062 3.73873 7.40774 4.12501 7.6037C4.60391 7.84409 4.98543 8.24204 5.20544 8.73064C5.42545 9.21924 5.47053 9.7687 5.33309 10.2866C5.25358 10.5795 5.25461 10.8355 5.39568 11.0971C5.42038 11.1421 5.44016 11.1895 5.45467 11.2387C5.51417 11.4542 5.62395 11.5937 5.86506 11.6491C6.01588 11.6845 6.15643 11.8071 6.27545 11.9169C6.6489 12.257 7.00646 12.6151 7.38145 12.9542C7.47012 13.0325 7.58049 13.0821 7.69796 13.0963C8.96401 13.2132 10.0315 14.1561 10.2316 15.3765C10.2829 15.6761 10.2532 15.9885 10.2562 16.2952C10.266 16.6702 10.2634 17.0401 10.2634 17.4213ZM6.87769 17.4213H9.64218C9.64218 16.7739 9.64218 16.1388 9.64218 15.5078C9.63951 15.4696 9.63281 15.4318 9.62218 15.395C9.42673 14.4982 8.57876 13.7801 7.63333 13.7195C7.39505 13.7092 7.16902 13.6111 6.99876 13.4441C6.62018 13.0809 6.2457 12.7125 5.8507 12.3668C5.72513 12.2639 5.5713 12.2014 5.40952 12.1878C5.17458 12.1708 5.05659 12.3416 5.12585 12.5704C5.16627 12.691 5.23085 12.802 5.31565 12.8967C5.78555 13.4379 6.26365 13.974 6.73765 14.5095C6.89154 14.6855 6.89616 14.8779 6.75201 14.9989C6.60786 15.12 6.42934 15.0851 6.28109 14.9189C5.80042 14.3782 5.32591 13.8329 4.84062 13.2968C4.38406 12.7921 4.33738 12.0467 4.9622 11.6512C4.9109 11.5286 4.86781 11.4019 4.8083 11.2823C4.62876 10.9196 4.62825 10.56 4.72725 10.1661C4.79425 9.8814 4.80037 9.5858 4.74521 9.29861C4.65184 8.80768 4.3538 8.43936 3.8957 8.18697C3.58481 9.94205 3.5352 11.7335 3.74847 13.5031C3.78318 13.8159 3.93073 14.1053 4.16348 14.3172C4.90885 15.0353 5.64088 15.772 6.38779 16.4907C6.65711 16.7492 6.86128 17.0283 6.87923 17.4213H6.87769ZM10.207 19.3757V18.0625H6.21132V19.3757H10.207Z" fill="black"/>
<path d="M11.2478 12.2226C14.0523 12.2139 16.0453 10.0742 15.817 7.57647C15.6631 5.88361 14.7854 4.63859 13.2172 3.97119C11.6362 3.29815 10.1393 3.54695 8.78396 4.60576C8.75369 4.62936 8.72548 4.65706 8.6947 4.6786C8.53157 4.79813 8.36331 4.78736 8.24942 4.65141C8.22189 4.61983 8.20135 4.58277 8.18915 4.54268C8.17695 4.50259 8.17338 4.46037 8.17866 4.4188C8.18394 4.37723 8.19796 4.33725 8.21979 4.30148C8.24162 4.26571 8.27078 4.23497 8.30534 4.21127C8.61878 3.98094 8.92759 3.73368 9.27078 3.55619C12.1989 2.04185 15.7267 3.76138 16.3598 7.0009C16.8866 9.69562 15.045 12.3216 12.3195 12.7628C11.6722 12.8686 11.0104 12.8439 10.3729 12.69C9.73537 12.536 9.13512 12.256 8.60752 11.8665C8.07991 11.477 7.63562 10.9858 7.30083 10.4218C6.96604 9.8579 6.74751 9.23266 6.65814 8.58295C6.52975 7.6778 6.66066 6.7548 7.0357 5.92106C7.1383 5.68406 7.29784 5.59788 7.47738 5.67996C7.65693 5.76203 7.69694 5.9267 7.59742 6.1714C6.91412 7.84938 7.14086 9.40321 8.3156 10.7739C9.15228 11.7491 10.2557 12.2051 11.2478 12.2226Z" fill="black"/>
<path d="M14.4381 5.74522C14.2786 7.32163 13.508 8.5492 12.0501 9.32176C11.3085 9.71991 10.4777 9.92241 9.63602 9.91016C9.49392 9.91016 9.41133 9.94504 9.36208 10.081C9.31672 10.2006 9.26218 10.3165 9.19895 10.4278C9.11277 10.5847 8.95939 10.6391 8.81062 10.575C8.77356 10.56 8.73982 10.5378 8.71137 10.5098C8.68292 10.4817 8.66032 10.4482 8.64486 10.4114C8.62941 10.3745 8.62142 10.3349 8.62134 10.295C8.62126 10.255 8.6291 10.2154 8.64441 10.1784C8.64561 10.172 8.64768 10.1658 8.65057 10.16C8.90706 9.78345 8.89629 9.36383 8.87372 8.92881C8.83917 8.3709 8.93672 7.8127 9.15843 7.29957C9.45545 6.62037 10.0202 6.24333 10.664 5.95093C11.1046 5.75769 11.5799 5.65627 12.0609 5.65288C12.6688 5.63851 13.2526 5.53335 13.8097 5.27737C14.139 5.12912 14.4519 5.34509 14.4381 5.74522ZM9.82377 9.27867C11.7126 9.34126 13.6743 7.68841 13.7661 5.96016C13.1413 6.22486 12.4836 6.24692 11.8285 6.28796C11.2842 6.32181 10.8025 6.53214 10.348 6.82249C9.81608 7.16414 9.41544 8.02852 9.51855 8.59845C9.69655 8.39326 9.86942 8.18191 10.0577 7.98287C10.4298 7.59357 10.863 7.26763 11.3402 7.01794C11.5141 6.9256 11.6885 6.97125 11.7726 7.12053C11.8567 7.26981 11.8065 7.44115 11.6428 7.54836C11.5787 7.59043 11.51 7.62531 11.4448 7.66533C10.7828 8.06517 10.2268 8.61855 9.82377 9.27867Z" fill="black"/>
</svg>
