<svg width="24" height="25" viewBox="0 0 24 25" fill="none" xmlns="http://www.w3.org/2000/svg">
<rect y="0.887207" width="24" height="24" rx="3" fill="#ECECEC"/>
<path d="M13.0621 4.88854C13.1855 4.93277 13.3145 4.96569 13.4309 5.02389C13.9298 5.27265 14.1932 5.68204 14.2198 6.2371C14.2321 6.50082 14.2218 6.76588 14.2218 7.05055H16.3705C17.0134 7.05055 17.3349 7.37481 17.3349 8.02331C17.3349 9.87105 17.3338 11.7188 17.3316 13.5665C17.3316 13.7115 17.3775 13.777 17.5092 13.8326C18.038 14.0561 18.5614 14.2919 19.0879 14.5247C19.2209 14.5829 19.316 14.668 19.2874 14.828C19.2542 15.0042 19.0912 15.0717 18.8957 14.9869C18.4703 14.802 18.0466 14.6128 17.6223 14.4256C17.0612 14.1785 16.4992 13.934 15.9401 13.6829C15.8944 13.6592 15.8438 13.6464 15.7923 13.6458C15.7407 13.6452 15.6898 13.6566 15.6435 13.6793C14.1802 14.3284 12.7151 14.9751 11.2483 15.6191C11.1994 15.6404 11.1532 15.668 11.0714 15.7106C11.1256 15.7483 11.182 15.7829 11.2403 15.814C11.7501 16.0402 12.2596 16.2676 12.7731 16.4851C12.8463 16.5117 12.9269 16.5101 12.9989 16.4805C13.5643 16.2284 14.1237 15.9653 14.6874 15.7106C14.7825 15.6677 14.8334 15.6258 14.828 15.5064C14.8184 15.3015 14.9371 15.1525 15.0941 15.0361C15.4599 14.7648 16.0991 14.7638 16.4713 15.0312C16.8434 15.2985 16.8467 15.7585 16.4586 16.0086C16.0782 16.2543 15.6704 16.265 15.2534 16.0954C15.2032 16.0751 15.1323 16.0595 15.0871 16.0794C14.5683 16.3122 14.0532 16.5513 13.5161 16.7988C13.5485 16.8232 13.5825 16.8454 13.6178 16.8653C14.2996 17.1669 14.9814 17.4705 15.6654 17.7632C15.7455 17.793 15.8337 17.7923 15.9132 17.7612C17.3905 17.1149 18.8661 16.4649 20.34 15.811C20.3836 15.7917 20.4241 15.7651 20.5026 15.7216C20.4095 15.6713 20.3477 15.6338 20.2828 15.6032C20.1425 15.5367 19.9981 15.4815 19.8601 15.4119C19.7221 15.3424 19.6789 15.2194 19.7304 15.0943C19.742 15.0629 19.76 15.0342 19.7832 15.0101C19.8064 14.9859 19.8344 14.9669 19.8654 14.9541C19.8963 14.9412 19.9296 14.935 19.9631 14.9357C19.9966 14.9363 20.0296 14.9439 20.06 14.958C20.2698 15.0428 20.4787 15.1326 20.6786 15.2377C20.8691 15.3375 20.9676 15.5081 20.9639 15.7269C20.9661 15.8302 20.9375 15.9319 20.8817 16.0189C20.826 16.1059 20.7457 16.1745 20.651 16.2158C20.3971 16.3379 20.1399 16.4524 19.8794 16.5593C19.7753 16.6019 19.7427 16.6591 19.7434 16.7692C19.7484 17.5104 19.7331 18.2521 19.7514 18.9927C19.761 19.3778 19.5927 19.6345 19.2901 19.8314C18.8411 20.1238 18.3353 20.2638 17.8175 20.3582C16.2637 20.6409 14.7163 20.6126 13.1283 20.2205C13.1685 20.3203 13.1845 20.4031 13.2281 20.4646C13.4695 20.7952 13.7173 21.1208 13.965 21.4467C14.0422 21.5485 14.0715 21.6526 14.0013 21.768C13.9062 21.9236 13.7119 21.9283 13.5849 21.7713C13.4469 21.6013 13.3189 21.4238 13.1526 21.2571C13.1526 21.3699 13.1556 21.483 13.1526 21.5957C13.1463 21.7753 13.0481 21.8854 12.9001 21.8857C12.7522 21.886 12.6587 21.7766 12.6521 21.5947C12.6484 21.4846 12.6454 21.3749 12.6414 21.2648C12.6414 21.2615 12.6328 21.2588 12.6151 21.2465C12.4934 21.4071 12.3714 21.5688 12.2493 21.7294C12.1216 21.8957 11.9833 21.9313 11.8562 21.8328C11.7292 21.7344 11.7295 21.5887 11.8532 21.4241C12.092 21.1055 12.3261 20.7829 12.5742 20.472C12.674 20.3462 12.6534 20.2129 12.6461 20.0785C12.6461 20.0453 12.5852 20.0103 12.5463 19.9854C12.4302 19.9109 12.3059 19.8484 12.1941 19.7686C11.945 19.59 11.813 19.3559 11.8213 19.0369C11.8343 18.5228 11.818 18.0076 11.8286 17.4935C11.8319 17.3295 11.7954 17.2796 11.6204 17.2803C9.76205 17.287 7.90356 17.2881 6.04495 17.2836C5.11011 17.2836 4.35319 16.7352 4.09013 15.8795C4.05687 15.7701 4.03093 15.658 4.00133 15.547V14.8818C4.07749 14.7598 4.17726 14.6736 4.32924 14.7245C4.48122 14.7754 4.50051 14.9031 4.50384 15.0468C4.50816 15.2503 4.5055 15.4595 4.55173 15.6557C4.71568 16.3541 5.30233 16.7808 6.07389 16.7818C7.93227 16.7838 9.79076 16.7838 11.6494 16.7818C11.7032 16.7818 11.7568 16.7768 11.8093 16.7741C11.8426 16.6664 11.814 16.6109 11.7175 16.5713C11.4828 16.4752 11.252 16.3661 11.0192 16.267C10.7737 16.1642 10.6074 16.0039 10.6054 15.7219C10.6034 15.4399 10.7661 15.2812 11.0102 15.1742C12.4765 14.53 13.9427 13.8865 15.4044 13.2323C15.6684 13.1142 15.9072 13.1029 16.1646 13.2323C16.3741 13.3377 16.5933 13.4232 16.8175 13.5216V11.1657C16.1743 11.8282 16.1736 11.8269 15.3083 12.1701C15.2694 12.1854 15.2324 12.2579 15.2304 12.3051C15.2218 12.5046 15.2304 12.7042 15.2258 12.9037C15.2198 13.2363 15.0033 13.4521 14.6731 13.4561C14.4516 13.4588 14.2304 13.4561 14.0079 13.4561C13.6172 13.4561 13.4066 13.2443 13.4033 12.8502C13.4033 12.658 13.4033 12.4661 13.4033 12.2669H7.92263C7.92263 12.492 7.92628 12.7068 7.92263 12.9214C7.91531 13.234 7.69781 13.4501 7.38586 13.4555C7.14808 13.4594 6.90996 13.4578 6.67217 13.4555C6.33262 13.4528 6.11246 13.239 6.10249 12.8984C6.09717 12.7162 6.0955 12.5326 6.10249 12.351C6.10714 12.2353 6.07821 12.1801 5.9535 12.1451C5.42716 11.9995 4.95936 11.6932 4.61525 11.2692C4.58565 11.2322 4.55472 11.199 4.49985 11.1405V11.338C4.49985 12.1787 4.49985 13.0196 4.49985 13.8605C4.49985 14.0002 4.48987 14.1286 4.33622 14.1888C4.18258 14.249 4.08913 14.1525 4 14.0517V7.71037C4.17194 7.20852 4.53211 7.0286 5.04792 7.04523C5.67082 7.06585 6.29538 7.05022 6.91894 7.05022H7.11549C7.11549 6.76721 7.11016 6.50348 7.11549 6.23976C7.13112 5.59225 7.56013 5.07012 8.19134 4.9208C8.22212 4.9115 8.25233 4.9004 8.2818 4.88754H10.9706C11.0248 4.9474 11.1036 4.99828 11.1286 5.06846C11.1928 5.24172 11.0574 5.38572 10.8419 5.38606C10.0673 5.38606 9.29313 5.38439 8.51892 5.38772C8.08658 5.38772 7.72076 5.63548 7.65424 6.04055C7.6017 6.3658 7.6436 6.70568 7.6436 7.03625H8.01674C8.01674 6.8131 8.01674 6.60392 8.01674 6.39373C8.01674 5.9614 8.18302 5.79245 8.61869 5.79212C9.98443 5.79212 11.3505 5.79212 12.7169 5.79212C13.1492 5.79212 13.3155 5.96107 13.3155 6.39839C13.3155 6.61157 13.3155 6.82474 13.3155 7.03625H13.7219C13.7219 6.78616 13.7219 6.54904 13.7219 6.31192C13.7173 5.7592 13.3465 5.39038 12.7907 5.38672C12.4977 5.38473 12.2038 5.3967 11.9118 5.37941C11.829 5.37442 11.7122 5.30657 11.6813 5.2364C11.6504 5.16623 11.6963 5.05449 11.7205 4.96436C11.7289 4.93377 11.7727 4.91248 11.8 4.88721L13.0621 4.88854ZM15.2268 11.6606C15.2717 11.65 15.2976 11.6453 15.3229 11.638C16.1211 11.3955 16.7646 10.6163 16.8115 9.78292C16.8447 9.19827 16.8291 8.61062 16.8324 8.02464C16.8348 7.65017 16.7356 7.55273 16.3625 7.55273H9.4102C7.91121 7.55273 6.41233 7.55273 4.91356 7.55273C4.61691 7.55273 4.50051 7.66946 4.50018 7.96511C4.50018 8.5072 4.49153 9.04961 4.50317 9.59136C4.51814 10.2711 4.79616 10.8315 5.32129 11.2632C5.54698 11.4544 5.81374 11.591 6.10082 11.6623C6.10082 11.4564 6.09683 11.2742 6.10082 11.0922C6.11014 10.749 6.32797 10.5359 6.66619 10.5329C6.88734 10.5312 7.1085 10.5329 7.33132 10.5329C7.70745 10.5329 7.91863 10.7417 7.92163 11.1145C7.92362 11.3227 7.92163 11.5312 7.92163 11.7427H13.4033C13.4033 11.5199 13.3993 11.3104 13.4033 11.1006C13.4113 10.7464 13.6271 10.5352 13.979 10.5329C14.2007 10.5315 14.4224 10.5315 14.6441 10.5329C15.01 10.5329 15.2215 10.7444 15.2258 11.1069C15.2301 11.2861 15.2268 11.4667 15.2268 11.6606ZM19.2439 16.8486C19.1684 16.8792 19.1128 16.9002 19.0586 16.9241C18.0839 17.3535 17.1078 17.7798 16.1357 18.2152C15.8962 18.3222 15.6768 18.3256 15.4373 18.2152C14.8151 17.9305 14.1865 17.6598 13.5603 17.3837C13.4316 17.3272 13.3022 17.2723 13.1612 17.2111C13.1582 17.2776 13.1546 17.3215 13.1546 17.3651C13.1546 18.0894 13.1572 18.8138 13.1512 19.5381C13.1512 19.6622 13.1918 19.7077 13.3085 19.7376C14.863 20.1384 16.425 20.1454 17.9861 19.8018C18.3416 19.7237 18.6795 19.5561 19.0171 19.4097C19.1833 19.3372 19.2528 19.1906 19.2498 18.9917C19.2379 18.3395 19.2452 17.687 19.2452 17.0345L19.2439 16.8486ZM8.5249 7.03792H12.7997V6.30627H8.5249V7.03792ZM12.3258 16.8626C12.3258 17.6275 12.3238 18.3794 12.3278 19.1307C12.3278 19.2661 12.4745 19.3968 12.6517 19.4397V17.2517C12.6517 16.9524 12.6517 16.9524 12.3258 16.8626ZM6.61165 11.7437H7.41247V11.0417H6.61165V11.7437ZM14.712 11.7437V11.0377H13.9215V11.7437H14.712ZM6.61098 12.941H7.4148V12.2649H6.61098V12.941ZM14.718 12.2632H13.9198V12.942H14.718V12.2632ZM16.2395 15.5157C16.0399 15.2643 15.5184 15.266 15.3289 15.5187C15.5294 15.7688 16.0482 15.7671 16.2395 15.5164V15.5157Z" fill="black"/>
</svg>
