<svg width="24" height="24" viewBox="0 0 24 24" fill="none" xmlns="http://www.w3.org/2000/svg">
<rect width="24" height="24" rx="3" fill="#ECECEC"/>
<path d="M15.8531 5C16.0116 5.08613 16.0688 5.21797 16.0606 5.39844C16.0491 5.65068 16.0576 5.90381 16.0576 6.17187C16.3319 6.17187 16.5935 6.17187 16.8551 6.17187C17.4917 6.17187 17.9019 6.57822 17.8987 7.21279C17.8966 7.63701 17.913 8.06445 17.8667 8.48457C17.7618 9.43613 16.9412 10.2424 15.9894 10.3616C15.8754 10.376 15.8153 10.4182 15.7676 10.5271C15.3332 11.5205 14.6008 12.1889 13.5703 12.5322C13.4611 12.5686 13.4192 12.6099 13.4212 12.7317C13.4294 13.2436 13.4247 13.7571 13.4247 14.2821C13.8592 14.2821 14.233 14.4157 14.526 14.7371C14.819 15.0585 14.9156 15.4487 14.8814 15.8984H15.4538C15.5514 15.8984 15.6489 15.8961 15.7468 15.8984C15.9393 15.9043 16.0535 16.0177 16.0562 16.2125C16.0597 16.4905 16.0562 16.7691 16.0562 17.0694H16.2296C17.3455 17.0694 18.4614 17.0727 19.5774 17.0662C19.7572 17.0662 19.8885 17.116 19.9749 17.2745V19.9991H13.5706C13.3948 19.8626 13.3442 19.7548 13.3948 19.6112C13.4455 19.4677 13.5507 19.4132 13.7757 19.4132H15.4603V16.492H9.51623V19.4141H9.80012C10.297 19.4141 10.794 19.4141 11.291 19.4141C11.4692 19.4141 11.5767 19.4861 11.6177 19.6259C11.6587 19.7656 11.6127 19.8679 11.4659 19.9701C11.4552 19.9789 11.4454 19.9887 11.4366 19.9994H5.20813C5.04963 19.9133 4.99719 19.7817 5.00012 19.6013C5.0089 19.0353 5.00275 18.4692 5.00363 17.902C5.00363 17.6401 5.10529 17.5379 5.36603 17.5379C6.48635 17.5379 7.60666 17.5379 8.72697 17.5379H8.9218V17.2019C8.9218 16.8846 8.9218 16.5673 8.9218 16.2503C8.9218 16.008 9.02902 15.8987 9.26779 15.8987C9.53527 15.8987 9.80275 15.8987 10.0922 15.8987C10.0655 15.466 10.149 15.0693 10.4461 14.7438C10.7391 14.4216 11.1094 14.2795 11.5535 14.2856V13.5175C11.5535 13.2392 11.5512 12.9608 11.555 12.6828C11.555 12.6075 11.5336 12.5735 11.4583 12.5492C10.3861 12.2039 9.62677 11.512 9.18048 10.4735C9.1591 10.4234 9.07619 10.3801 9.01584 10.3701C8.1384 10.2236 7.53195 9.73584 7.21847 8.90527C7.1341 8.68203 7.10129 8.43184 7.08605 8.19131C7.06437 7.84619 7.07756 7.49873 7.08107 7.15244C7.08664 6.5958 7.50763 6.17744 8.0675 6.17217C8.34494 6.16953 8.62238 6.17217 8.92238 6.17217V5.61787C8.92238 5.52529 8.92765 5.43213 8.92238 5.33984C8.91124 5.17607 8.99972 5.07617 9.12746 5.00029L15.8531 5ZM15.4723 5.59648H9.50744V5.70781C9.50744 6.85508 9.5048 8.00205 9.51007 9.14932C9.51305 9.33953 9.53265 9.52912 9.56867 9.71592C9.85548 11.2836 11.4489 12.3734 13.0072 12.0723C14.475 11.7884 15.4711 10.5854 15.4737 9.09043C15.4753 8.15293 15.4753 7.21543 15.4737 6.27793L15.4723 5.59648ZM19.3805 19.4076V17.6677H16.0655V19.4076H19.3805ZM5.59484 19.4038H8.91007V18.1326H5.59543L5.59484 19.4038ZM10.6825 15.8882H14.3019C14.3019 15.8003 14.3039 15.7224 14.3019 15.6447C14.2884 15.2223 13.9559 14.8801 13.5349 14.876C12.8382 14.8689 12.1414 14.8689 11.4445 14.876C11.1671 14.8783 10.9512 15.0116 10.8 15.2437C10.6717 15.4376 10.6644 15.6556 10.6831 15.8879L10.6825 15.8882ZM8.92238 6.75781C8.63117 6.75781 8.35461 6.75547 8.07834 6.75781C7.82492 6.76074 7.66818 6.91689 7.66584 7.17031C7.66291 7.50693 7.66115 7.84414 7.66584 8.18047C7.67258 8.5292 7.78932 8.86688 7.9994 9.14531C8.20949 9.42374 8.50217 9.62867 8.83566 9.73086C8.8702 9.73993 8.90535 9.74649 8.94084 9.75049C8.9341 9.24336 8.92531 8.75146 8.92238 8.25928C8.91945 7.76709 8.92238 7.27461 8.92238 6.75781ZM16.0576 6.76045C16.0576 7.27549 16.0603 7.77266 16.0576 8.26982C16.055 8.76699 16.0456 9.25859 16.0395 9.75107C16.6181 9.66846 17.2049 9.08926 17.279 8.44707C17.3303 8.00381 17.3118 7.55146 17.3083 7.10322C17.3068 6.91982 17.1489 6.76982 16.9652 6.76309C16.6691 6.75283 16.3726 6.76045 16.0576 6.76045ZM12.8411 14.2807V12.6986H12.138V14.2807H12.8411Z" fill="black"/>
<path d="M12.4315 20C12.2147 19.8758 12.1408 19.6722 12.2821 19.5313C12.3477 19.466 12.4754 19.4141 12.5601 19.4317C12.6447 19.4493 12.7359 19.5471 12.7772 19.6324C12.829 19.7378 12.7842 19.8521 12.6893 19.9312C12.6541 19.9566 12.6172 19.9795 12.5788 19.9997L12.4315 20Z" fill="black"/>
<path d="M14.2226 8.2932C14.164 8.40072 14.1195 8.51996 14.043 8.61283C13.9387 8.74057 13.8039 8.84281 13.695 8.96733C13.6525 9.02031 13.6308 9.08699 13.634 9.15483C13.6478 9.30981 13.6829 9.46274 13.7093 9.61654C13.7436 9.81576 13.6944 9.98686 13.5268 10.1084C13.3651 10.2256 13.1922 10.2256 13.0164 10.1354C12.8407 10.0452 12.6617 9.88842 12.4832 9.88725C12.311 9.88725 12.1372 10.046 11.9644 10.1351C11.7915 10.2242 11.616 10.2253 11.4543 10.1087C11.2862 9.98774 11.2364 9.81576 11.2706 9.61742C11.2885 9.51166 11.2929 9.40092 11.3275 9.30102C11.3931 9.11264 11.3404 8.97875 11.1868 8.86156C11.0908 8.78803 11.0093 8.69486 10.9246 8.60697C10.8624 8.54734 10.8187 8.47094 10.799 8.38703C10.7792 8.30311 10.7842 8.21527 10.8133 8.13412C10.8719 7.95014 11.0052 7.84555 11.1942 7.81479C11.3049 7.79662 11.4162 7.76586 11.5264 7.7685C11.7461 7.77406 11.8592 7.66186 11.9278 7.4682C11.9696 7.36437 12.0185 7.26354 12.0742 7.16645C12.1621 7.00004 12.3031 6.91215 12.4879 6.91186C12.5741 6.90904 12.6592 6.93148 12.7328 6.97639C12.8064 7.02131 12.8653 7.08676 12.9022 7.16469C12.9807 7.31586 13.0487 7.47406 13.1339 7.62055C13.1703 7.67802 13.2268 7.71982 13.2924 7.73774C13.4582 7.77465 13.6293 7.78754 13.7972 7.81684C14.0333 7.85697 14.1889 8.04359 14.2226 8.2932ZM13.4656 8.36117C13.2898 8.33188 13.1474 8.30258 13.0033 8.2894C12.8486 8.27533 12.7557 8.19447 12.6939 8.05941C12.6321 7.92436 12.567 7.8016 12.4888 7.64604C12.4088 7.80863 12.3423 7.94193 12.2773 8.0767C12.2187 8.20121 12.1267 8.27328 11.9864 8.2894C11.8358 8.30668 11.6867 8.3351 11.5138 8.36205C11.6187 8.46606 11.6952 8.5557 11.7857 8.62807C11.9547 8.76313 12.0031 8.9266 11.9489 9.13402C11.9196 9.24916 11.9096 9.36986 11.8868 9.51488C12.0312 9.43871 12.1539 9.381 12.2697 9.31127C12.4191 9.22133 12.5603 9.22338 12.7091 9.31127C12.8231 9.37865 12.9435 9.4352 13.09 9.51254C13.0607 9.32504 13.0381 9.1765 13.0117 9.02885C12.9989 8.969 13.0024 8.9068 13.022 8.84879C13.0415 8.79078 13.0763 8.73912 13.1228 8.69926C13.235 8.59496 13.3393 8.48656 13.4656 8.36117Z" fill="black"/>
</svg>
