<svg width="24" height="24" viewBox="0 0 24 24" fill="none" xmlns="http://www.w3.org/2000/svg">
<rect width="24" height="24" rx="3" fill="#ECECEC"/>
<path d="M7.06122 10.7293V10.622C7.06122 8.65365 7.06122 6.68528 7.06122 4.71692C7.06122 4.3723 7.25758 4.10356 7.5657 4.02339C7.99667 3.91117 8.40971 4.22102 8.42606 4.66883C8.42717 4.70057 8.42606 4.73232 8.42606 4.76407V10.7295C8.44193 10.7349 8.45527 10.7406 8.46956 10.7453C8.71973 10.8185 8.85212 10.9952 8.85244 11.2617C8.85328 11.9364 8.85328 12.611 8.85244 13.2855V13.3853H16.0462V13.2901C16.0462 12.6315 16.0539 11.9726 16.0425 11.3141C16.0374 11.0228 16.1885 10.7944 16.4948 10.7279V10.6279C16.4948 8.65698 16.4948 6.68613 16.4948 4.71534C16.4948 4.39548 16.6694 4.13784 16.951 4.03974C17.3991 3.88323 17.858 4.20753 17.8593 4.68756C17.862 5.61348 17.8602 6.53924 17.8602 7.46549V10.73C17.8737 10.7358 17.8848 10.7419 17.8967 10.7458C18.1539 10.8282 18.2745 10.9923 18.2747 11.2644C18.2747 11.939 18.2747 12.6135 18.2747 13.2882V13.3895C18.3674 13.3895 18.4514 13.3885 18.5352 13.3895C18.7733 13.3931 19.0131 13.3783 19.2481 13.4064C19.6273 13.4515 19.9197 13.8006 19.9205 14.1843C19.9227 15.2371 19.9227 16.2901 19.9205 17.3432C19.9195 17.7599 19.5689 18.1102 19.1519 18.1199C19.0544 18.1221 18.9568 18.1199 18.8485 18.1199C18.8485 18.1807 18.8468 18.2356 18.8485 18.2904C18.8606 18.6067 18.5938 19.011 18.1415 18.9998C17.782 18.9907 17.4221 18.9988 17.0621 18.9977C16.6481 18.9964 16.3855 18.7313 16.3843 18.3151C16.3843 18.2545 16.3843 18.1937 16.3843 18.1259H8.98625C8.98625 18.1837 8.98625 18.2434 8.98625 18.3029C8.98625 18.6956 8.68798 18.9956 8.29431 18.9974C7.92667 18.999 7.55898 18.999 7.19123 18.9974C6.78994 18.9955 6.5258 18.7296 6.52453 18.3296C6.52453 18.2637 6.52453 18.1978 6.52453 18.1202H6.43627C6.22737 18.1202 6.01831 18.1211 5.80941 18.1202C5.35192 18.1175 5.00143 17.7672 5.00095 17.3086C4.99968 16.2741 4.99968 15.2397 5.00095 14.2054C5.00095 13.7479 5.35907 13.3918 5.81703 13.3901C6.08117 13.389 6.34547 13.3901 6.62104 13.3901V13.2949C6.62104 12.6362 6.62787 11.9773 6.61771 11.3189C6.61326 11.0347 6.75248 10.802 7.06122 10.7293ZM12.4625 17.6803H16.0174C17.0384 17.6803 18.0597 17.6803 19.0811 17.6803C19.3436 17.6803 19.4957 17.5283 19.4959 17.2676C19.4959 16.2545 19.4959 15.2415 19.4959 14.2284C19.4959 13.9706 19.3433 13.8169 19.0881 13.8169C15.9879 13.8161 12.8878 13.8156 9.78772 13.8154C8.48606 13.8154 7.18441 13.8157 5.88275 13.8165C5.83592 13.8165 5.7875 13.8044 5.74242 13.8115C5.55273 13.8414 5.42764 13.996 5.42749 14.199C5.42685 15.228 5.42685 16.257 5.42749 17.286C5.42749 17.5189 5.58099 17.6754 5.81275 17.6797C5.9899 17.6829 6.16705 17.6805 6.3442 17.6805L12.4625 17.6803ZM8.01255 7.67216C8.01255 6.69857 8.01255 5.72555 8.01255 4.75312C8.01346 4.71351 8.01102 4.67389 8.00524 4.6347C7.98493 4.51644 7.89667 4.43865 7.77698 4.42945C7.61268 4.41675 7.49934 4.52914 7.49871 4.71026C7.49702 5.23939 7.49622 5.7682 7.49633 6.29669C7.49633 7.38067 7.49696 8.46469 7.49823 9.54877C7.49823 9.91387 7.49998 10.279 7.4968 10.6441C7.4968 10.7114 7.51014 10.7393 7.58347 10.7342C7.69142 10.7279 7.80015 10.7326 7.90857 10.7326C8.0127 10.7326 8.01286 10.7326 8.01286 10.6315L8.01255 7.67216ZM17.4477 10.7282V10.6406C17.4477 8.67053 17.4477 6.70037 17.4477 4.7301C17.4477 4.70359 17.4477 4.67708 17.4459 4.65073C17.441 4.59627 17.4178 4.54507 17.3801 4.50546C17.3424 4.46586 17.2924 4.44018 17.2383 4.43262C17.0716 4.40754 16.9378 4.52786 16.9376 4.70708C16.937 5.32584 16.937 5.94493 16.9376 6.56433V10.729L17.4477 10.7282ZM8.43352 13.3855C8.43543 13.3666 8.43781 13.3537 8.43781 13.3409C8.43781 12.6478 8.43781 11.9547 8.43781 11.2614C8.43781 11.1749 8.41749 11.1584 8.32669 11.1584C8.10446 11.1584 7.88222 11.1584 7.65999 11.1584C7.5068 11.1584 7.35346 11.1657 7.2006 11.1603C7.08202 11.1562 7.06202 11.1681 7.06202 11.2893C7.06202 11.9586 7.06202 12.6279 7.06202 13.2972V13.3853L8.43352 13.3855ZM17.8571 13.3855C17.8591 13.3732 17.8606 13.3608 17.8613 13.3483C17.8613 12.6499 17.8617 11.9514 17.8624 11.253C17.8624 11.1782 17.825 11.1578 17.7585 11.1578C17.5443 11.1589 17.3299 11.1578 17.1159 11.1578C16.9549 11.1578 16.7937 11.1646 16.6329 11.1587C16.5059 11.1541 16.4849 11.1668 16.4849 11.2968C16.4849 11.9635 16.4849 12.6302 16.4849 13.2969V13.3868L17.8571 13.3855ZM16.827 18.1232C16.827 18.1997 16.827 18.2683 16.827 18.3369C16.8286 18.4858 16.9073 18.5664 17.0573 18.5701C17.1578 18.5726 17.2584 18.5701 17.3589 18.5701C17.6288 18.5701 17.8986 18.5712 18.1685 18.5701C18.306 18.5693 18.3964 18.4996 18.4088 18.3781C18.4174 18.2953 18.4106 18.2107 18.4106 18.1231L16.827 18.1232ZM8.54083 18.1232H6.96328C6.96328 18.1867 6.96328 18.247 6.96328 18.307C6.96424 18.4989 7.03487 18.5702 7.22647 18.5705C7.57781 18.5705 7.9291 18.5705 8.28034 18.5705C8.31224 18.5714 8.34414 18.5691 8.37558 18.5637C8.46432 18.5453 8.52734 18.4897 8.53893 18.4018C8.55051 18.3139 8.54115 18.2194 8.54115 18.1238L8.54083 18.1232Z" fill="black"/>
<path d="M15.1411 9.36481C15.1333 9.46228 15.0679 9.55276 14.9808 9.57831C14.8828 9.60705 14.7884 9.56244 14.7244 9.4672C14.6245 9.3183 14.5339 9.16083 14.4155 9.02733C13.932 8.47841 13.3202 8.17967 12.5873 8.18729C11.6349 8.19713 10.924 8.63874 10.4554 9.46767C10.4178 9.53418 10.373 9.58371 10.2951 9.59466C10.2064 9.60625 10.1324 9.57879 10.0805 9.50434C10.0286 9.42989 10.034 9.35513 10.0737 9.27925C10.21 9.01573 10.3874 8.77553 10.5991 8.56762C11.7919 7.39962 13.7383 7.50899 14.7914 8.80573C14.9041 8.94463 14.9968 9.09988 15.0955 9.2502C15.1176 9.28306 15.126 9.32608 15.1411 9.36481Z" fill="black"/>
<path d="M12.5218 9.52448C12.0657 9.54766 11.6682 9.77291 11.402 10.2201C11.3227 10.3548 11.2101 10.3947 11.0923 10.3261C10.9834 10.2626 10.9507 10.1496 11.0152 10.0328C11.265 9.57956 11.6381 9.27891 12.1387 9.14383C12.9154 8.93413 13.7714 9.30495 14.1388 10.0063C14.1998 10.1228 14.1882 10.2269 14.1057 10.3033C13.9955 10.4052 13.8572 10.3707 13.7655 10.2364C13.6737 10.1021 13.5813 9.96959 13.4656 9.86133C13.2202 9.63211 12.9186 9.52766 12.5218 9.52448Z" fill="black"/>
<path d="M13.3135 11.2173C13.2356 11.2173 13.1748 11.1844 13.1367 11.1165C12.8986 10.6919 12.3101 10.685 12.0607 11.1051C11.9914 11.2221 11.8606 11.2536 11.7604 11.1897C11.6529 11.1213 11.6237 10.9943 11.6969 10.8785C11.905 10.5452 12.2069 10.3677 12.5998 10.3691C12.9967 10.3706 13.2983 10.5525 13.5035 10.8912C13.5968 11.0466 13.4946 11.2174 13.3135 11.2173Z" fill="black"/>
<path d="M17.2874 15.741H16.0175C15.8313 15.741 15.7523 15.6616 15.752 15.4759C15.752 15.2219 15.752 14.9679 15.752 14.7139C15.752 14.5323 15.8328 14.4504 16.0115 14.4504C16.863 14.4504 17.7145 14.4504 18.5661 14.4504C18.7615 14.4504 18.8391 14.5298 18.8393 14.7254C18.8393 14.974 18.8393 15.2227 18.8393 15.4714C18.8393 15.65 18.7485 15.7413 18.5721 15.7413L17.2874 15.741ZM18.3961 14.8935H16.1845V15.3127H18.3961V14.8935Z" fill="black"/>
<path d="M14.2234 15.9878C14.6228 15.9878 15.0221 15.9878 15.4213 15.9878C15.6008 15.9878 15.6816 16.0695 15.6819 16.2499C15.6819 16.4562 15.6819 16.6626 15.6819 16.8689C15.6819 17.0339 15.5964 17.1198 15.4337 17.1198C14.6271 17.1198 13.8206 17.1198 13.0142 17.1198C12.8513 17.1198 12.7664 17.0339 12.7657 16.8693C12.7651 16.6576 12.7651 16.446 12.7657 16.2343C12.7657 16.0745 12.8508 15.9884 13.0097 15.9879C13.4143 15.9872 13.819 15.9878 14.2234 15.9878ZM15.2522 16.4299H13.2113V16.6872H15.2522V16.4299Z" fill="black"/>
<path d="M8.24149 15.3309C8.24222 15.437 8.22176 15.5421 8.18132 15.6402C8.14088 15.7382 8.08127 15.8272 8.00598 15.9019C7.93069 15.9766 7.84125 16.0355 7.74289 16.0752C7.64453 16.1148 7.53924 16.1345 7.43319 16.1329C6.99507 16.1304 6.63331 15.7635 6.63489 15.3233C6.63508 15.218 6.65605 15.1137 6.69659 15.0164C6.73713 14.9192 6.79645 14.8309 6.87116 14.7566C6.94587 14.6823 7.0345 14.6234 7.13198 14.5834C7.22945 14.5434 7.33386 14.523 7.43923 14.5234C7.89258 14.5249 8.24244 14.8768 8.24149 15.3309ZM7.81432 15.3267C7.81518 15.2769 7.80603 15.2276 7.7874 15.1815C7.76878 15.1353 7.74107 15.0935 7.70593 15.0583C7.67078 15.0231 7.62891 14.9954 7.58282 14.9767C7.53673 14.958 7.48736 14.9488 7.43764 14.9497C7.3374 14.9506 7.24164 14.9912 7.17128 15.0626C7.10092 15.134 7.06171 15.2304 7.06222 15.3306C7.06148 15.3803 7.07078 15.4297 7.08956 15.4757C7.10834 15.5218 7.13621 15.5636 7.17151 15.5986C7.20681 15.6336 7.24881 15.6611 7.295 15.6796C7.34119 15.698 7.39062 15.7069 7.44033 15.7057C7.65304 15.7053 7.81464 15.5413 7.81432 15.3267Z" fill="black"/>
<path d="M10.4877 15.3298C10.4886 15.1172 10.5731 14.9135 10.7229 14.7627C10.8727 14.6119 11.0758 14.526 11.2884 14.5237C11.3944 14.5233 11.4994 14.5439 11.5974 14.5843C11.6955 14.6246 11.7846 14.6839 11.8596 14.7588C11.9347 14.8336 11.9942 14.9226 12.0347 15.0205C12.0753 15.1185 12.0962 15.2234 12.096 15.3294C12.0957 15.4354 12.0745 15.5403 12.0337 15.638C11.9928 15.7358 11.9331 15.8246 11.8579 15.8992C11.7827 15.9739 11.6935 16.033 11.5955 16.0732C11.4975 16.1134 11.3924 16.1339 11.2865 16.1335C11.1811 16.1338 11.0766 16.1132 10.9792 16.0729C10.8818 16.0326 10.7934 15.9733 10.7191 15.8986C10.6448 15.8238 10.5861 15.735 10.5464 15.6374C10.5066 15.5397 10.4867 15.4352 10.4877 15.3298ZM11.6682 15.3318C11.6685 15.2315 11.6293 15.1352 11.559 15.0637C11.4887 14.9921 11.3931 14.9512 11.2928 14.9497C11.0792 14.9462 10.9163 15.1066 10.9134 15.3231C10.9122 15.3728 10.9208 15.4223 10.9389 15.4686C10.957 15.5149 10.9842 15.5572 11.0189 15.5928C11.0536 15.6285 11.095 15.6568 11.1408 15.6762C11.1866 15.6957 11.2358 15.7057 11.2855 15.7058C11.3858 15.7066 11.4823 15.6678 11.554 15.5977C11.6257 15.5276 11.6667 15.4321 11.6682 15.3318Z" fill="black"/>
<path d="M9.37872 14.5267C9.82954 14.5391 10.1805 14.8992 10.1699 15.3386C10.1589 15.7874 9.78335 16.1466 9.33935 16.1323C8.90362 16.1188 8.54566 15.7375 8.55947 15.3029C8.57391 14.8629 8.94092 14.5145 9.37872 14.5267ZM9.36126 15.7058C9.41088 15.7068 9.46021 15.6979 9.50639 15.6797C9.55256 15.6615 9.59466 15.6344 9.63025 15.5998C9.66584 15.5652 9.6942 15.5238 9.7137 15.4782C9.73319 15.4326 9.74343 15.3835 9.74382 15.3339C9.74763 15.1293 9.57762 14.9543 9.37047 14.9497C9.32024 14.949 9.27039 14.9583 9.2238 14.9771C9.17722 14.9959 9.13484 15.0238 9.09914 15.0591C9.06344 15.0944 9.03514 15.1365 9.01587 15.1829C8.99661 15.2293 8.98678 15.279 8.98696 15.3293C8.98664 15.5455 9.14522 15.7042 9.3611 15.7058H9.36126Z" fill="black"/>
</svg>
