<svg width="24" height="24" viewBox="0 0 24 24" fill="none" xmlns="http://www.w3.org/2000/svg">
<rect width="24" height="24" rx="3" fill="#ECECEC"/>
<path d="M11.241 18.5175C11.1939 17.9995 11.1498 17.5042 11.1042 17.01C10.9806 15.678 10.8571 14.3463 10.7338 13.0149C10.616 11.7409 10.4975 10.467 10.3783 9.19333C10.3718 9.11805 10.3399 9.04729 10.2881 8.99285C9.63846 8.40177 9.2532 7.67393 9.14868 6.79534C9.14156 6.77034 9.13177 6.74619 9.11948 6.72333H8.63277C8.01286 6.72333 7.39244 6.72333 6.77253 6.72333C6.72696 6.71864 6.68107 6.72825 6.6411 6.75087C6.60113 6.77349 6.56903 6.808 6.54915 6.84973C6.45745 6.99996 6.32424 7.12377 6.19053 7.27711C6.47589 7.92725 6.77304 8.60433 7.0707 9.2814C7.49849 10.2543 7.91501 11.2328 8.36022 12.198C8.49941 12.4965 8.53549 12.8336 8.46268 13.1553C8.33218 13.8212 7.96741 14.4168 7.43594 14.8316C6.90446 15.2464 6.24231 15.4524 5.57215 15.4113C4.22679 15.3326 3.113 14.2354 3.00234 12.8559C2.99086 12.6774 3.02178 12.4987 3.0925 12.3347C3.80463 10.6915 4.52701 9.05294 5.24887 7.41335C5.27193 7.36155 5.29293 7.30664 5.29447 7.30301C5.14077 7.08595 4.96915 6.91137 4.88461 6.70053C4.71093 6.26383 4.94302 5.76444 5.36773 5.5681C5.57577 5.47012 5.81295 5.45609 6.03087 5.52886C6.24879 5.60164 6.43104 5.75575 6.54044 5.95974C6.56018 6.00856 6.59524 6.04947 6.64024 6.07615C6.68523 6.10283 6.73766 6.1138 6.78943 6.10738C7.5113 6.10168 8.23367 6.10739 8.95554 6.10428C9.01189 6.10428 9.06825 6.09909 9.13536 6.09599C9.25525 5.09928 9.69226 4.28596 10.4828 3.68245C11.0613 3.23254 11.7726 2.99226 12.5024 3.00019C13.3431 2.99212 14.1549 3.31048 14.7704 3.88966C15.4103 4.47816 15.7653 5.2205 15.8658 6.10272H16.2756C16.9273 6.10272 17.5795 6.10272 18.2312 6.09857C18.2684 6.09759 18.305 6.08864 18.3386 6.0723C18.3721 6.05596 18.4019 6.0326 18.4258 6.00377C18.6569 5.6225 18.9955 5.43393 19.3772 5.48936C19.562 5.51612 19.7343 5.59894 19.8716 5.72686C20.0088 5.85478 20.1044 6.02179 20.1457 6.20581C20.2364 6.58294 20.0914 6.93521 19.74 7.19422C19.7251 7.20562 19.7113 7.21909 19.6826 7.24603C19.785 7.48225 19.8875 7.72263 19.9941 7.96196C20.6135 9.37154 21.2236 10.7847 21.8599 12.1876C21.9977 12.4863 22.0351 12.8223 21.9665 13.1444C21.8382 13.8107 21.4755 14.4074 20.9456 14.8242C20.4157 15.241 19.7544 15.4495 19.0842 15.4113C17.7316 15.3388 16.6061 14.2276 16.4985 12.845C16.4879 12.6728 16.5173 12.5005 16.5845 12.342C17.2977 10.6988 18.0216 9.06072 18.7419 7.42061C18.7676 7.36259 18.7896 7.30353 18.7968 7.28592C18.6548 7.10202 18.5334 6.93987 18.4048 6.78394C18.3728 6.74893 18.3285 6.72793 18.2814 6.7254C17.4832 6.72178 16.6845 6.7254 15.8683 6.7254C15.8468 6.84248 15.8273 6.95386 15.8058 7.06575C15.6619 7.81432 15.3007 8.43752 14.753 8.95815C14.6786 9.03257 14.6309 9.12989 14.6172 9.23478C14.3816 11.7113 14.1505 14.1881 13.9241 16.665C13.8721 17.2176 13.8209 17.7701 13.7704 18.3227C13.7652 18.3797 13.7704 18.4372 13.7704 18.5175H13.9973C15.544 18.5175 17.0907 18.5123 18.6374 18.5201C19.1498 18.5201 19.5319 18.7739 19.7461 19.2453C19.9602 19.7168 19.8875 20.169 19.5596 20.5669C19.4476 20.7051 19.3059 20.8158 19.1453 20.8905C18.9848 20.9653 18.8095 21.0022 18.6328 20.9984C18.0831 21.002 17.5334 20.9984 16.9842 20.9984C13.4624 20.9984 9.94091 20.9984 6.41953 20.9984C5.70536 20.9984 5.15768 20.4866 5.13565 19.8069C5.12929 19.6386 5.15692 19.4708 5.21686 19.3138C5.27679 19.1567 5.36778 19.0136 5.48424 18.8932C5.60071 18.7729 5.74022 18.6778 5.89425 18.6139C6.04828 18.5499 6.21359 18.5183 6.38009 18.5211C7.91398 18.517 9.44788 18.5211 10.9818 18.5211L11.241 18.5175ZM9.73837 6.40837C9.73835 7.14697 10.0272 7.85561 10.542 8.37968C11.0567 8.90375 11.7555 9.20071 12.486 9.20577C12.8493 9.20686 13.2092 9.13558 13.5453 8.996C13.8814 8.85642 14.1869 8.65128 14.4446 8.39229C14.7023 8.1333 14.907 7.82553 15.047 7.48654C15.187 7.14756 15.2596 6.78401 15.2607 6.41665C15.2607 5.67804 14.9719 4.9694 14.4571 4.44533C13.9424 3.92127 13.2436 3.6243 12.5131 3.61924C12.1498 3.61815 11.7898 3.68943 11.4538 3.82901C11.1177 3.96858 10.8121 4.17372 10.5545 4.43272C10.2968 4.69171 10.0921 4.99949 9.95209 5.33847C9.81207 5.67745 9.73944 6.041 9.73837 6.40837ZM12.4988 19.1381H9.2199C8.27363 19.1381 7.32788 19.1381 6.38213 19.1381C6.04349 19.1381 5.78374 19.3749 5.75198 19.695C5.73738 19.8478 5.77924 20.0007 5.86948 20.1242C5.95972 20.2477 6.09197 20.333 6.24073 20.3638C6.32901 20.3775 6.41844 20.3822 6.50765 20.3778H18.4919C18.5558 20.3806 18.6198 20.3796 18.6835 20.3747C18.9397 20.3446 19.1231 20.2079 19.2123 19.9602C19.366 19.5396 19.0534 19.1376 18.577 19.1376C16.5509 19.1369 14.5248 19.1371 12.4988 19.1381ZM3.77236 12.3H7.7275L5.74942 7.79826L3.77236 12.3ZM19.2497 7.79774L17.2721 12.3016H21.2277L19.2497 7.79774ZM11.0253 9.52022C11.303 12.5162 11.5805 15.511 11.8579 18.5046H12.1796V9.84658L11.0253 9.52022ZM12.8185 9.84399V18.5056H13.1412C13.4189 15.5041 13.6961 12.51 13.9727 9.52333L12.8185 9.84399ZM3.64428 12.9403C3.68424 13.9178 4.70325 14.8011 5.76991 14.7923C6.81863 14.784 7.82535 13.8919 7.8525 12.9403H3.64428ZM17.144 12.9403C17.1845 13.9178 18.203 14.8011 19.2696 14.7923C20.3184 14.784 21.3251 13.8919 21.3522 12.9403H17.144ZM5.75351 6.1022C5.67304 6.10219 5.59577 6.13408 5.5383 6.19103C5.48082 6.24798 5.44773 6.32546 5.44612 6.40681C5.4461 6.48809 5.47757 6.56614 5.53379 6.62424C5.59 6.68234 5.66649 6.71587 5.74685 6.71763C5.82733 6.71765 5.9046 6.68576 5.96207 6.6288C6.01954 6.57185 6.05264 6.49438 6.05425 6.41303C6.05387 6.3321 6.02229 6.25451 5.96623 6.19676C5.91017 6.13901 5.83404 6.10565 5.75403 6.10376L5.75351 6.1022ZM19.5545 6.40215C19.5517 6.32034 19.5171 6.24296 19.4582 6.1868C19.3993 6.13064 19.3209 6.10024 19.2399 6.1022C19.1591 6.10518 19.0827 6.14023 19.0273 6.19977C18.9719 6.25931 18.9419 6.33853 18.9438 6.42028C18.9466 6.50199 18.9811 6.57929 19.0399 6.63544C19.0987 6.69158 19.177 6.72204 19.2579 6.72022C19.3386 6.71751 19.415 6.68279 19.4706 6.62356C19.5262 6.56433 19.5565 6.48535 19.555 6.4037L19.5545 6.40215Z" fill="black"/>
<path d="M12.1246 4H12.8662V5.11738C12.9444 5.14961 13.0082 5.1782 13.0721 5.20193C13.7216 5.46774 14.1027 6.13561 13.9757 6.7834C13.8368 7.49081 13.2385 7.9902 12.5201 7.99993C12.1782 8.00325 11.8453 7.89305 11.5766 7.68755C11.3078 7.48206 11.1192 7.19357 11.042 6.86978C10.9594 6.54267 10.9994 6.19764 11.155 5.89664C11.3105 5.59565 11.5713 5.35839 11.8906 5.22747C12.0833 5.14779 12.1409 5.05655 12.129 4.86252C12.1084 4.58272 12.1246 4.3017 12.1246 4ZM12.5001 5.81384C12.302 5.81383 12.1119 5.8899 11.9713 6.02547C11.8306 6.16104 11.7508 6.34514 11.7492 6.53766C11.7502 6.72883 11.828 6.91205 11.9659 7.04835C12.1038 7.18466 12.291 7.2633 12.4876 7.26758C12.5872 7.26798 12.686 7.24923 12.7781 7.21241C12.8703 7.17559 12.954 7.12142 13.0246 7.05302C13.0951 6.98462 13.1511 6.90334 13.1892 6.81385C13.2273 6.72437 13.2468 6.62843 13.2467 6.53158C13.2426 6.34026 13.1617 6.15808 13.0212 6.02396C12.8808 5.88984 12.692 5.81443 12.4951 5.81384H12.5001Z" fill="black"/>
</svg>
