<svg width="24" height="24" viewBox="0 0 24 24" fill="none" xmlns="http://www.w3.org/2000/svg">
<rect width="24" height="24" rx="3" fill="#ECECEC"/>
<path d="M17.2595 19.5077L16.0765 18.1549C14.5122 19.0983 12.8831 18.5815 12.0493 17.469C11.6272 16.9045 11.4218 16.2072 11.4704 15.5041C11.519 14.8009 11.8184 14.1386 12.3141 13.6375C13.343 12.5962 14.9944 12.4647 16.1696 13.3353C17.2993 14.1721 17.7959 15.7955 16.8971 17.3202L18.1356 18.6783L17.3222 19.5087L17.2595 19.5077ZM16.7673 15.71C16.7673 14.4046 15.7304 13.3707 14.4159 13.365C13.1433 13.3597 12.0811 14.4216 12.0788 15.7014C12.0765 16.9896 13.131 18.0698 14.3904 18.0692C15.7162 18.0686 16.7673 17.0254 16.7673 15.71Z" fill="black"/>
<path d="M6.88546 15.9167C6.54249 15.9167 6.23534 15.9192 5.92896 15.9167C5.30781 15.9108 5.00467 15.6292 5.00372 15.0195C4.99876 11.9749 4.99876 8.93023 5.00372 5.88533C5.00467 5.30362 5.32325 5.00219 5.91391 5.00162C8.58739 4.99946 11.2607 4.99946 13.9338 5.00162C14.5258 5.00162 14.8394 5.3221 14.8466 5.92363C14.851 6.28203 14.8466 6.64042 14.8466 7.03807C15.182 7.03807 15.4969 7.03465 15.8117 7.03807C16.4203 7.04608 16.7126 7.34084 16.7143 7.95456C16.7171 9.06538 16.7091 10.1764 16.7198 11.2872C16.7221 11.5366 16.6335 11.6584 16.389 11.6538C16.1547 11.6496 16.0449 11.542 16.0482 11.2872C16.0592 10.3822 16.0524 9.47713 16.0524 8.5717C16.0524 7.712 16.0524 7.712 15.1789 7.71429H14.8491C14.843 7.84595 14.8337 7.95494 14.8337 8.06392C14.8325 9.1235 14.8276 10.1829 14.8369 11.2423C14.839 11.49 14.7704 11.6485 14.5029 11.6475C14.2453 11.6475 14.1622 11.5094 14.1638 11.251C14.1735 9.51276 14.1638 7.77431 14.1748 6.03604C14.1767 5.755 14.1024 5.66869 13.8137 5.66983C11.2125 5.68063 8.61121 5.68095 6.00975 5.67078C5.74604 5.66983 5.65516 5.73233 5.65611 6.01184C5.66577 8.97431 5.66577 11.9367 5.65611 14.899C5.65611 15.1635 5.71975 15.2557 5.99908 15.2529C7.35608 15.239 8.71346 15.2494 10.0707 15.2437C10.3113 15.2437 10.51 15.2733 10.5302 15.5646C10.5466 15.8037 10.3959 15.9161 10.0657 15.9165C9.2443 15.9178 8.42271 15.9165 7.55634 15.9165C7.55634 16.3397 7.54738 16.7459 7.56815 17.1506C7.57062 17.1992 7.73468 17.2766 7.82461 17.2779C8.57494 17.2882 9.32585 17.2909 10.0762 17.2798C10.3239 17.276 10.4736 17.3402 10.4784 17.6129C10.4834 17.8903 10.326 17.9581 10.0823 17.9558C9.32146 17.9497 8.56046 17.9589 7.79965 17.9518C7.17755 17.9461 6.88679 17.6418 6.88412 17.0125C6.88412 16.6644 6.88546 16.3149 6.88546 15.9167Z" fill="black"/>
<path d="M9.91784 7.46248C10.7497 7.46248 11.5814 7.46496 12.4139 7.46096C12.6473 7.45981 12.829 7.5103 12.8281 7.78982C12.8281 8.07315 12.6318 8.11564 12.407 8.11564H7.35493C7.12514 8.11564 6.93975 8.05734 6.93994 7.78049C6.93994 7.49468 7.13486 7.46057 7.3616 7.46134C8.21235 7.4642 9.06557 7.46248 9.91784 7.46248Z" fill="black"/>
<path d="M9.85499 10.4432C9.02368 10.4432 8.19218 10.4413 7.36087 10.4445C7.13013 10.4455 6.94283 10.3984 6.93997 10.1206C6.9373 9.83845 7.1286 9.79424 7.35706 9.79443C9.04038 9.79596 10.7235 9.79596 12.4063 9.79443C12.6349 9.79443 12.8266 9.83692 12.8274 10.1183C12.8281 10.3998 12.6422 10.4468 12.4101 10.4459C11.559 10.4411 10.7071 10.4432 9.85499 10.4432Z" fill="black"/>
<path d="M9.22738 12.7805C8.61214 12.7805 7.9969 12.7773 7.38184 12.7822C7.13643 12.7843 6.94247 12.7266 6.94761 12.4374C6.95237 12.163 7.15187 12.1134 7.37556 12.1134C8.60604 12.1134 9.83647 12.1131 11.0668 12.1123C11.3105 12.1123 11.5136 12.1822 11.5051 12.4619C11.4978 12.7203 11.3077 12.7859 11.0724 12.7836C10.4579 12.7763 9.84263 12.7805 9.22738 12.7805Z" fill="black"/>
<path d="M15.9006 16.7105H13.0567C13.0153 16.383 13.1961 16.2448 13.4652 16.1595C13.7007 16.0846 13.9307 15.9933 14.1921 15.8988C14.0905 15.7578 14.0381 15.6822 13.9825 15.6086C13.7049 15.2388 13.8091 14.675 14.1684 14.3783C14.3479 14.2305 14.4935 14.2156 14.6829 14.3141C14.9003 14.4285 15.0664 14.5618 15.1049 14.8362C15.1587 15.2184 15.143 15.5644 14.7132 15.8824C15.0241 15.995 15.2518 16.0865 15.4852 16.1597C15.7459 16.2412 15.9216 16.3773 15.9006 16.7105Z" fill="black"/>
</svg>
