<svg width="24" height="24" viewBox="0 0 24 24" fill="none" xmlns="http://www.w3.org/2000/svg">
<rect width="24" height="24" rx="3" fill="#ECECEC"/>
<path d="M2 19.0652V6.79383C2.20592 6.73668 2.41099 6.63245 2.6186 6.62573C3.55071 6.60724 4.48368 6.61732 5.44606 6.61732C5.44606 5.89196 5.45948 5.22125 5.44015 4.55137C5.42922 4.16053 5.56289 3.99916 5.97137 4C11.3915 4.00841 16.8116 4.01288 22.2317 4.01344C22.4082 4.01344 22.5847 4.12523 22.7604 4.18154V19.0584C22.6192 19.5871 22.4671 20.1099 22.0157 20.4747C21.5114 20.8832 20.9231 21.0008 20.2893 21C14.9006 21 9.51269 21 4.12563 21C3.27252 21 2.664 20.5797 2.27653 19.8401C2.14793 19.6048 2.08993 19.3266 2 19.0652ZM6.11846 4.66652V5.18763C6.11846 9.23437 6.11846 13.2814 6.11846 17.3287C6.11846 18.3633 6.17813 19.4039 5.4864 20.3545H10.0621C13.4359 20.3545 16.8099 20.3545 20.1843 20.3545C21.5787 20.3545 22.088 19.8418 22.088 18.4608V4.6682L6.11846 4.66652ZM2.6724 7.29561V7.58642C2.6724 11.3104 2.6724 15.0344 2.6724 18.7584C2.6724 18.8147 2.6724 18.871 2.6724 18.9265C2.72535 19.6619 3.30194 20.2873 3.98191 20.3486C4.62658 20.4066 5.17035 19.9519 5.34013 19.1719C5.40596 18.8574 5.43839 18.5368 5.43682 18.2154C5.44355 14.7021 5.44355 11.1883 5.43682 7.67383C5.43682 7.55196 5.42338 7.43009 5.41581 7.29224L2.6724 7.29561Z" fill="black"/>
<path d="M7.98193 11.9016V6.80811H20.2213V11.9016H7.98193ZM14.3429 10.6315C15.0506 10.6803 15.0489 10.6803 15.1926 10.0709C15.2573 9.7961 15.3296 9.52377 15.3985 9.24977H15.4826C15.6028 9.71204 15.7221 10.1743 15.8431 10.64H16.5433C16.7114 9.78349 16.8728 8.94214 17.04 8.0781H16.3676C16.2928 8.47902 16.2205 8.86398 16.1483 9.24893L16.0726 9.23968C15.9734 8.85305 15.8734 8.46642 15.7725 8.07222H15.1119C15.0043 8.4723 14.8993 8.86397 14.7934 9.25565L14.7228 9.24052L14.5135 8.08987H13.8411C14.0125 8.95475 14.1806 9.78769 14.3429 10.6358V10.6315ZM8.91826 8.09408V10.6307H9.58225V9.27246C9.81927 9.66414 10.0235 9.93393 10.1555 10.2357C10.3463 10.6727 10.6497 10.74 11.0506 10.6181V8.07894H10.3984V9.43636C10.1647 9.05057 9.96635 8.79253 9.84364 8.50256C9.66209 8.07138 9.36709 7.96632 8.91826 8.09408ZM13.541 8.07559H11.6919V10.629H13.5746V10.06H12.4097V9.55066H13.4536V9.01274C13.2073 9.01274 12.9871 9.01274 12.7669 9.01274C12.3988 9.0077 12.3988 9.00602 12.4501 8.62695H13.5427L13.541 8.07559ZM17.2905 9.80197C17.3384 10.3601 17.4998 10.5651 17.9452 10.6635C18.5244 10.7921 18.9883 10.6442 19.206 10.2609C19.4581 9.82131 19.3119 9.3086 18.8547 9.09091C18.6681 9.00686 18.4563 8.96904 18.2663 8.89003C18.1722 8.84366 18.0885 8.77876 18.0201 8.69923C18.01 8.68915 18.0839 8.55215 18.1226 8.55046C18.2386 8.54458 18.4277 8.53786 18.4588 8.6009C18.6605 8.96568 18.9488 8.77741 19.2152 8.78077C19.1421 8.14619 18.7362 7.90833 18.0167 8.03525C17.6418 8.10165 17.4006 8.30084 17.3443 8.67654C17.288 9.05224 17.4939 9.31616 17.8301 9.46577C18.0074 9.54394 18.2075 9.5742 18.3806 9.65993C18.4852 9.71568 18.5685 9.80429 18.6176 9.91208C18.637 9.95999 18.5336 10.1172 18.4739 10.1264C18.3429 10.1524 18.207 10.1325 18.089 10.0701C17.9881 10.0029 17.9436 9.85241 17.8671 9.72549L17.2905 9.80197Z" fill="black"/>
<path d="M17.3955 18.1114C16.5281 18.1114 15.6607 18.124 14.7942 18.1005C14.6328 18.1005 14.374 17.9769 14.3361 17.8542C14.2327 17.5398 14.4681 17.4549 14.7438 17.4549C16.5088 17.4549 18.2697 17.4491 20.0322 17.4684C20.1776 17.4684 20.4188 17.6365 20.444 17.7558C20.4953 18.008 20.2759 18.1097 20.0398 18.1097C19.1589 18.1164 18.2772 18.1105 17.3955 18.1114Z" fill="black"/>
<path d="M17.3828 15.5215C18.2494 15.5215 19.1159 15.5215 19.9816 15.5215C20.227 15.5215 20.4607 15.5534 20.4557 15.8527C20.4506 16.1216 20.227 16.167 19.9993 16.167H14.7596C14.5293 16.167 14.3099 16.1157 14.3074 15.8485C14.3074 15.5476 14.5419 15.5207 14.784 15.5215C15.6505 15.524 16.5171 15.5215 17.3828 15.5215Z" fill="black"/>
<path d="M10.7218 16.1656C9.93734 16.1656 9.15512 16.1656 8.37514 16.1656C8.1398 16.1656 7.89101 16.1521 7.89185 15.8436C7.89269 15.5352 8.13307 15.5192 8.37345 15.52C9.96536 15.52 11.5576 15.52 13.15 15.52C13.3829 15.52 13.6291 15.52 13.6291 15.8369C13.6291 16.1538 13.3896 16.1647 13.1525 16.1647C12.3423 16.1642 11.5321 16.1644 10.7218 16.1656Z" fill="black"/>
<path d="M10.5715 17.4599C11.3817 17.4599 12.1911 17.4599 13.0014 17.4599C13.2451 17.4599 13.5057 17.4944 13.4569 17.7877C13.4368 17.9155 13.1737 18.097 13.019 18.0987C11.4137 18.1222 9.80745 18.1138 8.20125 18.113C7.96171 18.113 7.71716 18.0659 7.72892 17.7692C7.74069 17.4725 7.98525 17.4574 8.22563 17.4591C9.0073 17.4633 9.78982 17.4599 10.5715 17.4599Z" fill="black"/>
<path d="M17.3803 13.5835C18.2326 13.5835 19.0857 13.5835 19.938 13.5835C20.1902 13.5835 20.4574 13.5835 20.4549 13.9121C20.4549 14.2147 20.1969 14.2231 19.9607 14.2223C18.2416 14.2223 16.5225 14.2223 14.8034 14.2223C14.5664 14.2223 14.3117 14.213 14.3075 13.9121C14.3016 13.5759 14.5739 13.5818 14.8227 13.5827C15.675 13.5852 16.5272 13.5835 17.3803 13.5835Z" fill="black"/>
<path d="M10.6142 14.2198C9.81569 14.2198 9.01752 14.2198 8.2196 14.2198C7.98258 14.2198 7.72876 14.2081 7.72876 13.903C7.72876 13.5979 7.97585 13.5811 8.21623 13.5811C9.81319 13.5811 11.4101 13.5811 13.0071 13.5811C13.2542 13.5811 13.4828 13.6155 13.4719 13.9173C13.4626 14.1955 13.2357 14.219 13.0096 14.2182C12.2111 14.2182 11.4126 14.2198 10.6142 14.2198Z" fill="black"/>
</svg>
