<svg width="24" height="24" viewBox="0 0 24 24" fill="none" xmlns="http://www.w3.org/2000/svg">
<rect width="24" height="24" rx="3" fill="#ECECEC"/>
<path d="M17.5851 18H7.44452C7.40596 17.9948 7.36565 17.9948 7.32896 17.9831C7.24027 17.9551 7.1497 17.9292 7.06678 17.8885C6.93677 17.8245 6.80431 17.7598 6.68788 17.675C6.58243 17.5981 6.48926 17.5005 6.40461 17.4005C6.31719 17.2989 6.24087 17.1883 6.17695 17.0704C6.11917 16.9598 6.08624 16.8353 6.04334 16.7165C6.02759 16.6732 6.01445 16.6287 6 16.5848V5.64975C6.04998 5.51555 6.09938 5.38193 6.20584 5.27793C6.27215 5.21307 6.32863 5.1381 6.41848 5.10112C6.49648 5.06905 6.5729 5.03366 6.6496 5H15.3168C15.3456 5.00997 15.3758 5.01762 15.4034 5.03019C15.4641 5.05526 15.5231 5.08421 15.5801 5.11686C15.6361 5.15196 15.6946 5.18995 15.7357 5.24008C15.7934 5.31101 15.8339 5.39623 15.887 5.4712C15.958 5.57232 15.9809 5.68384 15.9809 5.80344C15.9809 7.08628 15.9809 8.36911 15.9809 9.65195V9.73862H16.078C16.7952 9.73862 17.5124 9.73775 18.2296 9.74006C18.312 9.74006 18.393 9.73847 18.4787 9.76115C18.5981 9.79264 18.7056 9.83468 18.7976 9.91398C18.8957 9.99863 18.9591 10.1076 18.9999 10.2298V16.5857C18.9757 16.666 18.952 16.7464 18.9276 16.8266C18.911 16.8806 18.9009 16.9386 18.8743 16.9872C18.8148 17.0964 18.7551 17.2075 18.68 17.3059C18.601 17.4105 18.5113 17.5066 18.4124 17.5926C18.3112 17.6803 18.2005 17.7563 18.0824 17.8194C17.9698 17.8789 17.8438 17.9136 17.7232 17.9577C17.6778 17.973 17.6313 17.9856 17.5851 18ZM16.0615 17.5378C16.0121 17.4745 15.971 17.4106 15.9187 17.3576C15.832 17.2701 15.7768 17.1633 15.7231 17.0566C15.6648 16.9427 15.6183 16.8232 15.5843 16.6999C15.5516 16.5802 15.521 16.4617 15.521 16.3398C15.5191 12.8899 15.5183 9.43994 15.5185 5.98993C15.5185 5.90976 15.522 5.83103 15.4953 5.7487C15.4546 5.62245 15.2887 5.45979 15.1329 5.45979C12.3786 5.46181 9.62441 5.46268 6.87018 5.46239C6.81673 5.46239 6.763 5.47843 6.71027 5.49027C6.60135 5.51469 6.46008 5.70695 6.46008 5.82974C6.46258 9.32308 6.46364 12.8164 6.46326 16.3096C6.46326 16.3801 6.45026 16.4502 6.48738 16.5225C6.5261 16.5982 6.53158 16.6901 6.5651 16.7693C6.60323 16.8594 6.64065 16.9581 6.70623 17.0264C6.80503 17.1294 6.89011 17.2512 7.02402 17.3176C7.12803 17.369 7.22799 17.4298 7.33517 17.4735C7.41448 17.5057 7.5023 17.5349 7.58637 17.5349C10.3671 17.538 13.1478 17.5389 15.9285 17.5375L16.0615 17.5378ZM15.9817 10.214V10.3085C15.9817 12.2415 15.9822 14.1743 15.9833 16.107C15.9833 16.2131 15.9757 16.3183 16.0042 16.4281C16.0351 16.548 16.0575 16.6715 16.1151 16.7795C16.1793 16.8962 16.2547 17.0063 16.3402 17.1083C16.3964 17.1768 16.4774 17.2239 16.5424 17.2865C16.6977 17.4356 16.8976 17.4967 17.0964 17.5302C17.2319 17.5531 17.3823 17.5685 17.5236 17.5107C17.6031 17.4782 17.6924 17.4687 17.7711 17.4346C17.8617 17.3956 17.9589 17.355 18.0294 17.2902C18.1334 17.195 18.2426 17.1034 18.3209 16.9786C18.3835 16.8792 18.4362 16.7739 18.4782 16.6642C18.5375 16.5101 18.5399 16.3502 18.5398 16.1876C18.538 14.2741 18.5387 12.3606 18.5418 10.447C18.5418 10.292 18.4363 10.215 18.3017 10.2147C17.558 10.2132 16.8142 10.2132 16.0705 10.2147L15.9817 10.214Z" fill="black"/>
<path d="M14.2625 12.5291C14.4132 12.584 14.5562 12.624 14.6874 12.688C14.7734 12.7314 14.8487 12.7935 14.9077 12.8697C14.9761 12.9585 15.0221 13.0657 15.0709 13.1683C15.1183 13.2671 15.138 13.3769 15.1279 13.4861C15.1129 13.6719 15.0461 13.8498 14.9351 13.9996C14.8676 14.0903 14.7809 14.1649 14.6812 14.2182C14.5566 14.2861 14.4255 14.3525 14.2622 14.3281C14.2622 14.4675 14.2601 14.6013 14.263 14.7349C14.2655 14.8197 14.2455 14.9037 14.2052 14.9784C14.1162 15.145 13.9608 15.2064 13.7926 15.1786C13.6879 15.1613 13.6072 15.1001 13.5338 15.0197C13.396 14.8674 13.2233 14.7509 13.0305 14.6803C12.9422 14.6476 12.8481 14.6313 12.7571 14.6062C12.7189 14.5956 12.6819 14.5812 12.6444 14.5685L12.6263 14.5846C12.6372 14.6234 12.6467 14.6624 12.659 14.7002C12.7167 14.88 12.7656 15.0634 12.8365 15.2379C12.8706 15.3259 12.8767 15.4224 12.8541 15.5141C12.8236 15.6524 12.7443 15.7762 12.5914 15.8174C12.5226 15.835 12.452 15.8447 12.381 15.8463C12.2584 15.8509 12.1355 15.8476 12.0128 15.8476C11.7858 15.8476 11.6452 15.7452 11.5738 15.5279C11.526 15.3822 11.4805 15.2357 11.4294 15.0911C11.3704 14.9244 11.3062 14.7596 11.2454 14.5936C11.2415 14.5823 11.2401 14.5703 11.2415 14.5585C11.1494 14.5191 11.0724 14.474 10.9894 14.4532C10.8497 14.4182 10.7438 14.3321 10.6449 14.2397C10.5846 14.1836 10.5365 14.1123 10.4922 14.0419C10.4461 13.9656 10.4047 13.8866 10.3681 13.8053C10.3508 13.7688 10.3395 13.7298 10.3346 13.6898C10.3216 13.5798 10.2912 13.4654 10.3093 13.3603C10.3365 13.2057 10.3593 13.0438 10.4574 12.9096C10.5167 12.8284 10.5643 12.7355 10.6353 12.6663C10.7187 12.585 10.8127 12.5006 10.9185 12.4593C11.0687 12.4007 11.2218 12.3407 11.3952 12.3488C11.6786 12.3618 11.963 12.3537 12.2474 12.3517C12.3669 12.3508 12.4884 12.3549 12.6051 12.3347C12.7384 12.3114 12.8661 12.2575 12.9986 12.228C13.118 12.2015 13.2116 12.1269 13.3172 12.0749C13.3694 12.0494 13.4093 11.9984 13.455 11.9594C13.5536 11.8753 13.6313 11.7571 13.7624 11.7241C13.8138 11.71 13.8676 11.7072 13.9202 11.7159C13.9727 11.7246 14.0227 11.7447 14.0668 11.7746C14.1338 11.8195 14.1913 11.8658 14.2147 11.9455C14.2303 11.9982 14.2581 12.0502 14.2607 12.1034C14.2667 12.2516 14.2625 12.4005 14.2625 12.5291ZM12.505 12.8035V14.0822C12.7391 14.1171 12.9758 14.1256 13.1901 14.2228C13.3994 14.3183 13.6074 14.4197 13.7837 14.5818V12.3173C13.4098 12.6315 12.9898 12.7972 12.505 12.8037V12.8035ZM12.0355 12.8287C11.8477 12.8287 11.6679 12.8261 11.488 12.8298C11.4006 12.8316 11.3105 12.8085 11.2264 12.8567C11.1474 12.9022 11.0518 12.9275 10.9874 12.9867C10.8615 13.1037 10.8022 13.2622 10.7834 13.4322C10.7788 13.4734 10.808 13.5174 10.8085 13.5603C10.8114 13.7509 10.9393 13.8729 11.0674 13.9736C11.1588 14.0458 11.2871 14.086 11.416 14.0851C11.5987 14.0841 11.7814 14.0851 11.9641 14.0851C11.9873 14.0851 12.0104 14.0831 12.0355 14.0818V12.8287ZM11.7537 14.5503C11.7704 14.6213 11.7806 14.6859 11.8012 14.7469C11.8219 14.8078 11.859 14.86 11.8775 14.9202C11.9208 15.0579 11.9555 15.198 11.9969 15.3361C12.0015 15.345 12.0081 15.3527 12.0163 15.3585C12.0244 15.3643 12.0338 15.3681 12.0437 15.3696C12.1514 15.3725 12.259 15.371 12.3822 15.371L12.1069 14.5508L11.7537 14.5503ZM14.2672 13.0365V13.8514C14.4318 13.8599 14.6138 13.6925 14.651 13.4968C14.6695 13.3975 14.6238 13.3068 14.5772 13.2271C14.5116 13.1146 14.3962 13.0624 14.2674 13.0373L14.2672 13.0365Z" fill="black"/>
<path d="M10.979 10.2141H7.06567C6.94418 10.2141 6.85072 10.1232 6.85317 10.003C6.85433 9.94914 6.8331 9.89006 6.88524 9.84412C6.95328 9.78475 7.01958 9.73521 7.12041 9.73535C9.69802 9.73737 12.2756 9.73766 14.8531 9.73622C14.9499 9.73622 15.0302 9.77479 15.0816 9.84701C15.1183 9.89858 15.1546 9.96864 15.1205 10.0404C15.0786 10.1287 15.0324 10.2138 14.9141 10.2138C13.6023 10.2138 12.2907 10.2139 10.979 10.2141Z" fill="black"/>
<path d="M10.9828 8.66831H14.8966C15.0689 8.66831 15.1603 8.8155 15.1054 8.98134C15.0766 9.06945 15.0188 9.09011 14.9435 9.12044C14.8469 9.15916 14.7528 9.14356 14.6587 9.14356C12.1452 9.14538 9.63219 9.14596 7.11968 9.14529C7.0825 9.14623 7.0455 9.13983 7.01079 9.12644C6.97609 9.11305 6.94437 9.09295 6.91745 9.06728C6.80059 8.95447 6.83078 8.7596 6.99083 8.67235C7.00975 8.6621 7.03807 8.66845 7.06219 8.66845L10.9828 8.66831Z" fill="black"/>
<path d="M10.9837 10.8351C12.291 10.8351 13.5982 10.8351 14.9053 10.8351C15.0127 10.8351 15.1109 10.9362 15.1287 11.0323C15.1464 11.1283 15.0677 11.2547 14.976 11.2853C14.9538 11.2929 14.9305 11.2969 14.9071 11.2971C12.2973 11.2971 9.68753 11.2973 7.07775 11.2979C6.89459 11.2979 6.79867 11.1496 6.87667 10.9544C6.9125 10.8646 6.97635 10.8357 7.06157 10.8357C8.36925 10.835 9.67665 10.8348 10.9837 10.8351Z" fill="black"/>
<path d="M10.7686 16.7141H7.06455C7.0365 16.7149 7.00858 16.7099 6.98251 16.6996C6.95643 16.6892 6.93276 16.6736 6.91293 16.6537C6.8931 16.6339 6.87753 16.6102 6.86719 16.5841C6.85685 16.558 6.85194 16.5301 6.85278 16.502C6.85379 16.4478 6.83473 16.3892 6.88557 16.3431C6.95332 16.2822 7.02078 16.2352 7.12146 16.2354C9.55462 16.2376 11.9879 16.2379 14.4212 16.2362C14.5182 16.2362 14.5915 16.2804 14.6516 16.3469C14.7214 16.4243 14.7049 16.5649 14.6324 16.6388C14.5746 16.6977 14.5122 16.7159 14.4293 16.7157C13.2091 16.713 11.9888 16.7124 10.7686 16.7141Z" fill="black"/>
<path d="M9.04798 7.19519C9.04798 7.41548 9.04798 7.62465 9.04798 7.83381C9.04798 7.92496 8.97315 8.02651 8.89269 8.04544C8.76832 8.07433 8.65998 8.03099 8.61621 7.928C8.59824 7.88695 8.58843 7.84279 8.58732 7.79799C8.58544 7.21816 8.58602 6.63833 8.58602 6.05835C8.58534 6.03127 8.59013 6.00433 8.60011 5.97915C8.61009 5.95396 8.62505 5.93105 8.64409 5.91179C8.66314 5.89253 8.68588 5.87731 8.71095 5.86705C8.73602 5.85679 8.7629 5.85169 8.78999 5.85207C8.96333 5.85207 9.13667 5.85207 9.31002 5.85207C9.49954 5.85207 9.64876 5.94495 9.76548 6.07828C9.82687 6.14834 9.89274 6.23126 9.88884 6.34364C9.88638 6.41587 9.91412 6.48925 9.91339 6.56191C9.91224 6.67343 9.88927 6.7835 9.81502 6.87176C9.75724 6.94038 9.79769 6.99021 9.82658 7.05204C9.8637 7.13105 9.90458 7.21556 9.91137 7.30021C9.92466 7.46517 9.91469 7.63245 9.91542 7.79799C9.91542 7.99098 9.78844 8.07418 9.61554 8.04688C9.5384 8.03475 9.4536 7.93132 9.45331 7.84884C9.45331 7.69731 9.45331 7.54549 9.45331 7.3941C9.45331 7.27854 9.37127 7.19591 9.25744 7.19548L9.04798 7.19519ZM9.05087 6.7185C9.10446 6.7185 9.15011 6.71691 9.19532 6.7185C9.29933 6.72283 9.37372 6.68007 9.42514 6.58849C9.47382 6.50182 9.4458 6.4072 9.36043 6.35968C9.25931 6.30348 9.1556 6.33772 9.05072 6.32804L9.05087 6.7185Z" fill="black"/>
<path d="M14.9093 7.37848C14.9139 7.58303 14.831 7.7464 14.6864 7.878C14.5198 8.02924 14.3211 8.07835 14.0992 8.03776C13.9427 8.00887 13.8178 7.93072 13.7122 7.81372C13.6307 7.72329 13.6143 7.51687 13.6833 7.4432C13.7671 7.35378 13.989 7.35205 14.0694 7.48119C14.105 7.53825 14.1632 7.59458 14.2409 7.5823C14.2812 7.57765 14.3195 7.56175 14.3512 7.53641C14.383 7.51107 14.407 7.47732 14.4204 7.43901C14.4421 7.38122 14.404 7.26321 14.3482 7.22233C14.3251 7.20771 14.299 7.19839 14.2718 7.19503C14.198 7.18304 14.1203 7.18506 14.0502 7.16252C13.9013 7.11485 13.7682 7.04118 13.6819 6.89991C13.6052 6.77438 13.5491 6.64177 13.5581 6.49544C13.5633 6.41094 13.5943 6.32672 13.6213 6.24482C13.6598 6.12926 13.7486 6.04995 13.8396 5.97527C13.9231 5.90613 14.0253 5.86339 14.1331 5.85249C14.2025 5.84447 14.2727 5.84476 14.342 5.85335C14.3975 5.86086 14.4502 5.88788 14.5039 5.90694C14.5906 5.93593 14.6682 5.98689 14.7293 6.05486C14.7992 6.1346 14.8535 6.22113 14.8405 6.3338C14.8294 6.42885 14.7621 6.49039 14.6864 6.52159C14.6522 6.53677 14.6142 6.54151 14.5773 6.53521C14.5404 6.52892 14.5062 6.51187 14.479 6.4862C14.4295 6.43667 14.3764 6.39098 14.3201 6.34955C14.237 6.29177 14.0985 6.34016 14.0658 6.43275C14.008 6.59598 14.0964 6.71559 14.2725 6.71833C14.3999 6.72035 14.506 6.77366 14.6185 6.83577C14.7485 6.908 14.7989 7.02602 14.8628 7.13566C14.9015 7.2034 14.8953 7.29687 14.9093 7.37848Z" fill="black"/>
<path d="M12.5032 5.83811C12.7106 5.83262 12.8689 5.92998 13.0047 6.06476C13.0576 6.11734 13.0914 6.19476 13.1191 6.26584C13.1457 6.33358 13.0613 6.47428 12.9903 6.50187C12.862 6.55171 12.7675 6.53538 12.6908 6.45435C12.6549 6.41573 12.616 6.38003 12.5744 6.3476C12.5022 6.29213 12.3632 6.3476 12.3288 6.42343C12.2634 6.5689 12.3672 6.71494 12.5286 6.71927C12.6724 6.72066 12.8114 6.77169 12.9219 6.86372C13.0335 6.95574 13.0996 7.06437 13.1417 7.20275C13.1685 7.28888 13.1749 7.38008 13.1604 7.46912C13.136 7.61358 13.0944 7.74936 12.9702 7.85915C12.8905 7.92921 12.8068 7.99247 12.7147 8.02021C12.6086 8.05199 12.4869 8.05314 12.3759 8.03841C12.283 8.02613 12.1799 7.99031 12.1103 7.93108C12.0278 7.86088 11.9192 7.79717 11.9069 7.66645C11.9038 7.63409 11.8725 7.59321 11.8838 7.5727C11.919 7.50646 11.9634 7.44552 12.0156 7.3917C12.058 7.34981 12.2517 7.39473 12.2995 7.44124C12.3428 7.48328 12.387 7.52792 12.4392 7.55551C12.5259 7.60101 12.6375 7.55103 12.6733 7.46161C12.7352 7.30763 12.6563 7.19958 12.4856 7.19438C12.3424 7.19004 12.2011 7.14541 12.0948 7.05859C11.9834 6.96759 11.8843 6.85636 11.8578 6.69284C11.8446 6.61166 11.8289 6.53004 11.8388 6.45203C11.8515 6.33921 11.8892 6.23064 11.9492 6.13424C12.0253 6.01333 12.1308 5.94876 12.244 5.89272C12.3212 5.85487 12.4164 5.85501 12.5032 5.83811Z" fill="black"/>
<path d="M7.32907 7.21002C7.32907 7.40228 7.33138 7.60148 7.32806 7.80068C7.32647 7.89559 7.29007 7.98616 7.20311 8.0269C7.15673 8.04979 7.10467 8.05862 7.05334 8.05231C7.00201 8.04599 6.95365 8.02481 6.9142 7.99136C6.87909 7.95867 6.85806 7.9136 6.85555 7.86569C6.8518 7.25465 6.85281 6.64348 6.85324 6.03244C6.85324 5.96021 6.96201 5.85202 7.03496 5.85173C7.23228 5.85173 7.42975 5.84581 7.62722 5.85375C7.72978 5.85794 7.82613 5.90359 7.90659 5.96787C7.97005 6.01604 8.02574 6.07368 8.0717 6.13876C8.11503 6.20477 8.13771 6.28494 8.16747 6.35963C8.18154 6.38988 8.19104 6.42206 8.19564 6.45511C8.20329 6.55623 8.17657 6.64897 8.14436 6.74503C8.10802 6.86179 8.03759 6.96502 7.94212 7.04144C7.86468 7.10638 7.77117 7.14925 7.67142 7.16553C7.56062 7.18171 7.4507 7.19427 7.32907 7.21002ZM7.33268 6.71888C7.39566 6.71888 7.45662 6.72697 7.5144 6.71671C7.582 6.70472 7.64527 6.68002 7.68774 6.61343C7.7422 6.52676 7.68644 6.45598 7.66997 6.37913C7.66867 6.37292 7.65553 6.36902 7.64672 6.36468C7.5456 6.30965 7.43871 6.3329 7.33282 6.32987L7.33268 6.71888Z" fill="black"/>
<path d="M10.7843 6.32811V6.71813H10.9848C11.1311 6.71813 11.217 6.80033 11.2133 6.94406C11.2122 6.98999 11.2081 7.04517 11.1823 7.07912C11.1298 7.14672 11.0647 7.20494 10.9656 7.19584C10.9078 7.19049 10.85 7.19483 10.7874 7.19483V7.58485C10.9298 7.58485 11.0732 7.58774 11.2165 7.58398C11.3415 7.5808 11.4557 7.72078 11.4468 7.83201C11.4377 7.94584 11.3305 8.04695 11.2145 8.0471C10.986 8.0471 10.7574 8.0471 10.5288 8.0471C10.431 8.0471 10.3586 7.99351 10.3348 7.89701C10.318 7.83784 10.3083 7.77689 10.3059 7.71543C10.3037 7.17171 10.3046 6.62799 10.3047 6.08428C10.3055 6.02308 10.3301 5.9646 10.3732 5.92118C10.4164 5.87776 10.4747 5.85279 10.5359 5.85156H11.2359C11.2981 5.85156 11.3849 5.92076 11.4176 5.97435C11.4799 6.07676 11.4377 6.17008 11.3806 6.24274C11.3432 6.29027 11.2606 6.31858 11.1954 6.3245C11.0618 6.33663 10.927 6.32811 10.7843 6.32811Z" fill="black"/>
<path d="M8.37618 13.4639H7.05487C6.94798 13.4639 6.85047 13.3695 6.85264 13.2639C6.85423 13.2061 6.83169 13.1417 6.88644 13.0915C6.95607 13.0278 7.02801 12.9849 7.13042 12.9854C7.97518 12.9887 8.82052 12.9843 9.66455 12.9894C9.8639 12.9906 9.93901 13.1326 9.91185 13.3137C9.899 13.3978 9.80034 13.4639 9.7115 13.4639H8.37618Z" fill="black"/>
<path d="M8.38276 11.9186C8.81612 11.9186 9.24948 11.9238 9.68283 11.9156C9.81703 11.913 9.93129 12.0232 9.91685 12.1549C9.90775 12.2394 9.88507 12.3138 9.81024 12.3549C9.76218 12.38 9.70879 12.3934 9.65452 12.3937C8.80254 12.396 7.95027 12.3964 7.09771 12.3949C6.92986 12.3949 6.80794 12.23 6.85214 12.0685C6.87107 12.0001 6.98013 11.9186 7.05337 11.9186H8.38276Z" fill="black"/>
<path d="M8.38251 14.0855C8.82266 14.0855 9.2628 14.0855 9.70295 14.0855C9.86185 14.0855 9.96181 14.2695 9.89175 14.413C9.83989 14.5191 9.76969 14.5489 9.66062 14.5486C8.80431 14.5463 7.94799 14.5473 7.09168 14.5473C6.90678 14.5473 6.8009 14.4121 6.85406 14.2356C6.86703 14.1923 6.89345 14.1544 6.92949 14.1272C6.96552 14.1 7.00929 14.0851 7.05441 14.0845C7.49731 14.0862 7.93991 14.0855 8.38251 14.0855Z" fill="black"/>
<path d="M8.1671 15.1689H9.27938C9.3935 15.1689 9.47858 15.2565 9.48248 15.3719C9.48565 15.4657 9.47829 15.5546 9.38064 15.599C9.3308 15.6215 9.2749 15.6433 9.22174 15.6435C8.51402 15.6466 7.80621 15.6471 7.09829 15.6451C6.93044 15.6451 6.80823 15.4795 6.85272 15.3186C6.87193 15.25 6.981 15.1689 7.05496 15.1689H8.1671Z" fill="black"/>
</svg>
