<svg width="24" height="24" viewBox="0 0 24 24" fill="none" xmlns="http://www.w3.org/2000/svg">
<rect width="24" height="24" rx="3" fill="#ECECEC"/>
<path d="M9.38463 12.2938C9.38463 12.003 9.38463 11.7315 9.38463 11.4611C9.3885 10.9202 9.75637 10.5538 10.3007 10.5528C11.3403 10.5528 12.38 10.5528 13.4336 10.5528V9.38955C13.3067 9.38955 13.1763 9.38955 13.0459 9.38955C12.4502 9.37792 12.095 8.78468 12.3945 8.27043C12.8957 7.40899 13.4083 6.55433 13.9324 5.70647C14.0012 5.58926 14.0993 5.49195 14.2171 5.42408C14.3348 5.35622 14.4682 5.32013 14.6041 5.31935C14.74 5.31857 14.8738 5.35312 14.9924 5.41962C15.1109 5.48613 15.2101 5.58231 15.2803 5.69872C15.8105 6.54981 16.3264 7.40964 16.8279 8.27818C17.1211 8.78371 16.7668 9.37501 16.1832 9.38907C16.0519 9.39246 15.9201 9.38907 15.7708 9.38907V11.9884H15.2013V8.80891C15.5018 8.80891 15.7965 8.80891 16.0912 8.80891C16.3495 8.80891 16.412 8.70373 16.2816 8.48514C15.804 7.68671 15.3257 6.88892 14.8465 6.09178C14.704 5.85526 14.5184 5.85236 14.3783 6.08452C13.8956 6.88683 13.4139 7.68978 12.9335 8.49338C12.8089 8.70179 12.8724 8.80794 13.1186 8.80891C13.4143 8.80891 13.7094 8.80891 14.0293 8.80891V9.10263C14.0293 9.5558 14.0293 10.0095 14.0293 10.4631C14.0293 10.5557 14.0487 10.6085 14.1413 10.657C14.4578 10.8237 14.6104 11.0971 14.6114 11.4548C14.6114 11.7257 14.6114 11.9967 14.6114 12.2904H14.8164C15.7839 12.2904 16.7513 12.2904 17.7187 12.2904C18.3221 12.2904 18.675 12.6447 18.675 13.25C18.675 15.5119 18.675 17.7737 18.675 20.0356C18.675 20.6492 18.3221 21.0001 17.7056 21.0001H6.29626C5.67053 21.0001 5.32349 20.6506 5.32349 20.0201V13.2728C5.32349 12.634 5.66906 12.2923 6.3132 12.2923C7.32667 12.2933 8.34159 12.2938 9.38463 12.2938ZM10.5314 16.3573V16.9389C10.0215 16.9389 9.52568 16.9511 9.02888 16.9365C7.84141 16.9021 6.87494 16.4121 6.12853 15.4888C6.05922 15.4025 5.99429 15.3124 5.90801 15.198C5.90365 15.2624 5.90025 15.2905 5.90025 15.3191C5.90025 16.9024 5.90025 18.4865 5.90025 20.0714C5.90025 20.324 6.00738 20.4233 6.27346 20.4233C10.0882 20.4233 13.9033 20.4233 17.7187 20.4233C17.9911 20.4233 18.0905 20.3235 18.0905 20.0511C18.0905 18.4856 18.0905 16.9197 18.0905 15.3535C18.0905 15.3119 18.0817 15.2702 18.074 15.1999C18.0255 15.2682 17.9989 15.308 17.9703 15.3453C17.4371 16.0806 16.7372 16.5909 15.8532 16.8071C15.4877 16.8968 15.1019 16.9152 14.7234 16.9341C14.3036 16.9549 13.8815 16.9389 13.4593 16.9389V16.3573C13.9736 16.3573 14.4772 16.3631 14.9759 16.3573C16.6209 16.3331 18.0153 14.9774 18.0876 13.3368C18.1045 12.9617 18.0221 12.8764 17.6441 12.8764H6.34567C6.30302 12.8764 6.26087 12.8764 6.2187 12.8764C6.01562 12.8851 5.8993 12.9927 5.90463 13.1943C5.90717 13.3814 5.92531 13.568 5.9589 13.7522C6.26473 15.2964 7.55302 16.3534 9.12823 16.3588C9.59304 16.3588 10.0574 16.3573 10.5314 16.3573ZM9.96624 12.2816H14.0288C14.0288 12.0049 14.0312 11.7403 14.0288 11.4751C14.0264 11.2396 13.9207 11.1359 13.6833 11.1329C13.3149 11.1329 12.9465 11.1329 12.5782 11.1329C11.8231 11.1329 11.0681 11.1329 10.3133 11.1329C10.0976 11.1329 9.974 11.2299 9.96915 11.4194C9.96043 11.7025 9.96624 11.9865 9.96624 12.2816Z" fill="black"/>
<path d="M19.8348 7.06835V11.7019H19.2629V6.48818C19.5498 6.48818 19.8372 6.49448 20.1246 6.4843C20.2128 6.4814 20.3505 6.45716 20.3743 6.40288C20.4053 6.33163 20.3675 6.209 20.3209 6.12951C19.8576 5.34385 19.3865 4.56254 18.9154 3.78075C18.7627 3.52678 18.5809 3.52775 18.4273 3.78367C17.9542 4.57079 17.4826 5.35872 17.0125 6.14745C16.9708 6.21773 16.9282 6.34133 16.9611 6.38979C17.0028 6.45038 17.1196 6.48188 17.2035 6.48673C17.4918 6.49788 17.7812 6.4911 18.0793 6.4911V11.1212H17.5127V7.07126C17.3561 7.07126 17.219 7.07465 17.0818 7.07126C16.5181 7.05332 16.1609 6.46783 16.4415 5.98024C16.9482 5.10038 17.4704 4.23022 18.008 3.36975C18.0779 3.25671 18.1755 3.1634 18.2915 3.09869C18.4075 3.03397 18.5382 3 18.6711 3C18.804 3 18.9346 3.03397 19.0507 3.09869C19.1667 3.1634 19.2643 3.25671 19.3341 3.36975C19.8676 4.22505 20.3865 5.09004 20.8909 5.96473C21.1817 6.46976 20.8231 7.05769 20.2371 7.07029C20.114 7.07077 19.9875 7.06835 19.8348 7.06835Z" fill="black"/>
<path d="M5.91474 8.81015C6.22348 8.81015 6.51912 8.81015 6.81478 8.81015C7.05712 8.81015 7.1211 8.70158 6.99556 8.49171C6.51541 7.68811 6.03379 6.88516 5.55073 6.08285C5.4155 5.85796 5.22795 5.85699 5.09272 6.08285C4.60804 6.89066 4.12336 7.69846 3.63868 8.50626C3.52575 8.69528 3.5902 8.8087 3.80685 8.81064C4.10881 8.81403 4.41076 8.81064 4.72774 8.81064V13.1529H4.16745V9.39128C4.02447 9.39128 3.89458 9.39128 3.7642 9.39128C3.15884 9.38111 2.80647 8.78398 3.1123 8.26101C3.60958 7.41088 4.11608 6.56656 4.63178 5.72807C4.96233 5.1891 5.68014 5.18717 6.01118 5.72517C6.52817 6.56366 7.03484 7.40798 7.53115 8.25811C7.84183 8.79126 7.48268 9.38401 6.86568 9.39128C6.74548 9.39128 6.62576 9.39128 6.48618 9.39128V11.7042H5.91618L5.91474 8.81015Z" fill="black"/>
<path d="M8.81072 7.35877C8.65175 7.35877 8.52524 7.3612 8.39874 7.35877C7.79677 7.34617 7.45459 6.74662 7.75848 6.22026C8.06238 5.6939 8.38856 5.1622 8.70699 4.6339C8.88681 4.3334 9.06517 4.03192 9.24838 3.73288C9.60656 3.14787 10.3239 3.1435 10.6797 3.729C11.175 4.5452 11.6656 5.36383 12.1516 6.18488C12.4909 6.75583 12.1448 7.3549 11.4818 7.35877C11.3732 7.35877 11.2646 7.35877 11.1265 7.35877V9.9586H10.556V6.77813H11.3403C11.4068 6.78096 11.4735 6.78015 11.54 6.7757C11.6805 6.75971 11.7396 6.65792 11.6795 6.53094C11.6413 6.44951 11.5899 6.37391 11.5433 6.29587C11.0994 5.55528 10.6551 4.81452 10.2105 4.07361C10.0568 3.81818 9.87556 3.81673 9.72288 4.0707C9.2466 4.86267 8.77112 5.65431 8.29646 6.44563C8.16366 6.66713 8.2228 6.77376 8.47677 6.77522C8.77194 6.77522 9.06711 6.77522 9.37343 6.77522V9.95908H8.81072V7.35877Z" fill="black"/>
<path d="M19.8221 12.8655H19.2628V12.3071H19.8221V12.8655Z" fill="black"/>
<path d="M19.2574 14.0223V13.4707H19.8221V14.0223H19.2574Z" fill="black"/>
<path d="M4.73217 13.7549V14.3128H4.17188V13.7559L4.73217 13.7549Z" fill="black"/>
<path d="M4.16748 15.4734V14.9165H4.73166V15.4734H4.16748Z" fill="black"/>
<path d="M11.7067 14.6196H12.2883C12.2883 14.7689 12.2946 14.9177 12.2883 15.065C12.282 15.1789 12.3111 15.2449 12.4236 15.3021C12.7231 15.4538 12.8661 15.7116 12.87 16.0582H12.3053C12.2772 15.874 12.1793 15.7606 11.9699 15.7761C11.8385 15.7853 11.7275 15.8478 11.7275 15.9699C11.7288 16.0209 11.7409 16.071 11.7629 16.1171C11.7848 16.1631 11.8162 16.2039 11.855 16.237C12.0058 16.3441 12.1827 16.4159 12.3518 16.4963C12.6751 16.6504 12.8661 16.8991 12.869 17.2611C12.8724 17.615 12.6921 17.8641 12.3785 18.0245C12.3558 18.0396 12.3367 18.0594 12.3225 18.0826C12.3083 18.1057 12.2993 18.1318 12.2961 18.1588C12.2864 18.3211 12.2922 18.485 12.2922 18.6628H11.7106C11.7106 18.5014 11.7149 18.3347 11.7082 18.1685C11.7082 18.12 11.6839 18.0507 11.6505 18.0352C11.1789 17.8195 11.0888 17.4259 11.1401 16.95H11.7111C11.7111 17.0469 11.7111 17.1492 11.7111 17.2495C11.7154 17.4061 11.7964 17.4977 11.9534 17.5151C12.0988 17.5311 12.2258 17.4962 12.2762 17.344C12.3266 17.1918 12.2433 17.091 12.1109 17.0246C11.9437 16.9408 11.7755 16.8588 11.6088 16.7731C11.3025 16.6155 11.1333 16.364 11.1343 16.0184C11.1353 15.6728 11.3112 15.4416 11.603 15.2754C11.6312 15.2552 11.655 15.2294 11.6729 15.1997C11.6907 15.1699 11.7022 15.1368 11.7067 15.1024C11.7169 14.9492 11.7067 14.7922 11.7067 14.6196Z" fill="black"/>
<path d="M7.64461 18.099C7.83848 18.099 8.03235 18.0946 8.22623 18.099C8.30207 18.0988 8.37722 18.1135 8.44736 18.1423C8.5175 18.1712 8.58124 18.2136 8.63496 18.2671C8.68868 18.3206 8.73131 18.3843 8.76039 18.4543C8.78948 18.5244 8.80446 18.5994 8.80446 18.6753C8.80979 18.8692 8.80931 19.063 8.80446 19.2569C8.79622 19.5865 8.55872 19.8327 8.23205 19.8385C7.83946 19.846 7.4467 19.846 7.05379 19.8385C6.90369 19.8374 6.76003 19.7774 6.65371 19.6714C6.54739 19.5655 6.48691 19.422 6.48526 19.2719C6.47896 19.0727 6.47944 18.873 6.48526 18.6738C6.4857 18.5979 6.5011 18.5229 6.53058 18.453C6.56006 18.383 6.60305 18.3196 6.65707 18.2663C6.7111 18.213 6.77509 18.1709 6.84541 18.1423C6.91573 18.1138 6.99099 18.0994 7.06688 18.1C7.25784 18.0932 7.45122 18.099 7.64461 18.099ZM7.06638 19.2482H8.21023V18.6942H7.06638V19.2482Z" fill="black"/>
<path d="M14.6172 19.8313V19.272H15.1785V19.8313H14.6172Z" fill="black"/>
<path d="M15.777 19.826V19.271H16.3416V19.826H15.777Z" fill="black"/>
<path d="M16.9412 19.2676H17.4995V19.8293H16.9412V19.2676Z" fill="black"/>
</svg>
