<svg width="24" height="24" viewBox="0 0 24 24" fill="none" xmlns="http://www.w3.org/2000/svg">
<rect width="24" height="24" rx="3" fill="#ECECEC"/>
<path d="M11.8308 20.9999C11.7737 20.9423 11.7032 20.8926 11.6622 20.8255C11.4682 20.5084 11.2849 20.1852 11.0914 19.866C11.0557 19.8145 11.0366 19.7537 11.0366 19.6915C11.0366 19.6293 11.0557 19.5686 11.0914 19.5171C11.2823 19.2039 11.4685 18.8886 11.6502 18.5711C11.6783 18.5119 11.7241 18.4624 11.7816 18.4292C11.8391 18.3961 11.9055 18.3807 11.9721 18.3853C12.3447 18.3911 12.7173 18.3911 13.0901 18.3853C13.1567 18.381 13.223 18.3965 13.2804 18.4296C13.3379 18.4628 13.3838 18.5121 13.4121 18.5711C13.5947 18.8886 13.7809 19.2039 13.9709 19.5171C14.0066 19.5686 14.0256 19.6293 14.0256 19.6915C14.0256 19.7537 14.0066 19.8145 13.9709 19.866C13.7782 20.1835 13.5945 20.5071 13.4005 20.8255C13.3595 20.8926 13.2886 20.9419 13.232 20.9999H11.8308ZM12.4859 20.4984C12.683 20.4984 12.8761 20.5494 13.0076 20.4831C13.1249 20.4246 13.1575 20.2214 13.256 20.108C13.4991 19.8245 13.4496 19.5847 13.2663 19.2711C13.083 18.9575 12.8886 18.8633 12.5309 18.8624C12.1733 18.8616 11.9793 18.9658 11.7964 19.2737C11.6136 19.5816 11.6024 19.808 11.8009 20.115C11.9824 20.3967 12.1345 20.6235 12.4859 20.4979V20.4984Z" fill="black"/>
<path d="M4 12.4018C4.06706 12.2477 4.18689 12.1567 4.34338 12.0892C4.90359 11.8476 5.45843 11.595 6.0164 11.3489C6.39688 11.1808 6.67676 11.3573 6.67766 11.7631C6.67766 12.2592 6.67766 12.7554 6.67766 13.2516C6.67766 13.635 6.39239 13.815 6.03203 13.6569C5.44768 13.4017 4.86244 13.1478 4.28614 12.8764C4.17168 12.8225 4.09434 12.6925 4 12.5975V12.4018ZM6.17109 11.8191L4.64202 12.4999C4.92906 12.6286 5.17541 12.7398 5.42221 12.8501C5.66901 12.9604 5.91401 13.0651 6.17109 13.178V11.8191Z" fill="black"/>
<path d="M14.2806 8.88919C14.6614 9.18973 15.0315 9.43168 15.3371 9.73755C15.6427 10.0434 15.874 10.4035 16.1591 10.7693C16.2984 10.6565 16.4705 10.5282 16.6289 10.3861C16.7872 10.2441 16.9274 10.0887 17.0791 9.9422C17.2098 9.81613 17.3549 9.80902 17.4603 9.91778C17.5657 10.0265 17.5608 10.1637 17.4367 10.2863C17.1066 10.6134 16.8006 10.9681 16.3864 11.2012C16.3657 11.2203 16.35 11.2443 16.3408 11.2709C16.3315 11.2976 16.329 11.3261 16.3335 11.3539C16.5686 12.122 16.5668 12.9429 16.3282 13.7099C16.301 13.7987 16.3242 13.8297 16.3944 13.8808C16.6169 14.0437 16.8464 14.2035 17.0444 14.3944C17.6226 14.9529 18.1867 15.526 18.7561 16.0934C18.7837 16.1205 18.8104 16.1489 18.8388 16.1755C18.9874 16.3153 19.156 16.3256 19.2837 16.2026C19.4113 16.0796 19.4042 15.9065 19.2619 15.7618C19.0395 15.5362 18.8144 15.3152 18.5906 15.0923C18.2997 14.8024 18.0083 14.5152 17.7187 14.2231C17.6069 14.1148 17.5183 13.9849 17.4584 13.8414C17.3985 13.6978 17.3686 13.5435 17.3704 13.388C17.3704 12.8229 17.3704 12.2578 17.3704 11.6931C17.3679 11.532 17.3989 11.3722 17.4614 11.2237C17.5239 11.0751 17.6165 10.9411 17.7334 10.8301C18.2129 10.3533 18.6922 9.87591 19.1711 9.39794C19.2023 9.36686 19.2347 9.33624 19.265 9.30383C19.4033 9.156 19.4091 8.98507 19.281 8.86255C19.1529 8.74002 18.9901 8.75068 18.8509 8.8843C18.6872 9.04145 18.5283 9.20438 18.3669 9.36464C18.3368 9.39728 18.3047 9.42798 18.2708 9.45654C18.2223 9.4991 18.1591 9.5211 18.0947 9.51786C18.0302 9.51463 17.9695 9.48641 17.9256 9.43922C17.8331 9.33179 17.8264 9.20926 17.9256 9.10849C18.1396 8.87597 18.3657 8.65488 18.6031 8.44614C18.9193 8.17978 19.3949 8.23704 19.6707 8.54336C19.8085 8.69137 19.8832 8.88715 19.8789 9.0892C19.8746 9.29124 19.7916 9.48367 19.6475 9.62568C19.1541 10.1288 18.6551 10.6257 18.1507 11.1164C18.0566 11.2019 17.9826 11.3071 17.934 11.4244C17.8854 11.5418 17.8634 11.6684 17.8695 11.7952C17.8815 12.3102 17.8771 12.8256 17.8695 13.3405C17.8665 13.4457 17.8858 13.5503 17.9262 13.6475C17.9666 13.7447 18.0272 13.8322 18.104 13.9043C18.6203 14.4149 19.1347 14.9277 19.6471 15.443C19.7627 15.5569 19.8395 15.7041 19.8666 15.864C19.8937 16.0238 19.8696 16.1881 19.7979 16.3335C19.729 16.4768 19.619 16.5963 19.4817 16.6768C19.3445 16.7573 19.1863 16.7951 19.0274 16.7855C18.805 16.7708 18.6271 16.6692 18.4732 16.5142C17.874 15.9136 17.2748 15.3129 16.6685 14.7194C16.5048 14.5591 16.3162 14.4237 16.164 14.2977C15.8753 14.6666 15.6365 15.0377 15.3313 15.3422C15.0261 15.6468 14.6542 15.8861 14.281 16.1773C14.4145 16.334 14.5573 16.5289 14.7259 16.7002C15.3206 17.3049 15.9269 17.8989 16.523 18.5022C16.8228 18.8049 16.8602 19.2231 16.628 19.5459C16.3362 19.9521 15.7779 19.9947 15.4082 19.6307C14.9145 19.1446 14.4225 18.654 13.9403 18.1595C13.8549 18.0651 13.7497 17.9907 13.6322 17.9416C13.5147 17.8925 13.3878 17.8698 13.2606 17.8753C12.7446 17.8869 12.2281 17.8824 11.7121 17.8753C11.604 17.8724 11.4965 17.8926 11.3968 17.9344C11.2971 17.9762 11.2074 18.0387 11.1338 18.1177C10.6267 18.63 10.1168 19.1397 9.60401 19.6466C9.49023 19.7623 9.34305 19.8394 9.18311 19.8674C9.02317 19.8953 8.85847 19.8726 8.7121 19.8025C8.4194 19.6653 8.21656 19.3585 8.26237 19.0371C8.28843 18.8587 8.36117 18.6902 8.47324 18.5488C8.68854 18.29 8.9421 18.0627 9.18498 17.8256C9.30731 17.7058 9.45187 17.7013 9.55418 17.8034C9.6565 17.9055 9.65427 18.056 9.5395 18.1741C9.32287 18.3961 9.1 18.6127 8.88158 18.8334C8.72767 18.9896 8.71299 19.1565 8.8371 19.2866C8.96121 19.4167 9.14004 19.4083 9.30286 19.2462C9.79218 18.7579 10.2864 18.2696 10.7708 17.7755C10.8918 17.6453 11.0392 17.5423 11.2032 17.4735C11.3672 17.4046 11.544 17.3713 11.7219 17.3759C12.2495 17.3836 12.7769 17.3836 13.3042 17.3759C13.4819 17.3705 13.6588 17.403 13.823 17.4713C13.9872 17.5396 14.1348 17.6421 14.2561 17.7719C14.7419 18.266 15.2312 18.757 15.7299 19.2369C15.8068 19.311 15.9469 19.3701 16.0479 19.3585C16.2904 19.3275 16.3509 19.0345 16.1627 18.844C15.7655 18.4414 15.362 18.0449 14.9616 17.6454C14.8727 17.5566 14.781 17.4656 14.6912 17.375C14.3673 17.0492 14.019 16.7442 13.8193 16.3313C13.5168 16.3873 13.2308 16.4507 12.9421 16.4911C12.4118 16.5606 11.8726 16.5114 11.3638 16.3469C11.2455 16.3105 11.2103 16.3522 11.1414 16.4357C10.8918 16.7464 10.6307 17.0452 10.362 17.3382C10.261 17.4487 10.1174 17.4345 10.019 17.3382C9.92074 17.2418 9.91627 17.0962 10.0226 16.983C10.156 16.8414 10.3006 16.7118 10.4287 16.5662C10.5475 16.4308 10.6511 16.2816 10.7601 16.1382C9.51459 15.2561 9.5146 15.2561 8.90874 14.2857C8.73703 14.4268 8.55775 14.552 8.40295 14.7056C7.78907 15.3072 7.18409 15.9176 6.57377 16.5227C6.28596 16.8077 5.90652 16.8654 5.5849 16.6807C5.12672 16.4183 5.04353 15.815 5.42297 15.4301C5.91704 14.9285 6.41615 14.4316 6.9203 13.9394C7.01013 13.8574 7.08088 13.7568 7.1276 13.6446C7.17433 13.5324 7.19589 13.4113 7.19077 13.2899C7.18069 12.7868 7.18069 12.2828 7.19077 11.7779C7.19653 11.6565 7.17562 11.5354 7.12952 11.423C7.08341 11.3106 7.01322 11.2096 6.92387 11.1271C6.41586 10.6316 5.91304 10.1309 5.41542 9.62479C5.2995 9.51117 5.22229 9.36407 5.19467 9.20428C5.16705 9.04449 5.19042 8.88007 5.2615 8.73426C5.33004 8.59084 5.43987 8.47108 5.57695 8.39027C5.71403 8.30945 5.87213 8.27126 6.03106 8.28055C6.25348 8.29432 6.43143 8.39465 6.58579 8.55047C7.18898 9.15467 7.79262 9.75886 8.40249 10.3568C8.55774 10.5091 8.73746 10.637 8.90917 10.7786C9.59644 9.71003 9.60044 9.70603 10.7713 8.92426C10.6231 8.74669 10.4892 8.55668 10.3291 8.39154C9.72678 7.77846 9.11424 7.17559 8.50882 6.56518C8.16718 6.22068 8.16407 5.7288 8.49459 5.41095C8.63617 5.27092 8.82608 5.19029 9.02535 5.18559C9.22462 5.18088 9.41814 5.25246 9.5662 5.38565C9.7468 5.54902 9.91629 5.72525 10.0858 5.90105C10.2041 6.02358 10.2028 6.16742 10.0942 6.26863C9.98568 6.36985 9.85401 6.36275 9.73835 6.25177C9.58978 6.1106 9.44786 5.96188 9.30151 5.81804C9.13825 5.65734 8.96521 5.64357 8.83621 5.77808C8.70721 5.91259 8.72545 6.07596 8.88069 6.23134C9.32553 6.67927 9.77661 7.12322 10.221 7.57292C10.5818 7.93873 10.9835 8.27034 11.221 8.75423C12.0513 8.47839 12.9481 8.47481 13.7806 8.74402C14.4438 7.80865 15.3331 7.10146 16.0991 6.28373C16.1431 6.24204 16.1844 6.19756 16.2227 6.15055C16.2643 6.09408 16.2837 6.02434 16.2773 5.95455C16.2708 5.88476 16.2389 5.81976 16.1876 5.77187C16.1384 5.722 16.0725 5.69198 16.0025 5.68756C15.9325 5.68314 15.8633 5.70462 15.8081 5.7479C15.765 5.7827 15.7244 5.82053 15.6867 5.8611C15.2121 6.33523 14.7343 6.80625 14.2632 7.28525C14.1403 7.41734 13.9905 7.52164 13.8239 7.59116C13.6572 7.66069 13.4776 7.69382 13.2971 7.68834C12.7588 7.68035 12.2201 7.67857 11.6818 7.68834C11.1689 7.69722 10.8367 7.39578 10.5391 7.04241C10.4537 6.94164 10.4768 6.82045 10.5737 6.72767C10.6707 6.63488 10.7868 6.62778 10.8909 6.71257C10.9833 6.79217 11.0711 6.87695 11.1538 6.9665C11.22 7.03772 11.3005 7.09427 11.39 7.13251C11.4795 7.17074 11.5761 7.18981 11.6734 7.18847C12.2342 7.18669 12.7948 7.18669 13.3553 7.18847C13.5777 7.18847 13.7477 7.09657 13.8994 6.94386C14.4074 6.43244 14.9174 5.9231 15.4296 5.41583C15.5301 5.30988 15.6595 5.23573 15.8019 5.20258C15.9442 5.16943 16.0932 5.17875 16.2303 5.22938C16.523 5.32483 16.7032 5.53436 16.7641 5.83535C16.8251 6.13634 16.717 6.37784 16.5057 6.58782C15.9078 7.18181 15.3099 7.77579 14.7188 8.37644C14.5475 8.54514 14.4082 8.73736 14.2806 8.88919ZM9.92118 14.8766C9.96566 14.7762 9.99635 14.699 10.0333 14.6253C10.4723 13.7529 11.64 13.6708 12.197 14.473C12.2539 14.5547 12.3086 14.6382 12.3629 14.7216C12.5048 14.9414 12.7063 15.0044 12.9541 14.9436C13.0297 14.9258 13.1049 14.9054 13.1809 14.8925C13.5568 14.8291 13.8455 14.9738 14.0168 15.3143C14.0613 15.4062 14.096 15.5052 14.14 15.6126C14.1983 15.5815 14.2526 15.5562 14.3028 15.5238C15.1403 15.0071 15.6787 14.2722 15.918 13.3192C15.9545 13.1727 15.9372 13.0999 15.7908 13.0249C15.0475 12.6418 14.6827 11.8889 14.8411 11.1027C14.8989 10.8168 15.0506 10.585 15.265 10.3826C14.7254 9.7189 14.0555 9.29628 13.2454 9.12137C13.3028 9.31181 13.3896 9.49205 13.4065 9.67851C13.4572 10.2339 13.1445 10.6041 12.721 10.9029C12.5715 11.0077 12.4265 10.9917 12.3393 10.8678C12.2521 10.744 12.2926 10.6148 12.4283 10.4958C12.5665 10.386 12.6921 10.2612 12.8028 10.1238C12.9674 9.90181 12.9536 9.63545 12.7895 9.41348C12.5742 9.11959 12.3055 9.00949 11.9256 9.08452C10.3242 9.4006 9.21211 10.5917 9.02216 12.2147C9.00882 12.3319 9.03952 12.3785 9.1534 12.4114C9.70144 12.5721 9.89983 12.4318 9.94876 11.8613C9.96472 11.6025 10.0084 11.346 10.0791 11.0964C10.1965 10.7173 10.5408 10.5144 10.9332 10.5606C11.1088 10.5839 11.2828 10.6182 11.4541 10.6632C11.6129 10.7027 11.6894 10.8203 11.66 10.9539C11.6289 11.0973 11.5084 11.1715 11.3429 11.1417C11.201 11.1169 11.0613 11.0796 10.919 11.0578C10.7219 11.0281 10.5978 11.1022 10.5342 11.2909C10.5053 11.386 10.4858 11.4837 10.4759 11.5825C10.4501 11.7854 10.4408 11.991 10.4065 12.1925C10.3175 12.7017 9.98212 12.977 9.46611 12.9627C9.32954 12.9587 9.19342 12.9303 9.03328 12.9104C9.12047 13.658 9.41273 14.3017 9.92118 14.8766ZM5.96212 8.73159C5.86693 8.82038 5.76507 8.88209 5.71347 8.97221C5.63651 9.10539 5.71347 9.22437 5.81444 9.32736C6.31859 9.82723 6.82139 10.3278 7.32287 10.8292C7.44175 10.942 7.53578 11.0783 7.59896 11.2295C7.66215 11.3806 7.69311 11.5431 7.68986 11.7068C7.6866 12.2603 7.6866 12.8139 7.68986 13.3676C7.69291 13.5313 7.66183 13.6939 7.59857 13.845C7.53532 13.9961 7.44129 14.1324 7.32244 14.2453C6.95233 14.6126 6.58312 14.9803 6.2148 15.3485C6.06578 15.4972 5.91231 15.6419 5.76996 15.7964C5.74299 15.8227 5.72156 15.854 5.70693 15.8887C5.69229 15.9233 5.68475 15.9606 5.68475 15.9982C5.68475 16.0358 5.69229 16.073 5.70693 16.1076C5.72156 16.1423 5.74299 16.1737 5.76996 16.1999C5.82186 16.2553 5.89345 16.288 5.96933 16.2912C6.04522 16.2944 6.11931 16.2676 6.17564 16.2168C6.21339 16.1842 6.24948 16.1496 6.28374 16.1134C6.8687 15.5305 7.44921 14.9431 8.04174 14.3674C8.22493 14.1991 8.42045 14.0448 8.62669 13.9057C8.70276 13.8515 8.72768 13.8142 8.69876 13.7205C8.45342 12.9499 8.45342 12.1223 8.69876 11.3517C8.72412 11.2705 8.7139 11.2296 8.64094 11.1741C8.41852 11.0099 8.19166 10.8478 7.99415 10.6565C7.40518 10.086 6.83044 9.50227 6.24592 8.92515C6.17386 8.8559 6.07778 8.8115 5.96212 8.73159ZM13.6471 15.8346C13.6133 15.435 13.4843 15.3396 13.1204 15.4213C13.0884 15.4284 13.0555 15.4346 13.023 15.4408C12.604 15.5203 12.2561 15.4048 11.9959 15.0603C11.9158 14.9547 11.8602 14.8273 11.7681 14.7354C11.6618 14.6293 11.5399 14.5134 11.4029 14.469C10.9083 14.3017 10.4763 14.6058 10.3758 15.162C10.3598 15.2508 10.3758 15.3121 10.4545 15.3538C10.7659 15.5163 11.0675 15.7134 11.3963 15.8332C12.136 16.1036 12.8896 16.0863 13.6454 15.8341L13.6471 15.8346ZM16.0025 12.5636C16.0319 12.0105 15.8019 11.1528 15.5444 10.8403C15.0706 11.2531 15.3317 12.264 16.0008 12.5632L16.0025 12.5636Z" fill="black"/>
<path d="M19.7078 11.1629C19.991 11.1629 20.2751 11.1606 20.557 11.1629C20.8302 11.166 20.9965 11.3318 20.9978 11.6097C21.0007 12.2056 21.0007 12.8014 20.9978 13.3973C20.9978 13.6654 20.8285 13.8348 20.5654 13.8361C19.9835 13.8397 19.4016 13.8397 18.8197 13.8361C18.5579 13.8361 18.389 13.6649 18.3872 13.3977C18.3837 12.7959 18.3837 12.1943 18.3872 11.5928C18.3872 11.3349 18.5574 11.1664 18.811 11.1624C19.1095 11.1593 19.4089 11.1629 19.7078 11.1629ZM20.5012 11.6741H18.8865V13.3249H20.5012V11.6741Z" fill="black"/>
<path d="M12.5042 4C12.8599 4.00189 13.2002 4.14488 13.4504 4.39756C13.7007 4.65023 13.8404 4.99192 13.8388 5.34753C13.8357 5.70315 13.6916 6.04299 13.4381 6.2924C13.1846 6.5418 12.8424 6.68036 12.4868 6.67762C12.1341 6.67338 11.7973 6.53047 11.5492 6.27979C11.3011 6.02911 11.1617 5.69082 11.1612 5.33813C11.1621 4.98267 11.3041 4.64212 11.5559 4.39124C11.8077 4.14035 12.1488 3.99964 12.5042 4ZM12.4917 4.50225C12.3815 4.50359 12.2727 4.52664 12.1714 4.57009C12.0701 4.61353 11.9784 4.67651 11.9014 4.75543C11.8245 4.83435 11.7639 4.92766 11.7231 5.03002C11.6822 5.13239 11.6619 5.2418 11.6634 5.352C11.6674 5.57145 11.7572 5.78063 11.9135 5.9347C12.0698 6.08876 12.2803 6.17547 12.4998 6.17625C12.7221 6.17554 12.9351 6.08667 13.0919 5.92913C13.2488 5.77158 13.3368 5.55823 13.3366 5.3359C13.3359 5.22567 13.3135 5.11663 13.2707 5.01505C13.2279 4.91347 13.1655 4.82133 13.087 4.7439C13.0085 4.66647 12.9156 4.60527 12.8134 4.56381C12.7113 4.52234 12.6019 4.50142 12.4917 4.50225Z" fill="black"/>
<path d="M12.9255 13.7141C12.224 13.7265 11.8914 13.2817 12.0896 12.7312C12.1676 12.5145 12.3113 12.3618 12.5419 12.3125C12.7757 12.2622 12.9817 12.1249 13.1184 11.9285C13.3215 11.6572 13.5911 11.584 13.8927 11.7412C14.0635 11.8294 14.2144 11.9518 14.3362 12.1008C14.6204 12.4559 14.5774 12.8777 14.2364 13.1818C13.8364 13.5383 13.3468 13.6755 12.9255 13.7141ZM12.8812 13.2164C13.2314 13.1886 13.5672 13.0645 13.8514 12.8577C14.0603 12.7006 14.0701 12.5283 13.8914 12.3383C13.8449 12.2913 13.7931 12.2498 13.737 12.2149C13.6404 12.1505 13.5561 12.1563 13.4834 12.2615C13.2991 12.5284 13.021 12.7158 12.7047 12.7862C12.6723 12.7966 12.6424 12.8135 12.6168 12.8359C12.5911 12.8583 12.5703 12.8856 12.5556 12.9163C12.4758 13.1157 12.5734 13.2209 12.8829 13.2164H12.8812Z" fill="black"/>
</svg>
