<svg width="24" height="25" viewBox="0 0 24 25" fill="none" xmlns="http://www.w3.org/2000/svg">
<rect y="0.887207" width="24" height="24" rx="3" fill="#ECECEC"/>
<path d="M13.6015 5.64844V6.1582H5.83352C5.40022 6.1582 5.21332 6.34384 5.21332 6.77501C5.21332 7.07237 5.21332 7.36718 5.21332 7.68068H11.819V8.18578H5.22436V15.3088H18.9493V11.2575H19.4612V11.4274C19.4612 13.2031 19.4612 14.9788 19.4612 16.7544C19.4612 17.4426 19.0406 17.8615 18.3503 17.8619C16.951 17.8619 15.5519 17.8619 14.1528 17.8619H13.9583C14.0046 18.3717 14.0492 18.8691 14.0955 19.3806H14.8674V19.8874H9.29225V19.3925H10.0671C10.1142 18.8751 10.1597 18.3768 10.2069 17.8632H10.0051C8.60578 17.8632 7.20662 17.8632 5.80761 17.8632C5.12793 17.8632 4.70312 17.4409 4.70312 16.7655C4.70312 13.426 4.70312 10.0866 4.70312 6.74739C4.70312 6.07026 5.12793 5.64929 5.80761 5.64929H13.6015V5.64844ZM18.9506 15.8377H5.22436C5.21944 15.8515 5.21601 15.8657 5.21415 15.8802C5.21415 16.1609 5.21415 16.4417 5.21415 16.7226C5.21415 17.1759 5.39427 17.3555 5.85135 17.3555H18.3159C18.3686 17.3555 18.4221 17.3577 18.4748 17.3555C18.7297 17.3381 18.9421 17.1389 18.9497 16.8853C18.9586 16.5382 18.9506 16.1937 18.9506 15.8377ZM10.582 19.3797H13.5844C13.5377 18.87 13.4919 18.3717 13.446 17.8738H10.7187L10.582 19.3797Z" fill="black"/>
<path d="M13.3345 6.65038C13.3717 6.64969 13.4088 6.65268 13.4454 6.6593C13.7321 6.73831 13.9173 6.58539 14.0754 6.38021C14.1046 6.33816 14.1195 6.28781 14.1178 6.23663C14.1115 6.00383 14.1 5.76935 14.0856 5.53825C14.0758 5.38575 14.1361 5.2872 14.2793 5.22985C14.5299 5.13016 14.779 5.02651 15.0265 4.91889C15.1684 4.85772 15.2814 4.88746 15.3816 5.00131C15.4819 5.11516 15.6055 5.22985 15.6977 5.35814C15.8306 5.54335 15.9916 5.61896 16.2223 5.59687C16.3497 5.58498 16.4385 5.55736 16.5197 5.45881C16.6505 5.29909 16.7954 5.15083 16.9326 4.99621C17.0286 4.88831 17.1382 4.85815 17.2745 4.91635C17.5294 5.02425 17.7822 5.12875 18.0366 5.23197C18.0978 5.25171 18.15 5.2923 18.1843 5.34666C18.2185 5.40101 18.2326 5.46567 18.224 5.52933C18.2104 5.74174 18.207 5.95413 18.1892 6.16399C18.179 6.2842 18.2227 6.36449 18.2983 6.45795C18.4449 6.63891 18.6152 6.69456 18.8387 6.66228C19.0056 6.63806 19.1785 6.64146 19.3459 6.63212C19.4046 6.62592 19.4636 6.63998 19.5132 6.67197C19.5628 6.70396 19.6 6.75195 19.6186 6.80798C19.7265 7.06669 19.831 7.32709 19.941 7.58495C19.9996 7.72258 19.9635 7.83176 19.8561 7.92479C19.6908 8.07389 19.52 8.21748 19.3633 8.37508C19.3121 8.43571 19.2785 8.50915 19.266 8.58748C19.2121 8.84236 19.3085 9.03225 19.5209 9.1788C19.6381 9.25824 19.7333 9.36911 19.8425 9.46257C19.9614 9.56452 19.9975 9.68092 19.9325 9.83003C19.8251 10.0773 19.7227 10.327 19.6216 10.5773C19.5672 10.7119 19.4742 10.7769 19.3272 10.768C19.1207 10.7552 18.9139 10.7535 18.7082 10.7332C18.5689 10.7196 18.4772 10.7727 18.3748 10.8627C18.221 10.9978 18.1624 11.1452 18.1887 11.3474C18.2129 11.525 18.21 11.7068 18.2202 11.8865C18.2273 11.9451 18.2141 12.0043 18.1827 12.0543C18.1514 12.1044 18.1039 12.1421 18.0481 12.1613C17.7847 12.2718 17.5197 12.3784 17.2563 12.4889C17.1238 12.5445 17.0201 12.505 16.9296 12.4039C16.7775 12.234 16.6288 12.0615 16.4691 11.8992C16.4161 11.8536 16.3511 11.8241 16.2818 11.8143C16.0192 11.7646 15.8145 11.8504 15.6628 12.0798C15.5847 12.1979 15.4725 12.2922 15.3787 12.4005C15.2793 12.5148 15.1663 12.5445 15.0235 12.4855C14.776 12.3784 14.5269 12.2748 14.2763 12.1745C14.1331 12.1172 14.0724 12.0186 14.0826 11.8661C14.0966 11.6537 14.0996 11.4413 14.1174 11.231C14.1268 11.1167 14.0847 11.0403 14.0133 10.9511C13.8642 10.7637 13.6871 10.7098 13.4611 10.7425C13.2992 10.7654 13.1336 10.762 12.9696 10.7718C12.8294 10.7799 12.7389 10.7157 12.6867 10.5879C12.5822 10.333 12.4781 10.0781 12.3698 9.82577C12.3082 9.68262 12.3439 9.5709 12.4573 9.47235C12.6272 9.32197 12.8001 9.17158 12.9628 9.01228C13.0053 8.96261 13.0325 8.90165 13.041 8.83683C13.0894 8.57473 13.0095 8.36956 12.778 8.21621C12.6557 8.13549 12.5567 8.01952 12.4458 7.91884C12.3947 7.87999 12.359 7.82426 12.3451 7.76158C12.3312 7.69889 12.3399 7.6333 12.3698 7.57645C12.4766 7.32837 12.5801 7.07915 12.6803 6.8288C12.7368 6.68691 12.832 6.62107 12.9857 6.63042C13.1017 6.63721 13.2185 6.63042 13.3349 6.63042L13.3345 6.65038ZM14.6272 11.2476C14.6161 11.4468 14.5571 11.6146 14.6153 11.7149C14.6735 11.8151 14.851 11.8474 14.9738 11.9141C15.0562 11.9587 15.1136 11.9485 15.1769 11.8716C15.3027 11.7143 15.4387 11.5653 15.5838 11.4256C15.6567 11.3613 15.7476 11.3211 15.8442 11.3105C16.0449 11.2922 16.2468 11.2922 16.4475 11.3105C16.5537 11.3229 16.6537 11.3674 16.7342 11.4379C16.8825 11.5726 17.0069 11.7353 17.1446 11.8805C17.1709 11.9086 17.2202 11.9494 17.2435 11.9409C17.3922 11.8873 17.5545 11.844 17.6747 11.7493C17.7261 11.7089 17.6883 11.5539 17.6887 11.4519C17.6914 11.399 17.6887 11.3459 17.6807 11.2935C17.6216 10.988 17.7325 10.7663 17.964 10.5581C18.4096 10.1575 18.2049 10.2183 18.8072 10.2357C19.2295 10.2468 19.232 10.2536 19.3692 9.85339C19.3748 9.82601 19.3741 9.79772 19.3672 9.77064C19.3603 9.74356 19.3474 9.7184 19.3293 9.69706C19.1832 9.55178 19.0175 9.42476 18.8765 9.27226C18.8113 9.2 18.7706 9.10903 18.7601 9.01228C18.7431 8.80618 18.7431 8.59902 18.7601 8.39292C18.7705 8.29611 18.8111 8.20503 18.8761 8.13252C19.0171 7.98257 19.1802 7.85342 19.3306 7.71154C19.3603 7.68307 19.3981 7.62658 19.3879 7.59812C19.3331 7.44944 19.2894 7.28504 19.19 7.17076C19.1441 7.11766 18.9814 7.16525 18.8714 7.1678C18.8288 7.16647 18.7862 7.1686 18.7439 7.17417C18.4389 7.23364 18.2168 7.12319 18.0082 6.89168C17.608 6.44818 17.6683 6.64741 17.6853 6.04844C17.6964 5.62576 17.7032 5.62364 17.303 5.48515C17.2756 5.47955 17.2472 5.48023 17.2201 5.48714C17.1929 5.49406 17.1677 5.50703 17.1463 5.52508C17.001 5.67164 16.8744 5.83732 16.724 5.97835C16.6517 6.04358 16.5605 6.08418 16.4636 6.09432C16.2576 6.1111 16.0506 6.1111 15.8447 6.09432C15.7478 6.08406 15.6567 6.0438 15.5838 5.97919C15.4388 5.83936 15.3029 5.69037 15.1769 5.53315C15.1136 5.45711 15.0554 5.44479 14.9734 5.49067C14.9309 5.5122 14.8872 5.53135 14.8426 5.54802C14.5945 5.65252 14.5945 5.65252 14.6144 5.91972C14.6599 6.51997 14.6599 6.51997 14.2372 6.94265C14.1926 6.98768 14.1544 7.04502 14.1009 7.07433C14.0159 7.12021 13.9237 7.17374 13.8328 7.17672C13.6261 7.17812 13.4196 7.1689 13.2139 7.1491C13.181 7.14197 13.1466 7.14763 13.1177 7.1649C13.0889 7.18218 13.0677 7.20979 13.0584 7.24214C12.8838 7.63465 12.8808 7.63337 13.1981 7.91459C13.2094 7.92584 13.2214 7.93621 13.2343 7.9456C13.4964 8.11552 13.6004 8.35172 13.5546 8.66225C13.5376 8.77652 13.5669 8.89758 13.5469 9.01058C13.5328 9.10676 13.4923 9.19716 13.4301 9.27183C13.2892 9.4156 13.1406 9.5516 12.9849 9.67922C12.9203 9.73487 12.8999 9.78117 12.9365 9.86825C13.0898 10.2506 13.0864 10.2506 13.4993 10.2327C13.5047 10.2332 13.5101 10.2332 13.5155 10.2327C13.8553 10.1643 14.0996 10.2918 14.3353 10.5437C14.5494 10.7718 14.7155 10.9821 14.6272 11.2476Z" fill="black"/>
<path d="M12.344 14.5441V14.0552H17.1634V14.5441H12.344Z" fill="black"/>
<path d="M18.1807 13.0386V13.5288H13.8757V13.0386H18.1807Z" fill="black"/>
<path d="M6.74498 8.95689C6.90428 8.95689 7.06316 8.95391 7.22203 8.95689C7.4013 8.96071 7.49901 9.05459 7.50155 9.23216C7.50552 9.55557 7.50552 9.87885 7.50155 10.202C7.50155 10.3813 7.40343 10.479 7.22628 10.4811C6.90301 10.4853 6.57973 10.4849 6.25646 10.4811C6.07719 10.479 5.97992 10.3834 5.97737 10.2058C5.97369 9.8824 5.97369 9.55912 5.97737 9.23599C5.97949 9.05077 6.0772 8.95944 6.26836 8.95604C6.42724 8.95476 6.5861 8.95689 6.74498 8.95689ZM6.4935 9.4726V9.96494H6.98287V9.4726H6.4935Z" fill="black"/>
<path d="M8.77319 8.95659C8.93759 8.95659 9.10199 8.95319 9.26597 8.95659C9.42994 8.95999 9.53443 9.05514 9.53655 9.22379C9.54108 9.55259 9.54108 9.88124 9.53655 10.2098C9.53443 10.3797 9.43759 10.4778 9.26937 10.4804C8.94086 10.4846 8.61233 10.4846 8.28382 10.4804C8.1139 10.4804 8.01578 10.3814 8.01365 10.2127C8.00912 9.8845 8.00912 9.55599 8.01365 9.22719C8.0162 9.05132 8.1156 8.95956 8.29699 8.95574C8.45544 8.95404 8.61432 8.95659 8.77319 8.95659ZM9.02212 9.47655H8.53318V9.96592H9.02212V9.47655Z" fill="black"/>
<path d="M10.8055 10.4835C10.6518 10.4835 10.4984 10.4835 10.3446 10.4835C10.145 10.4805 10.0498 10.3892 10.0473 10.1929C10.0441 9.88138 10.0441 9.56858 10.0473 9.25451C10.0473 9.05486 10.1411 8.96013 10.3374 8.95715C10.6501 8.95418 10.9627 8.9546 11.2754 8.95715C11.4746 8.95715 11.5702 9.05146 11.5727 9.24729C11.5758 9.56023 11.5758 9.87302 11.5727 10.1857C11.5727 10.3909 11.4763 10.4805 11.2664 10.483C11.1131 10.4847 10.9593 10.4835 10.8055 10.4835ZM10.5689 9.47117V9.96606H11.0549V9.47117H10.5689Z" fill="black"/>
<path d="M6.73569 12.5189C6.58191 12.5189 6.42813 12.5189 6.27478 12.5189C6.0747 12.5159 5.97742 12.425 5.97742 12.2296C5.97487 11.9114 5.97444 11.5924 5.97742 11.2755C5.97954 11.0894 6.07639 10.9955 6.26627 10.9938C6.58402 10.991 6.90193 10.991 7.21996 10.9938C7.40602 10.9959 7.50034 11.0932 7.50203 11.2827C7.50501 11.6009 7.50543 11.9199 7.50203 12.2368C7.50203 12.4224 7.40219 12.5155 7.21316 12.5189C7.05386 12.521 6.89457 12.5189 6.73569 12.5189ZM6.98717 11.5125H6.49865V12.001H6.98802L6.98717 11.5125Z" fill="black"/>
<path d="M10.0476 11.7574C10.0476 11.593 10.0442 11.4286 10.0476 11.2642C10.051 11.0999 10.1461 10.9962 10.3148 10.9941C10.6432 10.9894 10.9719 10.9898 11.3003 10.9941C11.4702 10.9941 11.5688 11.0926 11.5709 11.2613C11.5754 11.5898 11.5754 11.9183 11.5709 12.2468C11.5688 12.4167 11.4719 12.5153 11.3037 12.5178C10.9752 12.5221 10.6467 12.5221 10.3182 12.5178C10.1423 12.5153 10.0506 12.4159 10.0467 12.2349C10.0446 12.0752 10.0472 11.9163 10.0476 11.7574ZM11.0544 12.0025V11.5132H10.5637V12.0025H11.0544Z" fill="black"/>
<path d="M7.50253 13.7978C7.50253 13.9567 7.5055 14.116 7.50253 14.2749C7.49828 14.4537 7.40398 14.5514 7.22641 14.5535C6.90328 14.5575 6.58 14.5575 6.25658 14.5535C6.07774 14.5535 5.98047 14.4554 5.97835 14.2774C5.97467 13.9543 5.97467 13.631 5.97835 13.3076C5.98047 13.1283 6.07606 13.0315 6.25405 13.0293C6.57719 13.0254 6.90044 13.0254 7.22386 13.0293C7.4027 13.0315 7.49828 13.1275 7.50253 13.3055C7.50593 13.469 7.50253 13.6334 7.50253 13.7978ZM6.49491 13.54V14.0344H6.9813V13.54H6.49491Z" fill="black"/>
<path d="M9.5377 13.8069C9.5377 13.9657 9.54152 14.125 9.5377 14.2839C9.5326 14.4538 9.43703 14.5507 9.26838 14.5528C8.93987 14.5571 8.61134 14.5571 8.28283 14.5528C8.11291 14.5507 8.01648 14.453 8.01393 14.2835C8.00968 13.955 8.00968 13.6265 8.01393 13.298C8.01648 13.128 8.11334 13.0316 8.28283 13.0291C8.61134 13.0248 8.93987 13.0248 9.26838 13.0291C9.4383 13.0316 9.53302 13.1289 9.5377 13.298C9.54237 13.467 9.5377 13.6374 9.5377 13.8069ZM9.01987 14.0375V13.5473H8.53261V14.0375H9.01987Z" fill="black"/>
<path d="M11.5734 13.7923C11.5734 13.9563 11.5772 14.1207 11.5734 14.2851C11.5696 14.4495 11.4727 14.551 11.3032 14.5532C10.975 14.5574 10.6465 14.5574 10.3177 14.5532C10.1478 14.5506 10.0522 14.4529 10.0501 14.2834C10.0458 13.9546 10.0458 13.626 10.0501 13.2974C10.0522 13.1275 10.1499 13.0315 10.3194 13.0294C10.6482 13.0256 10.9765 13.0251 11.3053 13.0294C11.4753 13.0315 11.5687 13.1292 11.5734 13.2987C11.5781 13.4682 11.5734 13.6279 11.5734 13.7923ZM10.5628 14.0374H11.0551V13.5481H10.5628V14.0374Z" fill="black"/>
<path d="M9.53772 11.7547C9.53772 11.9186 9.54154 12.0835 9.53772 12.2474C9.53389 12.4114 9.4379 12.5146 9.26925 12.5172C8.94102 12.5214 8.61235 12.5214 8.28327 12.5172C8.11335 12.5151 8.01651 12.4174 8.01438 12.2487C8.00985 11.9205 8.00985 11.592 8.01438 11.2632C8.01651 11.0933 8.11337 10.996 8.28244 10.9934C8.61123 10.9892 8.93989 10.9892 9.2684 10.9934C9.43832 10.9934 9.53304 11.0924 9.53813 11.2615C9.54323 11.4305 9.53772 11.5903 9.53772 11.7547ZM9.022 12.0036V11.51H8.53093V12.0036H9.022Z" fill="black"/>
<path d="M6.22403 6.6748V7.16418H5.73169V6.6748H6.22403Z" fill="black"/>
<path d="M7.2418 6.67432V7.16454H6.74902V6.67432H7.2418Z" fill="black"/>
<path d="M7.76367 7.16339V6.67529H8.25858V7.16339H7.76367Z" fill="black"/>
<path d="M12.8523 13.5246V13.0356H13.3417V13.5246H12.8523Z" fill="black"/>
<path d="M12.33 16.3472V16.8378H11.8411V16.3489L12.33 16.3472Z" fill="black"/>
<path d="M16.157 7.17529C16.5613 7.1772 16.9484 7.33916 17.2337 7.62575C17.5189 7.91234 17.679 8.30024 17.679 8.70458C17.6774 9.10907 17.5155 9.49641 17.2289 9.78183C16.9423 10.0672 16.5542 10.2275 16.1498 10.2275C15.9481 10.2263 15.7487 10.1854 15.5629 10.1069C15.3771 10.0285 15.2087 9.91411 15.0672 9.7704C14.9258 9.62669 14.8141 9.45646 14.7386 9.26947C14.6631 9.08249 14.6253 8.88243 14.6273 8.68079C14.6335 8.27926 14.7975 7.8963 15.0837 7.61461C15.3699 7.33293 15.7554 7.17513 16.157 7.17529ZM15.1375 8.69481C15.1361 8.96513 15.2422 9.22492 15.4323 9.41707C15.6225 9.60921 15.8811 9.71796 16.1515 9.71943C16.4189 9.71946 16.6757 9.61438 16.8664 9.42685C17.0571 9.23931 17.1665 8.98434 17.171 8.7169C17.1745 8.44657 17.0705 8.18591 16.8819 7.99225C16.6932 7.79859 16.4354 7.68779 16.165 7.6842C16.0311 7.68292 15.8982 7.70804 15.7739 7.75814C15.6497 7.80824 15.5366 7.88234 15.441 7.97619C15.3454 8.07005 15.2692 8.18182 15.2169 8.30512C15.1645 8.42843 15.1369 8.56085 15.1357 8.69481H15.1375Z" fill="black"/>
</svg>
