<svg width="24" height="25" viewBox="0 0 24 25" fill="none" xmlns="http://www.w3.org/2000/svg">
<rect y="0.887207" width="24" height="24" rx="3" fill="#ECECEC"/>
<path d="M10.5794 5.98661H20.0566C20.6758 5.98661 20.999 6.30699 20.999 6.9226V20.9517C20.999 21.5659 20.6749 21.8872 20.0556 21.8872H8.78196C7.85557 21.8872 7.28893 21.3201 7.28893 20.3933C7.28893 19.0517 7.28894 17.7097 7.29215 16.3678C7.29215 16.2373 7.25507 16.1847 7.13103 16.1389C5.15605 15.4469 3.87035 13.5565 4.01041 11.4777C4.12987 9.70177 5.01735 8.39824 6.5946 7.57346C6.7104 7.51304 6.74472 7.45125 6.74335 7.32767C6.73648 6.80223 6.73877 6.27496 6.74335 5.75134C6.74335 5.23917 7.09212 4.89041 7.60338 4.88904C8.3 4.8866 8.99677 4.8866 9.6937 4.88904C10.2407 4.88904 10.5789 5.22865 10.5816 5.77606L10.5794 5.98661ZM15.896 11.891C15.9597 12.1267 16.042 12.3153 16.0558 12.5084C16.0974 13.0773 15.6896 13.5611 15.117 13.6527C14.5834 13.7373 14.0542 13.378 13.9073 12.8402C13.8931 12.7881 13.856 12.7098 13.8181 12.7029C13.6304 12.6649 13.4382 12.6466 13.2665 12.6242C13.2409 12.6476 13.234 12.6508 13.2331 12.6553C13.2253 12.6828 13.2199 12.7103 13.213 12.7377C12.7956 14.416 11.7764 15.5549 10.1555 16.1545C10.0425 16.1961 10.0292 16.2538 10.0292 16.354C10.0315 17.7244 10.0292 19.0948 10.032 20.4656C10.0359 20.7352 9.96376 21.0004 9.82371 21.2308C9.80521 21.2661 9.78884 21.3025 9.77472 21.3398H20.0566C20.3705 21.3398 20.4502 21.2597 20.4502 20.9448C20.4502 16.2735 20.4502 11.6025 20.4502 6.93176C20.4502 6.61595 20.371 6.53585 20.0575 6.53585H10.5794C10.5794 6.81505 10.5885 7.07182 10.5757 7.32722C10.5684 7.46453 10.6215 7.52173 10.7382 7.5826C12.2335 8.36573 13.0935 9.59375 13.2917 11.2735C13.3228 11.5367 13.3183 11.8045 13.3302 12.075C13.511 12.1001 13.6853 12.1299 13.8606 12.1445C13.8858 12.1427 13.9102 12.1351 13.9321 12.1225C13.9539 12.1099 13.9727 12.0926 13.987 12.0718C14.3138 11.539 14.7564 11.3683 15.3601 11.5445C15.382 11.5505 15.4049 11.5514 15.4272 11.5472C15.4495 11.543 15.4705 11.5338 15.4887 11.5202C15.6997 11.2813 15.9034 11.0364 16.1162 10.7847C15.7066 10.3229 15.4928 9.79468 15.5212 9.18273C15.5304 8.89058 15.5996 8.60346 15.7247 8.33926C15.8497 8.07507 16.0279 7.83946 16.248 7.64715C16.6344 7.29624 17.134 7.0957 17.6558 7.08201C18.1776 7.06832 18.687 7.24239 19.0913 7.57255C19.4949 7.89851 19.7695 8.35734 19.8661 8.8671C19.9627 9.37686 19.875 9.90434 19.6185 10.3554C19.3652 10.8108 18.9545 11.1583 18.4633 11.3326C17.7937 11.577 17.1524 11.4914 16.5368 11.1344L15.896 11.891ZM10.5794 9.4418C10.5794 9.67065 10.5794 9.867 10.5794 10.0656C10.5748 10.5664 10.2265 10.917 9.72667 10.9188C9.01814 10.9216 8.30993 10.9216 7.60201 10.9188C7.0903 10.9188 6.74473 10.5691 6.74107 10.0565C6.74107 9.85969 6.74107 9.66288 6.74107 9.45096C5.9973 10.0057 5.38855 11.2328 5.75151 12.5455C6.09616 13.7914 7.24591 14.7109 8.5197 14.7553C9.86397 14.801 11.0654 13.9937 11.5035 12.7473C11.9181 11.5683 11.5346 10.1627 10.5794 9.44363V9.4418ZM10.5885 8.13598C10.5848 8.15104 10.582 8.16633 10.5803 8.18175C10.5803 8.30762 10.5881 8.43394 10.5771 8.55844C10.5647 8.693 10.6192 8.76806 10.7263 8.84953C11.8705 9.71642 12.3836 10.8708 12.1763 12.2915C11.898 14.196 10.1569 15.4894 8.22722 15.2748C6.49985 15.0825 5.11895 13.5753 5.09882 11.8383C5.08463 10.5723 5.60734 9.56766 6.62756 8.81748C6.67013 8.78636 6.73146 8.74151 6.73421 8.69986C6.74565 8.51129 6.73924 8.32225 6.73924 8.11949C5.15559 8.92871 4.1967 10.8035 4.66538 12.7158C4.89361 13.6449 5.43812 14.4656 6.20548 15.037C6.97284 15.6085 7.91519 15.895 8.87075 15.8474C10.805 15.7599 12.4436 14.2765 12.7292 12.3359C13.0125 10.4117 11.9017 8.76395 10.5908 8.13781L10.5885 8.13598ZM10.031 7.92132C10.031 7.21341 10.031 6.50517 10.031 5.79664C10.031 5.52797 9.9395 5.43735 9.67129 5.4369C8.99755 5.4369 8.32366 5.4369 7.64962 5.4369C7.38049 5.4369 7.28986 5.52844 7.2894 5.7962C7.2894 7.19982 7.2894 8.60467 7.2894 10.0107C7.2894 10.2799 7.38093 10.3705 7.64915 10.3709C8.32289 10.3709 8.99677 10.3709 9.67082 10.3709C9.93949 10.3709 10.0306 10.2794 10.031 10.0112C10.0316 9.31577 10.0316 8.61961 10.031 7.92268V7.92132ZM7.84459 16.3705C7.84871 16.3572 7.83956 16.3733 7.83956 16.3893C7.83956 17.7825 7.83498 19.1758 7.83956 20.569C7.83956 20.9054 8.09496 21.2048 8.41627 21.3013C8.95407 21.4643 9.47767 21.0725 9.47904 20.4926C9.48209 19.15 9.48209 17.8074 9.47904 16.4648C9.47812 16.4323 9.47522 16.3999 9.47035 16.3678L7.84459 16.3705ZM19.3531 9.2761C19.3517 8.83997 19.1775 8.42216 18.8687 8.11423C18.5598 7.80631 18.1415 7.63342 17.7053 7.63342C17.2691 7.63463 16.8512 7.80875 16.5432 8.11763C16.2352 8.42651 16.0622 8.84494 16.0622 9.28115C16.0634 9.71737 16.2375 10.1353 16.5464 10.4433C16.8553 10.7513 17.2737 10.9243 17.7099 10.9243C18.1464 10.9231 18.5647 10.7487 18.8727 10.4394C19.1808 10.1302 19.3536 9.71127 19.3531 9.27474V9.2761ZM15.5143 12.5661C15.5127 12.4219 15.4547 12.284 15.3529 12.182C15.2511 12.0799 15.1134 12.0216 14.9692 12.0196C14.825 12.0196 14.6866 12.0762 14.5839 12.1774C14.4811 12.2785 14.4222 12.416 14.42 12.5601C14.4196 12.633 14.4336 12.7052 14.4613 12.7726C14.489 12.84 14.5297 12.9013 14.5811 12.9529C14.6325 13.0045 14.6937 13.0454 14.761 13.0733C14.8283 13.1012 14.9005 13.1155 14.9733 13.1153C15.1175 13.1122 15.2547 13.0529 15.3558 12.95C15.4569 12.8472 15.5137 12.7089 15.5143 12.5647V12.5661Z" fill="black"/>
<path d="M10.8613 18.5874V18.0556H11.3955V15.8687H13.0432V18.0382H14.1417V14.2214H15.7821V18.0382H16.8806V12.0317H18.5283V18.0418H19.0675V18.5874H10.8613ZM17.4408 18.0382H17.9685V12.5782H17.4408V18.0382ZM14.7042 14.7693V18.0373H15.2319V14.7693H14.7042ZM12.4866 18.0437V16.4202H11.9593V18.0437H12.4866Z" fill="black"/>
<path d="M13.6028 20.7783V19.1548H16.3234V20.7783H13.6028ZM14.152 20.229H15.7755V19.7017H14.1516L14.152 20.229Z" fill="black"/>
<path d="M13.0373 20.784H10.8655V19.1587H13.0364L13.0373 20.784ZM12.4922 19.7088H11.4111V20.2338H12.4922V19.7088Z" fill="black"/>
<path d="M16.8933 20.7783V19.1548H19.0656V20.7783H16.8933ZM18.5227 19.7054H17.4476V20.235H18.5227V19.7054Z" fill="black"/>
<path d="M6.72672 12.5601H6.20264V12.0269H6.72672V12.5601Z" fill="black"/>
<path d="M7.83085 12.0312V12.5562H7.29761V12.0312H7.83085Z" fill="black"/>
<path d="M8.39795 12.0249H8.92478V12.5522H8.39795V12.0249Z" fill="black"/>
<path d="M10.0227 12.5596H9.49219V12.0273H10.0213L10.0227 12.5596Z" fill="black"/>
<path d="M10.5881 12.0249H11.1159V12.5558H10.5881V12.0249Z" fill="black"/>
<path d="M7.84473 6.52288V5.99561H9.46866V6.52288H7.84473Z" fill="black"/>
<path d="M7.84473 7.62005V7.09277H9.46821V7.62005H7.84473Z" fill="black"/>
<path d="M9.47545 8.18848V8.71714H7.84741V8.18848H9.47545Z" fill="black"/>
<path d="M7.84473 9.81247V9.28564H9.46821V9.81247H7.84473Z" fill="black"/>
<path d="M17.4378 10.4438L16.7188 9.72525L17.1019 9.34718L17.3957 9.73439L18.5926 8.52881L18.9734 8.91053C18.4568 9.4259 17.9449 9.937 17.4378 10.4438Z" fill="black"/>
</svg>
