<svg width="24" height="25" viewBox="0 0 24 25" fill="none" xmlns="http://www.w3.org/2000/svg">
<rect y="0.887207" width="24" height="24" rx="3" fill="#ECECEC"/>
<path d="M18.5648 4.88721H18.9447C18.9804 4.89942 19.0154 4.91414 19.0518 4.92385C19.7367 5.10392 20.1408 5.79538 19.9531 6.4668C19.8832 6.72563 19.7313 6.95484 19.5201 7.12004C19.3089 7.28525 19.0499 7.37755 18.7818 7.38311C18.2181 7.39626 17.7332 7.05617 17.5632 6.51502C17.53 6.41043 17.4858 6.37817 17.3812 6.38287C17.2058 6.39101 17.0298 6.38506 16.8541 6.38506H16.2512V6.56388C16.2512 7.14469 16.2512 7.72571 16.2512 8.30694C16.2512 8.55747 16.1682 8.63701 15.9151 8.63733H14.4973V9.03035C14.4973 9.25645 14.6323 9.38892 14.8653 9.38923C15.5343 9.38923 16.2033 9.38672 16.8723 9.39205C16.9828 9.39205 17.0289 9.36324 17.0658 9.25363C17.1596 8.95461 17.3635 8.7024 17.6363 8.54808C17.9091 8.39377 18.2304 8.34887 18.535 8.4225C18.8204 8.48934 19.0733 8.65429 19.2495 8.88856C19.4257 9.12283 19.514 9.41153 19.499 9.70427C19.4677 10.3159 19.006 10.7978 18.3743 10.8811C17.8134 10.955 17.245 10.5861 17.0655 10.019C17.0317 9.91221 16.985 9.88685 16.8829 9.88779C16.4043 9.89248 15.9258 9.88966 15.4472 9.89029C15.4062 9.89029 15.3652 9.89561 15.3219 9.89875C15.3247 9.91205 15.329 9.92498 15.3348 9.93726C15.8484 10.5482 16.1557 11.2463 16.2315 12.0442C16.2349 12.0777 16.2941 12.1288 16.3298 12.1322C16.4507 12.1432 16.5735 12.1347 16.6956 12.1372C16.9102 12.1416 16.9985 12.2277 17.0019 12.4404C17.005 12.6405 17.0019 12.8409 17.0019 13.041C17.0019 13.2352 17.0019 13.429 17.0019 13.6401C17.1209 13.6401 17.2233 13.6307 17.3233 13.6423C17.4651 13.6586 17.5293 13.6147 17.5785 13.4682C17.793 12.8281 18.499 12.4898 19.142 12.7025C19.4542 12.8049 19.7133 13.0265 19.863 13.3189C20.0127 13.6114 20.041 13.9511 19.9416 14.2642C19.8434 14.5751 19.6272 14.8351 19.3395 14.9885C19.0518 15.1418 18.7154 15.1762 18.4025 15.0844C17.9327 14.9444 17.6509 14.6184 17.5199 14.139C17.2901 14.139 17.0614 14.139 16.8328 14.139C16.5822 14.139 16.5017 14.0566 16.5005 13.8029C16.5005 13.4898 16.5005 13.1782 16.5005 12.8656V12.6558C16.255 12.6167 16.238 12.6245 16.2236 12.7664C16.1536 13.485 15.8743 14.1672 15.4203 14.7286C15.3852 14.7725 15.352 14.8179 15.3013 14.8852H15.6163C15.9352 14.8852 15.9988 14.9497 15.9988 15.2736C15.9988 16.25 15.9988 17.2264 15.9988 18.2029V18.3908H16.1597C16.565 18.3908 16.9703 18.3861 17.3756 18.3942C17.4892 18.3964 17.5322 18.3595 17.566 18.2536C17.6458 17.9977 17.8073 17.7749 18.0257 17.6194C18.2442 17.4639 18.5075 17.3841 18.7755 17.3924C19.0409 17.3962 19.298 17.4852 19.5089 17.6462C19.7198 17.8073 19.8734 18.0318 19.9469 18.2868C20.0218 18.5416 20.0136 18.8135 19.9235 19.0633C19.8334 19.3131 19.6661 19.5277 19.4458 19.676C19.223 19.8253 18.9581 19.8988 18.6902 19.8857C18.4224 19.8726 18.1659 19.7736 17.9587 19.6033C17.7301 19.4192 17.5964 19.1759 17.5203 18.8893H15.8603C15.5722 18.8893 15.4983 18.8148 15.4983 18.5232C15.4983 17.5368 15.4983 16.5505 15.4983 15.5645C15.4983 15.5084 15.4926 15.4524 15.4889 15.3857C15.2781 15.3857 15.0817 15.3778 14.8891 15.3891C14.7991 15.3931 14.7116 15.4198 14.6348 15.4668C14.3075 15.6841 13.9624 15.8623 13.5834 15.9678C13.3927 16.0217 13.1985 16.064 12.9996 16.1131V16.5265C12.9996 16.8162 12.9276 16.8876 12.6344 16.8879H12.008V17.4065L12.1214 17.4435C12.7647 17.6526 13.1283 18.3047 12.9608 18.9491C12.7932 19.5936 12.1581 19.9879 11.4957 19.8573C10.9632 19.753 10.5401 19.2751 10.5075 18.745C10.4706 18.1453 10.8013 17.631 11.3556 17.4557C11.4809 17.4162 11.5122 17.3617 11.5047 17.2427C11.496 17.0724 11.5022 16.9011 11.5025 16.7301C11.5025 16.4579 11.5749 16.3856 11.8521 16.3856C12.0657 16.3856 12.2789 16.3856 12.501 16.3856C12.501 16.327 12.501 16.2885 12.501 16.25C12.501 16.2115 12.4941 16.1764 12.4904 16.1373C11.6817 16.1203 10.9557 15.8867 10.3061 15.417C10.2837 15.3986 10.2564 15.3871 10.2275 15.3838C9.9065 15.3813 9.58548 15.3838 9.25004 15.3838V15.5717C9.25004 16.5726 9.25004 17.5734 9.25004 18.5743C9.25004 18.796 9.16079 18.8853 8.93905 18.8874C8.50934 18.8874 8.07964 18.8874 7.64994 18.8874H7.48081C7.4639 18.9404 7.45231 18.9773 7.4401 19.0127C7.35793 19.2732 7.19244 19.4995 6.96909 19.6568C6.74575 19.8141 6.47691 19.8937 6.20392 19.8833C5.65677 19.8673 5.17946 19.4799 5.03695 18.9376C5.02756 18.9009 5.01284 18.8658 5.00063 18.8298V18.449C5.00987 18.4381 5.01708 18.4256 5.02192 18.4121C5.12089 17.8302 5.63202 17.4162 6.16508 17.3905C6.77769 17.3611 7.24435 17.6865 7.45294 18.3025C7.48206 18.3886 7.52873 18.3873 7.59325 18.387C7.94465 18.387 8.29606 18.387 8.64715 18.387C8.68205 18.3847 8.71678 18.3802 8.75113 18.3735V18.206C8.75113 17.2108 8.75113 16.2154 8.75113 15.22C8.75113 14.9673 8.83224 14.8846 9.08186 14.8833C9.27917 14.8833 9.47648 14.8833 9.66941 14.8833C9.67474 14.8599 9.67818 14.852 9.6763 14.852C9.64091 14.8057 9.6049 14.7581 9.56856 14.7136C9.1398 14.1772 8.86812 13.5324 8.7837 12.8509C8.75238 12.612 8.75708 12.6114 8.49963 12.6568V12.809C8.49963 13.1409 8.49963 13.4726 8.49963 13.8045C8.49963 14.0569 8.41757 14.1377 8.16608 14.1387C7.93776 14.1387 7.70913 14.1387 7.48144 14.1387L7.44135 14.2617C7.26314 14.8032 6.76391 15.1571 6.20799 15.1364C5.93522 15.1257 5.67332 15.0266 5.46177 14.8541C5.25022 14.6816 5.10046 14.445 5.03508 14.18C5.02443 14.1387 5.01222 14.0976 5.00063 14.0547V13.7065C5.07611 13.5286 5.12591 13.3307 5.23239 13.176C5.52429 12.7501 5.95023 12.5779 6.45385 12.659C6.94118 12.7376 7.26815 13.0316 7.4379 13.4985C7.45669 13.5505 7.49772 13.6294 7.53499 13.6332C7.68313 13.6489 7.83409 13.6398 7.99789 13.6398V13.4625C7.99789 13.1206 7.9957 12.7789 7.99789 12.4369C8.00009 12.2312 8.08904 12.1435 8.29355 12.1382C8.4157 12.1347 8.53816 12.1422 8.65967 12.1338C8.69726 12.1313 8.75896 12.0968 8.76397 12.0686C8.78871 11.9315 8.79779 11.7915 8.81408 11.6362H8.64057C8.03015 11.6362 7.41911 11.6362 6.80932 11.6362C6.58508 11.6362 6.49957 11.5488 6.49613 11.3261C6.49613 11.1752 6.49613 11.0242 6.49613 10.8714C6.43725 10.8514 6.38651 10.8345 6.3364 10.8169C5.76764 10.6175 5.41561 10.034 5.51395 9.45499C5.62044 8.82867 6.12155 8.39463 6.74167 8.39024C7.03735 8.38947 7.3238 8.49315 7.55048 8.68297C7.77716 8.87279 7.92952 9.13656 7.98067 9.42775C8.03031 9.71939 7.97483 10.0192 7.82411 10.2737C7.67338 10.5283 7.43719 10.7211 7.1576 10.8179C6.97344 10.8805 6.95872 10.9156 7.02292 11.1367C7.64492 11.1367 8.26975 11.1367 8.89426 11.1332C8.91587 11.1294 8.9363 11.1206 8.95391 11.1075C8.97153 11.0944 8.98585 11.0774 8.99573 11.0578C9.36989 10.117 10.0126 9.42702 10.9238 8.98775C10.9419 8.97893 10.9578 8.96627 10.9706 8.95063C10.9833 8.935 10.9924 8.91679 10.9974 8.89725C11.0049 8.73347 11.0008 8.56906 11.0008 8.38836H10.8254C10.3274 8.38836 9.82935 8.38836 9.33116 8.38836C9.07685 8.38836 9.00012 8.31039 8.99949 8.05453C8.99949 7.5566 8.99949 7.05836 8.99949 6.56044C8.99949 6.50469 8.99323 6.44895 8.98916 6.38726C8.52719 6.38726 8.08308 6.39164 7.63898 6.38443C7.51714 6.38224 7.46672 6.41763 7.4282 6.53757C7.35043 6.7783 7.19982 6.98895 6.99718 7.14041C6.79454 7.29187 6.54986 7.37667 6.29694 7.38311C5.76451 7.39908 5.29158 7.09751 5.09396 6.61273C5.05606 6.51878 5.03132 6.42014 5 6.32337V5.94256C5.01221 5.90686 5.026 5.87179 5.03633 5.83546C5.16505 5.38733 5.4463 5.08575 5.89292 4.9417C5.9471 4.92447 6.00097 4.906 6.05484 4.88783H6.436C6.51429 4.91226 6.59259 4.93324 6.67058 4.96174C7.10059 5.12302 7.35961 5.43649 7.47893 5.8862H9.14857C9.42481 5.8862 9.50185 5.96417 9.50217 6.24571C9.50217 6.73841 9.50217 7.23123 9.50217 7.72414C9.50217 7.77519 9.50718 7.82655 9.51 7.88605H9.68727C10.1849 7.88605 10.6829 7.88605 11.1806 7.88605C11.4127 7.88605 11.5003 7.9753 11.5019 8.20391C11.5019 8.38836 11.5019 8.57313 11.5019 8.77073L11.7481 8.71029V8.52709C11.7481 7.75609 11.7481 6.98519 11.7481 6.21439C11.7481 5.97294 11.8352 5.88714 12.0735 5.88588C12.2232 5.88588 12.3729 5.88588 12.5232 5.88588C12.6219 5.48441 12.8436 5.19411 13.2013 5.01654C13.3128 4.96111 13.4365 4.9298 13.5549 4.88752H13.9357C13.9671 4.89817 13.9984 4.91132 14.0297 4.91884C14.2737 4.97584 14.4951 5.10444 14.6654 5.28813C14.8358 5.47181 14.9474 5.70222 14.9859 5.94977C15.0229 6.20021 14.9833 6.45599 14.8723 6.68352C14.7613 6.91105 14.5841 7.09969 14.3639 7.22465C14.1438 7.34868 13.8914 7.40311 13.6398 7.38075C13.3881 7.35838 13.1492 7.26028 12.9545 7.09939C12.7265 6.91462 12.5953 6.66941 12.5217 6.39414H12.2598V8.64484C12.8618 8.61008 13.4321 8.71499 13.999 8.94955C13.999 8.76165 13.9971 8.59755 13.999 8.43314C14.0025 8.23084 14.093 8.14065 14.2984 8.14002C14.7278 8.14002 15.1575 8.14002 15.5869 8.14002H15.752V7.96121C15.752 7.3756 15.752 6.78998 15.752 6.20437C15.752 5.97357 15.8384 5.8887 16.072 5.88776C16.3057 5.88682 16.5309 5.88776 16.7611 5.88776H17.5234C17.6236 5.49286 17.8391 5.19881 18.198 5.02187C18.3126 4.96268 18.4414 4.93074 18.5648 4.88721ZM9.24817 12.3806C9.24504 14.1731 10.7008 15.6353 12.4919 15.6374C14.2831 15.6396 15.7463 14.1819 15.7491 12.3921C15.7491 11.5305 15.4077 10.7039 14.7994 10.0935C14.1912 9.48305 13.3659 9.13849 12.5041 9.13526C11.6423 9.13492 10.8155 9.4764 10.2051 10.0848C9.59471 10.6932 9.25057 11.5188 9.24817 12.3806ZM18.7445 6.88393C18.8435 6.88509 18.9417 6.86658 19.0335 6.82947C19.1252 6.79236 19.2087 6.7374 19.2791 6.66776C19.3494 6.59813 19.4052 6.51522 19.4432 6.42384C19.4813 6.33246 19.5008 6.23444 19.5006 6.13547C19.499 5.93825 19.4202 5.74949 19.2812 5.60956C19.1422 5.46963 18.954 5.38964 18.7567 5.3867C18.6578 5.38603 18.5598 5.40502 18.4683 5.44255C18.3768 5.48009 18.2937 5.53543 18.2238 5.60535C18.1538 5.67528 18.0985 5.7584 18.0609 5.84988C18.0234 5.94137 18.0044 6.0394 18.0051 6.13829C18.0044 6.23588 18.023 6.33264 18.0598 6.42301C18.0966 6.51339 18.151 6.59559 18.2197 6.66489C18.2884 6.73418 18.3702 6.78921 18.4602 6.8268C18.5503 6.8644 18.6469 6.88381 18.7445 6.88393ZM11.0017 18.6363C11.0012 18.7351 11.0203 18.8331 11.0579 18.9245C11.0955 19.0159 11.1509 19.099 11.2208 19.1689C11.2907 19.2387 11.3737 19.2941 11.4652 19.3317C11.5566 19.3693 11.6546 19.3884 11.7534 19.3879C11.9507 19.3852 12.1392 19.3053 12.2783 19.1653C12.4174 19.0253 12.4961 18.8364 12.4976 18.6391C12.4979 18.5401 12.4786 18.442 12.4407 18.3506C12.4027 18.2591 12.347 18.1761 12.2766 18.1065C12.2063 18.0368 12.1227 17.9818 12.0309 17.9448C11.9391 17.9077 11.8408 17.8893 11.7418 17.8906C11.6442 17.8907 11.5475 17.91 11.4573 17.9476C11.3672 17.9852 11.2854 18.0402 11.2166 18.1095C11.1478 18.1788 11.0934 18.261 11.0565 18.3514C11.0197 18.4418 11.001 18.5386 11.0017 18.6363ZM6.99505 18.6435C6.99662 18.5458 6.97884 18.4488 6.94272 18.3581C6.9066 18.2673 6.85286 18.1846 6.78461 18.1147C6.71636 18.0449 6.63494 17.9892 6.54505 17.9509C6.45517 17.9127 6.3586 17.8926 6.26092 17.8919C6.16195 17.8896 6.0635 17.9071 5.97134 17.9432C5.87918 17.9794 5.79514 18.0335 5.72412 18.1025C5.6531 18.1714 5.59653 18.2539 5.55771 18.3449C5.51888 18.436 5.49858 18.5339 5.49798 18.6328C5.49756 18.8327 5.57648 19.0246 5.71741 19.1663C5.85834 19.308 6.04976 19.3881 6.24965 19.3888C6.44714 19.3882 6.63635 19.3094 6.77599 19.1698C6.91564 19.0302 6.99439 18.841 6.99505 18.6435ZM18.7552 17.8919C18.6575 17.8903 18.5604 17.9081 18.4696 17.9442C18.3788 17.9803 18.2961 18.034 18.2262 18.1023C18.1563 18.1706 18.1006 18.2521 18.0624 18.342C18.0242 18.4319 18.0042 18.5286 18.0035 18.6263C18.0014 18.7252 18.019 18.8236 18.0552 18.9157C18.0914 19.0078 18.1456 19.0918 18.2146 19.1628C18.2836 19.2337 18.366 19.2903 18.457 19.3292C18.548 19.368 18.6459 19.3884 18.7448 19.3891C18.9446 19.3891 19.1362 19.3101 19.2778 19.1692C19.4194 19.0284 19.4995 18.8372 19.5006 18.6375C19.5003 18.4401 19.422 18.2508 19.2826 18.1109C19.1433 17.971 18.9542 17.892 18.7567 17.891L18.7552 17.8919ZM6.99473 6.14299C6.99594 6.04399 6.97743 5.94574 6.94029 5.85396C6.90314 5.76218 6.84811 5.67871 6.77838 5.60841C6.70866 5.53811 6.62564 5.48239 6.53417 5.44448C6.44269 5.40658 6.34459 5.38726 6.24557 5.38764C6.04826 5.38942 5.85948 5.4684 5.71969 5.60766C5.57989 5.74691 5.5002 5.93536 5.49767 6.13265C5.49708 6.23152 5.51613 6.32951 5.5537 6.42096C5.59127 6.51241 5.64661 6.5955 5.71653 6.66541C5.78644 6.73531 5.86953 6.79065 5.96099 6.82822C6.05245 6.86578 6.15046 6.88483 6.24933 6.88424C6.34715 6.88495 6.44414 6.86625 6.53469 6.82924C6.62524 6.79223 6.70755 6.73764 6.77687 6.66862C6.84619 6.5996 6.90113 6.51753 6.93853 6.42715C6.97592 6.33676 6.99502 6.23986 6.99473 6.14205V6.14299ZM13.7456 6.88518C13.8435 6.88663 13.9407 6.86867 14.0316 6.83233C14.1225 6.796 14.2053 6.74201 14.2752 6.67349C14.3451 6.60497 14.4007 6.52328 14.4388 6.43314C14.4769 6.34299 14.4968 6.24619 14.4973 6.14831C14.4992 6.04934 14.4814 5.95098 14.4449 5.85895C14.4085 5.76693 14.354 5.68308 14.2849 5.61229C14.2157 5.5415 14.1331 5.48518 14.0419 5.44661C13.9507 5.40804 13.8528 5.388 13.7538 5.38764C13.5542 5.38822 13.3629 5.46794 13.222 5.6093C13.0811 5.75067 13.002 5.94214 13.0021 6.14173C13.0034 6.33842 13.0822 6.52666 13.2214 6.66565C13.3606 6.80464 13.5489 6.88318 13.7456 6.88424V6.88518ZM6.74919 8.88942C6.55181 8.88883 6.36217 8.9661 6.22144 9.10448C6.08071 9.24285 6.00024 9.43115 5.99752 9.62849C5.99693 9.82843 6.07536 10.0205 6.21573 10.1629C6.3561 10.3053 6.54704 10.3865 6.747 10.3888C6.84597 10.3886 6.94391 10.3688 7.03517 10.3305C7.12644 10.2922 7.20922 10.2363 7.27875 10.1658C7.34828 10.0954 7.40317 10.0119 7.44027 9.92018C7.47737 9.82843 7.49594 9.73026 7.49491 9.6313C7.49491 9.53358 7.47559 9.43681 7.43806 9.34658C7.40054 9.25634 7.34554 9.17441 7.27624 9.10549C7.20694 9.03658 7.12471 8.98204 7.03426 8.94501C6.94381 8.90798 6.84693 8.8892 6.74919 8.88973V8.88942ZM17.504 9.63538C17.5034 9.83257 17.5805 10.0221 17.7187 10.1627C17.8569 10.3034 18.045 10.384 18.2422 10.387C18.4423 10.3872 18.6345 10.3084 18.7767 10.1676C18.919 10.0268 18.9998 9.8355 19.0017 9.63538C19.0016 9.53641 18.9819 9.43843 18.9438 9.34711C18.9056 9.25579 18.8497 9.17293 18.7794 9.10331C18.709 9.0337 18.6256 8.9787 18.5339 8.94151C18.4421 8.90431 18.344 8.88565 18.245 8.8866C18.147 8.88651 18.0499 8.90588 17.9595 8.94357C17.869 8.98127 17.787 9.03654 17.718 9.10619C17.6491 9.17585 17.5947 9.25849 17.5579 9.34933C17.5212 9.44017 17.5028 9.53739 17.504 9.63538ZM18.0051 13.8869C18.0046 14.0842 18.0819 14.2738 18.2202 14.4145C18.3586 14.5552 18.5469 14.6357 18.7442 14.6385C18.9442 14.6385 19.1361 14.5596 19.2782 14.4188C19.4202 14.278 19.5008 14.0868 19.5025 13.8869C19.5025 13.7879 19.4829 13.6898 19.4447 13.5985C19.4065 13.5071 19.3505 13.4243 19.28 13.3547C19.2095 13.2852 19.1259 13.2304 19.034 13.1935C18.9422 13.1565 18.8439 13.1383 18.7448 13.1397C18.6468 13.1394 18.5498 13.1586 18.4592 13.1961C18.3687 13.2337 18.2865 13.2888 18.2175 13.3584C18.1485 13.428 18.094 13.5106 18.0572 13.6014C18.0205 13.6923 18.0021 13.7895 18.0032 13.8875L18.0051 13.8869ZM6.24871 13.14C6.05125 13.1393 5.86157 13.2169 5.72122 13.3558C5.58086 13.4947 5.50126 13.6835 5.49986 13.8809C5.4996 14.0809 5.57853 14.2728 5.71938 14.4148C5.86023 14.5567 6.05155 14.6371 6.25152 14.6385C6.35049 14.6379 6.44838 14.6178 6.53953 14.5793C6.63069 14.5407 6.71331 14.4845 6.78264 14.4139C6.85196 14.3433 6.90662 14.2596 6.94345 14.1678C6.98028 14.0759 6.99856 13.9777 6.99724 13.8787C6.997 13.7808 6.97734 13.684 6.93939 13.5937C6.90144 13.5035 6.84596 13.4217 6.77617 13.353C6.70637 13.2843 6.62365 13.2302 6.53278 13.1938C6.44192 13.1573 6.34472 13.1392 6.24682 13.1406L6.24871 13.14Z" fill="black"/>
</svg>
