<svg width="24" height="25" viewBox="0 0 24 25" fill="none" xmlns="http://www.w3.org/2000/svg">
<rect y="0.887207" width="24" height="24" rx="3" fill="#ECECEC"/>
<path d="M12.4863 4.89001C13.7249 4.89001 14.9634 4.89001 16.2019 4.89001C16.5751 4.89001 16.6542 4.96013 16.6542 5.28455C16.6542 6.92815 16.6542 8.57175 16.6579 10.2149C16.6644 10.2993 16.6446 10.3836 16.6007 10.4587C16.5568 10.5338 16.4906 10.5968 16.4091 10.6407C15.3284 11.3078 14.2592 11.9898 13.1748 12.6508C12.964 12.7808 12.9239 12.8935 13.0088 13.1047C13.2302 13.654 13.4305 14.2108 13.6208 14.7689C13.6767 14.9325 13.76 14.9872 13.9514 14.9854C14.8207 14.9765 15.6911 14.9746 16.5599 14.9882C16.6964 14.9905 16.8799 15.055 16.9542 15.1466C17.0712 15.2906 16.9442 15.4168 16.796 15.5122C16.0838 15.9675 15.3779 16.4308 14.662 16.8809C14.497 16.9847 14.4643 17.0777 14.5302 17.2488C14.8123 17.9851 15.0748 18.7274 15.3473 19.4665C15.4001 19.6095 15.4354 19.7731 15.2561 19.8311C15.1853 19.8479 15.1113 19.8517 15.0387 19.8421C14.9662 19.8326 14.8966 19.8099 14.8344 19.7755C14.1143 19.3304 13.4033 18.8737 12.7014 18.4053C12.5433 18.2992 12.4431 18.3118 12.2934 18.4109C11.5954 18.87 10.8874 19.3178 10.1847 19.7722C10.0423 19.8657 9.90051 19.9423 9.73129 19.8348C9.56206 19.7273 9.60793 19.5796 9.6617 19.4337C9.93162 18.7017 10.1952 17.9678 10.4715 17.2367C10.5305 17.0815 10.5136 16.9912 10.3518 16.8898C9.63481 16.4406 8.92839 15.9754 8.21881 15.5192C8.07225 15.4257 7.93149 15.3065 8.0364 15.1578C8.10283 15.0644 8.28787 14.9905 8.42125 14.9882C9.29953 14.9732 10.1778 14.9755 11.0571 14.984C11.239 14.984 11.3207 14.9344 11.3735 14.782C11.5785 14.1953 11.7952 13.611 12.015 13.0281C12.0678 12.8925 12.0535 12.8112 11.9096 12.7205C10.8141 12.045 9.72918 11.3555 8.63265 10.6814C8.4165 10.5487 8.31634 10.4075 8.31634 10.1672C8.32741 8.55493 8.32108 6.94171 8.32161 5.33036C8.32161 4.94237 8.38487 4.88721 8.82665 4.88721C10.0476 4.88721 11.2685 4.88721 12.4895 4.88721L12.4863 4.89001ZM12.509 13.4179C12.4563 13.5255 12.4347 13.5647 12.4194 13.6049C12.2306 14.1148 12.0428 14.6249 11.8558 15.1354C11.7261 15.4883 11.6913 15.5117 11.2812 15.5122C10.6925 15.5122 10.104 15.5122 9.51567 15.5122C9.44608 15.5122 9.37597 15.5234 9.24628 15.5346C9.38546 15.6281 9.46822 15.6842 9.5531 15.7389C10.0081 16.0311 10.4577 16.3307 10.9238 16.6117C11.1568 16.7519 11.2353 16.908 11.1236 17.1441C11.0492 17.3016 11.0002 17.4685 10.9412 17.6317C10.7925 18.0416 10.6449 18.4521 10.4746 18.9237C10.6043 18.848 10.6702 18.8125 10.7324 18.7727C11.2164 18.4623 11.7082 18.1613 12.179 17.8378C12.4178 17.6733 12.606 17.6803 12.8322 17.8453C13.0757 18.0234 13.3393 18.1795 13.5955 18.3436C13.8839 18.5278 14.1754 18.7096 14.5112 18.9228C14.4854 18.8246 14.477 18.7802 14.4617 18.7358C14.2619 18.1879 14.0668 17.6387 13.8581 17.0936C13.7843 16.901 13.8285 16.7664 14.0199 16.6533C14.1738 16.564 14.3193 16.463 14.4685 16.3667L15.7686 15.5253C15.6104 15.5178 15.525 15.5108 15.4407 15.5108C14.8523 15.5108 14.2635 15.5019 13.6751 15.515C13.3952 15.5211 13.2418 15.4374 13.1585 15.1901C12.9634 14.6203 12.7431 14.0546 12.509 13.4179ZM12.7794 5.429V12.2521C12.8849 12.1946 12.9555 12.1586 13.0241 12.1151C13.3836 11.8921 13.7368 11.6608 14.1032 11.4471C14.2745 11.3471 14.3425 11.234 14.342 11.0484C14.3341 9.25846 14.3373 7.46854 14.3367 5.67862C14.3367 5.59635 14.3278 5.51454 14.323 5.429H12.7794ZM12.1616 12.2484V5.42713H10.6902C10.6767 5.48179 10.6678 5.53726 10.6633 5.59308C10.6633 7.44641 10.6633 9.30068 10.6633 11.1559C10.6633 11.226 10.6902 11.3251 10.7456 11.3616C11.1995 11.6537 11.6608 11.9361 12.1616 12.2484ZM10.0571 10.9357V5.43507H8.9363C8.92154 5.46032 8.91469 5.46686 8.91469 5.47387C8.91047 7.01619 8.90818 8.55882 8.90783 10.1018C8.91049 10.1349 8.9207 10.1672 8.93782 10.1968C8.95494 10.2264 8.97863 10.2526 9.00747 10.2738C9.33801 10.4898 9.67699 10.6973 10.0571 10.9357ZM14.9298 10.9212C15.2709 10.7095 15.5593 10.5206 15.8587 10.3481C16.0169 10.2579 16.0754 10.1537 16.0743 9.98536C16.0669 8.52875 16.0706 7.07213 16.0696 5.61552C16.0696 5.55568 16.058 5.49584 16.0511 5.43367H14.9298V10.9212Z" fill="black"/>
</svg>
