<svg width="24" height="25" viewBox="0 0 24 25" fill="none" xmlns="http://www.w3.org/2000/svg">
<rect y="0.887207" width="24" height="24" rx="3" fill="#ECECEC"/>
<path d="M7.57007 17.3932V17.9393C7.11198 17.8926 7.04641 18.2396 6.92635 18.5361C6.72698 19.0268 6.52762 19.5172 6.31009 20.0461C6.55597 19.9861 6.76641 19.9333 6.97774 19.8827C7.98341 19.6407 8.99972 19.4713 10.04 19.4824C10.6106 19.4884 11.1785 19.5416 11.7075 19.7656C11.9818 19.8814 12.2356 20.0418 12.5152 20.1907C13.6839 19.3198 15.0564 19.4125 16.428 19.5901C17.1701 19.6858 17.9011 19.8642 18.6516 20.0084C18.6347 19.9569 18.6179 19.8921 18.5926 19.8303C18.3875 19.3254 18.1726 18.8239 17.9777 18.3151C17.902 18.1178 17.8005 17.9792 17.5701 17.9621C17.5191 17.9522 17.4695 17.9362 17.4226 17.9144V17.3872C17.6884 17.4614 17.9396 17.5129 18.1757 17.6094C18.2643 17.6455 18.2993 17.7918 18.3729 17.8763C18.4327 17.9458 18.5058 18.0264 18.5878 18.0521C18.8536 18.1337 19.1336 18.1808 19.3976 18.2666C19.5117 18.3062 19.6064 18.3854 19.6634 18.4889C20.1042 19.479 20.5327 20.4743 20.9602 21.47C21.067 21.7192 20.9549 21.8784 20.6735 21.8784C18.3255 21.8784 15.9774 21.8895 13.632 21.8672C13.3388 21.8646 13.041 21.7063 12.7575 21.5922C12.5719 21.5176 12.4128 21.5094 12.2347 21.5974C11.7505 21.8359 11.2366 21.8917 10.6943 21.8869C8.60543 21.8693 6.51654 21.8796 4.42722 21.8792C3.99881 21.8792 3.91286 21.7505 4.07944 21.3644C4.48348 20.4292 4.8924 19.4957 5.28935 18.5575C5.36777 18.3722 5.48429 18.2701 5.68454 18.2302C5.93033 18.1824 6.17343 18.1224 6.41288 18.0504C6.49085 18.0268 6.59009 17.9586 6.61135 17.89C6.68357 17.6725 6.82666 17.5635 7.05128 17.5232C7.22007 17.4915 7.38621 17.4395 7.57007 17.3932ZM4.65626 21.3614H4.92208C6.84837 21.3614 8.77644 21.352 10.701 21.3674C11.1684 21.3713 11.6127 21.3271 12.0261 21.1165C12.3464 20.9534 12.6436 20.9667 12.971 21.1122C13.2338 21.2289 13.5266 21.3485 13.807 21.3511C15.903 21.3709 17.9994 21.3614 20.0954 21.361C20.1649 21.361 20.2345 21.3546 20.3209 21.3503C20.2881 21.2645 20.2655 21.1958 20.2376 21.131C19.9386 20.4399 19.6125 19.7583 19.3515 19.0539C19.2271 18.7214 18.9971 18.6678 18.687 18.6249C18.7198 18.7107 18.7419 18.7784 18.7685 18.8436C18.9665 19.328 19.173 19.8097 19.3577 20.2992C19.3945 20.397 19.3905 20.5609 19.3285 20.627C19.2665 20.693 19.1008 20.7042 18.9953 20.6797C18.6369 20.5978 18.2865 20.4768 17.9321 20.3923C16.7886 20.1238 15.6345 19.923 14.4499 20.0315C13.7853 20.0929 13.1567 20.2516 12.7008 20.7866C12.5728 20.9371 12.4155 20.9183 12.2702 20.751C12.0208 20.4536 11.6736 20.2481 11.2866 20.1688C10.8627 20.083 10.428 20.0092 9.99742 20.0067C8.6422 19.9989 7.3326 20.2786 6.04782 20.6763C5.90871 20.7192 5.74966 20.7707 5.66859 20.6291C5.61498 20.5356 5.61454 20.3803 5.65441 20.2756C5.84181 19.7793 6.05314 19.2911 6.25206 18.7999C6.27376 18.7463 6.28617 18.6888 6.30876 18.6141C6.24122 18.6319 6.17275 18.6463 6.10364 18.657C5.87194 18.6793 5.7439 18.7977 5.67213 19.0157C5.58928 19.2662 5.46656 19.5047 5.36201 19.7484C5.12632 20.2761 4.8986 20.8016 4.65626 21.3614Z" fill="black"/>
<path d="M10.0212 9.04805C10.0212 9.24145 10.0212 9.43307 10.0212 9.62736C10.0212 9.80205 9.94416 9.91836 9.76894 9.92281C9.59373 9.92727 9.50678 9.81141 9.50331 9.6394C9.49769 9.34261 9.50029 9.04583 9.50331 8.74815C9.50331 8.5699 9.59936 8.45761 9.75553 8.39834C10.6333 8.06546 11.5111 7.7299 12.3919 7.40683C12.4869 7.37791 12.5883 7.38103 12.6814 7.41574C13.5466 7.73659 14.414 8.061 15.2736 8.40145C15.3278 8.42899 15.3756 8.46812 15.4138 8.51623C15.4521 8.56434 15.48 8.62032 15.4956 8.68042C15.5258 8.83014 15.3965 8.9108 15.2576 8.94423C15.2507 8.94423 15.2442 8.94913 15.2373 8.95136C15.0326 9.02043 14.7458 9.02934 14.6459 9.17417C14.5395 9.32969 14.6069 9.61355 14.6026 9.8426C14.5992 10.0061 14.6152 10.171 14.597 10.3328C14.5849 10.4433 14.5286 10.548 14.4927 10.6554C14.4672 10.7224 14.4455 10.7908 14.4278 10.8604C14.3413 11.2869 14.292 11.7276 14.1592 12.1393C13.91 12.9116 13.2701 13.3782 12.5373 13.3871C11.8321 13.396 11.1611 12.9317 10.9046 12.1839C10.7605 11.7619 10.7138 11.3051 10.619 10.8644C10.5972 10.7886 10.5709 10.7142 10.5403 10.6416C10.5083 10.5471 10.4538 10.4535 10.4512 10.3577C10.4391 10.0685 10.4469 9.77843 10.4469 9.48967C10.446 9.09351 10.443 9.09128 10.0212 9.04805ZM11.1711 10.8564L11.101 10.9076C11.2269 11.3368 11.3173 11.7819 11.4903 12.1901C11.679 12.6358 12.0783 12.8461 12.5403 12.8399C13.0106 12.8336 13.3787 12.5979 13.5959 12.1514C13.7915 11.7503 13.8447 11.3118 13.8927 10.8533C12.9928 11.0197 12.0714 11.0207 11.1711 10.8564ZM10.9799 9.3132V10.278C11.3151 10.3261 11.6413 10.3867 11.9697 10.4175C12.6092 10.4806 13.2544 10.4403 13.8819 10.298C13.9533 10.2815 14.067 10.2178 14.0701 10.1697C14.0882 9.89296 14.0792 9.61399 14.0792 9.30919C13.6197 9.45045 13.1962 9.59261 12.7653 9.70624C12.6083 9.74641 12.4442 9.74717 12.2868 9.70847C11.8559 9.59528 11.4319 9.45224 10.9799 9.3132ZM10.6273 8.63987C11.1057 8.78915 11.5358 8.90367 11.9528 9.05964C12.334 9.20269 12.6904 9.21695 13.0776 9.06543C13.496 8.901 13.9347 8.79093 14.4188 8.63987C13.7698 8.39478 13.1784 8.17018 12.5844 7.94871C12.5437 7.93468 12.4997 7.93468 12.459 7.94871C11.865 8.17018 11.2727 8.39522 10.6273 8.63987Z" fill="black"/>
<path d="M12.4932 14.7518C12.811 14.4951 13.1175 14.257 13.4117 14.0048C13.5615 13.8769 13.7004 13.8532 13.8848 13.9345C14.4904 14.2007 15.1106 14.4345 15.7063 14.7215C16.0395 14.8827 16.3483 15.1042 16.6366 15.3366C16.8967 15.5449 17.0053 15.8385 16.9998 16.1777C16.9885 16.9392 16.9966 17.7007 16.9962 18.4627C16.9962 18.5066 16.9962 18.5505 16.9962 18.5945C16.9885 18.7641 16.9054 18.8814 16.7238 18.8814C16.5421 18.8814 16.4541 18.7659 16.4513 18.5945C16.4486 18.2939 16.4513 17.9938 16.4513 17.6937C16.4513 17.1883 16.4445 16.683 16.4545 16.1781C16.4582 15.9777 16.396 15.809 16.2398 15.6948C16.001 15.519 15.759 15.3349 15.4911 15.2079C14.9621 14.9574 14.4132 14.7469 13.8761 14.5118C13.764 14.4626 13.6886 14.4679 13.596 14.5488C13.3994 14.7201 13.1969 14.8862 12.9867 15.0413C12.8805 15.1196 12.88 15.1947 12.9172 15.305C13.1297 15.9382 13.3304 16.5749 13.5474 17.2068C13.6105 17.3909 13.5792 17.5258 13.4403 17.662C13.2178 17.8817 13.0089 18.1133 12.7919 18.3379C12.5749 18.5624 12.4223 18.5576 12.2017 18.3291C11.9901 18.1094 11.7867 17.8826 11.5661 17.6699C11.4203 17.5285 11.3885 17.3874 11.4548 17.1954C11.6678 16.5802 11.8598 15.954 12.0727 15.3366C12.1222 15.1934 12.0968 15.1125 11.9751 15.0242C11.7281 14.8454 11.5102 14.5369 11.246 14.4969C10.9931 14.4591 10.6961 14.6942 10.4196 14.8111C10.115 14.9398 9.80581 15.0607 9.50887 15.2066C9.29365 15.3128 9.08681 15.4343 8.89004 15.57C8.64623 15.7347 8.53454 15.9562 8.54317 16.2625C8.5636 16.9941 8.54998 17.7266 8.54952 18.4596C8.55187 18.5182 8.55081 18.5769 8.54634 18.6353C8.52864 18.7852 8.44328 18.8841 8.28392 18.8871C8.11366 18.8902 8.01786 18.7913 8.00606 18.6292C7.99698 18.5057 8.00333 18.3805 8.00333 18.2561C8.00333 17.5531 8.01014 16.85 8.00015 16.1469C7.99561 15.8332 8.09096 15.5542 8.33159 15.3608C8.6258 15.1253 8.93907 14.8977 9.27823 14.7324C9.87164 14.4437 10.4932 14.2095 11.098 13.9415C11.2796 13.8606 11.4217 13.8786 11.5724 14.0074C11.8689 14.2557 12.1754 14.4943 12.4932 14.7518ZM12.5009 17.8567C12.6553 17.6954 12.7906 17.5588 12.9186 17.4173C12.9545 17.3773 12.9985 17.3096 12.9858 17.2696C12.8369 16.792 12.6789 16.3174 12.5218 15.8428C12.3256 16.3082 12.1713 16.77 12.0251 17.2345C12.019 17.261 12.0189 17.2885 12.0247 17.3151C12.0305 17.3417 12.0421 17.3668 12.0587 17.3887C12.1944 17.5438 12.3406 17.6893 12.5009 17.8567Z" fill="black"/>
<path d="M17.9378 8.40944C17.277 8.43175 16.6893 8.45896 16.1016 8.46521C16.0052 8.46521 15.9044 8.38134 15.8123 8.32468C15.6826 8.24661 15.5706 8.13687 15.4357 8.07754C15.165 7.95799 14.8852 7.85805 14.6058 7.76125C14.4852 7.71976 14.4328 7.65998 14.441 7.52258C14.4527 7.31514 14.4276 7.10503 14.4488 6.89804C14.47 6.69104 14.3861 6.59915 14.2019 6.5706C14.153 6.56301 14.1055 6.54695 14.0199 6.52599C14.0199 6.72227 14.0199 6.90295 14.0199 7.08406C14.0168 7.30712 13.9251 7.42801 13.7664 7.42355C13.5965 7.41909 13.5031 7.30533 13.5009 7.08897C13.4979 6.82131 13.5035 6.55364 13.5009 6.28598C13.4983 6.08925 13.5844 5.96211 13.7604 5.89519C14.6318 5.56507 15.5018 5.23228 16.3758 4.91019C16.4769 4.87781 16.5854 4.87969 16.6854 4.91554C17.5455 5.23362 18.4018 5.56284 19.2602 5.88582C19.4012 5.93891 19.5335 6.02322 19.4924 6.1807C19.4656 6.2842 19.3475 6.3868 19.2455 6.43854C19.0928 6.51617 18.9203 6.55587 18.7525 6.59781C18.634 6.62725 18.5912 6.6839 18.5947 6.81283C18.6033 7.16168 18.6042 7.51143 18.5947 7.86028C18.5916 7.95575 18.5363 8.04944 18.5038 8.14357C18.474 8.21631 18.4483 8.29078 18.4269 8.36662C18.3265 8.8212 18.2859 9.29898 18.1242 9.72769C17.6329 11.0178 16.0696 11.2891 15.2316 10.2487C15.1503 10.1475 15.1317 9.98598 15.1018 9.84724C15.0681 9.69378 15.1991 9.67727 15.2908 9.6688C15.3659 9.66516 15.4397 9.68955 15.4988 9.7375C15.6848 9.89498 15.8361 10.1145 16.0437 10.2224C16.6123 10.5182 17.3021 10.2875 17.5659 9.69021C17.738 9.28693 17.8141 8.83547 17.9378 8.40944ZM18.0675 6.81551C17.6247 6.94934 17.2026 7.09388 16.7702 7.20585C16.6065 7.24666 16.4357 7.24666 16.272 7.20585C15.8396 7.09432 15.4184 6.95068 14.9747 6.81506V7.76214C16.0125 8.00705 17.0396 8.01687 18.0649 7.7559L18.0675 6.81551ZM18.4191 6.14322C17.8137 5.91348 17.2649 5.69712 16.7088 5.49994C16.5893 5.46135 16.4612 5.46135 16.3416 5.49994C15.9187 5.64359 15.5027 5.81222 15.0845 5.96925C14.9496 6.02055 14.816 6.07497 14.6309 6.14769C15.2735 6.34576 15.8582 6.52643 16.4441 6.70487C16.4845 6.7191 16.5278 6.72172 16.5695 6.71245C17.1654 6.52955 17.7652 6.34442 18.4195 6.14367L18.4191 6.14322Z" fill="black"/>
<path d="M6.02045 6.53978C6.02045 6.74984 6.02045 6.94116 6.02045 7.13471C6.02045 7.31043 5.93656 7.42237 5.761 7.42103C5.58543 7.4197 5.50543 7.30107 5.50154 7.12981C5.49808 6.83992 5.50154 6.55004 5.50154 6.2606C5.49794 6.18212 5.51955 6.10462 5.56302 6.04011C5.60649 5.9756 5.6694 5.92769 5.74197 5.90381C6.62629 5.56755 7.51017 5.23128 8.39795 4.90482C8.49316 4.8774 8.59437 4.88209 8.68681 4.9182C9.54648 5.23708 10.4027 5.56621 11.2611 5.8891C11.4016 5.94217 11.5344 6.02646 11.492 6.18478C11.4639 6.28825 11.3454 6.39127 11.2429 6.44167C11.0829 6.52061 10.897 6.54424 10.7318 6.61515C10.6986 6.63344 10.6699 6.6593 10.6479 6.69075C10.6258 6.7222 10.611 6.75843 10.6046 6.79666C10.5899 7.0482 10.6077 7.30151 10.5925 7.55483C10.5858 7.59342 10.5708 7.62996 10.5485 7.6617C10.5261 7.69344 10.4972 7.71957 10.4637 7.73813C10.2124 7.84828 9.94475 7.92187 9.69827 8.0405C9.51492 8.1297 9.35665 8.27196 9.17935 8.37944C9.10517 8.43116 9.01914 8.46192 8.92984 8.46864C8.3426 8.45615 7.75579 8.43118 7.11104 8.40799C7.21526 8.80045 7.28142 9.22859 7.44228 9.61213C7.7065 10.2454 8.32314 10.4818 8.95362 10.2557C8.99341 10.2414 9.03276 10.2262 9.04573 10.2213L9.38648 10.6334C9.10627 10.8033 8.74692 10.9304 8.35082 10.8734C7.65893 10.7744 7.15039 10.3926 6.91515 9.71381C6.76683 9.28523 6.71234 8.82186 6.61677 8.37588C6.60942 8.33975 6.62153 8.29203 6.60294 8.26661C6.31364 7.87593 6.47321 7.42505 6.44683 7.00181C6.4265 6.61693 6.4451 6.61604 6.02045 6.53978ZM10.0771 6.81138C9.63124 6.94517 9.21567 7.0647 8.8066 7.20206C8.62398 7.26908 8.42471 7.27019 8.24141 7.20518C7.82714 7.06425 7.40552 6.94606 6.97915 6.81629V7.76176C7.97374 7.99546 8.95751 8.01597 9.94216 7.77871C9.9743 7.7663 10.003 7.74588 10.0256 7.71927C10.0482 7.69265 10.0641 7.66067 10.0719 7.62618C10.0849 7.36752 10.0771 7.10751 10.0771 6.81138ZM6.62758 6.14241C7.09807 6.28958 7.52488 6.39974 7.93395 6.55762C8.30828 6.7134 8.72641 6.71452 9.10151 6.56074C9.51232 6.40108 9.94129 6.29048 10.4148 6.14197C9.90194 5.94663 9.43578 5.79232 8.98778 5.59208C8.66865 5.44936 8.38627 5.44312 8.06498 5.58762C7.61179 5.7892 7.13958 5.94574 6.62758 6.14063V6.14241Z" fill="black"/>
<path d="M17.3078 14.9808L16.9827 14.557C17.2716 14.3909 17.1476 14.1605 17.0742 13.9336C16.9581 13.5719 16.8489 13.208 16.7154 12.7759C16.5704 13.2323 16.4447 13.6288 16.3126 14.0446L15.8463 13.812C15.9844 13.3644 16.1053 12.9129 16.2664 12.4776C16.3614 12.2226 16.3385 12.0494 16.0997 11.9195C16.0878 11.9113 16.0768 11.9019 16.0669 11.8913C15.7647 11.6269 15.4909 11.2234 15 11.7525C15.0371 11.4741 15.0432 11.2974 15.0864 11.1296C15.1364 10.9322 15.6226 10.8238 15.7936 10.9666C16.0958 11.2177 16.389 11.4749 16.7068 11.7468C16.9857 11.5089 17.2733 11.2798 17.541 11.0287C17.7137 10.8657 17.8709 10.8489 18.0842 10.9507C18.6304 11.2119 19.1904 11.4437 19.7383 11.6996C19.953 11.8018 20.1583 11.9233 20.3519 12.0626C20.7836 12.371 21.0284 12.764 20.9974 13.3429C20.9581 14.0671 20.9883 14.7967 20.9874 15.5213C20.9874 15.7584 20.9011 15.8813 20.737 15.887C20.5643 15.8932 20.4684 15.7641 20.4684 15.5174C20.4684 14.7394 20.4624 13.9618 20.4715 13.1825C20.474 12.9622 20.4084 12.786 20.2452 12.6627C20.0215 12.493 19.7957 12.3168 19.547 12.1935C19.0501 11.9468 18.5354 11.7375 18.0311 11.5049C17.9192 11.4534 17.8406 11.4556 17.7465 11.5437C17.566 11.7115 17.3786 11.8728 17.1852 12.023C17.0777 12.1054 17.0755 12.186 17.1131 12.3036C17.3061 12.9102 17.4814 13.523 17.6869 14.1253C17.769 14.3667 17.7482 14.5469 17.5574 14.7121C17.4696 14.797 17.3863 14.8867 17.3078 14.9808Z" fill="black"/>
<path d="M9.16067 13.8173L8.69163 14.0513L8.28973 12.7888C8.12082 13.3254 7.96144 13.7988 7.83325 14.2788C7.81246 14.3557 7.93156 14.4707 7.99349 14.5823L7.6873 14.9775C7.56127 14.8396 7.41878 14.7201 7.3274 14.5691C7.27505 14.4624 7.26423 14.3396 7.29708 14.2252C7.48201 13.5946 7.67907 12.9679 7.88349 12.3435C7.9294 12.2029 7.91943 12.1116 7.7934 12.0308C7.71178 11.9824 7.63862 11.9207 7.57686 11.8481C7.28322 11.4753 6.96664 11.4454 6.56126 11.6913C6.22952 11.8925 5.85273 12.0159 5.49846 12.1788C5.36074 12.242 5.22778 12.3158 5.09612 12.3913C4.69551 12.6201 4.47593 12.924 4.51145 13.4365C4.55779 14.1067 4.52271 14.7821 4.52271 15.4566C4.52482 15.5152 4.52366 15.5738 4.51924 15.6323C4.50235 15.7939 4.41357 15.8927 4.25116 15.887C4.10131 15.8821 4.01383 15.7868 4.0043 15.634C3.99693 15.5172 4.00127 15.4 4.00127 15.2827C4.00127 14.566 4.00603 13.8489 4.00127 13.1309C3.99823 12.8428 4.07402 12.578 4.28494 12.3992C4.57554 12.1533 4.88131 11.9109 5.21608 11.7379C5.7869 11.4432 6.38543 11.2074 6.97097 10.9391C7.13944 10.8618 7.26807 10.8886 7.40406 11.0093C7.68557 11.2601 7.97704 11.4994 8.28453 11.7603C8.5708 11.5179 8.85794 11.2772 9.14205 11.0322C9.26158 10.9298 9.37505 10.8363 9.54742 10.9189C9.73668 11.0098 9.97272 11.0405 9.95669 11.3409C9.95106 11.4467 9.98224 11.5543 10 11.6799C9.96426 11.6746 9.92942 11.6642 9.89649 11.6492C9.56171 11.3945 9.31528 11.5372 9.04763 11.7936C8.65785 12.1682 8.6427 12.1516 8.80467 12.668C8.92117 13.0435 9.03724 13.4198 9.16067 13.8173Z" fill="black"/>
</svg>
