<svg width="24" height="24" viewBox="0 0 24 24" fill="none" xmlns="http://www.w3.org/2000/svg">
<rect width="24" height="24" rx="3" fill="#ECECEC"/>
<path d="M12.0321 4H12.9694C13.2247 4.03346 13.4816 4.05871 13.7355 4.10156C15.1389 4.34139 16.3812 4.92701 17.4468 5.87133C18.758 7.03375 19.5776 8.47915 19.8855 10.2078C19.9342 10.4805 19.963 10.7567 20.0009 11.0315V11.9702C19.9788 12.1487 19.9601 12.3278 19.9345 12.5057C19.6997 14.1466 19.0228 15.5808 17.8454 16.7471C15.9227 18.6504 13.6075 19.3575 10.953 18.8312C9.12953 18.4707 7.65215 17.505 6.53052 16.0258C5.28737 14.3858 4.80361 12.5262 5.07161 10.4873C5.28766 8.84344 5.99627 7.42681 7.15957 6.24531C8.2809 5.10666 9.63207 4.39305 11.2087 4.11565C11.4814 4.06751 11.7573 4.03816 12.0321 4ZM8.43766 11.055C8.47291 10.0222 8.64244 8.99847 8.94197 8.00948L7.37914 7.30763C6.50028 8.39374 5.9995 9.63864 5.89676 11.055H8.43766ZM8.94314 14.9899C8.63815 14.0063 8.47964 12.9853 8.43561 11.9512H5.89471C6.00488 13.3698 6.49999 14.6166 7.38003 15.6918L8.94314 14.9899ZM16.0583 8.01096C16.3618 8.99491 16.5224 10.0123 16.565 11.0529H19.1053C18.9999 9.636 18.5003 8.3905 17.622 7.30792L16.0583 8.01096ZM17.6223 15.6924C18.5014 14.6048 19.0002 13.3616 19.1053 11.9482H16.565C16.5224 12.9894 16.3595 14.0101 16.0589 14.989L17.6223 15.6924ZM9.31946 11.0503H12.0538V8.59922L9.78531 8.27308C9.51066 9.17479 9.35407 10.1083 9.31946 11.0503ZM12.9441 11.0523H15.6823C15.6481 10.1098 15.4908 9.17572 15.2144 8.27397L12.9441 8.59922V11.0523ZM12.0509 14.4251V11.9488H9.31799C9.36056 12.9102 9.50938 13.8427 9.7947 14.7492C10.1795 14.6793 10.5465 14.6024 10.9166 14.5484C11.2935 14.4947 11.6713 14.4654 12.0509 14.4251ZM12.9465 14.4002L15.2158 14.726C15.4912 13.8245 15.6475 12.8909 15.6808 11.9488H12.9465V14.4002ZM12.9488 7.67807C13.6093 7.6527 14.2655 7.56015 14.9073 7.40186C14.4503 6.42319 13.9542 5.50558 12.9488 4.96546V7.67807ZM12.945 15.2881V18.0384C13.9554 17.4924 14.4532 16.575 14.9214 15.5638L12.945 15.2881ZM10.0947 7.40215C10.7367 7.5602 11.3931 7.65246 12.0538 7.67749V4.96076C11.0475 5.50939 10.5488 6.42407 10.0947 7.40215ZM10.1009 15.597C10.341 16.1606 10.6204 16.6728 10.9868 17.1345C11.2248 17.4345 11.492 17.7043 11.8222 17.9045C11.8929 17.9474 11.9704 17.9796 12.0488 18.0187V15.3216C11.3919 15.3476 10.7393 15.4398 10.1009 15.597ZM16.9906 6.64129C16.2969 6.00636 15.542 5.55195 14.6836 5.26722C15.1301 5.8496 15.47 6.48689 15.7624 7.17319L16.9906 6.64129ZM9.24108 15.8265L8.01261 16.359C8.70537 16.9936 9.46124 17.4477 10.3193 17.7339C9.87631 17.1539 9.53228 16.5231 9.2405 15.8265H9.24108ZM14.6845 17.7328C15.5417 17.4489 16.2958 16.993 16.9915 16.359C16.5696 16.1764 16.1716 16.0041 15.7615 15.8271C15.4683 16.5202 15.1278 17.1516 14.6839 17.7328H14.6845ZM9.24108 7.17348C9.53316 6.47749 9.87807 5.8452 10.3204 5.26545C9.46183 5.55401 8.70596 6.00548 8.01291 6.64188L9.24108 7.17348Z" fill="black"/>
</svg>
