<svg width="24" height="25" viewBox="0 0 24 25" fill="none" xmlns="http://www.w3.org/2000/svg">
<rect y="0.887207" width="24" height="24" rx="3" fill="#ECECEC"/>
<path d="M11.5967 4.88721H12.0664C12.0931 4.89786 12.1204 4.90659 12.1483 4.91334C13.1415 5.07598 13.8511 5.92471 13.8249 6.93138C13.8196 7.12837 13.778 7.32419 13.7509 7.53703H13.9198C15.0326 7.53703 16.1457 7.53703 17.2589 7.53703C18.105 7.5385 18.6631 8.09629 18.6634 8.94121C18.6645 12.1195 18.6645 15.2977 18.6634 18.476C18.6663 18.5784 18.66 18.6809 18.6446 18.7822C18.5216 19.4518 17.984 19.8869 17.2806 19.8872C13.6579 19.8872 10.0353 19.8872 6.413 19.8872C5.56163 19.8872 5.0009 19.3294 5.00061 18.4757C5.00061 15.2974 5.00061 12.1192 5.00061 8.94091C4.99786 8.83856 5.00444 8.73617 5.02027 8.63501C5.14504 7.96741 5.67877 7.53879 6.39011 7.53703C7.51304 7.53468 8.63597 7.53703 9.7589 7.53703C9.81379 7.53703 9.8684 7.53145 9.93152 7.52822C9.91478 7.45982 9.90363 7.41285 9.89218 7.36587C9.7705 6.87744 9.83802 6.36107 10.0812 5.92035C10.3244 5.47963 10.7252 5.14717 11.2033 4.98966C11.3313 4.9468 11.4652 4.92097 11.5967 4.88721ZM11.8227 18.8635H17.2278C17.544 18.8635 17.6373 18.7701 17.6373 18.4525C17.6373 15.2936 17.6373 12.1346 17.6373 8.97555C17.6373 8.65644 17.5472 8.56455 17.2295 8.56455H6.43414C6.11532 8.56455 6.02489 8.65526 6.0246 8.97291V18.4499C6.0246 18.7678 6.11766 18.8609 6.43238 18.8609L11.8227 18.8635ZM11.8195 7.53703C12.0291 7.53703 12.239 7.54378 12.4481 7.53263C12.5164 7.52623 12.5796 7.49348 12.6242 7.44132C12.9146 7.05028 12.8456 6.49013 12.4751 6.15839C12.2985 6.00145 12.0707 5.9143 11.8345 5.91328C11.5983 5.91225 11.3698 5.99742 11.1918 6.15282C10.8167 6.48544 10.7435 7.03854 11.0318 7.43369C11.0791 7.4898 11.1464 7.5252 11.2194 7.53233C11.4194 7.54525 11.6199 7.53703 11.8195 7.53703Z" fill="black"/>
<path d="M11.0535 18.3148C10.6574 18.3148 10.3195 18.1725 10.0398 17.8959C9.61975 17.4804 9.20208 17.0627 8.78677 16.6429C8.56541 16.4189 8.56482 16.1039 8.7759 15.8978C8.9814 15.6976 9.29201 15.7026 9.50984 15.9184C9.9094 16.3127 10.3046 16.711 10.7018 17.1085C10.9545 17.3607 11.148 17.3596 11.4034 17.1038C12.6775 15.8303 13.9512 14.5563 15.2243 13.2818C15.3432 13.1626 15.4721 13.0777 15.6471 13.0827C15.8576 13.0886 16.0126 13.1875 16.1009 13.3748C16.187 13.5563 16.1676 13.7362 16.0472 13.8998C16.0139 13.9416 15.9775 13.9808 15.9383 14.0172C14.6616 15.2954 13.3846 16.5733 12.1071 17.8507C11.8135 18.1446 11.4727 18.3143 11.0535 18.3148Z" fill="black"/>
<path d="M11.816 11.2578C10.8445 11.2578 9.87314 11.2578 8.90199 11.2578C8.5952 11.2578 8.40467 11.1246 8.33744 10.8715C8.31973 10.8042 8.3161 10.734 8.32682 10.6652C8.33753 10.5964 8.36236 10.5306 8.39971 10.4719C8.43707 10.4132 8.48615 10.3628 8.54389 10.324C8.60163 10.2851 8.66677 10.2586 8.73523 10.2462C8.79346 10.2367 8.8524 10.2325 8.91138 10.2335C10.8586 10.2335 12.806 10.2335 14.7536 10.2335C15.0668 10.2335 15.262 10.3692 15.3275 10.6275C15.3444 10.6963 15.3466 10.7679 15.334 10.8375C15.3214 10.9072 15.2943 10.9735 15.2545 11.032C15.2147 11.0906 15.163 11.1401 15.1028 11.1774C15.0426 11.2147 14.9752 11.2389 14.905 11.2484C14.8368 11.2559 14.7682 11.259 14.6995 11.2575C13.7386 11.2581 12.7774 11.2582 11.816 11.2578Z" fill="black"/>
<path d="M10.879 14.0377C10.2346 14.0377 9.5902 14.041 8.94609 14.0377C8.56444 14.0351 8.31814 13.7075 8.43499 13.3663C8.4984 13.1817 8.62845 13.0642 8.82309 13.0287C8.89041 13.0176 8.95861 13.0127 9.02683 13.014C10.262 13.014 11.497 13.014 12.7318 13.014C12.829 13.0113 12.926 13.0241 13.0192 13.0519C13.1283 13.0911 13.2206 13.1668 13.2805 13.2662C13.3403 13.3656 13.3641 13.4825 13.3477 13.5974C13.332 13.7201 13.2717 13.8328 13.1784 13.914C13.085 13.9952 12.965 14.0392 12.8413 14.0377C12.1872 14.0427 11.5331 14.0395 10.879 14.0395V14.0377Z" fill="black"/>
</svg>
