<svg width="24" height="24" viewBox="0 0 24 24" fill="none" xmlns="http://www.w3.org/2000/svg">
<rect width="24" height="24" rx="3" fill="#ECECEC"/>
<g clip-path="url(#clip0_236_227)">
<path d="M13.704 9.32925V9.13322C13.704 7.86245 13.704 6.59154 13.704 5.32049C13.704 5.04175 13.7734 4.97217 14.0508 4.97174C14.2423 4.97174 14.4338 4.97102 14.6255 4.96959C14.6415 4.96645 14.657 4.96184 14.6721 4.9558C14.6721 4.74664 14.6721 4.53187 14.6721 4.3169C14.6721 4.0877 14.7539 4.00412 14.9786 4.00391C15.9014 4.00391 16.8241 4.00391 17.7468 4.00391C17.981 4.00391 18.0596 4.08555 18.0602 4.32551C18.0602 4.53597 18.0602 4.74642 18.0602 4.97174C18.2845 4.97174 18.4949 4.97174 18.7052 4.97174C18.951 4.97174 19.0283 5.05015 19.0283 5.29894C19.0283 8.0266 19.0283 10.7544 19.0283 13.4823V13.6855C19.1129 13.6855 19.1916 13.6816 19.2696 13.6855C19.4134 13.6943 19.5002 13.7818 19.5112 13.9254C19.5147 13.9707 19.5125 14.0163 19.5125 14.0616V18.5227H19.989V18.9981H5V18.5285H5.4739V9.69092C5.4739 9.39171 5.53852 9.32731 5.83643 9.32731H10.9339C11.2124 9.32731 11.2828 9.3971 11.2828 9.67433C11.2828 11.1062 11.2828 12.5381 11.2828 13.97V14.1585H11.7669V13.9767C11.7669 12.5447 11.7669 11.1127 11.7669 9.68079C11.7669 9.39365 11.8341 9.32731 12.124 9.32709L13.704 9.32925ZM5.96956 9.81887V18.5143H8.62103V18.3204C8.62103 17.04 8.62103 15.7598 8.62103 14.4797C8.62103 14.2522 8.70309 14.1703 8.93057 14.1699C9.49494 14.1691 10.0595 14.1691 10.6241 14.1699H10.7898V9.81866L5.96956 9.81887ZM15.8928 14.177V18.5149H19.021V14.177H15.8928ZM12.971 14.6647H9.11711V17.5512H12.971V14.6647ZM15.1561 4.49202V4.96808C15.1561 5.43745 15.1371 5.45663 14.6764 5.45663H14.1992V5.93333H18.5354V5.45663C18.3153 5.45663 18.1046 5.45663 17.8937 5.45663C17.6568 5.45663 17.5775 5.37606 17.5766 5.13868C17.5766 4.92327 17.5766 4.70959 17.5766 4.49245L15.1561 4.49202ZM14.1775 11.7429V9.82576H12.2604V11.7429H14.1775ZM14.6788 11.7388H16.5959V9.82167H14.6788V11.7388ZM15.3855 18.5242V16.6008H13.4733V18.5238L15.3855 18.5242ZM17.1032 6.43221V13.6794H17.5687V6.43221H17.1032ZM18.0714 6.43221V13.6794H18.5365V6.43135L18.0714 6.43221ZM13.4617 15.1287H14.1764V13.2148H12.2593V14.171C12.558 14.171 12.8489 14.171 13.1397 14.171C13.3839 14.171 13.4608 14.25 13.4613 14.4986C13.4623 14.7039 13.4619 14.9101 13.4619 15.1278L13.4617 15.1287ZM16.6002 12.7125V12.2435H12.2623V12.7125H16.6002ZM15.3986 15.136C15.3986 14.7513 15.3986 14.3799 15.3986 14.0086C15.3986 13.7637 15.4771 13.6872 15.7261 13.6868C16.0163 13.6868 16.307 13.6868 16.5983 13.6868V13.2129H14.6844V15.136H15.3986ZM12.9693 18.5201V18.052H9.11647V18.5201H12.9693ZM14.6617 9.32214V6.43674H14.1958V9.32214H14.6617ZM15.6296 9.32214V6.43695H15.1643V9.32214H15.6296ZM16.5959 9.32537V6.43458H16.1354V9.32537H16.5959ZM15.3907 16.1002V15.6315H13.472V16.1013L15.3907 16.1002Z" fill="black"/>
<path d="M13.2187 4.68358C13.2171 5.20896 12.7633 5.5562 12.3034 5.4248C12.2069 5.39723 12.1509 5.41252 12.0822 5.48231C11.665 5.90624 11.2444 6.32693 10.8203 6.74439C10.7557 6.80902 10.7374 6.86028 10.7654 6.95269C10.8582 7.25836 10.7415 7.5707 10.4825 7.74971C10.3611 7.83284 10.2171 7.87699 10.0699 7.87626C9.92273 7.87552 9.77925 7.82995 9.6586 7.74561C9.53272 7.65973 9.43788 7.53557 9.38813 7.39154C9.33839 7.2475 9.33639 7.09127 9.38244 6.94602C9.40937 6.85834 9.39321 6.80923 9.33225 6.75042C9.14398 6.56797 8.95938 6.38186 8.77607 6.19445C8.72265 6.13974 8.67763 6.12724 8.59427 6.14168C8.45214 6.16537 8.30707 6.16537 8.16495 6.14168C8.08288 6.12811 8.03765 6.13737 7.98293 6.19294C7.71776 6.46221 7.45087 6.73039 7.18053 6.99448C7.11763 7.05566 7.10945 7.10671 7.13465 7.19137C7.18216 7.34696 7.17519 7.51411 7.11487 7.6652C7.05456 7.8163 6.94452 7.9423 6.80292 8.02241C6.66391 8.10201 6.50241 8.13318 6.34376 8.11104C6.18512 8.08889 6.03832 8.01468 5.92642 7.90006C5.8136 7.78645 5.74179 7.63853 5.72229 7.47961C5.70279 7.32068 5.73671 7.15979 5.81872 7.02227C5.89917 6.88378 6.02404 6.77652 6.17308 6.71788C6.32212 6.65923 6.4866 6.65263 6.63986 6.69916C6.73054 6.7263 6.78375 6.7138 6.84881 6.64681C7.10859 6.37927 7.37333 6.11626 7.64 5.85518C7.70096 5.79552 7.7154 5.74619 7.68869 5.65938C7.64305 5.51429 7.64525 5.35837 7.69498 5.21464C7.7447 5.0709 7.8393 4.94695 7.96484 4.86107C8.08561 4.77692 8.22917 4.73158 8.37637 4.73108C8.52357 4.73058 8.66743 4.77495 8.78878 4.85827C8.91528 4.9431 9.01106 5.06646 9.06189 5.21004C9.11273 5.35361 9.11591 5.50976 9.07096 5.65528C9.04231 5.74856 9.06041 5.80026 9.12654 5.86337C9.31588 6.04453 9.49554 6.23603 9.6866 6.41525C9.72344 6.44971 9.79431 6.45618 9.8516 6.45833C9.99981 6.46415 10.1489 6.46479 10.2971 6.45833C10.3533 6.45618 10.4263 6.44842 10.4619 6.41331C10.8972 5.98615 11.3248 5.55167 11.7608 5.1243C11.8355 5.05106 11.8159 4.9901 11.7955 4.91083C11.7196 4.61852 11.8026 4.36822 12.0292 4.17693C12.2618 3.9807 12.5304 3.94537 12.8064 4.07806C13.0758 4.20881 13.2057 4.43629 13.2187 4.68358ZM12.4923 4.48971C12.4292 4.49048 12.3689 4.51582 12.3242 4.56034C12.2794 4.60487 12.2538 4.66507 12.2528 4.72816C12.2527 4.76069 12.2591 4.7929 12.2717 4.82289C12.2843 4.85287 12.3028 4.88003 12.3261 4.90273C12.3493 4.92544 12.377 4.94323 12.4073 4.95506C12.4376 4.96688 12.4699 4.9725 12.5024 4.97158C12.5655 4.96862 12.6249 4.9413 12.6683 4.89537C12.7116 4.84945 12.7354 4.78849 12.7346 4.72536C12.7328 4.66229 12.7065 4.60242 12.6612 4.55843C12.616 4.51444 12.5554 4.48979 12.4923 4.48971ZM8.37627 5.21585C8.31321 5.21731 8.2532 5.24327 8.20897 5.28822C8.16473 5.33318 8.13975 5.39361 8.13932 5.45668C8.13959 5.48919 8.14637 5.52132 8.15927 5.55116C8.17217 5.58101 8.19092 5.60797 8.21441 5.63044C8.23791 5.65291 8.26567 5.67044 8.29606 5.682C8.32645 5.69356 8.35885 5.6989 8.39135 5.69772C8.45435 5.69411 8.5135 5.66621 8.55636 5.6199C8.59923 5.57358 8.62247 5.51245 8.62119 5.44936C8.61873 5.38623 8.59178 5.32655 8.54606 5.28296C8.50033 5.23937 8.43944 5.2153 8.37627 5.21585ZM10.0711 6.91004C10.008 6.91116 9.94776 6.93685 9.90327 6.98166C9.85879 7.02647 9.83353 7.08687 9.83287 7.15001C9.83324 7.2132 9.85816 7.27377 9.90238 7.31891C9.9466 7.36406 10.0066 7.39023 10.0698 7.39191C10.1023 7.3922 10.1345 7.38598 10.1645 7.37362C10.1946 7.36126 10.2218 7.343 10.2446 7.31993C10.2675 7.29685 10.2855 7.26943 10.2976 7.23928C10.3096 7.20914 10.3156 7.17688 10.3149 7.14441C10.3125 7.08124 10.2856 7.0215 10.24 6.97778C10.1943 6.93406 10.1335 6.90977 10.0702 6.91004H10.0711ZM6.44233 7.15216C6.3792 7.15294 6.31887 7.17827 6.27411 7.22278C6.22935 7.2673 6.20369 7.3275 6.20258 7.39062C6.20251 7.42314 6.20896 7.45533 6.22156 7.48531C6.23416 7.51528 6.25266 7.54242 6.27594 7.56512C6.29922 7.58782 6.32682 7.60561 6.3571 7.61745C6.38738 7.62929 6.41973 7.63492 6.45223 7.63403C6.51532 7.63113 6.57481 7.60383 6.61814 7.55789C6.66146 7.51194 6.68524 7.45096 6.68445 7.38782C6.6826 7.32464 6.65617 7.26467 6.6108 7.22066C6.56542 7.17665 6.50467 7.15208 6.44146 7.15216H6.44233Z" fill="black"/>
<path d="M9.35295 12.2339C9.50374 12.2339 9.65452 12.2311 9.8066 12.2339C9.97699 12.2378 10.0698 12.3272 10.072 12.4961C10.0759 12.8034 10.0759 13.1109 10.072 13.4187C10.07 13.5889 9.9785 13.6819 9.80983 13.6841C9.50223 13.6877 9.19469 13.6877 8.88723 13.6841C8.71663 13.6824 8.62422 13.591 8.62206 13.4219C8.61833 13.1146 8.61833 12.8071 8.62206 12.4993C8.624 12.3287 8.71491 12.2383 8.884 12.2342C9.04039 12.2309 9.19656 12.2339 9.35295 12.2339ZM9.11147 13.1942H9.5802V12.7281H9.11147V13.1942Z" fill="black"/>
<path d="M7.41277 12.2341C7.56356 12.2341 7.71543 12.2315 7.86664 12.2341C8.03897 12.2378 8.13332 12.3254 8.13547 12.4926C8.13964 12.8052 8.13964 13.1179 8.13547 13.4305C8.13332 13.5901 8.03918 13.6823 7.87698 13.6842C7.56435 13.6881 7.25179 13.6881 6.93931 13.6842C6.77926 13.6819 6.68771 13.5879 6.68577 13.4257C6.68189 13.1131 6.68189 12.8005 6.68577 12.4879C6.68792 12.3276 6.7812 12.2384 6.94426 12.2341C7.10022 12.2309 7.25617 12.2341 7.41277 12.2341ZM7.18078 12.7235V13.1942H7.64391V12.7235H7.18078Z" fill="black"/>
<path d="M8.1366 14.8971C8.1366 15.0533 8.14026 15.2097 8.1366 15.3658C8.13165 15.5263 8.04052 15.6187 7.8794 15.6209C7.56691 15.6248 7.25435 15.6248 6.94172 15.6209C6.78124 15.6187 6.68927 15.5255 6.68711 15.3641C6.68323 15.0516 6.68323 14.7391 6.68711 14.4264C6.68927 14.2657 6.78211 14.1738 6.94366 14.1718C7.25615 14.1677 7.56871 14.1677 7.88134 14.1718C8.0416 14.174 8.13186 14.267 8.13638 14.4284C8.1394 14.5843 8.1366 14.7407 8.1366 14.8971ZM7.17523 15.1306H7.64396V14.6645H7.17523V15.1306Z" fill="black"/>
<path d="M8.6214 11.0234C8.6214 10.8673 8.61796 10.7109 8.6214 10.5547C8.62593 10.3936 8.71619 10.3012 8.87731 10.299C9.18966 10.2949 9.50222 10.2949 9.81499 10.299C9.97568 10.301 10.0687 10.3936 10.0709 10.5545C10.0749 10.867 10.0749 11.1795 10.0709 11.4922C10.0687 11.6529 9.97568 11.7459 9.81499 11.7481C9.50265 11.7524 9.19009 11.7524 8.87731 11.7481C8.7164 11.7459 8.62614 11.6533 8.6214 11.4924C8.61796 11.3362 8.6214 11.1798 8.6214 11.0234ZM9.11491 10.7846V11.2546H9.57675V10.7848L9.11491 10.7846Z" fill="black"/>
<path d="M7.41188 10.2977C7.56805 10.2977 7.72443 10.2942 7.88061 10.2977C8.04109 10.3024 8.13328 10.3933 8.13544 10.5547C8.1396 10.8673 8.1396 11.1798 8.13544 11.4923C8.13328 11.6526 8.03979 11.745 7.87866 11.7472C7.56618 11.751 7.25362 11.751 6.94099 11.7472C6.78051 11.745 6.68853 11.6515 6.68638 11.4902C6.6825 11.1777 6.6825 10.8651 6.68638 10.5525C6.68853 10.3918 6.78137 10.3022 6.94293 10.2979C7.0991 10.2944 7.25613 10.2977 7.41188 10.2977ZM7.17493 11.2543H7.6456V10.7901H7.17493V11.2543Z" fill="black"/>
<path d="M7.41688 16.1067C7.56767 16.1067 7.71953 16.1039 7.87053 16.1067C8.04092 16.1106 8.13355 16.2 8.1357 16.3691C8.13958 16.6764 8.13958 16.984 8.1357 17.2917C8.13376 17.4619 8.042 17.5547 7.87333 17.5569C7.56573 17.5605 7.2582 17.5605 6.95074 17.5569C6.78013 17.5552 6.68772 17.4638 6.68578 17.2945C6.68205 16.9872 6.68205 16.6797 6.68578 16.3719C6.68772 16.2015 6.77884 16.1111 6.94793 16.107C7.10411 16.1037 7.26049 16.1067 7.41688 16.1067ZM7.64565 17.0688V16.5992H7.17864V17.0688H7.64565Z" fill="black"/>
<path d="M16.3788 15.1436H18.535V15.6144H16.3788V15.1436Z" fill="black"/>
<path d="M18.538 16.1169V16.5824H16.3788V16.1169H18.538Z" fill="black"/>
<path d="M18.5381 17.0852V17.5505H16.379V17.0852H18.5381Z" fill="black"/>
<path d="M11.0424 17.0747C10.6592 17.0747 10.276 17.0747 9.89279 17.0747C9.67501 17.0747 9.59015 16.9898 9.58971 16.7731C9.58842 16.3294 9.58842 15.8857 9.58971 15.4421C9.58971 15.2239 9.67415 15.139 9.89129 15.1388C10.6577 15.138 11.4241 15.138 12.1903 15.1388C12.4083 15.1388 12.4934 15.2235 12.4941 15.4404C12.4951 15.8841 12.4951 16.3279 12.4941 16.7716C12.4941 16.9892 12.409 17.0732 12.1925 17.0751C11.8089 17.0747 11.4256 17.0747 11.0424 17.0747ZM10.7923 15.633H10.0849V16.5829H10.7923V15.633ZM11.2942 15.6293V16.5793H12.0016V15.63L11.2942 15.6293Z" fill="black"/>
</g>
<defs>
<clipPath id="clip0_236_227">
<rect width="14.9897" height="15" fill="white" transform="translate(5 4)"/>
</clipPath>
</defs>
</svg>
