<svg width="24" height="24" viewBox="0 0 24 24" fill="none" xmlns="http://www.w3.org/2000/svg">
<rect width="24" height="24" rx="3" fill="#ECECEC"/>
<g clip-path="url(#clip0_236_224)">
<path d="M11.919 18.9998C11.8943 18.9908 11.8702 18.9795 11.8449 18.9733C11.5255 18.8948 11.2871 18.6283 11.2598 18.3182C11.2293 17.9709 11.404 17.6712 11.717 17.5337L11.7683 17.5117V13.2967H10.7083V15.9571C10.9152 16.0369 11.0702 16.1738 11.1594 16.3795C11.229 16.5399 11.2394 16.7059 11.1954 16.8737C11.1521 17.0379 11.0549 17.1828 10.9193 17.285C10.7837 17.3873 10.6177 17.4409 10.448 17.4374C10.2782 17.4346 10.1143 17.3751 9.9824 17.2682C9.8505 17.1614 9.75821 17.0134 9.72028 16.8479C9.65191 16.5552 9.75692 16.1425 10.2152 15.9539V14.8536C10.1948 14.8518 10.1737 14.8483 10.1528 14.8483C9.6525 14.8483 9.15222 14.8487 8.65186 14.8469C8.60401 14.8469 8.58591 14.8667 8.56723 14.9065C8.43093 15.1996 8.199 15.3573 7.877 15.3656C7.49119 15.3754 7.15271 15.068 7.1149 14.6943C7.0699 14.2466 7.39006 13.9164 7.73777 13.8576C8.07999 13.7997 8.41686 13.9743 8.56232 14.2907C8.57236 14.3127 8.58174 14.3346 8.59236 14.3589H10.2147V13.2991C10.1966 13.2961 10.1784 13.294 10.16 13.293C10.0868 13.2921 10.0135 13.2941 9.9402 13.2918C9.80397 13.2876 9.70372 13.187 9.70152 13.055C9.69933 12.9245 9.79789 12.8176 9.9325 12.8093C9.99845 12.8052 10.0644 12.8082 10.1304 12.8079H10.2147V11.7014C10.2033 11.6961 10.1885 11.6889 10.1735 11.6821C9.87644 11.5477 9.71899 11.3177 9.70116 10.9922C9.70013 10.9727 9.70057 10.9532 9.70057 10.9336C9.70057 9.92819 9.70057 8.92279 9.70057 7.91739C9.70057 7.81429 9.70966 7.71294 9.74498 7.61504C9.8549 7.31078 10.1356 7.11117 10.4639 7.11073C11.3107 7.10951 12.1576 7.10936 13.0045 7.11029C13.1899 7.11029 13.3755 7.11329 13.5609 7.1097C13.9451 7.10237 14.3214 7.40531 14.3315 7.86654C14.3322 7.90068 14.3315 7.93491 14.3315 7.96913C14.3315 8.95738 14.3315 9.94568 14.3315 10.934C14.3315 11.0272 14.3236 11.1191 14.2943 11.2083C14.226 11.416 14.0929 11.5674 13.8975 11.6646C13.8714 11.6777 13.8442 11.6887 13.8145 11.7019V12.8052C13.8438 12.8063 13.8723 12.8082 13.9006 12.8082C14.7866 12.8082 15.6725 12.8082 16.5583 12.8082C17.0318 12.8082 17.5053 12.8132 17.9787 12.8069C18.6968 12.7974 19.2725 12.4975 19.6853 11.9129C20.5455 10.693 19.864 8.98112 18.4041 8.67511C18.268 8.64638 18.1293 8.63165 17.9902 8.63114C17.8241 8.6307 17.7367 8.55339 17.7153 8.39078C17.598 7.49948 16.965 6.80376 16.0889 6.60576C15.7966 6.53981 15.5032 6.54157 15.2103 6.60378C15.0507 6.63771 14.9722 6.60143 14.8886 6.45971C14.2969 5.45593 13.4326 4.82557 12.2958 4.56866C11.8708 4.47339 11.4402 4.4632 11.0076 4.51604C9.4257 4.70906 8.06599 5.87904 7.69381 7.51663C7.66449 7.64472 7.64852 7.77582 7.62646 7.90552C7.62316 7.92472 7.62067 7.94414 7.61708 7.96327C7.5918 8.09979 7.4884 8.18025 7.34983 8.16632C7.27721 8.159 7.20562 8.142 7.13307 8.13291C6.5609 8.06102 6.02977 8.17907 5.54957 8.49711C4.97447 8.87816 4.62265 9.41369 4.51515 10.095C4.31693 11.3517 5.13949 12.4766 6.30266 12.7478C6.48109 12.7888 6.66368 12.8091 6.84677 12.8081C7.51063 12.8071 8.17445 12.8069 8.83822 12.8077C8.86262 12.8077 8.88709 12.8069 8.9115 12.8084C9.04882 12.8166 9.15251 12.9252 9.14907 13.0566C9.14562 13.188 9.04369 13.2868 8.90768 13.2919C8.87595 13.293 8.84422 13.2924 8.81242 13.2924C8.16082 13.2924 7.50921 13.2914 6.85761 13.2924C6.19436 13.2936 5.59888 13.0939 5.08021 12.6817C4.49514 12.2168 4.14157 11.6105 4.03114 10.8712C3.81525 9.42556 4.74349 8.06359 6.14826 7.71111C6.46613 7.63149 6.79543 7.60781 7.12142 7.64113C7.13351 7.6423 7.1456 7.64296 7.15806 7.64347C7.1629 7.64235 7.16762 7.64073 7.17213 7.63864C7.37936 6.52559 7.92222 5.60754 8.82195 4.90882C9.43823 4.43023 10.1378 4.14187 10.9109 4.03921C11.4751 3.96424 12.0353 3.99451 12.5879 4.13806C13.135 4.2789 13.6498 4.5242 14.1037 4.86045C14.5622 5.19967 14.9396 5.61377 15.2414 6.10299C15.9236 6.00662 16.5536 6.14314 17.1184 6.53878C17.6813 6.9331 18.0249 7.4761 18.1686 8.14742C18.2673 8.16266 18.3639 8.17497 18.4595 8.19278C19.4873 8.38418 20.312 9.21159 20.5016 10.2418C20.5162 10.3206 20.5208 10.4012 20.5309 10.4809C20.5339 10.5046 20.5395 10.5281 20.5439 10.5516V10.8882C20.5394 10.9141 20.5335 10.9398 20.5306 10.9659C20.5233 11.0289 20.5233 11.093 20.5105 11.1548C20.3193 12.1064 19.7743 12.767 18.8736 13.1292C18.5714 13.2507 18.2536 13.2935 17.9283 13.293C16.5886 13.2912 15.2489 13.291 13.9092 13.2923H13.8154V14.3571H15.4394C15.4533 14.326 15.4645 14.299 15.4774 14.2727C15.5577 14.1076 15.695 13.9771 15.8641 13.9055C16.0332 13.8338 16.2224 13.8258 16.3969 13.8829C16.7576 14.0016 16.977 14.3692 16.9092 14.7414C16.8485 15.0751 16.5795 15.3243 16.2302 15.3622C15.9307 15.3946 15.6104 15.2347 15.4685 14.9152C15.444 14.8601 15.4166 14.8458 15.3605 14.846C14.8724 14.848 14.3844 14.8472 13.8964 14.8474C13.8702 14.8474 13.844 14.8495 13.8146 14.8508V15.9557C13.9969 16.0252 14.1413 16.1397 14.2354 16.3119C14.3307 16.4864 14.3543 16.671 14.3066 16.8641C14.2243 17.1967 13.9255 17.4322 13.5805 17.4369C13.4132 17.4398 13.2497 17.3872 13.1155 17.2873C12.9813 17.1873 12.8841 17.0457 12.8389 16.8846C12.7915 16.724 12.8002 16.552 12.8637 16.397C12.9505 16.1813 13.11 16.0385 13.3217 15.9565C13.3363 15.8046 13.3298 13.3516 13.3149 13.2969H12.2606V17.5093L12.3216 17.5365C12.6007 17.6599 12.8076 17.9577 12.7703 18.3196C12.7385 18.6274 12.5038 18.8953 12.1908 18.9718C12.1631 18.9785 12.1365 18.9901 12.1094 18.9994L11.919 18.9998ZM12.81 10.213V10.0358C12.81 9.83058 12.808 9.62584 12.8109 9.42095C12.8129 9.26823 12.9428 9.16227 13.0912 9.18645C13.2121 9.20616 13.2927 9.30311 13.2937 9.4356C13.2952 9.63082 13.2941 9.82604 13.2941 10.0212C13.2941 10.1652 13.2947 10.3091 13.2941 10.4531C13.2937 10.5391 13.2596 10.6089 13.1887 10.6595C13.1408 10.6937 13.0865 10.702 13.0291 10.7017C12.7997 10.701 12.5703 10.7017 12.3409 10.7017H12.2624V11.2546H12.3327C12.7354 11.2546 13.138 11.2546 13.5407 11.2546C13.7337 11.2546 13.8429 11.1446 13.8458 10.95C13.8458 10.9403 13.8458 10.9305 13.8458 10.9207C13.8458 9.92267 13.8458 8.92472 13.8458 7.92684C13.8463 7.89748 13.845 7.86812 13.8421 7.83891C13.8274 7.71587 13.7402 7.62098 13.6197 7.59884C13.5889 7.5932 13.5566 7.59408 13.525 7.59408C12.5196 7.59408 11.5142 7.59408 10.5088 7.59408C10.4869 7.59408 10.4649 7.59342 10.4429 7.59496C10.3778 7.59898 10.3162 7.62626 10.2695 7.67185C10.2228 7.71743 10.1941 7.77828 10.1885 7.84331C10.1857 7.87482 10.1861 7.90669 10.1861 7.93857C10.1861 8.47542 10.1861 9.01222 10.1861 9.54897C10.1861 10.0101 10.1862 10.4713 10.1866 10.9325C10.1866 10.9759 10.188 11.0214 10.2 11.0626C10.2351 11.1831 10.3413 11.2543 10.4798 11.2545C10.8898 11.255 11.2997 11.255 11.7097 11.2545C11.7284 11.2545 11.7473 11.2521 11.7683 11.2507V10.705C11.7398 10.7037 11.7158 10.7018 11.6919 10.7017C11.6017 10.7014 11.5113 10.7017 11.4208 10.7017C11.2743 10.7017 11.1277 10.7033 10.9816 10.7011C10.841 10.6989 10.7439 10.6027 10.7362 10.4625C10.7351 10.4431 10.7358 10.4235 10.7358 10.4039C10.7358 9.75246 10.7392 9.10093 10.7335 8.44948C10.732 8.27705 10.8175 8.1417 11.0354 8.14419C11.6892 8.15086 12.3433 8.14654 12.9972 8.14661C13.0216 8.14661 13.0461 8.14661 13.0705 8.14815C13.1283 8.15219 13.1826 8.17691 13.2237 8.21778C13.2647 8.25866 13.2896 8.31295 13.2938 8.3707C13.298 8.4272 13.2819 8.48333 13.2485 8.5291C13.2151 8.57487 13.1666 8.60731 13.1115 8.62066C13.0734 8.62863 13.0345 8.63215 12.9956 8.63114C12.4343 8.63182 11.8731 8.63197 11.3118 8.63158H11.2257V10.2133L12.81 10.213ZM10.7054 12.8003C10.8146 12.815 11.718 12.8104 11.7679 12.7959V11.7459C11.6646 11.7312 10.7574 11.7357 10.7054 11.751V12.8003ZM12.2595 12.8024H13.3221V11.7471C13.2377 11.733 12.3153 11.7358 12.2595 11.7504V12.8024ZM15.8856 14.5993C15.8848 14.6359 15.8912 14.6723 15.9046 14.7064C15.9179 14.7404 15.9379 14.7715 15.9634 14.7978C15.9888 14.8241 16.0193 14.845 16.0529 14.8595C16.0865 14.8739 16.1226 14.8815 16.1592 14.8819C16.232 14.8818 16.3017 14.8529 16.3533 14.8016C16.4048 14.7503 16.434 14.6807 16.4345 14.608C16.4357 14.5353 16.4078 14.4651 16.3572 14.4129C16.3066 14.3606 16.2373 14.3307 16.1646 14.3295C16.0918 14.3284 16.0216 14.3562 15.9694 14.4068C15.9171 14.4574 15.887 14.5266 15.8856 14.5993ZM8.14404 14.6083C8.14465 14.5724 8.13817 14.5367 8.12497 14.5032C8.11177 14.4697 8.09211 14.4392 8.0671 14.4133C8.0421 14.3875 8.01225 14.3668 7.97926 14.3525C7.94626 14.3382 7.91077 14.3305 7.87481 14.3299C7.83825 14.3293 7.80196 14.3361 7.76805 14.3497C7.73414 14.3634 7.70331 14.3837 7.67737 14.4095C7.65142 14.4352 7.63089 14.4659 7.61698 14.4997C7.60306 14.5335 7.59605 14.5697 7.59634 14.6063C7.59638 14.6789 7.62506 14.7486 7.67617 14.8002C7.72728 14.8519 7.79668 14.8812 7.86931 14.882C7.94191 14.8817 8.01149 14.8529 8.06293 14.8016C8.11437 14.7504 8.14352 14.6809 8.14404 14.6083ZM13.5716 16.9522C13.6075 16.9521 13.6431 16.945 13.6763 16.9312C13.7095 16.9173 13.7397 16.8971 13.765 16.8716C13.7904 16.846 13.8105 16.8158 13.8241 16.7825C13.8378 16.7492 13.8447 16.7136 13.8445 16.6776C13.8446 16.6417 13.8375 16.606 13.8237 16.5728C13.8099 16.5396 13.7897 16.5094 13.7643 16.484C13.7388 16.4586 13.7086 16.4384 13.6754 16.4247C13.6421 16.411 13.6065 16.4039 13.5705 16.404C13.534 16.4035 13.4977 16.4104 13.4638 16.4243C13.43 16.4381 13.3992 16.4587 13.3735 16.4847C13.3477 16.5107 13.3275 16.5416 13.314 16.5755C13.3004 16.6095 13.2938 16.6459 13.2947 16.6825C13.295 16.7184 13.3024 16.7539 13.3166 16.787C13.3307 16.82 13.3512 16.8499 13.3769 16.875C13.4027 16.9001 13.4331 16.9198 13.4665 16.9331C13.4999 16.9463 13.5356 16.9528 13.5716 16.9522ZM12.0173 17.9584C11.9814 17.9577 11.9456 17.9642 11.9122 17.9774C11.8788 17.9907 11.8484 18.0104 11.8226 18.0355C11.7969 18.0607 11.7765 18.0907 11.7624 18.1238C11.7484 18.1569 11.7411 18.1924 11.741 18.2284C11.7401 18.2649 11.7466 18.3013 11.76 18.3353C11.7735 18.3692 11.7937 18.4002 11.8194 18.4262C11.8451 18.4521 11.8758 18.4727 11.9096 18.4866C11.9435 18.5004 11.9797 18.5073 12.0163 18.5068C12.0523 18.507 12.0879 18.5 12.1211 18.4863C12.1544 18.4725 12.1846 18.4523 12.2099 18.4269C12.2353 18.4014 12.2554 18.3711 12.2689 18.3378C12.2825 18.3045 12.2894 18.2688 12.289 18.2328C12.2895 18.1969 12.2828 18.1612 12.2693 18.1279C12.2558 18.0946 12.2359 18.0643 12.2106 18.0388C12.1853 18.0132 12.1552 17.993 12.122 17.9792C12.0888 17.9654 12.0532 17.9583 12.0173 17.9584ZM10.7349 16.677C10.7352 16.641 10.7282 16.6054 10.7146 16.5721C10.7009 16.5388 10.6808 16.5086 10.6553 16.4832C10.6299 16.4578 10.5996 16.4377 10.5663 16.4241C10.5331 16.4105 10.4974 16.4037 10.4614 16.404C10.4255 16.4035 10.3898 16.4102 10.3564 16.4236C10.323 16.437 10.2927 16.457 10.2671 16.4823C10.2415 16.5076 10.2212 16.5377 10.2074 16.5709C10.1936 16.6041 10.1865 16.6397 10.1866 16.6757C10.1859 16.7123 10.1926 16.7486 10.2063 16.7825C10.22 16.8164 10.2404 16.8472 10.2663 16.873C10.2922 16.8989 10.323 16.9192 10.3569 16.9328C10.3909 16.9464 10.4272 16.9531 10.4638 16.9523C10.4997 16.9523 10.5353 16.9451 10.5684 16.9312C10.6016 16.9174 10.6316 16.8971 10.6568 16.8715C10.6821 16.8459 10.7019 16.8155 10.7153 16.7822C10.7287 16.7489 10.7354 16.7132 10.7348 16.6773L10.7349 16.677Z" fill="black"/>
</g>
<defs>
<clipPath id="clip0_236_224">
<rect width="16.5437" height="15" fill="white" transform="translate(4 4)"/>
</clipPath>
</defs>
</svg>
