<svg width="24" height="24" viewBox="0 0 24 24" fill="none" xmlns="http://www.w3.org/2000/svg">
<rect width="24" height="24" rx="3" fill="#ECECEC"/>
<path d="M11.2352 6.2873C10.2604 5.89341 9.97427 4.9938 10.1298 4.28743C10.2943 3.54119 10.9694 3.00135 11.7394 3C12.5094 2.99865 13.1689 3.54051 13.3424 4.31411C13.4939 4.98974 13.1975 5.90185 12.233 6.28662H12.3679C13.5777 6.28662 14.7878 6.28662 15.9981 6.28662C16.1742 6.28383 16.3467 6.33703 16.4914 6.43876C16.6361 6.54048 16.7458 6.68563 16.8051 6.85382C16.8647 7.01887 16.8733 7.19841 16.8299 7.36858C16.7865 7.53874 16.693 7.69147 16.5619 7.80646C16.4013 7.9483 16.1937 8.02335 15.9808 8.01658C15.4312 8.01422 14.8817 8.01658 14.3322 8.01658C14.2889 8.01658 14.2459 8.023 14.185 8.02807V8.19934C14.185 9.19027 14.185 10.1812 14.185 11.1721C14.185 11.414 14.0538 11.5708 13.8519 11.5714C13.6638 11.5714 13.5189 11.4106 13.5189 11.1836C13.5173 10.0296 13.5173 8.87554 13.5189 7.72133C13.5189 7.46763 13.6464 7.34061 13.9019 7.33926C14.5627 7.33656 15.2231 7.33926 15.8835 7.33926C15.9335 7.33926 15.9968 7.35547 16.0304 7.33081C16.091 7.28723 16.1779 7.21494 16.1736 7.1619C16.1683 7.09434 16.0893 7.02442 16.0291 6.97104C16.0031 6.94841 15.9435 6.96496 15.8988 6.96496H10.6533C10.2007 6.96496 9.95662 7.21224 9.95562 7.67438C9.95562 8.33312 9.95562 8.99186 9.95562 9.65061C9.95395 9.9364 9.72881 10.1029 9.48935 10.0009C9.4287 9.97869 9.37661 9.93743 9.34067 9.88311C9.30474 9.8288 9.28682 9.76427 9.28952 9.69891C9.28952 8.96686 9.27886 8.23481 9.29318 7.5031C9.3055 6.86125 9.88501 6.30048 10.5208 6.28933C10.7579 6.28561 10.9964 6.2873 11.2352 6.2873ZM11.7248 5.65017C12.2626 5.65017 12.7059 5.21709 12.7139 4.67929C12.7145 4.54847 12.6896 4.41882 12.6407 4.29777C12.5918 4.17671 12.5199 4.06662 12.429 3.97381C12.3381 3.88099 12.2301 3.80727 12.111 3.75686C11.992 3.70645 11.8644 3.68034 11.7354 3.68003C11.4779 3.67904 11.2306 3.78158 11.0475 3.9652C10.8644 4.14882 10.7605 4.39855 10.7586 4.6597C10.7578 4.92083 10.859 5.17165 11.0401 5.35727C11.2211 5.5429 11.4673 5.64821 11.7248 5.65017Z" fill="black"/>
<path d="M16.5447 17.2701C15.541 16.8492 15.2993 15.9688 15.4341 15.3242C15.5871 14.5904 16.2339 14.0326 16.9689 14.0017C17.7776 13.968 18.4644 14.4488 18.684 15.2031C18.9249 16.032 18.5798 16.6874 17.5774 17.2698C17.8037 17.2698 18.005 17.2698 18.2062 17.2698C18.9898 17.2698 19.5592 17.8212 19.5673 18.596C19.5741 19.2632 19.5707 19.9306 19.5694 20.5978C19.5694 20.8518 19.4306 21.0059 19.2185 20.9998C19.0149 20.9938 18.8893 20.8373 18.8893 20.5907C18.8893 19.9515 18.8893 19.3123 18.8893 18.6731C18.8893 18.1845 18.6402 17.9437 18.1444 17.9437C17.4205 17.9437 16.6966 17.9437 15.9726 17.9437C15.5206 17.9437 15.2542 18.2047 15.2529 18.6529C15.2508 19.3032 15.2529 19.9539 15.2529 20.6042C15.2529 20.8531 15.1293 20.9978 14.9169 20.9985C14.7099 20.9985 14.5745 20.8471 14.5738 20.6042C14.5738 19.9256 14.5684 19.247 14.5738 18.5688C14.5775 18.2257 14.7167 17.8976 14.9614 17.655C15.2061 17.4124 15.5369 17.2745 15.883 17.2708C16.1043 17.2678 16.3245 17.2701 16.5447 17.2701ZM17.0857 14.6752C16.8233 14.6719 16.5703 14.7719 16.3821 14.9533C16.194 15.1347 16.0862 15.3826 16.0822 15.6428C16.0803 15.7731 16.1045 15.9024 16.1533 16.0234C16.2021 16.1444 16.2746 16.2546 16.3666 16.3477C16.4586 16.4407 16.5683 16.5148 16.6893 16.5656C16.8104 16.6164 16.9403 16.6429 17.0718 16.6437C17.3341 16.6433 17.5856 16.5404 17.7718 16.3572C17.958 16.174 18.0637 15.9254 18.066 15.6653C18.0681 15.4052 17.9661 15.1549 17.7823 14.9692C17.5986 14.7836 17.348 14.6777 17.0857 14.6749V14.6752Z" fill="black"/>
<path d="M12.2785 17.2522C12.6091 17.267 12.9115 17.2545 13.2051 17.2993C13.8293 17.3945 14.2808 17.9357 14.2839 18.5601C14.2869 19.2437 14.2856 19.9276 14.2839 20.6122C14.2839 20.845 14.1551 20.9923 13.9512 20.9977C13.7409 21.0031 13.6047 20.8554 13.604 20.6105C13.6016 19.9434 13.604 19.2767 13.602 18.6096C13.602 18.2247 13.3346 17.9465 12.9469 17.9438C12.1713 17.9384 11.3957 17.9384 10.6201 17.9438C10.2406 17.9458 9.97079 18.2207 9.96943 18.5958C9.96773 19.2457 9.96943 19.896 9.96943 20.5469C9.972 20.6139 9.96629 20.6809 9.95244 20.7464C9.93377 20.8235 9.88774 20.8914 9.82276 20.9377C9.75777 20.984 9.67815 21.0057 9.59839 20.9987C9.51532 20.9946 9.43707 20.9589 9.38005 20.8989C9.32304 20.839 9.2917 20.7595 9.29259 20.6771C9.28919 19.937 9.27662 19.1969 9.29735 18.4568C9.31536 17.813 9.91608 17.2794 10.5885 17.2693C10.8114 17.2663 11.0343 17.2693 11.2905 17.2693C10.3078 16.7375 9.93714 16.0502 10.1692 15.232C10.3887 14.4536 11.0676 13.9698 11.897 14.0015C12.6316 14.029 13.288 14.605 13.4368 15.3414C13.5683 16.0085 13.2635 16.8888 12.2785 17.2522ZM11.7797 14.6729C11.517 14.6754 11.2659 14.7802 11.0806 14.9646C10.8953 15.149 10.7908 15.3982 10.7896 15.6583C10.7927 16.1965 11.2463 16.6456 11.7828 16.6433C12.3343 16.6409 12.7896 16.1874 12.7838 15.6465C12.7788 15.3863 12.6708 15.1384 12.483 14.9563C12.2952 14.7742 12.0426 14.6724 11.7797 14.6729Z" fill="black"/>
<path d="M5.90651 17.268C4.95056 16.8453 4.68982 15.9675 4.85167 15.2811C5.03396 14.5006 5.68533 13.9907 6.47283 14.0001C7.20826 14.0092 7.86193 14.556 8.01982 15.2939C8.1764 16.024 7.86523 16.8779 6.94422 17.268H7.5046C8.30661 17.268 8.85282 17.8199 8.85612 18.634C8.85843 19.2841 8.85612 19.9345 8.85612 20.5846C8.85612 20.7191 8.83931 20.8419 8.72426 20.9286C8.68159 20.9619 8.63152 20.9839 8.57852 20.9927C8.52551 21.0014 8.4712 20.9967 8.42042 20.9789C8.36963 20.9611 8.32394 20.9308 8.28741 20.8906C8.25088 20.8505 8.22464 20.8017 8.21101 20.7487C8.19576 20.6776 8.18922 20.6049 8.19156 20.5321C8.19156 19.9046 8.19156 19.2767 8.19156 18.6488C8.19156 18.1938 7.94664 17.9426 7.49932 17.9426C6.78533 17.941 6.07111 17.941 5.35668 17.9426C4.92518 17.9426 4.66938 18.1982 4.66642 18.6414C4.66213 19.2972 4.66642 19.953 4.66642 20.6085C4.66642 20.8207 4.57874 20.9495 4.41359 20.9902C4.36506 21.0025 4.31443 21.0032 4.26556 20.9925C4.2167 20.9817 4.17091 20.9596 4.13168 20.928C4.09245 20.8964 4.06084 20.8561 4.03925 20.8101C4.01767 20.7641 4.00668 20.7136 4.00714 20.6626C4.00319 19.9177 3.98538 19.1708 4.02725 18.4279C4.06449 17.7654 4.63181 17.2761 5.28416 17.2687C5.49018 17.266 5.69818 17.268 5.90651 17.268ZM5.46909 15.646C5.46722 15.7752 5.49036 15.9034 5.53721 16.0234C5.58405 16.1435 5.65367 16.2529 5.74206 16.3453C5.83046 16.4378 5.93589 16.5116 6.0523 16.5624C6.16871 16.6132 6.29381 16.6401 6.42042 16.6415C6.54695 16.6431 6.67254 16.6192 6.78998 16.5711C6.90742 16.5231 7.0144 16.4518 7.10474 16.3614C7.19508 16.271 7.26702 16.1633 7.3164 16.0445C7.36579 15.9256 7.39166 15.798 7.39252 15.6689C7.39444 15.5399 7.37137 15.4118 7.32463 15.2919C7.27789 15.172 7.20841 15.0628 7.12017 14.9704C7.03193 14.878 6.92667 14.8043 6.81043 14.7535C6.6942 14.7027 6.56927 14.6758 6.44283 14.6744C6.31632 14.6728 6.19074 14.6967 6.07329 14.7447C5.95584 14.7927 5.84883 14.8638 5.75838 14.9541C5.66792 15.0443 5.59581 15.1519 5.54617 15.2706C5.49653 15.3894 5.47034 15.5169 5.46909 15.646Z" fill="black"/>
<path d="M11.7892 12.2865H16.4013C16.4574 12.2845 16.5135 12.286 16.5693 12.2911C16.6456 12.2988 16.7166 12.3354 16.7692 12.3942C16.8219 12.4529 16.8527 12.5297 16.8559 12.6105C16.869 12.7908 16.7753 12.942 16.6113 12.9814C16.5289 12.9968 16.4452 13.0025 16.3617 12.9985C13.2999 12.9985 10.2381 12.9985 7.17614 12.9985C7.12011 13.0014 7.06395 12.9999 7.00814 12.9939C6.92381 12.9826 6.84666 12.938 6.79223 12.869C6.7378 12.8001 6.71013 12.7119 6.7148 12.6223C6.71554 12.5777 6.72465 12.5337 6.74159 12.4929C6.75854 12.4521 6.78298 12.4152 6.81352 12.3844C6.84406 12.3537 6.88008 12.3296 6.91948 12.3136C6.95889 12.2977 7.0009 12.2902 7.04308 12.2915C7.76988 12.2865 8.49633 12.2872 9.22312 12.2869C10.0782 12.2869 10.9334 12.2869 11.7889 12.2869L11.7892 12.2865Z" fill="black"/>
<path d="M10.4291 9.49432C10.4291 8.94004 10.4291 8.38587 10.4291 7.83181C10.4291 7.58379 10.5356 7.43222 10.7067 7.42853C10.8779 7.42483 10.9997 7.59018 11 7.83887C11 8.95304 11 10.0671 11 11.181C11 11.3716 10.928 11.5117 10.8055 11.5527C10.6757 11.5961 10.5541 11.5675 10.4801 11.426C10.4469 11.3539 10.43 11.2729 10.4311 11.1908C10.4271 10.6252 10.4291 10.0599 10.4291 9.49432Z" fill="black"/>
</svg>
