<svg width="24" height="25" viewBox="0 0 24 25" fill="none" xmlns="http://www.w3.org/2000/svg">
<rect y="0.887207" width="24" height="24" rx="3" fill="#ECECEC"/>
<g clip-path="url(#clip0_236_18310)">
<path d="M11.919 19.887C11.8943 19.8781 11.8702 19.8667 11.8449 19.8605C11.5255 19.782 11.2871 19.5155 11.2598 19.2054C11.2293 18.8581 11.404 18.5584 11.717 18.4209L11.7683 18.3989V14.1839H10.7083V16.8443C10.9152 16.9241 11.0702 17.061 11.1594 17.2667C11.229 17.4271 11.2394 17.5931 11.1954 17.7609C11.1521 17.9251 11.0549 18.07 10.9193 18.1722C10.7837 18.2745 10.6177 18.3281 10.448 18.3246C10.2782 18.3218 10.1143 18.2623 9.9824 18.1554C9.8505 18.0486 9.75821 17.9006 9.72028 17.7351C9.65191 17.4425 9.75692 17.0297 10.2152 16.8411V15.7408C10.1948 15.739 10.1737 15.7355 10.1528 15.7355C9.6525 15.7355 9.15222 15.7359 8.65186 15.7341C8.60401 15.7341 8.58591 15.7539 8.56723 15.7937C8.43093 16.0868 8.199 16.2445 7.877 16.2528C7.49119 16.2626 7.15271 15.9552 7.1149 15.5815C7.0699 15.1338 7.39006 14.8036 7.73777 14.7448C8.07999 14.6869 8.41686 14.8615 8.56232 15.1779C8.57236 15.1999 8.58174 15.2219 8.59236 15.2461H10.2147V14.1863C10.1966 14.1833 10.1784 14.1812 10.16 14.1802C10.0868 14.1793 10.0135 14.1814 9.9402 14.179C9.80397 14.1748 9.70372 14.0742 9.70152 13.9422C9.69933 13.8117 9.79789 13.7048 9.9325 13.6965C9.99845 13.6924 10.0644 13.6954 10.1304 13.6951H10.2147V12.5886C10.2033 12.5833 10.1885 12.5761 10.1735 12.5693C9.87644 12.4349 9.71899 12.2049 9.70116 11.8794C9.70013 11.8599 9.70057 11.8404 9.70057 11.8208C9.70057 10.8154 9.70057 9.81 9.70057 8.8046C9.70057 8.7015 9.70966 8.60015 9.74498 8.50225C9.8549 8.19799 10.1356 7.99838 10.4639 7.99794C11.3107 7.99672 12.1576 7.99657 13.0045 7.9975C13.1899 7.9975 13.3755 8.0005 13.5609 7.99691C13.9451 7.98958 14.3214 8.29252 14.3315 8.75374C14.3322 8.78789 14.3315 8.82211 14.3315 8.85633C14.3315 9.84459 14.3315 10.8329 14.3315 11.8212C14.3315 11.9144 14.3236 12.0063 14.2943 12.0955C14.226 12.3032 14.0929 12.4546 13.8975 12.5518C13.8714 12.5649 13.8442 12.5759 13.8145 12.5891V13.6924C13.8438 13.6935 13.8723 13.6954 13.9006 13.6954C14.7866 13.6954 15.6725 13.6954 16.5583 13.6954C17.0318 13.6954 17.5053 13.7004 17.9787 13.6941C18.6968 13.6846 19.2725 13.3847 19.6853 12.8001C20.5455 11.5802 19.864 9.86833 18.4041 9.56231C18.268 9.53359 18.1293 9.51886 17.9902 9.51834C17.8241 9.5179 17.7367 9.44059 17.7153 9.27799C17.598 8.38668 16.965 7.69097 16.0889 7.49297C15.7966 7.42701 15.5032 7.42877 15.2103 7.49099C15.0507 7.52492 14.9722 7.48864 14.8886 7.34692C14.2969 6.34313 13.4326 5.71278 12.2958 5.45586C11.8708 5.3606 11.4402 5.35041 11.0076 5.40325C9.4257 5.59626 8.06599 6.76625 7.69381 8.40383C7.66449 8.53193 7.64852 8.66302 7.62646 8.79273C7.62316 8.81193 7.62067 8.83135 7.61708 8.85047C7.5918 8.98699 7.4884 9.06745 7.34983 9.05353C7.27721 9.0462 7.20562 9.0292 7.13307 9.02012C6.5609 8.94823 6.02977 9.06628 5.54957 9.38432C4.97447 9.76537 4.62265 10.3009 4.51515 10.9823C4.31693 12.2389 5.13949 13.3638 6.30266 13.635C6.48109 13.676 6.66368 13.6963 6.84677 13.6953C7.51063 13.6943 8.17445 13.6941 8.83822 13.6949C8.86262 13.6949 8.88709 13.6941 8.9115 13.6956C9.04882 13.7038 9.15251 13.8124 9.14907 13.9438C9.14562 14.0752 9.04369 14.174 8.90768 14.1791C8.87595 14.1803 8.84422 14.1796 8.81242 14.1796C8.16082 14.1796 7.50921 14.1786 6.85761 14.1796C6.19436 14.1808 5.59888 13.9811 5.08021 13.5689C4.49514 13.104 4.14157 12.4978 4.03114 11.7584C3.81525 10.3128 4.74349 8.95079 6.14826 8.59832C6.46613 8.5187 6.79543 8.49502 7.12142 8.52833C7.13351 8.52951 7.1456 8.53017 7.15806 8.53068C7.1629 8.52956 7.16762 8.52794 7.17213 8.52584C7.37936 7.4128 7.92222 6.49475 8.82195 5.79603C9.43823 5.31744 10.1378 5.02908 10.9109 4.92642C11.4751 4.85145 12.0353 4.88171 12.5879 5.02527C13.135 5.16611 13.6498 5.41141 14.1037 5.74766C14.5622 6.08687 14.9396 6.50098 15.2414 6.99019C15.9236 6.89383 16.5536 7.03035 17.1184 7.42599C17.6813 7.82031 18.0249 8.36331 18.1686 9.03462C18.2673 9.04987 18.3639 9.06218 18.4595 9.07998C19.4873 9.27139 20.312 10.0988 20.5016 11.129C20.5162 11.2078 20.5208 11.2884 20.5309 11.3681C20.5339 11.3918 20.5395 11.4153 20.5439 11.4388V11.7754C20.5394 11.8013 20.5335 11.827 20.5306 11.8531C20.5233 11.9161 20.5233 11.9802 20.5105 12.042C20.3193 12.9936 19.7743 13.6542 18.8736 14.0164C18.5714 14.1379 18.2536 14.1807 17.9283 14.1803C16.5886 14.1784 15.2489 14.1782 13.9092 14.1795H13.8154V15.2444H15.4394C15.4533 15.2132 15.4645 15.1862 15.4774 15.1599C15.5577 14.9948 15.695 14.8644 15.8641 14.7927C16.0332 14.721 16.2224 14.713 16.3969 14.7701C16.7576 14.8888 16.977 15.2564 16.9092 15.6286C16.8485 15.9623 16.5795 16.2115 16.2302 16.2494C15.9307 16.2818 15.6104 16.122 15.4685 15.8024C15.444 15.7473 15.4166 15.733 15.3605 15.7332C14.8724 15.7353 14.3844 15.7344 13.8964 15.7346C13.8702 15.7346 13.844 15.7367 13.8146 15.738V16.8429C13.9969 16.9124 14.1413 17.0269 14.2354 17.1991C14.3307 17.3736 14.3543 17.5582 14.3066 17.7513C14.2243 18.0839 13.9255 18.3194 13.5805 18.3241C13.4132 18.327 13.2497 18.2744 13.1155 18.1745C12.9813 18.0745 12.8841 17.9329 12.8389 17.7718C12.7915 17.6112 12.8002 17.4392 12.8637 17.2842C12.9505 17.0685 13.11 16.9257 13.3217 16.8438C13.3363 16.6918 13.3298 14.2388 13.3149 14.1841H12.2606V18.3965L12.3216 18.4237C12.6007 18.5471 12.8076 18.845 12.7703 19.2068C12.7385 19.5146 12.5038 19.7825 12.1908 19.859C12.1631 19.8657 12.1365 19.8773 12.1094 19.8866L11.919 19.887ZM12.81 11.1002V10.923C12.81 10.7178 12.808 10.513 12.8109 10.3082C12.8129 10.1554 12.9428 10.0495 13.0912 10.0737C13.2121 10.0934 13.2927 10.1903 13.2937 10.3228C13.2952 10.518 13.2941 10.7132 13.2941 10.9084C13.2941 11.0524 13.2947 11.1963 13.2941 11.3403C13.2937 11.4263 13.2596 11.4961 13.1887 11.5467C13.1408 11.581 13.0865 11.5892 13.0291 11.5889C12.7997 11.5882 12.5703 11.5889 12.3409 11.5889H12.2624V12.1418H12.3327C12.7354 12.1418 13.138 12.1418 13.5407 12.1418C13.7337 12.1418 13.8429 12.0318 13.8458 11.8372C13.8458 11.8275 13.8458 11.8177 13.8458 11.8079C13.8458 10.8099 13.8458 9.81193 13.8458 8.81405C13.8463 8.78469 13.845 8.75533 13.8421 8.72612C13.8274 8.60308 13.7402 8.50818 13.6197 8.48605C13.5889 8.48041 13.5566 8.48129 13.525 8.48129C12.5196 8.48129 11.5142 8.48129 10.5088 8.48129C10.4869 8.48129 10.4649 8.48063 10.4429 8.48217C10.3778 8.48618 10.3162 8.51347 10.2695 8.55905C10.2228 8.60464 10.1941 8.66549 10.1885 8.73051C10.1857 8.76202 10.1861 8.7939 10.1861 8.82578C10.1861 9.36262 10.1861 9.89942 10.1861 10.4362C10.1861 10.8973 10.1862 11.3585 10.1866 11.8197C10.1866 11.8632 10.188 11.9086 10.2 11.9498C10.2351 12.0703 10.3413 12.1415 10.4798 12.1417C10.8898 12.1422 11.2997 12.1422 11.7097 12.1417C11.7284 12.1417 11.7473 12.1393 11.7683 12.1379V11.5922C11.7398 11.5909 11.7158 11.589 11.6919 11.5889C11.6017 11.5886 11.5113 11.5889 11.4208 11.5889C11.2743 11.5889 11.1277 11.5905 10.9816 11.5883C10.841 11.5862 10.7439 11.4899 10.7362 11.3498C10.7351 11.3303 10.7358 11.3107 10.7358 11.2911C10.7358 10.6397 10.7392 9.98814 10.7335 9.33668C10.732 9.16426 10.8175 9.02891 11.0354 9.0314C11.6892 9.03807 12.3433 9.03374 12.9972 9.03382C13.0216 9.03382 13.0461 9.03382 13.0705 9.03536C13.1283 9.0394 13.1826 9.06412 13.2237 9.10499C13.2647 9.14587 13.2896 9.20015 13.2938 9.25791C13.298 9.31441 13.2819 9.37054 13.2485 9.41631C13.2151 9.46208 13.1666 9.49452 13.1115 9.50787C13.0734 9.51584 13.0345 9.51936 12.9956 9.51834C12.4343 9.51903 11.8731 9.51918 11.3118 9.51878H11.2257V11.1005L12.81 11.1002ZM10.7054 13.6875C10.8146 13.7022 11.718 13.6976 11.7679 13.6831V12.6331C11.6646 12.6184 10.7574 12.6229 10.7054 12.6382V13.6875ZM12.2595 13.6896H13.3221V12.6343C13.2377 12.6202 12.3153 12.623 12.2595 12.6376V13.6896ZM15.8856 15.4865C15.8848 15.5231 15.8912 15.5595 15.9046 15.5936C15.9179 15.6276 15.9379 15.6587 15.9634 15.685C15.9888 15.7113 16.0193 15.7323 16.0529 15.7467C16.0865 15.7611 16.1226 15.7687 16.1592 15.7691C16.232 15.769 16.3017 15.7401 16.3533 15.6888C16.4048 15.6375 16.434 15.5679 16.4345 15.4952C16.4357 15.4225 16.4078 15.3523 16.3572 15.3001C16.3066 15.2478 16.2373 15.2179 16.1646 15.2167C16.0918 15.2156 16.0216 15.2434 15.9694 15.294C15.9171 15.3446 15.887 15.4138 15.8856 15.4865ZM8.14404 15.4956C8.14465 15.4596 8.13817 15.4239 8.12497 15.3904C8.11177 15.3569 8.09211 15.3264 8.0671 15.3006C8.0421 15.2747 8.01225 15.254 7.97926 15.2397C7.94626 15.2254 7.91077 15.2177 7.87481 15.2171C7.83825 15.2165 7.80196 15.2233 7.76805 15.2369C7.73414 15.2506 7.70331 15.2709 7.67737 15.2967C7.65142 15.3224 7.63089 15.3531 7.61698 15.3869C7.60306 15.4207 7.59605 15.4569 7.59634 15.4935C7.59638 15.5661 7.62506 15.6358 7.67617 15.6874C7.72728 15.7391 7.79668 15.7684 7.86931 15.7692C7.94191 15.769 8.01149 15.7401 8.06293 15.6889C8.11437 15.6376 8.14352 15.5682 8.14404 15.4956ZM13.5716 17.8394C13.6075 17.8394 13.6431 17.8322 13.6763 17.8184C13.7095 17.8045 13.7397 17.7843 13.765 17.7588C13.7904 17.7333 13.8105 17.703 13.8241 17.6697C13.8378 17.6364 13.8447 17.6008 13.8445 17.5648C13.8446 17.5289 13.8375 17.4932 13.8237 17.46C13.8099 17.4268 13.7897 17.3966 13.7643 17.3712C13.7388 17.3458 13.7086 17.3256 13.6754 17.3119C13.6421 17.2982 13.6065 17.2911 13.5705 17.2912C13.534 17.2907 13.4977 17.2976 13.4638 17.3115C13.43 17.3253 13.3992 17.3459 13.3735 17.3719C13.3477 17.3979 13.3275 17.4288 13.314 17.4627C13.3004 17.4967 13.2938 17.5331 13.2947 17.5697C13.295 17.6056 13.3024 17.6411 13.3166 17.6742C13.3307 17.7072 13.3512 17.7371 13.3769 17.7622C13.4027 17.7873 13.4331 17.807 13.4665 17.8203C13.4999 17.8335 13.5356 17.84 13.5716 17.8394ZM12.0173 18.8456C11.9814 18.8449 11.9456 18.8514 11.9122 18.8646C11.8788 18.8779 11.8484 18.8976 11.8226 18.9228C11.7969 18.9479 11.7765 18.9779 11.7624 19.011C11.7484 19.0441 11.7411 19.0796 11.741 19.1156C11.7401 19.1521 11.7466 19.1885 11.76 19.2225C11.7735 19.2564 11.7937 19.2874 11.8194 19.3134C11.8451 19.3394 11.8758 19.3599 11.9096 19.3738C11.9435 19.3876 11.9797 19.3945 12.0163 19.394C12.0523 19.3942 12.0879 19.3872 12.1211 19.3735C12.1544 19.3597 12.1846 19.3396 12.2099 19.3141C12.2353 19.2886 12.2554 19.2583 12.2689 19.225C12.2825 19.1917 12.2894 19.156 12.289 19.12C12.2895 19.0841 12.2828 19.0485 12.2693 19.0151C12.2558 18.9818 12.2359 18.9515 12.2106 18.926C12.1853 18.9004 12.1552 18.8802 12.122 18.8664C12.0888 18.8526 12.0532 18.8455 12.0173 18.8456ZM10.7349 17.5642C10.7352 17.5282 10.7282 17.4926 10.7146 17.4593C10.7009 17.426 10.6808 17.3958 10.6553 17.3704C10.6299 17.345 10.5996 17.3249 10.5663 17.3113C10.5331 17.2977 10.4974 17.2909 10.4614 17.2912C10.4255 17.2907 10.3898 17.2974 10.3564 17.3108C10.323 17.3243 10.2927 17.3442 10.2671 17.3695C10.2415 17.3948 10.2212 17.4249 10.2074 17.4581C10.1936 17.4913 10.1865 17.527 10.1866 17.5629C10.1859 17.5995 10.1926 17.6358 10.2063 17.6697C10.22 17.7036 10.2404 17.7344 10.2663 17.7603C10.2922 17.7861 10.323 17.8064 10.3569 17.82C10.3909 17.8336 10.4272 17.8403 10.4638 17.8395C10.4997 17.8395 10.5353 17.8323 10.5684 17.8185C10.6016 17.8046 10.6316 17.7843 10.6568 17.7587C10.6821 17.7331 10.7019 17.7027 10.7153 17.6694C10.7287 17.6361 10.7354 17.6004 10.7348 17.5645L10.7349 17.5642Z" fill="black"/>
</g>
<defs>
<clipPath id="clip0_236_18310">
<rect width="16.5437" height="15" fill="white" transform="translate(4 4.88721)"/>
</clipPath>
</defs>
</svg>
