<svg width="24" height="25" viewBox="0 0 24 25" fill="none" xmlns="http://www.w3.org/2000/svg">
<rect y="0.887207" width="24" height="24" rx="3" fill="#ECECEC"/>
<path d="M10.6586 17.4612C11.1638 18.0862 11.1481 18.2557 10.5581 18.7898C10.2461 19.0712 9.94627 19.3684 9.63685 19.649C9.27849 19.9715 8.9787 19.9689 8.65705 19.6262C7.51846 18.4113 6.38365 17.1929 5.25264 15.971C4.90302 15.5925 4.91613 15.3312 5.29285 14.9667C5.59439 14.6748 5.90468 14.3907 6.21234 14.1058C6.78659 13.5752 6.88361 13.57 7.55663 14.0778C7.76203 13.854 7.96743 13.6128 8.19031 13.389C8.93762 12.6356 9.82914 12.4687 10.8264 12.765C11.0061 12.8175 11.1814 12.8839 11.3509 12.9634C12.0868 13.313 12.8577 13.4214 13.6697 13.4004C14.0901 13.3882 14.5123 13.5193 14.9362 13.5639C15.0614 13.5774 15.1873 13.5465 15.2919 13.4765C15.7849 13.0831 16.2534 12.661 16.7507 12.272C17.04 12.0448 17.3407 11.7983 17.6772 11.6742C18.1002 11.5177 18.5207 11.7397 18.7505 12.1217C18.9804 12.5036 18.9 12.848 18.6185 13.1548C17.7576 14.0918 16.9019 15.0331 16.0209 15.9518C15.4187 16.5793 14.6609 16.8581 13.7851 16.8171C13.2939 16.7943 12.7948 16.8389 12.3106 16.7707C11.6174 16.6685 11.1026 16.9211 10.6586 17.4612ZM7.84418 14.4781L10.2618 17.0688C10.3706 16.9916 10.4751 16.9084 10.5747 16.8197C11.0318 16.3459 11.5842 16.1965 12.2354 16.255C12.7965 16.3057 13.3638 16.2891 13.9284 16.3022C14.5507 16.3171 15.1171 16.1336 15.5489 15.6904C16.4562 14.7587 17.3381 13.8025 18.2112 12.8384C18.3065 12.7344 18.3511 12.446 18.2803 12.3629C18.1719 12.2362 17.9176 12.1296 17.7681 12.1698C17.5487 12.2301 17.3398 12.4014 17.1729 12.5718C16.6677 13.0884 16.2009 13.6416 15.5218 13.9554C15.4204 14.0026 15.3426 14.1932 15.3304 14.3252C15.2814 14.8496 15.0175 15.2805 14.5735 15.3076C13.7082 15.36 12.8385 15.3425 11.9706 15.332C11.8832 15.332 11.8054 15.1765 11.7223 15.0934C11.8097 15.0148 11.8866 14.8942 11.9845 14.8679C12.1331 14.8286 12.3001 14.8566 12.4591 14.8557C13.0815 14.8557 13.7047 14.8618 14.3261 14.8408C14.625 14.8312 14.8226 14.6529 14.7998 14.3365C14.7789 14.0516 14.5971 13.8995 14.3034 13.9047C14.1155 13.9047 13.9258 13.8908 13.7387 13.9047C12.8262 13.9766 11.9107 13.8094 11.0825 13.4196C10.7665 13.2787 10.4297 13.1901 10.0852 13.1574C9.0495 13.0552 8.47787 13.7859 7.84418 14.4781ZM5.48426 15.478L9.15525 19.4051C9.6421 18.941 10.0765 18.5311 10.5284 18.094L6.87137 14.1809L5.48426 15.478Z" fill="black"/>
<path d="M13.6421 6.70531C14.0389 6.28053 14.4742 5.96761 15.0589 5.90293C15.4413 5.85543 15.8292 5.92192 16.1739 6.09406C16.5187 6.26619 16.8049 6.53631 16.9967 6.87051C17.3979 7.58023 17.3848 8.48924 16.8464 9.06786C15.8849 10.1062 14.864 11.0983 13.8484 12.0886C13.7671 12.1672 13.4655 12.155 13.3781 12.0702C12.3896 11.1105 11.401 10.1578 10.4667 9.1439C9.76221 8.38086 9.82952 7.221 10.5288 6.49991C11.2463 5.75435 12.3765 5.68093 13.2103 6.3251C13.351 6.43523 13.4734 6.55672 13.6421 6.70531ZM13.6605 11.5519C14.5677 10.6516 15.5064 9.74961 16.4076 8.81176C16.9198 8.27859 16.8743 7.41329 16.3717 6.87837C15.8167 6.29014 15.0047 6.21847 14.378 6.70356C14.122 6.90372 13.8694 7.27606 13.6185 7.27257C13.3677 7.26907 13.1185 6.89411 12.859 6.69395C12.576 6.47438 12.2224 6.36626 11.8651 6.3901C11.5077 6.41395 11.1716 6.56809 10.9203 6.82331C10.4125 7.3355 10.298 8.19906 10.7901 8.71999C11.7096 9.70067 12.6981 10.6114 13.6605 11.5563V11.5519Z" fill="black"/>
</svg>
