<svg width="24" height="24" viewBox="0 0 24 24" fill="none" xmlns="http://www.w3.org/2000/svg">
<rect width="24" height="24" rx="3" fill="#1978BC"/>
<g clip-path="url(#clip0_234_3)">
<path d="M3 11.4713C3.01315 11.3858 3.02959 11.2999 3.03805 11.2139C3.08032 10.7794 3.36685 10.4812 3.7957 10.4154C4.06203 10.375 4.32788 10.3332 4.59139 10.2792C4.62113 10.27 4.64843 10.2543 4.67128 10.2331C4.69412 10.212 4.71192 10.186 4.72339 10.1571C4.90728 9.45422 5.1872 8.78009 5.55525 8.15372C5.56716 8.1219 5.57174 8.08781 5.56865 8.05398C5.56556 8.02015 5.55488 7.98745 5.53741 7.95832C5.38616 7.72863 5.21846 7.50973 5.06111 7.2838C4.81545 6.93104 4.81639 6.53602 5.10808 6.21896C5.46788 5.82768 5.84648 5.45144 6.2354 5.09164C6.53414 4.81638 6.93623 4.81403 7.27302 5.04467C7.50475 5.20374 7.73318 5.36752 7.95833 5.53599C7.98698 5.56377 8.02477 5.58016 8.06463 5.58206C8.1045 5.58397 8.1437 5.57125 8.17486 5.54632C8.78038 5.17725 9.43867 4.90276 10.127 4.73231C10.2364 4.70507 10.2797 4.65762 10.2947 4.54958C10.3294 4.295 10.3774 4.04182 10.4173 3.78723C10.4882 3.33302 10.7823 3.06247 11.2459 3.02818C11.3802 3.01831 11.5145 3.00234 11.6489 2.99858C12.0326 2.98871 12.2901 3.23344 12.298 3.62424C12.306 4.01505 12.298 4.39739 12.3004 4.78444C12.3004 5.14753 12.3004 5.51062 12.3004 5.87371C12.3004 6.36456 12.1003 6.57501 11.6071 6.61258C10.2745 6.7131 9.11757 7.22321 8.18988 8.18049C6.71451 9.70378 6.234 11.5272 6.84369 13.5545C7.45338 15.5818 8.87146 16.8148 10.934 17.2939C11.2008 17.3559 11.4788 17.3653 11.7517 17.4015C12.0759 17.4447 12.2915 17.6594 12.2957 17.9868C12.3051 18.7951 12.3027 19.6035 12.2957 20.4119C12.2929 20.7229 12.0975 20.8966 11.8236 20.9986H11.4009C11.3563 20.9857 11.3109 20.9755 11.2651 20.9681C10.7578 20.9211 10.4915 20.6707 10.4121 20.1733C10.3722 19.9248 10.3238 19.6777 10.2891 19.4288C10.2754 19.3348 10.2379 19.293 10.142 19.2691C9.4484 19.0969 8.78485 18.8207 8.17392 18.4499C8.14272 18.4248 8.10344 18.4121 8.06346 18.414C8.02349 18.4159 7.98558 18.4323 7.95691 18.4602C7.72769 18.6322 7.49519 18.8008 7.25752 18.9614C6.93623 19.1798 6.52522 19.1737 6.24902 18.9173C5.85916 18.5551 5.47823 18.1817 5.11749 17.79C4.8117 17.4612 4.81029 17.0661 5.07051 16.6965C5.22552 16.4762 5.38897 16.262 5.53693 16.0388C5.5543 16.0097 5.56481 15.9769 5.56766 15.943C5.57051 15.9092 5.56562 15.8751 5.55337 15.8434C5.18711 15.2168 4.90849 14.5429 4.72527 13.8406C4.71395 13.8116 4.69618 13.7855 4.67332 13.7643C4.65045 13.7432 4.62308 13.7275 4.59327 13.7184C4.32976 13.6644 4.06343 13.6245 3.79804 13.5813C3.35932 13.5127 3.07656 13.2093 3.03851 12.7663C3.03146 12.6855 3.01456 12.6057 3.00188 12.5254L3 11.4713ZM11.6898 3.59606C11.5423 3.6078 11.415 3.62237 11.2877 3.62754C11.119 3.63458 11.0364 3.72148 11.0115 3.88541C10.9608 4.22079 10.9006 4.55522 10.8457 4.89013C10.8029 5.14847 10.7593 5.20108 10.4986 5.2598C9.71453 5.43484 8.9673 5.74613 8.29089 6.1795C8.08046 6.31383 8.00905 6.3082 7.79815 6.15836C7.51632 5.95779 7.2345 5.7577 6.95596 5.55478C6.82726 5.46084 6.70512 5.46083 6.59239 5.57263C6.25513 5.90581 5.91959 6.24041 5.58578 6.57642C5.46177 6.70136 5.46883 6.83006 5.5717 6.96909C5.77978 7.25092 5.97989 7.5412 6.18797 7.82444C6.2946 7.96959 6.30211 8.10628 6.20253 8.26128C5.74794 8.95928 5.42625 9.73529 5.2537 10.5502C5.21706 10.7221 5.11748 10.8118 4.9465 10.8386C4.59374 10.894 4.24193 10.9579 3.88964 11.0105C3.73041 11.0345 3.63975 11.1181 3.63834 11.2745C3.63333 11.7596 3.63333 12.245 3.63834 12.7306C3.63834 12.8767 3.72478 12.9655 3.8765 12.9876C4.22362 13.0416 4.56884 13.1064 4.91643 13.1576C5.10855 13.1858 5.21707 13.2774 5.25934 13.4733C5.43068 14.2763 5.74919 15.0408 6.19877 15.7279C6.30164 15.8862 6.29835 16.0285 6.18609 16.1802C5.98082 16.4578 5.78166 16.7401 5.58156 17.022C5.45568 17.1986 5.4524 17.2803 5.60553 17.4386C5.92306 17.7674 6.25137 18.084 6.57312 18.4076C6.70371 18.5387 6.83289 18.5387 6.97851 18.4316C7.26034 18.223 7.55062 18.0234 7.83292 17.8144C7.97994 17.7059 8.1171 17.7035 8.26929 17.8026C8.96187 18.2549 9.73217 18.575 10.5413 18.7468C10.7292 18.7867 10.8184 18.8933 10.8452 19.0803C10.8955 19.4274 10.9603 19.7731 11.0143 20.1197C11.0331 20.2428 11.0871 20.3377 11.2111 20.3574C11.3647 20.3823 11.5211 20.3865 11.6851 20.4006C11.6897 20.3344 11.6954 20.2884 11.6954 20.2428C11.6977 19.5514 11.6954 18.86 11.7043 18.169C11.7043 18.0187 11.6498 17.9905 11.5164 17.9741C11.1801 17.9332 10.84 17.8947 10.5136 17.8097C7.37165 16.9914 5.46648 13.9054 6.13442 10.7311C6.63279 8.36321 8.59056 6.48012 10.965 6.0879C11.2045 6.04845 11.446 6.02121 11.693 5.98692L11.6898 3.59606Z" fill="white"/>
<path d="M12.3079 8.09732V8.69667H12.5136C13.5038 8.69667 14.4941 8.69667 15.4846 8.69667C15.5545 8.69337 15.6245 8.70066 15.6922 8.71828C15.7589 8.73474 15.8169 8.77564 15.8549 8.83289C15.8928 8.89013 15.9078 8.95954 15.897 9.02736C15.8935 9.09585 15.8649 9.16065 15.8167 9.20936C15.7684 9.25807 15.7038 9.28726 15.6354 9.29133C15.577 9.29612 15.5183 9.29738 15.4597 9.29509H12.3178V10.2002H12.5057C14 10.2002 15.4941 10.2002 16.9882 10.2002C17.3038 10.2002 17.4039 10.1039 17.4048 9.79581C17.4048 9.36179 17.4048 8.92824 17.4048 8.49469C17.4048 8.40075 17.3851 8.34016 17.2893 8.28943C17.1013 8.19537 16.953 8.0374 16.8711 7.84387C16.7891 7.65034 16.7789 7.43394 16.8421 7.23351C16.9637 6.83707 17.3489 6.56557 17.7482 6.59469C18.1963 6.6271 18.5312 6.94275 18.5937 7.39321C18.6155 7.56595 18.5852 7.74129 18.5066 7.89665C18.428 8.05202 18.3047 8.18031 18.1526 8.26501C18.0272 8.33218 17.998 8.40874 17.9999 8.53839C18.007 8.96583 18.0046 9.39373 18.0023 9.82164C17.999 10.4248 17.6265 10.7991 17.0257 10.7996C15.5198 10.7996 14.0139 10.7996 12.508 10.7996H12.3098V11.6883C12.3798 11.6911 12.4422 11.6963 12.5042 11.6963C14.6963 11.6963 16.8883 11.6971 19.0803 11.6986C19.1963 11.6986 19.2649 11.6742 19.3259 11.5577C19.4223 11.3813 19.5757 11.2428 19.7611 11.165C19.9465 11.0873 20.1528 11.0749 20.3462 11.1298C20.5336 11.1833 20.6986 11.2961 20.8166 11.4512C20.9347 11.6063 20.9993 11.7954 21.001 11.9903C21.0015 12.1882 20.937 12.3807 20.8173 12.5383C20.6976 12.6958 20.5294 12.8096 20.3386 12.8621C20.1449 12.9163 19.9385 12.9028 19.7535 12.8238C19.5685 12.7448 19.416 12.6051 19.3213 12.4276C19.2644 12.3205 19.2001 12.2952 19.0897 12.2952C16.8923 12.298 14.6949 12.2988 12.4972 12.2975C12.4399 12.2975 12.3826 12.3027 12.314 12.3064V13.1942H12.5179C14.0059 13.1942 15.4943 13.1942 16.983 13.1942C17.6406 13.1942 18.0032 13.5573 18.0042 14.2173C18.0042 14.6447 18.0042 15.0726 18.0042 15.5005C18.0042 15.5945 18.0183 15.6551 18.1169 15.7077C18.2993 15.7994 18.4443 15.9515 18.5273 16.1381C18.6103 16.3247 18.6261 16.5343 18.572 16.7312C18.5201 16.9221 18.4075 17.0909 18.2511 17.212C18.0948 17.3332 17.9032 17.4002 17.7054 17.4029C17.5046 17.4014 17.31 17.3338 17.1515 17.2105C16.993 17.0872 16.8797 16.9151 16.8289 16.7208C16.7275 16.3131 16.9121 15.9162 17.2935 15.6945C17.3223 15.6761 17.3467 15.6515 17.3651 15.6226C17.3834 15.5938 17.3952 15.5612 17.3996 15.5273C17.4081 15.0703 17.4071 14.6132 17.4029 14.1562C17.4029 13.9039 17.2878 13.7945 17.0323 13.7945C15.5029 13.7945 13.9735 13.7945 12.4441 13.7945C12.4042 13.7945 12.3643 13.8011 12.3145 13.8058V14.6982H15.4503C15.509 14.6982 15.5682 14.6959 15.626 14.7015C15.6968 14.7067 15.7634 14.737 15.8138 14.7869C15.8641 14.8369 15.895 14.9032 15.9008 14.974C15.9053 15.0449 15.8845 15.1151 15.8421 15.1721C15.7997 15.2292 15.7384 15.2693 15.6692 15.2854C15.6058 15.2964 15.5414 15.3003 15.4771 15.2971H12.3178V15.896H12.5057C13.0098 15.896 13.5138 15.896 14.0177 15.896C14.6363 15.896 14.9961 16.2586 14.998 16.8824C14.998 17.4156 15.0008 17.9487 14.998 18.4818C14.998 18.5927 15.0215 18.6575 15.129 18.7138C15.3073 18.8071 15.4485 18.9583 15.5292 19.1426C15.6099 19.3269 15.6253 19.5332 15.5729 19.7275C15.5233 19.919 15.4117 20.0887 15.2555 20.2102C15.0994 20.3317 14.9074 20.3982 14.7096 20.3992C14.512 20.4001 14.3195 20.3364 14.1616 20.2176C14.0036 20.0989 13.8889 19.9317 13.835 19.7416C13.7792 19.5452 13.7929 19.3356 13.8738 19.1482C13.9546 18.9608 14.0977 18.807 14.2788 18.7129C14.3728 18.6659 14.4028 18.6138 14.4019 18.5128C14.3972 17.9618 14.4019 17.4109 14.3991 16.8603C14.3991 16.6034 14.2929 16.4982 14.0355 16.4977C13.4719 16.4977 12.9082 16.4977 12.3483 16.4977C12.2875 16.4969 12.2287 16.5196 12.1844 16.5611C12.0402 16.7363 11.8593 16.796 11.6395 16.7796C10.5639 16.695 9.60658 16.3098 8.81651 15.5794C7.38952 14.2576 6.87423 12.6202 7.37918 10.7446C7.87989 8.88457 9.14766 7.74738 11.0214 7.29739C11.2417 7.24431 11.4728 7.23116 11.6996 7.20909C11.8875 7.19124 12.0369 7.27062 12.167 7.40684C12.2176 7.45631 12.2843 7.48598 12.3549 7.49045C12.9186 7.49702 13.4822 7.49514 14.0426 7.49373C14.2901 7.49373 14.3977 7.38804 14.3986 7.14191C14.3986 6.5853 14.3986 6.02869 14.4014 5.47208C14.4054 5.43255 14.3964 5.3928 14.3757 5.35888C14.355 5.32496 14.3238 5.29873 14.2868 5.28419C14.1047 5.19203 13.96 5.03976 13.8772 4.85315C13.7944 4.66655 13.7787 4.45709 13.8326 4.26021C13.8841 4.06935 13.9967 3.90062 14.1532 3.77989C14.3098 3.65917 14.5016 3.5931 14.6992 3.5918C14.9001 3.5912 15.0955 3.65776 15.2542 3.78091C15.4129 3.90406 15.5259 4.07673 15.5753 4.27148C15.6256 4.46619 15.6081 4.67224 15.5256 4.85565C15.4431 5.03907 15.3006 5.18889 15.1215 5.28043C15.0186 5.33445 14.997 5.39645 14.9975 5.49978C15.0019 6.04465 15.0019 6.58968 14.9975 7.13487C14.9947 7.73094 14.6274 8.09215 14.0275 8.09308H12.3074L12.3079 8.09732ZM11.6907 7.82723C10.5549 7.86011 9.12511 8.54073 8.3698 9.90243C7.55015 11.3816 7.58491 12.871 8.49663 14.2957C9.23174 15.4446 10.322 16.0496 11.6907 16.1915V7.82723ZM14.9961 4.50352C14.9971 4.46412 14.9903 4.42492 14.976 4.38819C14.9617 4.35146 14.9402 4.31793 14.9129 4.28956C14.8855 4.2612 14.8528 4.23855 14.8166 4.22295C14.7804 4.20734 14.7415 4.19909 14.7021 4.19867C14.6224 4.20025 14.5465 4.23276 14.4904 4.2893C14.4343 4.34584 14.4024 4.42199 14.4014 4.50164C14.4033 4.57817 14.4343 4.65111 14.4882 4.70551C14.5421 4.75991 14.6147 4.79165 14.6912 4.79427C14.7306 4.79638 14.7701 4.79043 14.8071 4.77675C14.8441 4.76307 14.8779 4.74196 14.9065 4.71473C14.935 4.6875 14.9577 4.65471 14.9731 4.61839C14.9885 4.58207 14.9964 4.54297 14.9961 4.50352ZM14.7016 19.2056C14.622 19.2058 14.5457 19.2374 14.4893 19.2937C14.433 19.3499 14.4012 19.4262 14.401 19.5058C14.404 19.5854 14.4378 19.6607 14.4953 19.7158C14.5528 19.7709 14.6295 19.8015 14.7091 19.8012C14.7857 19.7988 14.8585 19.7668 14.912 19.7119C14.9655 19.6569 14.9957 19.5834 14.9961 19.5067C14.998 19.4672 14.9917 19.4277 14.9777 19.3907C14.9636 19.3536 14.9421 19.3199 14.9145 19.2915C14.8869 19.2632 14.8537 19.2408 14.8171 19.2258C14.7805 19.2107 14.7412 19.2034 14.7016 19.2042V19.2056ZM20.1033 12.2985C20.183 12.2975 20.259 12.2649 20.3146 12.2079C20.3703 12.1509 20.4011 12.0742 20.4002 11.9946C20.3991 11.9551 20.3902 11.9163 20.374 11.8804C20.3577 11.8444 20.3345 11.8121 20.3057 11.7852C20.2768 11.7583 20.2429 11.7374 20.2059 11.7238C20.1689 11.7101 20.1296 11.704 20.0902 11.7057C20.0135 11.707 19.9406 11.7386 19.8871 11.7935C19.8336 11.8484 19.8039 11.9222 19.8046 11.9988C19.8043 12.0382 19.8118 12.0772 19.8268 12.1136C19.8417 12.15 19.8638 12.1831 19.8918 12.2109C19.9197 12.2387 19.9528 12.2606 19.9893 12.2754C20.0258 12.2902 20.0649 12.2975 20.1043 12.297L20.1033 12.2985ZM17.7054 7.20486C17.666 7.2035 17.6268 7.21021 17.5901 7.22456C17.5534 7.23891 17.52 7.2606 17.492 7.28831C17.464 7.31601 17.4419 7.34915 17.4272 7.38569C17.4124 7.42222 17.4053 7.46139 17.4062 7.50078C17.4051 7.57719 17.434 7.651 17.4867 7.70634C17.5394 7.76168 17.6117 7.79413 17.6881 7.7967C17.7675 7.79988 17.845 7.77139 17.9035 7.71749C17.9619 7.6636 17.9966 7.58869 17.9999 7.50923C18.0009 7.46983 17.9941 7.43062 17.9799 7.39387C17.9656 7.35711 17.9442 7.32355 17.9169 7.29512C17.8896 7.26668 17.857 7.24394 17.8208 7.2282C17.7847 7.21247 17.7458 7.20405 17.7064 7.20344L17.7054 7.20486ZM17.6927 16.206C17.6534 16.2064 17.6145 16.2148 17.5785 16.2307C17.5424 16.2466 17.51 16.2696 17.4832 16.2985C17.4564 16.3273 17.4357 16.3613 17.4225 16.3984C17.4093 16.4355 17.4037 16.4749 17.4062 16.5142C17.4086 16.5904 17.4407 16.6626 17.4958 16.7153C17.5509 16.7681 17.6245 16.797 17.7007 16.796C17.7401 16.796 17.7791 16.7882 17.8154 16.7731C17.8518 16.758 17.8848 16.7359 17.9126 16.708C17.9404 16.6801 17.9624 16.647 17.9774 16.6106C17.9924 16.5742 18.0001 16.5352 17.9999 16.4958C17.999 16.4566 17.9904 16.4179 17.9745 16.382C17.9586 16.3461 17.9357 16.3137 17.9073 16.2866C17.8788 16.2596 17.8453 16.2384 17.8086 16.2243C17.772 16.2103 17.7329 16.2036 17.6937 16.2046L17.6927 16.206Z" fill="white"/>
</g>
<defs>
<clipPath id="clip0_234_3">
<rect width="18.0014" height="18" fill="white" transform="translate(3 3)"/>
</clipPath>
</defs>
</svg>
