<svg width="24" height="24" viewBox="0 0 24 24" fill="none" xmlns="http://www.w3.org/2000/svg">
<rect width="24" height="24" rx="3" fill="#ECECEC"/>
<path d="M12.4145 18.9999C12.2821 18.9151 12.2476 18.7912 12.2492 18.6385C12.2548 18.0631 12.2514 17.4874 12.2514 16.9119V16.7514C11.9955 16.718 11.7547 16.6893 11.5148 16.6547C11.3311 16.6281 11.2289 16.5134 11.2483 16.3697C11.2698 16.2113 11.3971 16.1258 11.5874 16.1613C12.188 16.2752 12.8046 16.2757 13.4053 16.1625C13.5903 16.1278 13.7162 16.208 13.7388 16.3588C13.7634 16.5189 13.6708 16.6273 13.4755 16.6556C13.2404 16.69 13.0044 16.718 12.7532 16.7508V16.911C12.7532 17.4866 12.7498 18.0622 12.7554 18.6376C12.757 18.7902 12.7222 18.9137 12.5901 18.9992L12.4145 18.9999Z" fill="black"/>
<path d="M5.00028 11.4111C5.08167 11.284 5.19881 11.2448 5.3469 11.2461C5.92723 11.2511 6.50757 11.2481 7.08776 11.2481H7.22835C7.29802 10.8666 7.36302 10.5036 7.43127 10.1414C7.44769 10.0652 7.46864 9.99011 7.494 9.91644C7.55053 9.73713 7.67233 9.65333 7.81406 9.69346C7.96793 9.73699 8.02177 9.87122 7.97472 10.0593C7.91226 10.3093 7.84755 10.5597 7.80515 10.8136C7.7711 11.0193 7.76474 11.2301 7.75428 11.4391C7.7434 11.6596 7.66187 11.7486 7.43876 11.7491C6.73224 11.7511 6.02459 11.748 5.31751 11.7514C5.1779 11.7514 5.07517 11.701 5 11.5869L5.00028 11.4111Z" fill="black"/>
<path d="M12.5095 15.2492C10.4375 15.253 8.75156 13.5707 8.75085 11.4992C8.75085 9.43259 10.4277 7.75221 12.4934 7.74854C14.5644 7.74501 16.2529 9.43005 16.2521 11.4993C16.2531 13.5656 14.5759 15.2454 12.5095 15.2492ZM13.7403 10.2047C13.7403 10.0162 13.7589 9.80507 13.7369 9.59834C13.6691 8.96474 13.1368 8.50027 12.4999 8.50169C11.869 8.50296 11.3373 8.96446 11.2692 9.58859C11.246 9.79984 11.2655 10.0159 11.2655 10.2281C11.2115 10.2423 11.1842 10.2509 11.1563 10.2564C10.741 10.3381 10.5063 10.6125 10.5051 11.0302C10.5026 11.7669 10.5015 12.5037 10.5051 13.2404C10.5077 13.6693 10.8143 13.9893 11.2377 13.9932C12.0818 14.0003 12.926 14.0003 13.7702 13.9932C14.18 13.9895 14.4934 13.6737 14.497 13.2654C14.5035 12.5044 14.5006 11.7432 14.4978 10.982C14.497 10.7242 14.3825 10.5157 14.1664 10.381C14.0507 10.308 13.9094 10.2731 13.7399 10.205L13.7403 10.2047Z" fill="black"/>
<path d="M10.2497 17.7471C10.2497 17.3849 10.2247 17.0373 10.2569 16.6949C10.2876 16.3685 10.1922 16.184 9.88457 16.0338C9.36359 15.7794 8.93332 15.3901 8.55025 14.9534C8.42816 14.8142 8.41912 14.6665 8.52665 14.5646C8.64323 14.454 8.78905 14.4698 8.92089 14.6198C9.37253 15.1355 9.92942 15.5485 10.5541 15.831C10.6918 15.8936 10.7519 15.9886 10.7508 16.1389C10.7472 16.666 10.7508 17.1933 10.7488 17.7204C10.7471 18.0488 10.5491 18.2456 10.2158 18.2469C9.50287 18.2497 8.79004 18.2497 8.07731 18.2469C7.99111 18.2469 7.9271 18.261 7.86281 18.3345C7.67106 18.5525 7.34875 18.5541 7.14626 18.3516C7.09932 18.3051 7.06215 18.2497 7.03693 18.1886C7.01171 18.1276 6.99895 18.0621 6.9994 17.996C6.99985 17.93 7.01349 17.8647 7.03954 17.804C7.06558 17.7433 7.1035 17.6884 7.15106 17.6425C7.35016 17.4495 7.66456 17.4573 7.86252 17.6558C7.90039 17.6939 7.9531 17.743 7.99931 17.7433C8.74101 17.7488 9.48299 17.7471 10.2497 17.7471Z" fill="black"/>
<path d="M17.2457 9.24646C17.5442 9.88939 17.7049 10.5476 17.748 11.2479H17.9914C18.5431 11.2479 19.0948 11.2479 19.6467 11.2479C19.7049 11.2479 19.7651 11.2479 19.8209 11.262C19.9393 11.2925 20.0016 11.378 20.0015 11.4977C20.0013 11.6174 19.9393 11.703 19.8206 11.7334C19.7649 11.7475 19.7046 11.7475 19.6464 11.7475C18.9681 11.7484 18.2895 11.7484 17.6104 11.7475C17.329 11.7475 17.2571 11.6731 17.2507 11.3931C17.2349 10.6127 17.0326 9.88247 16.6623 9.19616C16.6228 9.12296 16.5893 9.03126 16.5959 8.9517C16.6074 8.81209 16.7197 8.74568 16.9016 8.74526C17.4142 8.74398 17.9269 8.7478 18.4395 8.74102C18.5125 8.73672 18.5816 8.70702 18.6349 8.65708C18.8391 8.45657 19.161 8.44513 19.359 8.64295C19.4058 8.6896 19.4428 8.74511 19.468 8.80623C19.4931 8.86736 19.5058 8.93288 19.5053 8.99896C19.5048 9.06505 19.4911 9.13037 19.465 9.19111C19.439 9.25185 19.4011 9.30679 19.3536 9.35272C19.1534 9.54786 18.8379 9.54616 18.6471 9.33492C18.5793 9.2596 18.512 9.24137 18.4195 9.24222C18.0362 9.24844 17.6522 9.24646 17.2457 9.24646Z" fill="black"/>
<path d="M14.7553 5.25978C14.7553 5.74445 14.7524 6.21273 14.7599 6.68086C14.7599 6.72552 14.8174 6.78713 14.8636 6.81072C15.3652 7.06472 15.8236 7.39624 16.2218 7.79306C16.352 7.92306 16.3623 8.072 16.2528 8.17939C16.1433 8.28678 16.0001 8.27449 15.8669 8.14307C15.51 7.79094 15.112 7.49576 14.6641 7.26897C14.2402 7.05419 14.2525 7.1531 14.2543 6.59849C14.2563 6.16412 14.2543 5.72961 14.2552 5.29524C14.2565 4.94608 14.4492 4.75207 14.7998 4.75108C15.5126 4.74897 16.2254 4.75264 16.9381 4.74656C17.0042 4.74656 17.0858 4.70841 17.1332 4.66178C17.3397 4.45619 17.6514 4.44361 17.8554 4.6444C17.9025 4.69068 17.9399 4.74587 17.9654 4.80675C17.991 4.86763 18.0041 4.93299 18.0041 4.999C18.0041 5.06502 17.991 5.13037 17.9654 5.19125C17.9399 5.25213 17.9025 5.30732 17.8554 5.3536C17.6528 5.5527 17.3388 5.54182 17.1337 5.33537C17.0941 5.29553 17.0314 5.25554 16.9789 5.25526C16.2662 5.25003 15.5535 5.25172 14.8407 5.25215C14.8184 5.25158 14.795 5.25582 14.7553 5.25978Z" fill="black"/>
<path d="M14.7554 17.7473H15.8285C16.2046 17.7473 16.5808 17.7505 16.9566 17.7439C17.0209 17.74 17.0818 17.7134 17.1283 17.6689C17.336 17.4595 17.6447 17.4428 17.8501 17.6398C17.8992 17.6859 17.9383 17.7416 17.965 17.8035C17.9918 17.8653 18.0055 17.932 18.0055 17.9994C18.0055 18.0668 17.9918 18.1334 17.965 18.1953C17.9383 18.2571 17.8992 18.3128 17.8501 18.359C17.6434 18.5575 17.3362 18.541 17.1295 18.3307C17.0797 18.2831 17.0145 18.2549 16.9458 18.2512C16.2425 18.2457 15.5391 18.2482 14.8358 18.2475C14.439 18.2475 14.2565 18.0625 14.2556 17.6642C14.2556 17.1661 14.2597 16.6679 14.2532 16.1699C14.251 15.996 14.3147 15.8896 14.4761 15.8181C14.9903 15.5907 15.4419 15.2697 15.8449 14.8783C15.8986 14.826 15.967 14.7765 16.0373 14.7565C16.1477 14.7251 16.2415 14.7791 16.2941 14.879C16.3529 14.9906 16.3343 15.1039 16.2397 15.1859C15.9927 15.3995 15.7485 15.6184 15.4855 15.8112C15.2862 15.9574 15.0582 16.0645 14.8464 16.1945C14.8077 16.2183 14.7599 16.2684 14.7594 16.3076C14.7533 16.7799 14.7554 17.2529 14.7554 17.7473Z" fill="black"/>
<path d="M10.7494 6.53536C10.9852 6.47445 11.2007 6.41511 11.4182 6.36381C11.5787 6.32608 11.7071 6.39801 11.7408 6.53338C11.7776 6.6816 11.6984 6.79634 11.5331 6.84721C11.2307 6.94005 10.928 7.03274 10.6287 7.13363C10.4074 7.2081 10.254 7.10537 10.2513 6.86219C10.2473 6.50568 10.2502 6.14931 10.2502 5.79281V5.25939C10.1897 5.25599 10.1425 5.25133 10.0947 5.25133C9.42085 5.25133 8.74683 5.25133 8.07281 5.24964C7.9852 5.24964 7.92261 5.26871 7.85888 5.33894C7.66544 5.55174 7.33888 5.54892 7.14106 5.34473C7.09554 5.29851 7.05957 5.24377 7.03523 5.18364C7.01088 5.12351 6.99862 5.05917 6.99916 4.9943C6.9997 4.92943 7.01302 4.8653 7.03836 4.80558C7.0637 4.74587 7.10057 4.69173 7.14685 4.64627C7.35118 4.4435 7.67236 4.44534 7.86312 4.6645C7.9277 4.73868 7.99227 4.7514 8.07804 4.75126C8.77646 4.74975 9.47487 4.74975 10.1733 4.75126C10.563 4.75126 10.7487 4.93679 10.7494 5.32382C10.7499 5.72314 10.7494 6.12331 10.7494 6.53536Z" fill="black"/>
<path d="M7.33714 9.24654C7.1516 9.24654 6.96622 9.24866 6.78083 9.24583C6.59713 9.24314 6.4359 9.24272 6.28118 9.39787C6.09663 9.58284 5.77248 9.51628 5.60631 9.30631C5.52816 9.20771 5.49035 9.08312 5.50053 8.95771C5.51071 8.83231 5.56811 8.71544 5.66114 8.63074C5.85896 8.45255 6.16828 8.45383 6.34773 8.64953C6.41838 8.72696 6.48762 8.74986 6.58639 8.74844C7.01581 8.74406 7.44537 8.74095 7.87465 8.75C7.99957 8.75268 8.06442 8.70859 8.129 8.6077C8.44604 8.11369 8.84843 7.68002 9.31736 7.32693C9.4687 7.21219 9.62456 7.22943 9.71075 7.36522C9.78593 7.48364 9.75639 7.61547 9.61947 7.72159C9.20743 8.04122 8.85092 8.41271 8.56181 8.84707C8.26084 9.29924 8.40313 9.24272 7.80556 9.24597C7.6497 9.24724 7.49328 9.24654 7.33714 9.24654Z" fill="black"/>
<path d="M17.2553 13.7513C17.6868 13.7513 18.1 13.7534 18.5129 13.7481C18.5515 13.7481 18.5958 13.7068 18.6268 13.6743C18.8362 13.4537 19.1483 13.4398 19.3558 13.6451C19.403 13.6911 19.4407 13.7462 19.4664 13.8069C19.4921 13.8677 19.5054 13.9331 19.5056 13.9991C19.5057 14.0651 19.4927 14.1304 19.4672 14.1913C19.4418 14.2522 19.4044 14.3074 19.3573 14.3537C19.1544 14.5549 18.8335 14.5382 18.6248 14.3254C18.5776 14.2821 18.5165 14.2571 18.4524 14.2548C17.9403 14.2494 17.4281 14.2524 16.9159 14.2514C16.6163 14.2514 16.5098 14.0741 16.6529 13.8134C16.8765 13.4049 17.0449 12.976 17.1408 12.5196C17.1458 12.4958 17.1528 12.4724 17.1599 12.4489C17.2046 12.3021 17.3185 12.2303 17.4593 12.26C17.5922 12.2883 17.6834 12.4177 17.6422 12.5606C17.5423 12.9061 17.4288 13.2476 17.3196 13.5902C17.304 13.6387 17.2816 13.6862 17.2553 13.7513Z" fill="black"/>
<path d="M7.74508 13.7516C7.6733 13.5646 7.59968 13.3956 7.54386 13.221C7.47562 13.008 7.41669 12.7916 7.36427 12.5742C7.32598 12.4175 7.40666 12.2881 7.54386 12.2589C7.68969 12.228 7.80966 12.3012 7.84569 12.4619C7.95534 12.9522 8.13439 13.4243 8.37741 13.8641C8.49046 14.0701 8.36653 14.249 8.1184 14.2502C7.60623 14.253 7.09395 14.253 6.58159 14.2502C6.49016 14.2502 6.42305 14.2644 6.35452 14.3412C6.16884 14.5485 5.84271 14.5477 5.64715 14.3554C5.60012 14.309 5.56277 14.2538 5.53728 14.1929C5.51178 14.1321 5.49866 14.0667 5.49866 14.0007C5.49866 13.9347 5.51178 13.8693 5.53728 13.8084C5.56277 13.7476 5.60012 13.6923 5.64715 13.646C5.84639 13.4482 6.16347 13.4466 6.35254 13.6573C6.42474 13.7379 6.49638 13.7545 6.59275 13.7537C6.97215 13.7496 7.35141 13.7516 7.74508 13.7516Z" fill="black"/>
<path d="M12.7533 6.24624C13.0096 6.27987 13.2463 6.30785 13.482 6.34261C13.6758 6.37087 13.7738 6.48646 13.7452 6.6409C13.717 6.7928 13.5964 6.85936 13.4091 6.83873C13.1188 6.80608 12.8279 6.77641 12.5368 6.75239C12.3451 6.73656 12.2533 6.65348 12.2526 6.45565C12.2501 5.7335 12.2501 5.01125 12.2526 4.28891C12.2526 4.11044 12.3496 4.00361 12.4965 4.00008C12.6483 3.99655 12.7509 4.10776 12.7519 4.29244C12.7547 4.88295 12.7531 5.47345 12.7531 6.06382L12.7533 6.24624Z" fill="black"/>
<path d="M12.4936 13.497C12.0979 13.497 11.7023 13.4981 11.3066 13.497C11.0887 13.4961 11.0048 13.4122 11.0045 13.1964C11.0034 12.4836 11.0034 11.7707 11.0045 11.0577C11.0045 10.8345 11.0893 10.7488 11.3168 10.7483C12.1081 10.7466 12.8994 10.7466 13.6907 10.7483C13.9168 10.7483 14.0001 10.8352 14.0004 11.0602C14.0014 11.7682 14.0014 12.4763 14.0004 13.1844C14.0004 13.4177 13.9189 13.4965 13.6805 13.4971C13.2849 13.4977 12.8892 13.497 12.4936 13.497ZM13.2529 12.0065C13.2493 11.6306 12.987 11.3206 12.635 11.2613C12.2734 11.2004 11.9285 11.3944 11.8013 11.7304C11.7375 11.896 11.7352 12.0789 11.7946 12.2461C11.854 12.4134 11.9713 12.5538 12.1253 12.6419C12.2004 12.6852 12.2525 12.724 12.2703 12.8203C12.2918 12.938 12.3858 12.9976 12.5077 12.9949C12.6296 12.9922 12.6993 12.9243 12.7442 12.8112C12.7681 12.7517 12.8129 12.6877 12.8662 12.6558C13.1161 12.5016 13.2412 12.2815 13.2529 12.0071V12.0065Z" fill="black"/>
<path d="M13.2465 10.2374H11.7411C11.7527 10.0068 11.7404 9.78014 11.7805 9.56309C11.8441 9.21944 12.1762 8.98997 12.538 9.00297C12.8862 9.01554 13.1892 9.2754 13.2358 9.61848C13.2573 9.77703 13.2499 9.93952 13.254 10.1003C13.2552 10.143 13.2495 10.186 13.2465 10.2374Z" fill="black"/>
<path d="M12.4992 12.2469C12.4664 12.2464 12.4341 12.2394 12.4041 12.2263C12.3741 12.2132 12.3469 12.1943 12.3243 12.1706C12.3016 12.1469 12.2839 12.119 12.2721 12.0885C12.2603 12.0579 12.2547 12.0253 12.2556 11.9925C12.2561 11.9598 12.2632 11.9274 12.2765 11.8974C12.2898 11.8675 12.309 11.8405 12.333 11.8181C12.357 11.7958 12.3853 11.7785 12.4161 11.7674C12.447 11.7563 12.4797 11.7515 12.5125 11.7533C12.5762 11.7549 12.6367 11.7816 12.681 11.8274C12.7252 11.8733 12.7497 11.9347 12.749 11.9985C12.7491 12.0312 12.7427 12.0637 12.7301 12.094C12.7176 12.1242 12.6992 12.1517 12.6759 12.1748C12.6527 12.1979 12.6251 12.2162 12.5948 12.2285C12.5644 12.2409 12.532 12.2472 12.4992 12.2469Z" fill="black"/>
</svg>
