<svg width="24" height="25" viewBox="0 0 24 25" fill="none" xmlns="http://www.w3.org/2000/svg">
<rect y="0.887207" width="24" height="24" rx="3" fill="#ECECEC"/>
<g clip-path="url(#clip0_236_18313)">
<path d="M13.704 10.2165V10.0204C13.704 8.74966 13.704 7.47875 13.704 6.20769C13.704 5.92895 13.7734 5.85938 14.0508 5.85895C14.2423 5.85895 14.4338 5.85823 14.6255 5.85679C14.6415 5.85366 14.657 5.84905 14.6721 5.84301C14.6721 5.63384 14.6721 5.41908 14.6721 5.2041C14.6721 4.97491 14.7539 4.89133 14.9786 4.89111C15.9014 4.89111 16.8241 4.89111 17.7468 4.89111C17.981 4.89111 18.0596 4.97275 18.0602 5.21272C18.0602 5.42317 18.0602 5.63363 18.0602 5.85895C18.2845 5.85895 18.4949 5.85895 18.7052 5.85895C18.951 5.85895 19.0283 5.93735 19.0283 6.18615C19.0283 8.9138 19.0283 11.6416 19.0283 14.3695V14.5727C19.1129 14.5727 19.1916 14.5688 19.2696 14.5727C19.4134 14.5815 19.5002 14.669 19.5112 14.8126C19.5147 14.8579 19.5125 14.9035 19.5125 14.9488V19.4099H19.989V19.8853H5V19.4157H5.4739V10.5781C5.4739 10.2789 5.53852 10.2145 5.83643 10.2145H10.9339C11.2124 10.2145 11.2828 10.2843 11.2828 10.5615C11.2828 11.9934 11.2828 13.4253 11.2828 14.8572V15.0457H11.7669V14.8639C11.7669 13.4319 11.7669 11.9999 11.7669 10.568C11.7669 10.2809 11.8341 10.2145 12.124 10.2143L13.704 10.2165ZM5.96956 10.7061V19.4015H8.62103V19.2076C8.62103 17.9272 8.62103 16.647 8.62103 15.3669C8.62103 15.1394 8.70309 15.0576 8.93057 15.0571C9.49494 15.0563 10.0595 15.0563 10.6241 15.0571H10.7898V10.7059L5.96956 10.7061ZM15.8928 15.0642V19.4021H19.021V15.0642H15.8928ZM12.971 15.5519H9.11711V18.4384H12.971V15.5519ZM15.1561 5.37923V5.85528C15.1561 6.32466 15.1371 6.34383 14.6764 6.34383H14.1992V6.82053H18.5354V6.34383C18.3153 6.34383 18.1046 6.34383 17.8937 6.34383C17.6568 6.34383 17.5775 6.26327 17.5766 6.02589C17.5766 5.81048 17.5766 5.59679 17.5766 5.37966L15.1561 5.37923ZM14.1775 12.6301V10.713H12.2604V12.6301H14.1775ZM14.6788 12.626H16.5959V10.7089H14.6788V12.626ZM15.3855 19.4114V17.488H13.4733V19.411L15.3855 19.4114ZM17.1032 7.31942V14.5666H17.5687V7.31942H17.1032ZM18.0714 7.31942V14.5666H18.5365V7.31856L18.0714 7.31942ZM13.4617 16.0159H14.1764V14.102H12.2593V15.0582C12.558 15.0582 12.8489 15.0582 13.1397 15.0582C13.3839 15.0582 13.4608 15.1373 13.4613 15.3858C13.4623 15.5911 13.4619 15.7973 13.4619 16.015L13.4617 16.0159ZM16.6002 13.5997V13.1307H12.2623V13.5997H16.6002ZM15.3986 16.0232C15.3986 15.6385 15.3986 15.2671 15.3986 14.8958C15.3986 14.6509 15.4771 14.5744 15.7261 14.574C16.0163 14.574 16.307 14.574 16.5983 14.574V14.1001H14.6844V16.0232H15.3986ZM12.9693 19.4073V18.9392H9.11647V19.4073H12.9693ZM14.6617 10.2093V7.32394H14.1958V10.2093H14.6617ZM15.6296 10.2093V7.32416H15.1643V10.2093H15.6296ZM16.5959 10.2126V7.32179H16.1354V10.2126H16.5959ZM15.3907 16.9874V16.5187H13.472V16.9885L15.3907 16.9874Z" fill="black"/>
<path d="M13.2188 5.57078C13.2173 6.09616 12.7634 6.4434 12.3035 6.31201C12.207 6.28443 12.151 6.29973 12.0823 6.36952C11.6651 6.79344 11.2445 7.21414 10.8204 7.6316C10.7558 7.69622 10.7375 7.74749 10.7655 7.8399C10.8583 8.14556 10.7416 8.45791 10.4827 8.63691C10.3612 8.72005 10.2173 8.76419 10.07 8.76346C9.92285 8.76273 9.77937 8.71716 9.65872 8.63282C9.53284 8.54694 9.438 8.42278 9.38826 8.27874C9.33851 8.13471 9.33652 7.97848 9.38257 7.83322C9.40949 7.74555 9.39333 7.69644 9.33237 7.63763C9.14411 7.45518 8.9595 7.26907 8.77619 7.08166C8.72277 7.02695 8.67775 7.01445 8.59439 7.02888C8.45227 7.05258 8.3072 7.05258 8.16507 7.02888C8.083 7.01531 8.03777 7.02458 7.98305 7.08015C7.71789 7.34941 7.45099 7.6176 7.18066 7.88169C7.11776 7.94287 7.10957 7.99392 7.13478 8.07857C7.18229 8.23417 7.17531 8.40132 7.115 8.55241C7.05468 8.70351 6.94464 8.82951 6.80304 8.90962C6.66404 8.98922 6.50253 9.02039 6.34388 8.99824C6.18524 8.9761 6.03844 8.90189 5.92655 8.78727C5.81373 8.67365 5.74191 8.52573 5.72241 8.36681C5.70291 8.20789 5.73684 8.047 5.81884 7.90948C5.8993 7.77099 6.02416 7.66373 6.1732 7.60508C6.32224 7.54644 6.48672 7.53984 6.63998 7.58636C6.73066 7.6135 6.78387 7.60101 6.84893 7.53402C7.10871 7.26648 7.37345 7.00347 7.64012 6.74239C7.70109 6.68272 7.71552 6.6334 7.68881 6.54659C7.64317 6.4015 7.64537 6.24558 7.6951 6.10184C7.74482 5.9581 7.83942 5.83415 7.96496 5.74828C8.08574 5.66413 8.22929 5.61878 8.37649 5.61828C8.52369 5.61778 8.66755 5.66215 8.7889 5.74548C8.9154 5.83031 9.01118 5.95367 9.06201 6.09724C9.11285 6.24082 9.11603 6.39696 9.07108 6.54249C9.04244 6.63576 9.06053 6.68746 9.12666 6.75058C9.31601 6.93174 9.49566 7.12323 9.68673 7.30246C9.72356 7.33692 9.79443 7.34338 9.85173 7.34554C9.99993 7.35135 10.149 7.352 10.2972 7.34554C10.3534 7.34338 10.4264 7.33563 10.462 7.30052C10.8973 6.87336 11.3249 6.43888 11.7609 6.01151C11.8356 5.93827 11.816 5.87731 11.7956 5.79804C11.7198 5.50573 11.8027 5.25542 12.0293 5.06414C12.2619 4.8679 12.5306 4.83258 12.8065 4.96527C13.076 5.09602 13.2059 5.32349 13.2188 5.57078ZM12.4924 5.37691C12.4293 5.37769 12.369 5.40303 12.3243 5.44755C12.2796 5.49207 12.2539 5.55227 12.2529 5.61537C12.2528 5.64789 12.2592 5.68011 12.2718 5.71009C12.2844 5.74008 12.3029 5.76723 12.3262 5.78994C12.3495 5.81264 12.3771 5.83044 12.4074 5.84226C12.4377 5.85409 12.47 5.85971 12.5025 5.85878C12.5656 5.85583 12.6251 5.82851 12.6684 5.78258C12.7117 5.73665 12.7355 5.6757 12.7348 5.61257C12.7329 5.5495 12.7066 5.48963 12.6613 5.44564C12.6161 5.40165 12.5555 5.377 12.4924 5.37691ZM8.37639 6.10306C8.31334 6.10451 8.25333 6.13047 8.20909 6.17543C8.16486 6.22039 8.13987 6.28081 8.13944 6.34389C8.13971 6.3764 8.14649 6.40853 8.15939 6.43837C8.17229 6.46822 8.19104 6.49517 8.21453 6.51765C8.23803 6.54012 8.2658 6.55765 8.29619 6.56921C8.32658 6.58076 8.35898 6.58611 8.39147 6.58493C8.45447 6.58132 8.51362 6.55342 8.55649 6.5071C8.59935 6.46079 8.62259 6.39966 8.62131 6.33656C8.61885 6.27344 8.5919 6.21376 8.54618 6.17017C8.50046 6.12658 8.43956 6.10251 8.37639 6.10306ZM10.0712 7.79725C10.0081 7.79837 9.94788 7.82406 9.9034 7.86887C9.85891 7.91368 9.83365 7.97407 9.83299 8.03721C9.83336 8.10041 9.85828 8.16098 9.9025 8.20612C9.94672 8.25126 10.0068 8.27744 10.0699 8.27912C10.1024 8.27941 10.1346 8.27319 10.1646 8.26083C10.1947 8.24846 10.2219 8.23021 10.2448 8.20713C10.2676 8.18406 10.2856 8.15664 10.2977 8.12649C10.3098 8.09634 10.3157 8.06408 10.3151 8.03161C10.3126 7.96845 10.2857 7.90871 10.2401 7.86499C10.1944 7.82127 10.1336 7.79698 10.0704 7.79725H10.0712ZM6.44245 8.03937C6.37933 8.04014 6.31899 8.06547 6.27423 8.10999C6.22947 8.15451 6.20382 8.21471 6.2027 8.27783C6.20263 8.31034 6.20909 8.34254 6.22169 8.37251C6.23429 8.40249 6.25278 8.42963 6.27606 8.45233C6.29934 8.47502 6.32694 8.49282 6.35722 8.50466C6.38751 8.51649 6.41985 8.52213 6.45236 8.52124C6.51544 8.51834 6.57493 8.49103 6.61826 8.44509C6.66159 8.39915 6.68536 8.33817 6.68457 8.27503C6.68272 8.21184 6.6563 8.15187 6.61092 8.10787C6.56555 8.06386 6.5048 8.03928 6.44159 8.03937H6.44245Z" fill="black"/>
<path d="M9.35307 13.1214C9.50386 13.1214 9.65464 13.1186 9.80672 13.1214C9.97711 13.1253 10.0699 13.2147 10.0721 13.3835C10.076 13.6909 10.076 13.9984 10.0721 14.3061C10.0702 14.4763 9.97862 14.5694 9.80995 14.5715C9.50235 14.5751 9.19482 14.5751 8.88735 14.5715C8.71675 14.5698 8.62434 14.4785 8.62219 14.3094C8.61845 14.0021 8.61845 13.6945 8.62219 13.3868C8.62412 13.2162 8.71503 13.1257 8.88413 13.1216C9.04051 13.1184 9.19668 13.1214 9.35307 13.1214ZM9.11159 14.0817H9.58032V13.6155H9.11159V14.0817Z" fill="black"/>
<path d="M7.41277 13.1211C7.56356 13.1211 7.71543 13.1185 7.86664 13.1211C8.03897 13.1247 8.13332 13.2124 8.13547 13.3796C8.13964 13.6922 8.13964 14.0048 8.13547 14.3174C8.13332 14.4771 8.03918 14.5693 7.87698 14.5712C7.56435 14.5751 7.25179 14.5751 6.93931 14.5712C6.77926 14.5688 6.68771 14.4749 6.68577 14.3127C6.68189 14.0001 6.68189 13.6874 6.68577 13.3748C6.68792 13.2146 6.7812 13.1254 6.94426 13.1211C7.10022 13.1178 7.25617 13.1211 7.41277 13.1211ZM7.18078 13.6105V14.0811H7.64391V13.6105H7.18078Z" fill="black"/>
<path d="M8.13648 15.7841C8.13648 15.9402 8.14014 16.0966 8.13648 16.2528C8.13152 16.4133 8.0404 16.5057 7.87928 16.5078C7.56679 16.5117 7.25423 16.5117 6.9416 16.5078C6.78112 16.5057 6.68914 16.4124 6.68699 16.2511C6.68311 15.9386 6.68311 15.626 6.68699 15.3134C6.68914 15.1527 6.78198 15.0607 6.94354 15.0588C7.25603 15.0546 7.56859 15.0546 7.88122 15.0588C8.04148 15.0609 8.13174 15.154 8.13626 15.3153C8.13928 15.4713 8.13648 15.6277 8.13648 15.7841ZM7.1751 16.0176H7.64383V15.5514H7.1751V16.0176Z" fill="black"/>
<path d="M8.6214 11.9106C8.6214 11.7545 8.61796 11.5981 8.6214 11.4419C8.62593 11.2808 8.71619 11.1884 8.87731 11.1862C9.18966 11.1821 9.50222 11.1821 9.81499 11.1862C9.97568 11.1882 10.0687 11.2808 10.0709 11.4417C10.0749 11.7542 10.0749 12.0667 10.0709 12.3794C10.0687 12.5401 9.97568 12.6331 9.81499 12.6353C9.50265 12.6396 9.19009 12.6396 8.87731 12.6353C8.7164 12.6331 8.62614 12.5405 8.6214 12.3796C8.61796 12.2234 8.6214 12.067 8.6214 11.9106ZM9.11491 11.6718V12.1418H9.57675V11.672L9.11491 11.6718Z" fill="black"/>
<path d="M7.412 11.1851C7.56817 11.1851 7.72456 11.1817 7.88073 11.1851C8.04121 11.1899 8.1334 11.2808 8.13556 11.4421C8.13972 11.7547 8.13972 12.0673 8.13556 12.3798C8.1334 12.54 8.03991 12.6325 7.87879 12.6346C7.5663 12.6385 7.25375 12.6385 6.94112 12.6346C6.78064 12.6325 6.68866 12.539 6.6865 12.3776C6.68262 12.0651 6.68262 11.7526 6.6865 11.44C6.68866 11.2793 6.7815 11.1896 6.94305 11.1853C7.09922 11.1819 7.25626 11.1851 7.412 11.1851ZM7.17505 12.1418H7.64572V11.6776H7.17505V12.1418Z" fill="black"/>
<path d="M7.417 16.994C7.56779 16.994 7.71965 16.9912 7.87065 16.994C8.04104 16.9978 8.13367 17.0872 8.13582 17.2563C8.1397 17.5636 8.1397 17.8712 8.13582 18.1789C8.13389 18.3491 8.04212 18.4419 7.87345 18.4441C7.56585 18.4477 7.25832 18.4477 6.95086 18.4441C6.78026 18.4424 6.68784 18.351 6.68591 18.1817C6.68217 17.8744 6.68217 17.5669 6.68591 17.2591C6.68784 17.0887 6.77896 16.9983 6.94806 16.9942C7.10423 16.9909 7.26062 16.994 7.417 16.994ZM7.64577 17.956V17.4864H7.17876V17.956H7.64577Z" fill="black"/>
<path d="M16.3787 16.0308H18.5349V16.5016H16.3787V16.0308Z" fill="black"/>
<path d="M18.5379 17.0044V17.4699H16.3787V17.0044H18.5379Z" fill="black"/>
<path d="M18.538 17.9727V18.4379H16.3789V17.9727H18.538Z" fill="black"/>
<path d="M11.0426 17.9619C10.6593 17.9619 10.2761 17.9619 9.89291 17.9619C9.67513 17.9619 9.59027 17.877 9.58984 17.6603C9.58854 17.2166 9.58854 16.7729 9.58984 16.3293C9.58984 16.1111 9.67428 16.0263 9.89141 16.026C10.6578 16.0252 11.4242 16.0252 12.1905 16.026C12.4085 16.026 12.4936 16.1107 12.4942 16.3276C12.4952 16.7714 12.4952 17.2151 12.4942 17.6588C12.4942 17.8764 12.4091 17.9604 12.1926 17.9623C11.809 17.9619 11.4258 17.9619 11.0426 17.9619ZM10.7925 16.5202H10.0851V17.4701H10.7925V16.5202ZM11.2944 16.5165V17.4665H12.0018V16.5172L11.2944 16.5165Z" fill="black"/>
</g>
<defs>
<clipPath id="clip0_236_18313">
<rect width="14.9897" height="15" fill="white" transform="translate(5 4.88721)"/>
</clipPath>
</defs>
</svg>
