<svg width="24" height="24" viewBox="0 0 24 24" fill="none" xmlns="http://www.w3.org/2000/svg">
<rect width="24" height="24" rx="3" fill="#ECECEC"/>
<path d="M5.67839 4H15.3409C15.3096 4.13307 15.3595 4.22556 15.455 4.32071C16.5528 5.41291 17.647 6.51077 18.7456 7.6033C18.8394 7.69645 18.9618 7.761 19.1082 7.86546V8.26468C19.1082 11.8171 19.1082 15.3696 19.1082 18.9222C19.1082 19.027 19.1082 19.1325 19.1005 19.2373C19.034 20.2253 18.2276 20.9958 17.2375 20.9968C13.4469 21.0011 9.65652 21.0011 5.86636 20.9968C5.54347 20.9984 5.22641 20.9108 4.95015 20.7437C4.28844 20.3444 3.99934 19.7473 4 18.9821C4.00399 14.6605 4.00477 10.339 4.00233 6.0174C4.00233 5.93988 4.00433 5.86237 4.00965 5.78452C4.06288 5.05494 4.42018 4.52265 5.07024 4.19761C5.25987 4.10613 5.47545 4.06521 5.67839 4ZM14.3844 4.95846C14.3179 4.95547 14.2796 4.95214 14.241 4.95214C11.474 4.95214 8.70726 4.95214 5.94088 4.95214C5.33539 4.95214 4.94782 5.34837 4.94749 5.95419C4.94749 10.3143 4.94749 14.6747 4.94749 19.0353C4.94749 19.6674 5.33772 20.055 5.97548 20.055C9.69378 20.055 13.4123 20.055 17.131 20.055C17.7788 20.055 18.1624 19.6694 18.1624 19.0237C18.163 15.6547 18.1634 12.2846 18.1634 8.91341V8.71813H14.3841L14.3844 4.95846ZM17.506 7.7753L15.3482 5.61618V7.7753H17.506Z" fill="black"/>
<path d="M7.78662 14.3802V13.458H16.2637V14.3802H7.78662Z" fill="black"/>
<path d="M14.3767 10.6221V11.5513H7.78955V10.6221H14.3767Z" fill="black"/>
<path d="M7.78369 17.21V16.2954H14.3735V17.21H7.78369Z" fill="black"/>
</svg>
