<svg width="24" height="24" viewBox="0 0 24 24" fill="none" xmlns="http://www.w3.org/2000/svg">
<rect width="24" height="24" rx="3" fill="#ECECEC"/>
<path d="M12.5623 3C12.8917 3.0457 13.2236 3.0784 13.5495 3.14062C13.9109 3.21094 14.2691 3.29918 14.6242 3.39551C14.922 3.47566 15.0615 3.72141 14.98 3.98051C14.9023 4.2266 14.6544 4.34191 14.364 4.25297C13.4725 3.97721 12.5389 3.86245 11.6071 3.91406C9.46019 4.03395 7.62718 4.86047 6.13834 6.41016C4.83758 7.76719 4.05818 9.39844 3.93514 11.2705C3.71295 14.6631 5.07523 17.285 7.99807 19.0365C9.61065 20.003 11.393 20.3243 13.244 20.0026C16.2674 19.477 18.3872 17.7695 19.5453 14.9261C20.2449 13.2083 20.2811 11.4357 19.7495 9.65965C19.6289 9.25781 19.8958 8.98922 20.1714 9.00258C20.3718 9.01242 20.5229 9.12422 20.5933 9.34043C20.7906 9.97225 20.9162 10.6243 20.9677 11.2842C20.9733 11.3591 20.9891 11.4329 21 11.5075V12.4918C20.9902 12.5428 20.9782 12.5934 20.9708 12.6448C20.9111 13.0614 20.8727 13.4822 20.7894 13.8935C20.0744 17.425 17.1086 20.2758 13.5495 20.8615C13.2215 20.9156 12.8914 20.9543 12.5623 21H11.4373C11.3987 20.9902 11.3603 20.9771 11.3206 20.9712C10.9047 20.9096 10.4839 20.8713 10.0729 20.7852C6.54755 20.0469 3.73159 17.1061 3.13816 13.5507C3.08367 13.2227 3.0457 12.8919 3 12.5625V11.4375C3.01055 11.3865 3.02285 11.3355 3.03094 11.2842C3.10336 10.8272 3.14695 10.3659 3.25101 9.91769C4.05959 6.43898 6.94656 3.72387 10.4495 3.13781C10.7775 3.08332 11.1079 3.0457 11.4373 3H12.5623Z" fill="black"/>
<path d="M12.0209 18C9.08628 17.9718 6.57675 15.8577 6.08569 12.9717C5.51918 9.6444 7.82293 6.50602 11.1842 6.04253C11.5652 5.99017 11.9562 6.00091 12.3425 6.00091C12.5864 6.00091 12.7521 6.13516 12.8117 6.33854C12.8966 6.62583 12.6736 6.88728 12.357 6.8601C11.3722 6.77485 10.45 6.98931 9.58274 7.44475C7.73368 8.41536 6.65893 10.4519 6.89133 12.5287C7.15336 14.874 8.93472 16.7099 11.2883 17.0613C14.0697 17.4761 16.719 15.503 17.1053 12.7167C17.1541 12.3656 17.145 12.0045 17.139 11.6484C17.1356 11.3799 17.2757 11.1785 17.5263 11.1483C17.7691 11.1205 17.9978 11.2916 17.9978 11.5611C17.9978 12.0511 18.0204 12.5546 17.9207 13.0291C17.3872 15.5694 15.8392 17.1717 13.3162 17.8174C12.8969 17.9248 12.4533 17.9433 12.0209 18Z" fill="black"/>
<path d="M14.5667 7.87369C14.5667 7.63268 14.5697 7.39093 14.5667 7.14992C14.5635 7.06039 14.5795 6.9712 14.6136 6.88837C14.6477 6.80554 14.6992 6.73099 14.7646 6.66977C15.6767 5.76219 16.5866 4.85225 17.4943 3.93997C17.658 3.77509 17.8414 3.69933 18.063 3.7866C18.2847 3.87387 18.3601 4.064 18.3571 4.29461C18.3534 4.66596 18.3571 5.03731 18.3571 5.40866C18.3571 5.6441 18.3571 5.6441 18.6021 5.64447C18.9734 5.64447 19.3447 5.64707 19.716 5.64447C19.9387 5.64224 20.121 5.71428 20.2105 5.93078C20.3 6.14728 20.2313 6.33704 20.0664 6.50155C19.1506 7.41433 18.2367 8.32884 17.3246 9.24508C17.2644 9.30763 17.1916 9.35669 17.111 9.38902C17.0304 9.42134 16.9439 9.4362 16.8571 9.43262C16.3808 9.42965 15.9045 9.43633 15.4285 9.4289C15.3678 9.42556 15.3072 9.43579 15.251 9.45886C15.1948 9.48192 15.1444 9.51723 15.1036 9.56222C14.1272 10.5456 13.148 11.526 12.1661 12.5037C12.1152 12.5577 12.0605 12.608 12.0024 12.6541C11.9106 12.7246 11.7958 12.7582 11.6805 12.7483C11.5652 12.7384 11.4578 12.6857 11.3794 12.6006C11.3013 12.5196 11.2554 12.4129 11.2505 12.3005C11.2455 12.1881 11.2817 12.0777 11.3523 11.9901C11.3995 11.9328 11.4502 11.8785 11.5041 11.8275C12.4739 10.8558 13.4455 9.88504 14.419 8.91532C14.5233 8.81172 14.5779 8.71071 14.5697 8.56031C14.5575 8.3323 14.5667 8.10281 14.5667 7.87369ZM17.4141 5.4042C17.3769 5.4172 17.3632 5.41832 17.3561 5.42537C16.7631 6.01508 16.1716 6.6054 15.5818 7.19634C15.5496 7.22426 15.528 7.26242 15.5206 7.30441C15.5161 7.6921 15.518 8.07941 15.518 8.48159C15.8915 8.48159 16.2431 8.48864 16.5947 8.47639C16.689 8.47047 16.7785 8.43247 16.8482 8.3687C17.4011 7.82727 17.9457 7.27841 18.4908 6.73067C18.5279 6.69353 18.5576 6.65231 18.5906 6.61332C18.5721 6.59884 18.5676 6.59253 18.5632 6.59253C18.353 6.59067 18.1429 6.5903 17.932 6.58696C17.6004 6.58213 17.4148 6.39831 17.4122 6.07004C17.41 5.85465 17.4141 5.63853 17.4141 5.4042Z" fill="black"/>
<path d="M11.9981 15.75C10.0537 15.7482 8.42355 14.2531 8.26406 12.3253C8.18316 11.3936 8.45336 10.4653 9.02156 9.72281C9.58975 8.98035 10.4149 8.4774 11.3347 8.31282C11.5396 8.27674 11.7468 8.25584 11.9547 8.2503C12.245 8.24147 12.4501 8.42757 12.4666 8.69163C12.4831 8.9557 12.2869 9.14878 11.9889 9.19291C11.6464 9.2433 11.2906 9.27198 10.9702 9.39298C9.75494 9.85233 9.06334 11.0579 9.21474 12.3874C9.35071 13.5794 10.3477 14.5941 11.5692 14.7846C13.2188 15.042 14.7336 13.8004 14.806 12.1333C14.8233 11.7372 15 11.5224 15.2984 11.5345C15.6053 11.5474 15.7692 11.785 15.7482 12.1855C15.7003 13.148 15.284 14.0551 14.5858 14.7188C13.8876 15.3824 12.961 15.7517 11.9981 15.75Z" fill="black"/>
</svg>
