<svg width="24" height="24" viewBox="0 0 24 24" fill="none" xmlns="http://www.w3.org/2000/svg">
<rect width="24" height="24" rx="3" fill="#ECECEC"/>
<path d="M13.6015 4.76123V5.27099H5.83352C5.40022 5.27099 5.21332 5.45663 5.21332 5.88781C5.21332 6.18517 5.21332 6.47997 5.21332 6.79348H11.819V7.29857H5.22436V14.4216H18.9493V10.3703H19.4612V10.5402C19.4612 12.3159 19.4612 14.0916 19.4612 15.8672C19.4612 16.5554 19.0406 16.9743 18.3503 16.9747C16.951 16.9747 15.5519 16.9747 14.1528 16.9747H13.9583C14.0046 17.4845 14.0492 17.9819 14.0955 18.4934H14.8674V19.0002H9.29225V18.5053H10.0671C10.1142 17.9878 10.1597 17.4896 10.2069 16.976H10.0051C8.60578 16.976 7.20662 16.976 5.80761 16.976C5.12793 16.976 4.70312 16.5537 4.70312 15.8783C4.70312 12.5388 4.70312 9.19941 4.70312 5.86019C4.70312 5.18305 5.12793 4.76208 5.80761 4.76208H13.6015V4.76123ZM18.9506 14.9505H5.22436C5.21944 14.9643 5.21601 14.9785 5.21415 14.993C5.21415 15.2736 5.21415 15.5544 5.21415 15.8354C5.21415 16.2886 5.39427 16.4683 5.85135 16.4683H18.3159C18.3686 16.4683 18.4221 16.4705 18.4748 16.4683C18.7297 16.4509 18.9421 16.2517 18.9497 15.9981C18.9586 15.651 18.9506 15.3065 18.9506 14.9505ZM10.582 18.4925H13.5844C13.5377 17.9828 13.4919 17.4845 13.446 16.9866H10.7187L10.582 18.4925Z" fill="black"/>
<path d="M13.3346 5.76317C13.3718 5.76249 13.4089 5.76547 13.4455 5.77209C13.7322 5.85111 13.9175 5.69819 14.0755 5.49301C14.1047 5.45095 14.1196 5.4006 14.118 5.34942C14.1116 5.11663 14.1001 4.88214 14.0857 4.65105C14.0759 4.49854 14.1362 4.39999 14.2794 4.34264C14.53 4.24295 14.7791 4.1393 15.0266 4.03168C15.1685 3.97051 15.2815 4.00026 15.3817 4.1141C15.482 4.22795 15.6056 4.34264 15.6978 4.47093C15.8308 4.65614 15.9918 4.73175 16.2224 4.70966C16.3499 4.69777 16.4387 4.67016 16.5198 4.5716C16.6506 4.41188 16.7955 4.26363 16.9327 4.109C17.0287 4.0011 17.1383 3.97094 17.2747 4.02914C17.5295 4.13704 17.7823 4.24154 18.0368 4.34477C18.0979 4.36451 18.1501 4.4051 18.1844 4.45945C18.2186 4.5138 18.2327 4.57846 18.2241 4.64213C18.2105 4.85453 18.2071 5.06693 18.1893 5.27678C18.1791 5.397 18.2228 5.47728 18.2984 5.57074C18.445 5.7517 18.6154 5.80736 18.8388 5.77507C19.0057 5.75086 19.1786 5.75426 19.346 5.74491C19.4047 5.73871 19.4637 5.75278 19.5134 5.78477C19.563 5.81676 19.6002 5.86475 19.6187 5.92077C19.7266 6.17948 19.8311 6.43988 19.9411 6.69774C19.9998 6.83537 19.9637 6.94455 19.8562 7.03758C19.6909 7.18668 19.5202 7.33027 19.3634 7.48787C19.3123 7.5485 19.2786 7.62194 19.2661 7.70027C19.2122 7.95516 19.3086 8.14504 19.521 8.29159C19.6383 8.37103 19.7334 8.4819 19.8426 8.57536C19.9615 8.67731 19.9977 8.79371 19.9327 8.94282C19.8252 9.19005 19.7228 9.43984 19.6217 9.69005C19.5673 9.82471 19.4743 9.88971 19.3273 9.88078C19.1209 9.86804 18.914 9.86634 18.7084 9.84595C18.569 9.83235 18.4773 9.88546 18.3749 9.97551C18.2211 10.1106 18.1625 10.258 18.1888 10.4602C18.2131 10.6378 18.2101 10.8196 18.2203 10.9993C18.2274 11.0579 18.2142 11.1171 18.1829 11.1671C18.1516 11.2172 18.104 11.2549 18.0482 11.2741C17.7848 11.3846 17.5198 11.4912 17.2564 11.6017C17.1239 11.6573 17.0202 11.6178 16.9297 11.5167C16.7776 11.3468 16.629 11.1743 16.4692 11.012C16.4162 10.9664 16.3512 10.9369 16.2819 10.9271C16.0194 10.8774 15.8146 10.9632 15.663 11.1926C15.5848 11.3107 15.4727 11.405 15.3788 11.5133C15.2794 11.6276 15.1664 11.6573 15.0237 11.5983C14.7761 11.4912 14.527 11.3876 14.2764 11.2873C14.1333 11.2299 14.0725 11.1314 14.0827 10.9789C14.0967 10.7665 14.0997 10.5541 14.1175 10.3438C14.1269 10.2295 14.0848 10.1531 14.0135 10.0639C13.8644 9.87653 13.6872 9.82258 13.4612 9.85529C13.2994 9.87823 13.1337 9.87483 12.9697 9.8846C12.8295 9.89267 12.7391 9.82853 12.6868 9.70067C12.5823 9.44579 12.4782 9.1909 12.3699 8.93857C12.3083 8.79541 12.344 8.68369 12.4574 8.58514C12.6273 8.43476 12.8002 8.28438 12.9629 8.12508C13.0054 8.07541 13.0326 8.01445 13.0411 7.94963C13.0895 7.68752 13.0097 7.48235 12.7781 7.329C12.6558 7.24829 12.5568 7.13231 12.4459 7.03164C12.3948 6.99278 12.3591 6.93706 12.3452 6.87437C12.3313 6.81168 12.34 6.74609 12.3699 6.68924C12.4767 6.44116 12.5802 6.19194 12.6804 5.94159C12.7369 5.79971 12.8321 5.73386 12.9859 5.74321C13.1018 5.75001 13.2187 5.74321 13.3351 5.74321L13.3346 5.76317ZM14.6273 10.3604C14.6163 10.5596 14.5572 10.7274 14.6154 10.8277C14.6736 10.9279 14.8512 10.9602 14.9739 11.0269C15.0563 11.0715 15.1137 11.0613 15.177 10.9844C15.3029 10.8271 15.4388 10.6781 15.584 10.5384C15.6568 10.4741 15.7478 10.4338 15.8444 10.4232C16.045 10.405 16.2469 10.405 16.4476 10.4232C16.5539 10.4357 16.6538 10.4802 16.7343 10.5507C16.8826 10.6853 17.007 10.8481 17.1447 10.9933C17.171 11.0214 17.2203 11.0622 17.2437 11.0537C17.3923 11.0001 17.5546 10.9568 17.6748 10.8621C17.7262 10.8217 17.6884 10.6667 17.6888 10.5647C17.6915 10.5118 17.6888 10.4587 17.6808 10.4063C17.6217 10.1008 17.7326 9.87908 17.9641 9.67092C18.4097 9.27034 18.205 9.33109 18.8074 9.34851C19.2296 9.35955 19.2322 9.36635 19.3694 8.96619C19.375 8.9388 19.3743 8.91051 19.3674 8.88343C19.3604 8.85636 19.3475 8.83119 19.3294 8.80985C19.1833 8.66457 19.0176 8.53755 18.8766 8.38505C18.8114 8.31279 18.7707 8.22182 18.7602 8.12508C18.7432 7.91897 18.7432 7.71182 18.7602 7.50571C18.7706 7.40891 18.8112 7.31782 18.8762 7.24531C19.0172 7.09536 19.1803 6.96621 19.3307 6.82433C19.3604 6.79587 19.3982 6.73937 19.3881 6.71091C19.3333 6.56223 19.2895 6.39783 19.1901 6.28356C19.1442 6.23046 18.9815 6.27804 18.8715 6.28059C18.8289 6.27927 18.7863 6.28139 18.744 6.28696C18.439 6.34643 18.2169 6.23599 18.0083 6.00447C17.6081 5.56098 17.6685 5.7602 17.6854 5.16123C17.6965 4.73856 17.7033 4.73643 17.3031 4.59795C17.2757 4.59234 17.2473 4.59302 17.2202 4.59994C17.193 4.60685 17.1678 4.61982 17.1464 4.63788C17.0011 4.78443 16.8745 4.95011 16.7241 5.09115C16.6518 5.15637 16.5606 5.19697 16.4637 5.20712C16.2578 5.2239 16.0507 5.2239 15.8448 5.20712C15.748 5.19685 15.6568 5.15659 15.584 5.09199C15.4389 4.95215 15.303 4.80317 15.177 4.64594C15.1137 4.5699 15.0555 4.55759 14.9735 4.60346C14.931 4.62499 14.8873 4.64414 14.8427 4.66082C14.5946 4.76532 14.5946 4.76532 14.6146 5.03252C14.66 5.63276 14.66 5.63277 14.2373 6.05544C14.1927 6.10047 14.1545 6.15781 14.101 6.18713C14.016 6.233 13.9238 6.28654 13.8329 6.28951C13.6263 6.29091 13.4197 6.28169 13.214 6.26189C13.1811 6.25477 13.1467 6.26042 13.1179 6.2777C13.089 6.29497 13.0678 6.32259 13.0585 6.35493C12.8839 6.74745 12.8809 6.74617 13.1983 7.02738C13.2095 7.03863 13.2216 7.049 13.2344 7.05839C13.4965 7.22832 13.6006 7.46451 13.5547 7.77504C13.5377 7.88931 13.567 8.01038 13.547 8.12338C13.5329 8.21955 13.4925 8.30995 13.4302 8.38462C13.2893 8.52839 13.1407 8.66439 12.985 8.79201C12.9204 8.84766 12.9001 8.89396 12.9366 8.98105C13.0899 9.36337 13.0865 9.36337 13.4994 9.34553C13.5048 9.34596 13.5102 9.34596 13.5156 9.34553C13.8554 9.27714 14.0997 9.40458 14.3355 9.65649C14.5496 9.88461 14.7157 10.0949 14.6273 10.3604Z" fill="black"/>
<path d="M12.344 13.6569V13.168H17.1634V13.6569H12.344Z" fill="black"/>
<path d="M18.1808 12.1514V12.6416H13.8759V12.1514H18.1808Z" fill="black"/>
<path d="M6.7451 8.06968C6.9044 8.06968 7.06328 8.06671 7.22215 8.06968C7.40142 8.0735 7.49913 8.16738 7.50168 8.34495C7.50564 8.66837 7.50564 8.99164 7.50168 9.31478C7.50168 9.49404 7.40355 9.59175 7.22641 9.59387C6.90313 9.59812 6.57985 9.5977 6.25658 9.59387C6.07731 9.59175 5.98004 9.49617 5.97749 9.3186C5.97381 8.99519 5.97381 8.67191 5.97749 8.34878C5.97962 8.16357 6.07733 8.07223 6.26849 8.06883C6.42736 8.06756 6.58623 8.06968 6.7451 8.06968ZM6.49362 8.5854V9.07773H6.98299V8.5854H6.49362Z" fill="black"/>
<path d="M8.77331 8.06938C8.93771 8.06938 9.10212 8.06598 9.26609 8.06938C9.43006 8.07278 9.53455 8.16794 9.53667 8.33658C9.5412 8.66538 9.5412 8.99403 9.53667 9.32255C9.53455 9.49247 9.43771 9.5906 9.26949 9.59315C8.94098 9.5974 8.61246 9.5974 8.28394 9.59315C8.11402 9.59315 8.0159 9.49417 8.01377 9.32552C8.00924 8.99729 8.00924 8.66878 8.01377 8.33999C8.01632 8.16412 8.11572 8.07235 8.29711 8.06853C8.45556 8.06683 8.61444 8.06938 8.77331 8.06938ZM9.02224 8.58934H8.53331V9.07871H9.02224V8.58934Z" fill="black"/>
<path d="M10.8054 9.59625C10.6516 9.59625 10.4983 9.59625 10.3445 9.59625C10.1448 9.59328 10.0497 9.50196 10.0471 9.3057C10.044 8.99418 10.044 8.68138 10.0471 8.36731C10.0471 8.16765 10.141 8.07292 10.3373 8.06995C10.6499 8.06697 10.9626 8.0674 11.2752 8.06995C11.4745 8.06995 11.5701 8.16425 11.5726 8.36009C11.5757 8.67303 11.5757 8.98581 11.5726 9.29847C11.5726 9.50365 11.4762 9.59328 11.2663 9.59583C11.113 9.59753 10.9592 9.59625 10.8054 9.59625ZM10.5688 8.58396V9.07885H11.0548V8.58396H10.5688Z" fill="black"/>
<path d="M6.73569 11.6317C6.58191 11.6317 6.42813 11.6317 6.27478 11.6317C6.0747 11.6287 5.97742 11.5378 5.97742 11.3424C5.97487 11.0242 5.97444 10.7052 5.97742 10.3883C5.97954 10.2022 6.07639 10.1083 6.26627 10.1066C6.58402 10.1038 6.90193 10.1038 7.21996 10.1066C7.40602 10.1087 7.50034 10.206 7.50203 10.3955C7.50501 10.7137 7.50543 11.0327 7.50203 11.3496C7.50203 11.5352 7.40219 11.6283 7.21316 11.6317C7.05386 11.6338 6.89457 11.6317 6.73569 11.6317ZM6.98717 10.6253H6.49865V11.1138H6.98802L6.98717 10.6253Z" fill="black"/>
<path d="M10.0477 10.8702C10.0477 10.7058 10.0443 10.5414 10.0477 10.377C10.0511 10.2126 10.1463 10.109 10.3149 10.1069C10.6433 10.1022 10.9721 10.1026 11.3004 10.1069C11.4704 10.1069 11.5689 10.2054 11.571 10.3741C11.5756 10.7026 11.5756 11.0311 11.571 11.3596C11.5689 11.5295 11.4721 11.6281 11.3038 11.6306C10.9753 11.6349 10.6468 11.6349 10.3183 11.6306C10.1424 11.6281 10.0507 11.5287 10.0469 11.3477C10.0447 11.188 10.0473 11.0291 10.0477 10.8702ZM11.0545 11.1153V10.626H10.5638V11.1153H11.0545Z" fill="black"/>
<path d="M7.50253 12.9106C7.50253 13.0695 7.5055 13.2288 7.50253 13.3876C7.49828 13.5665 7.40398 13.6642 7.22641 13.6663C6.90328 13.6703 6.58 13.6703 6.25658 13.6663C6.07774 13.6663 5.98047 13.5682 5.97835 13.3902C5.97467 13.0671 5.97467 12.7438 5.97835 12.4204C5.98047 12.2411 6.07606 12.1443 6.25405 12.1421C6.57719 12.1382 6.90044 12.1382 7.22386 12.1421C7.4027 12.1443 7.49828 12.2403 7.50253 12.4183C7.50593 12.5818 7.50253 12.7462 7.50253 12.9106ZM6.49491 12.6527V13.1472H6.9813V12.6527H6.49491Z" fill="black"/>
<path d="M9.5377 12.9197C9.5377 13.0785 9.54152 13.2378 9.5377 13.3967C9.5326 13.5666 9.43703 13.6635 9.26838 13.6656C8.93987 13.6699 8.61134 13.6699 8.28283 13.6656C8.11291 13.6635 8.01648 13.5658 8.01393 13.3963C8.00968 13.0678 8.00968 12.7393 8.01393 12.4108C8.01648 12.2408 8.11334 12.1444 8.28283 12.1419C8.61134 12.1376 8.93987 12.1376 9.26838 12.1419C9.4383 12.1444 9.53302 12.2417 9.5377 12.4108C9.54237 12.5798 9.5377 12.7502 9.5377 12.9197ZM9.01987 13.1503V12.6601H8.53261V13.1503H9.01987Z" fill="black"/>
<path d="M11.5734 12.9051C11.5734 13.0691 11.5772 13.2335 11.5734 13.3979C11.5696 13.5623 11.4727 13.6638 11.3032 13.6659C10.975 13.6702 10.6465 13.6702 10.3177 13.6659C10.1478 13.6634 10.0522 13.5657 10.0501 13.3962C10.0458 13.0674 10.0458 12.7387 10.0501 12.4102C10.0522 12.2403 10.1499 12.1443 10.3194 12.1422C10.6482 12.1384 10.9765 12.1379 11.3053 12.1422C11.4753 12.1443 11.5687 12.242 11.5734 12.4115C11.5781 12.581 11.5734 12.7407 11.5734 12.9051ZM10.5628 13.1502H11.0551V12.6609H10.5628V13.1502Z" fill="black"/>
<path d="M9.53772 10.8675C9.53772 11.0314 9.54154 11.1963 9.53772 11.3602C9.53389 11.5242 9.4379 11.6274 9.26925 11.63C8.94102 11.6342 8.61235 11.6342 8.28327 11.63C8.11335 11.6279 8.01651 11.5302 8.01438 11.3615C8.00985 11.0333 8.00985 10.7048 8.01438 10.376C8.01651 10.206 8.11337 10.1088 8.28244 10.1062C8.61123 10.102 8.93989 10.102 9.2684 10.1062C9.43832 10.1062 9.53304 10.2052 9.53813 10.3743C9.54323 10.5433 9.53772 10.7031 9.53772 10.8675ZM9.022 11.1164V10.6228H8.53093V11.1164H9.022Z" fill="black"/>
<path d="M6.22403 5.7876V6.27697H5.73169V5.7876H6.22403Z" fill="black"/>
<path d="M7.2418 5.78711V6.27733H6.74902V5.78711H7.2418Z" fill="black"/>
<path d="M7.76379 6.27618V5.78809H8.2587V6.27618H7.76379Z" fill="black"/>
<path d="M12.8524 12.6374V12.1484H13.3418V12.6374H12.8524Z" fill="black"/>
<path d="M12.33 15.46V15.9506H11.8411V15.4617L12.33 15.46Z" fill="black"/>
<path d="M16.157 6.28809C16.5613 6.29 16.9484 6.45196 17.2337 6.73855C17.5189 7.02514 17.679 7.41303 17.679 7.81737C17.6774 8.22186 17.5155 8.6092 17.2289 8.89462C16.9423 9.18004 16.5542 9.34028 16.1498 9.34028C15.9481 9.33912 15.7487 9.29814 15.5629 9.2197C15.3771 9.14126 15.2087 9.0269 15.0672 8.88319C14.9258 8.73948 14.8141 8.56925 14.7386 8.38227C14.6631 8.19528 14.6253 7.99522 14.6273 7.79358C14.6335 7.39205 14.7975 7.00909 15.0837 6.72741C15.3699 6.44572 15.7554 6.28793 16.157 6.28809ZM15.1375 7.8076C15.1361 8.07792 15.2422 8.33772 15.4323 8.52986C15.6225 8.722 15.8811 8.83076 16.1515 8.83222C16.4189 8.83226 16.6757 8.72718 16.8664 8.53964C17.0571 8.3521 17.1665 8.09713 17.171 7.82969C17.1745 7.55936 17.0705 7.2987 16.8819 7.10504C16.6932 6.91138 16.4354 6.80058 16.165 6.797C16.0311 6.79571 15.8982 6.82083 15.7739 6.87093C15.6497 6.92103 15.5366 6.99513 15.441 7.08899C15.3454 7.18284 15.2692 7.29461 15.2169 7.41792C15.1645 7.54122 15.1369 7.67364 15.1357 7.8076H15.1375Z" fill="black"/>
</svg>
