<svg width="24" height="24" viewBox="0 0 24 24" fill="none" xmlns="http://www.w3.org/2000/svg">
<rect width="24" height="24" rx="3" fill="#ECECEC"/>
<path d="M10.5794 5.0994H20.0566C20.6758 5.0994 20.999 5.41978 20.999 6.03539V20.0645C20.999 20.6787 20.6749 21 20.0556 21H8.78196C7.85557 21 7.28893 20.4329 7.28893 19.5061C7.28893 18.1645 7.28894 16.8225 7.29215 15.4805C7.29215 15.3501 7.25507 15.2975 7.13103 15.2517C5.15605 14.5596 3.87035 12.6693 4.01041 10.5905C4.12987 8.81456 5.01735 7.51104 6.5946 6.68625C6.7104 6.62584 6.74472 6.56404 6.74335 6.44046C6.73648 5.91502 6.73877 5.38775 6.74335 4.86414C6.74335 4.35197 7.09212 4.0032 7.60338 4.00183C8.3 3.99939 8.99677 3.99939 9.6937 4.00183C10.2407 4.00183 10.5789 4.34144 10.5816 4.88885L10.5794 5.0994ZM15.896 11.0038C15.9597 11.2395 16.042 11.428 16.0558 11.6212C16.0974 12.1901 15.6896 12.6739 15.117 12.7655C14.5834 12.8501 14.0542 12.4908 13.9073 11.953C13.8931 11.9009 13.856 11.8226 13.8181 11.8157C13.6304 11.7777 13.4382 11.7594 13.2665 11.737C13.2409 11.7604 13.234 11.7635 13.2331 11.7681C13.2253 11.7956 13.2199 11.8231 13.213 11.8505C12.7956 13.5288 11.7764 14.6677 10.1555 15.2673C10.0425 15.3089 10.0292 15.3666 10.0292 15.4668C10.0315 16.8372 10.0292 18.2076 10.032 19.5784C10.0359 19.848 9.96376 20.1132 9.82371 20.3436C9.80521 20.3789 9.78884 20.4153 9.77472 20.4526H20.0566C20.3705 20.4526 20.4502 20.3725 20.4502 20.0576C20.4502 15.3863 20.4502 10.7153 20.4502 6.04455C20.4502 5.72874 20.371 5.64865 20.0575 5.64865H10.5794C10.5794 5.92784 10.5885 6.18462 10.5757 6.44002C10.5684 6.57733 10.6215 6.63452 10.7382 6.6954C12.2335 7.47852 13.0935 8.70655 13.2917 10.3863C13.3228 10.6495 13.3183 10.9173 13.3302 11.1878C13.511 11.2129 13.6853 11.2427 13.8606 11.2573C13.8858 11.2554 13.9102 11.2479 13.9321 11.2353C13.9539 11.2227 13.9727 11.2054 13.987 11.1845C14.3138 10.6518 14.7564 10.4811 15.3601 10.6573C15.382 10.6633 15.4049 10.6642 15.4272 10.66C15.4495 10.6558 15.4705 10.6466 15.4887 10.633C15.6997 10.3941 15.9034 10.1492 16.1162 9.89748C15.7066 9.43566 15.4928 8.90747 15.5212 8.29552C15.5304 8.00337 15.5996 7.71626 15.7247 7.45206C15.8497 7.18786 16.0279 6.95225 16.248 6.75994C16.6344 6.40903 17.134 6.2085 17.6558 6.1948C18.1776 6.18111 18.687 6.35518 19.0913 6.68534C19.4949 7.0113 19.7695 7.47013 19.8661 7.97989C19.9627 8.48965 19.875 9.01713 19.6185 9.46816C19.3652 9.92364 18.9545 10.2711 18.4633 10.4454C17.7937 10.6898 17.1524 10.6042 16.5368 10.2472L15.896 11.0038ZM10.5794 8.55459C10.5794 8.78344 10.5794 8.97979 10.5794 9.17843C10.5748 9.67916 10.2265 10.0298 9.72667 10.0316C9.01814 10.0343 8.30993 10.0343 7.60201 10.0316C7.0903 10.0316 6.74473 9.68192 6.74107 9.16929C6.74107 8.97248 6.74107 8.77567 6.74107 8.56375C5.9973 9.11849 5.38855 10.3456 5.75151 11.6583C6.09616 12.9041 7.24591 13.8237 8.5197 13.8681C9.86397 13.9138 11.0654 13.1065 11.5035 11.8601C11.9181 10.6811 11.5346 9.27547 10.5794 8.55642V8.55459ZM10.5885 7.24877C10.5848 7.26383 10.582 7.27912 10.5803 7.29454C10.5803 7.42041 10.5881 7.54674 10.5771 7.67123C10.5647 7.8058 10.6192 7.88085 10.7263 7.96232C11.8705 8.82921 12.3836 9.98355 12.1763 11.4043C11.898 13.3088 10.1569 14.6022 8.22722 14.3876C6.49985 14.1953 5.11895 12.6881 5.09882 10.9511C5.08463 9.68511 5.60734 8.68045 6.62756 7.93028C6.67013 7.89915 6.73146 7.85431 6.73421 7.81266C6.74565 7.62408 6.73924 7.43504 6.73924 7.23228C5.15559 8.0415 4.1967 9.91627 4.66538 11.8286C4.89361 12.7577 5.43812 13.5784 6.20548 14.1498C6.97284 14.7213 7.91519 15.0078 8.87075 14.9602C10.805 14.8727 12.4436 13.3893 12.7292 11.4486C13.0125 9.52446 11.9017 7.87674 10.5908 7.25061L10.5885 7.24877ZM10.031 7.03411C10.031 6.3262 10.031 5.61796 10.031 4.90944C10.031 4.64077 9.9395 4.55015 9.67129 4.54969C8.99755 4.54969 8.32366 4.54969 7.64962 4.54969C7.38049 4.54969 7.28986 4.64123 7.2894 4.90899C7.2894 6.31261 7.2894 7.71746 7.2894 9.12352C7.2894 9.39265 7.38093 9.48328 7.64915 9.48374C8.32289 9.48374 8.99677 9.48374 9.67082 9.48374C9.93949 9.48374 10.0306 9.39218 10.031 9.12397C10.0316 8.42857 10.0316 7.73241 10.031 7.03548V7.03411ZM7.84459 15.4833C7.84871 15.47 7.83956 15.486 7.83956 15.5021C7.83956 16.8953 7.83498 18.2886 7.83956 19.6818C7.83956 20.0182 8.09496 20.3176 8.41627 20.4141C8.95407 20.5771 9.47767 20.1853 9.47904 19.6054C9.48209 18.2628 9.48209 16.9202 9.47904 15.5776C9.47812 15.5451 9.47522 15.5127 9.47035 15.4805L7.84459 15.4833ZM19.3531 8.3889C19.3517 7.95276 19.1775 7.53495 18.8687 7.22703C18.5598 6.91911 18.1415 6.74621 17.7053 6.74622C17.2691 6.74743 16.8512 6.92155 16.5432 7.23042C16.2352 7.5393 16.0622 7.95773 16.0622 8.39395C16.0634 8.83016 16.2375 9.24809 16.5464 9.55611C16.8553 9.86413 17.2737 10.0371 17.7099 10.0371C18.1464 10.0359 18.5647 9.86149 18.8727 9.55222C19.1808 9.24294 19.3536 8.82406 19.3531 8.38753V8.3889ZM15.5143 11.6789C15.5127 11.5347 15.4547 11.3968 15.3529 11.2948C15.2511 11.1927 15.1134 11.1344 14.9692 11.1324C14.825 11.1323 14.6866 11.189 14.5839 11.2902C14.4811 11.3913 14.4222 11.5288 14.42 11.6729C14.4196 11.7458 14.4336 11.818 14.4613 11.8854C14.489 11.9528 14.5297 12.0141 14.5811 12.0657C14.6325 12.1173 14.6937 12.1582 14.761 12.1861C14.8283 12.2139 14.9005 12.2282 14.9733 12.2281C15.1175 12.225 15.2547 12.1657 15.3558 12.0628C15.4569 11.96 15.5137 11.8217 15.5143 11.6775V11.6789Z" fill="black"/>
<path d="M10.8613 17.7002V17.1684H11.3955V14.9815H13.0432V17.151H14.1417V13.3342H15.7821V17.151H16.8806V11.1445H18.5283V17.1546H19.0675V17.7002H10.8613ZM17.4408 17.151H17.9685V11.691H17.4408V17.151ZM14.7042 13.8821V17.1501H15.2319V13.8821H14.7042ZM12.4866 17.1565V15.533H11.9593V17.1565H12.4866Z" fill="black"/>
<path d="M13.6029 19.8911V18.2676H16.3235V19.8911H13.6029ZM14.1521 19.3418H15.7756V18.8145H14.1517L14.1521 19.3418Z" fill="black"/>
<path d="M13.0373 19.8968H10.8655V18.2715H13.0364L13.0373 19.8968ZM12.4922 18.8216H11.4111V19.3466H12.4922V18.8216Z" fill="black"/>
<path d="M16.8934 19.8911V18.2676H19.0657V19.8911H16.8934ZM18.5228 18.8182H17.4477V19.3478H18.5228V18.8182Z" fill="black"/>
<path d="M6.72684 11.6729H6.20276V11.1396H6.72684V11.6729Z" fill="black"/>
<path d="M7.83097 11.144V11.669H7.29773V11.144H7.83097Z" fill="black"/>
<path d="M8.39795 11.1377H8.92478V11.665H8.39795V11.1377Z" fill="black"/>
<path d="M10.0225 11.6724H9.49207V11.1401H10.0212L10.0225 11.6724Z" fill="black"/>
<path d="M10.5881 11.1377H11.1159V11.6686H10.5881V11.1377Z" fill="black"/>
<path d="M7.84473 5.63567V5.1084H9.46866V5.63567H7.84473Z" fill="black"/>
<path d="M7.84473 6.73284V6.20557H9.46821V6.73284H7.84473Z" fill="black"/>
<path d="M9.47545 7.30127V7.82993H7.84741V7.30127H9.47545Z" fill="black"/>
<path d="M7.84473 8.92527V8.39844H9.46821V8.92527H7.84473Z" fill="black"/>
<path d="M17.4377 9.55662L16.7186 8.83804L17.1017 8.45997L17.3956 8.84718L18.5925 7.6416L18.9733 8.02332C18.4567 8.53869 17.9448 9.04979 17.4377 9.55662Z" fill="black"/>
</svg>
