<svg width="24" height="24" viewBox="0 0 24 24" fill="none" xmlns="http://www.w3.org/2000/svg">
<rect width="24" height="24" rx="3" fill="#ECECEC"/>
<path d="M15.3792 4C15.8725 4.50977 16.3291 5.06324 16.8692 5.51981C17.4569 6.01502 17.6374 6.57228 17.6292 7.33789C17.5848 10.7511 17.6102 14.1656 17.6095 17.5795C17.6095 18.5712 17.1954 18.9892 16.2164 18.9898C13.2806 18.9898 10.3448 18.974 7.40904 18.9999C6.60607 19.0069 5.99434 18.5218 6.00004 17.5998C6.0258 13.5613 6.0258 9.52304 6.00004 5.48498C5.99624 4.74787 6.23878 4.2438 6.94993 4.00127L15.3792 4ZM14.7307 4.81247H7.40715C6.88851 4.81247 6.81632 4.88466 6.81632 5.40646V17.5814C6.81632 18.1051 6.88723 18.1773 7.40523 18.1773H16.2442C16.7306 18.1773 16.7996 18.1083 16.7996 17.6175C16.7996 14.1439 16.7996 10.6709 16.7996 7.19857C16.7996 7.09599 16.7895 6.99339 16.7831 6.86104H14.7307V4.81247Z" fill="black"/>
<path d="M15.3361 16.807H14.133V15.6222H9.49056V16.8019H8.27723C8.27723 16.4707 8.29054 16.151 8.26901 15.8331C8.2623 15.7773 8.24368 15.7236 8.2144 15.6756C8.18512 15.6276 8.14585 15.5865 8.09928 15.5551C7.77759 15.379 7.63323 15.1118 7.66299 14.7635C7.71175 14.1891 7.85296 13.6616 8.17529 13.1481C8.51535 12.6022 8.69835 11.9575 8.94342 11.354C9.16759 10.8006 9.55894 10.4403 10.1415 10.2984C10.2453 10.2742 10.3516 10.2625 10.4582 10.2636C11.3447 10.2636 12.2313 10.2528 13.1178 10.2636C13.8207 10.2731 14.3166 10.6264 14.6054 11.2584C14.7833 11.6472 14.922 12.0557 15.0993 12.4439C15.2481 12.7668 15.4336 13.0727 15.6059 13.3862C15.8706 13.8776 16.0087 14.3994 15.9561 14.9579C15.9477 15.0859 15.9022 15.2087 15.8252 15.3112C15.7481 15.4138 15.6429 15.4917 15.5223 15.5354C15.364 15.5987 15.3266 15.6887 15.3323 15.8432C15.3431 16.1586 15.3361 16.4676 15.3361 16.807ZM9.22143 12.8219H14.3869C14.1849 12.3489 14.0114 11.8961 13.798 11.4623C13.6713 11.2027 13.418 11.0748 13.1236 11.0741C12.2459 11.0741 11.3682 11.0741 10.4905 11.0741C10.1567 11.0741 9.90155 11.2306 9.7635 11.5269C9.57162 11.9392 9.4114 12.3666 9.22143 12.8219ZM11.7994 14.8971C12.1211 14.8971 12.4428 14.9022 12.7651 14.8971C13.0577 14.892 13.2154 14.7559 13.2249 14.5172C13.2344 14.2784 13.0811 14.1036 12.7999 14.0979C12.1468 14.0853 11.4935 14.0853 10.84 14.0979C10.5715 14.1043 10.3885 14.3031 10.4189 14.5241C10.4531 14.7724 10.6089 14.8977 10.8622 14.8977L11.7994 14.8971ZM9.06373 14.4538C9.06451 14.405 9.05545 14.3565 9.03705 14.3113C9.01864 14.266 8.99127 14.225 8.95662 14.1906C8.92197 14.1562 8.88074 14.1291 8.83538 14.111C8.79002 14.0929 8.74147 14.0842 8.69265 14.0853C8.48304 14.1024 8.35007 14.2189 8.3374 14.4393C8.33476 14.4881 8.3419 14.537 8.35843 14.583C8.37496 14.629 8.40056 14.6713 8.43366 14.7073C8.46676 14.7433 8.50671 14.7723 8.55119 14.7926C8.59567 14.8129 8.64377 14.8241 8.69265 14.8255C8.74147 14.8255 8.78979 14.8158 8.83486 14.797C8.87992 14.7783 8.92086 14.7508 8.95532 14.7162C8.98978 14.6817 9.01708 14.6406 9.03569 14.5955C9.05429 14.5504 9.06381 14.502 9.06373 14.4532V14.4538ZM15.2583 14.4424C15.2513 14.2461 15.0607 14.0625 14.8688 14.0853C14.7743 14.0893 14.685 14.1296 14.6195 14.1978C14.5539 14.266 14.5171 14.3567 14.5167 14.4513C14.5028 14.6413 14.6997 14.8312 14.8922 14.8262C14.9906 14.8206 15.0832 14.7777 15.1512 14.7063C15.2192 14.6349 15.2574 14.5404 15.2583 14.4418V14.4424Z" fill="black"/>
<path d="M15.9339 8.16675V8.92665H7.63828V8.16675H15.9339Z" fill="black"/>
<path d="M11.7988 6.48291V7.25928H7.63828V6.48291H11.7988Z" fill="black"/>
</svg>
