<svg width="24" height="25" viewBox="0 0 24 25" fill="none" xmlns="http://www.w3.org/2000/svg">
<rect y="0.887207" width="24" height="24" rx="3" fill="#ECECEC"/>
<path d="M16.231 12.4363H15.5861V5.5596H5.6619V19.2296H11.6844L11.6091 19.8798C11.5554 19.8823 11.5008 19.8872 11.4465 19.8872H5.6295C5.22433 19.8872 5 19.6656 5 19.2574C5 14.6791 5 10.1008 5 5.52257C5 5.12389 5.23236 4.88844 5.6332 4.88844C8.95557 4.8868 12.2779 4.8868 15.6003 4.88844C16.0076 4.88844 16.2313 5.11741 16.2313 5.5201C16.2313 7.7682 16.2313 10.0162 16.2313 12.2641L16.231 12.4363Z" fill="black"/>
<path d="M14.3979 14.9152C14.3902 14.6066 14.3568 14.312 14.3818 14.0237C14.4254 13.5226 14.7012 13.1656 15.1561 12.9536C15.7059 12.6975 16.2537 12.6598 16.786 13.002C16.9295 13.0946 17.0594 13.2038 17.0554 13.3995C17.355 13.4711 17.496 13.6044 17.5222 13.9281C17.5485 14.2518 17.5281 14.5724 17.5281 14.9057C17.7204 15.0291 17.7398 15.0701 17.6883 15.3377C17.6627 15.4841 17.6264 15.6285 17.5796 15.7697C17.554 15.8425 17.5 15.9341 17.4365 15.9591C17.313 16.0067 17.2985 16.0912 17.2961 16.1952C17.2908 16.4112 17.2229 16.5964 17.0652 16.7491C17.0339 16.7874 17.016 16.8348 17.0143 16.8843C17.0066 16.9768 17.0301 17.074 17.0072 17.162C16.9816 17.2589 16.9415 17.374 16.8684 17.432C16.6431 17.6112 16.4071 17.7766 16.1617 17.9273C16.0892 17.9721 16.0055 17.9954 15.9203 17.9945C15.835 17.9936 15.7518 17.9684 15.6803 17.922C15.4492 17.7785 15.231 17.6134 15.0033 17.4644C14.8845 17.3863 14.8243 17.286 14.8302 17.1435C14.8339 17.0561 14.8435 16.966 14.8265 16.8818C14.8058 16.7766 14.7577 16.6766 14.7265 16.5732C14.6844 16.4489 14.6506 16.3219 14.6253 16.193C14.6099 16.0958 14.6 16.0258 14.4868 15.9863C14.4071 15.9523 14.3436 15.8888 14.3096 15.8092C14.2479 15.6466 14.2022 15.4783 14.1732 15.3068C14.1319 15.0658 14.1939 14.9803 14.3979 14.9152Z" fill="black"/>
<path d="M9.16461 6.82681C10.0749 6.82681 10.985 6.82681 11.8949 6.82681C12.1936 6.82681 12.2776 6.91228 12.2782 7.21346C12.2782 7.35232 12.2803 7.49118 12.2782 7.63004C12.2738 7.84913 12.1766 7.94602 11.9563 7.95497C11.9255 7.95497 11.8946 7.95497 11.8637 7.95497H6.46363C6.4124 7.95497 6.36056 7.95651 6.30934 7.95158C6.13622 7.93522 6.04797 7.84758 6.0418 7.67385C6.03563 7.50013 6.03624 7.32424 6.03964 7.14927C6.04365 6.91815 6.13715 6.8265 6.37167 6.82588C7.02462 6.82434 7.67757 6.82588 8.33053 6.82588L9.16461 6.82681Z" fill="black"/>
<path d="M19.9238 19.8834H16.214C16.2106 19.8359 16.2045 19.7909 16.2045 19.7477C16.2045 19.3104 16.2072 18.8732 16.2014 18.4359C16.198 18.3934 16.2069 18.3508 16.2271 18.3132C16.2473 18.2756 16.2779 18.2446 16.3152 18.2239C16.584 18.0437 16.8469 17.8536 17.1148 17.6725C17.1509 17.6463 17.1953 17.634 17.2397 17.6379C17.7455 17.7456 18.2679 17.778 18.7493 17.9931C19.4513 18.3066 19.9645 19.1197 19.9238 19.8834Z" fill="black"/>
<path d="M11.9522 19.8777C11.9503 19.2936 12.1426 18.7996 12.5456 18.3848C12.843 18.0787 13.2059 17.905 13.62 17.8269C13.9477 17.7652 14.2751 17.7035 14.6038 17.6464C14.6529 17.6408 14.7024 17.6523 14.7439 17.6791C15.0173 17.8612 15.2882 18.0468 15.5567 18.2361C15.5977 18.2651 15.6492 18.3185 15.6492 18.3611C15.6557 18.8634 15.6532 19.3658 15.6532 19.8777H11.9522Z" fill="black"/>
<path d="M8.55589 18.4931L7.8727 17.8636L7.16697 18.4873C7.16204 18.4255 7.15586 18.3842 7.15586 18.3425C7.15586 17.8389 7.15278 17.335 7.15586 16.8305C7.15586 16.7351 7.12501 16.6852 7.03984 16.642C6.70814 16.472 6.43771 16.2028 6.26624 15.8718C6.09478 15.5409 6.03081 15.1647 6.08325 14.7957C6.13779 14.4299 6.30305 14.0895 6.55682 13.8204C6.81059 13.5513 7.14069 13.3664 7.50271 13.2905C8.36982 13.1149 9.24216 13.6126 9.54118 14.4535C9.83649 15.2833 9.4736 16.2235 8.6966 16.6259C8.5923 16.6799 8.5491 16.7385 8.55095 16.861C8.56021 17.3903 8.55589 17.9192 8.55589 18.4931ZM7.85542 13.5867C7.05712 13.5809 6.3946 14.2384 6.38905 15.0429C6.38829 15.4324 6.54131 15.8066 6.81484 16.0839C7.08838 16.3613 7.46034 16.5194 7.84986 16.5241C8.65217 16.5309 9.31839 15.8674 9.32178 15.0565C9.32296 14.8633 9.28587 14.6719 9.21266 14.4932C9.13945 14.3145 9.03157 14.152 8.89523 14.0152C8.7589 13.8784 8.59681 13.77 8.41834 13.6962C8.23987 13.6224 8.04855 13.5846 7.85542 13.5852V13.5867Z" fill="black"/>
<path d="M10.5996 11.1051C9.17007 11.1051 7.74032 11.1051 6.31037 11.1051C6.05733 11.1051 5.95674 10.9607 6.05085 10.7212C6.06597 10.6826 6.12121 10.6515 6.16503 10.6354C6.20885 10.6194 6.2576 10.6286 6.30234 10.6286H14.9425C15.1863 10.6286 15.2971 10.799 15.1916 11.0236C15.1781 11.0435 15.1607 11.0605 15.1403 11.0733C15.12 11.0861 15.0972 11.0945 15.0734 11.098C14.9863 11.1062 14.8988 11.1083 14.8114 11.1042L10.5996 11.1051Z" fill="black"/>
<path d="M10.6335 9.11642H14.9521C15.1829 9.11642 15.298 9.30465 15.1854 9.5077C15.1647 9.54504 15.1089 9.5725 15.0638 9.58453C15.0082 9.5942 14.9516 9.5969 14.8953 9.59256C12.0266 9.59256 9.15772 9.59204 6.28876 9.59101C6.06195 9.59101 5.94284 9.39754 6.05856 9.19881C6.08695 9.15006 6.186 9.12043 6.25296 9.11981C6.87505 9.11395 7.49715 9.11611 8.11925 9.11611L10.6335 9.11642Z" fill="black"/>
<path d="M9.95996 12.6333C8.73058 12.6333 7.50152 12.6333 6.27245 12.6305C6.19901 12.6305 6.07094 12.5996 6.06261 12.5632C6.03762 12.4534 6.05644 12.3324 6.06847 12.217C6.07033 12.1982 6.12402 12.1778 6.15642 12.171C6.19732 12.1655 6.23868 12.1641 6.27985 12.167H13.6394C13.8894 12.167 13.9888 12.3046 13.8906 12.5373C13.8703 12.5854 13.7721 12.6271 13.7095 12.6277C13.0254 12.6342 12.3413 12.6317 11.6575 12.6317L9.95996 12.6333Z" fill="black"/>
<path d="M7.2172 16.0402C7.253 15.8319 7.27893 15.6548 7.31534 15.4804C7.33786 15.3752 7.32058 15.3008 7.23572 15.2249C7.10273 15.1061 6.98516 14.9697 6.84229 14.8213C7.02959 14.7905 7.2061 14.7547 7.38415 14.7392C7.49647 14.7294 7.55665 14.6852 7.60016 14.5831C7.67175 14.4189 7.76 14.2622 7.85659 14.0718C7.95317 14.2637 8.04173 14.4319 8.12258 14.6053C8.13671 14.6432 8.16194 14.676 8.19497 14.6993C8.22799 14.7226 8.26729 14.7355 8.30772 14.7361C8.49009 14.755 8.67123 14.7883 8.90205 14.8229C8.74776 14.9707 8.62741 15.1006 8.49133 15.2098C8.38548 15.2953 8.37747 15.3879 8.40277 15.5067C8.43764 15.6711 8.46171 15.8381 8.49534 16.0377C8.30001 15.9356 8.13399 15.8396 7.95965 15.7625C7.89256 15.7364 7.81814 15.7364 7.75105 15.7625C7.57948 15.839 7.41562 15.9337 7.2172 16.0402Z" fill="black"/>
</svg>
