<svg width="24" height="25" viewBox="0 0 24 25" fill="none" xmlns="http://www.w3.org/2000/svg">
<rect y="0.887207" width="24" height="24" rx="3" fill="#ECECEC"/>
<path d="M13.3004 11.319C13.4484 11.3262 13.5967 11.3292 13.7443 11.3411C14.5965 11.4107 15.3153 12.0987 15.3505 12.948C15.3867 13.8568 15.3639 14.7678 15.3715 15.6776C15.3715 15.8227 15.2899 15.8227 15.1851 15.8227C14.0278 15.821 12.8704 15.821 11.7131 15.8227C10.7432 15.8227 9.77285 15.8227 8.80217 15.8227C8.69809 15.8227 8.61395 15.8252 8.61467 15.6776C8.62011 14.7917 8.59437 13.905 8.62809 13.0202C8.66436 12.0584 9.41358 11.364 10.3847 11.3302C10.4848 11.3266 10.5849 11.3302 10.685 11.3302L10.7282 11.2577C10.6727 11.2233 10.6078 11.1982 10.5632 11.1533C10.3753 10.9694 10.2264 10.7497 10.1251 10.5072C10.0238 10.2647 9.97224 10.0043 9.9735 9.74149C9.9706 9.35587 9.9706 8.97014 9.9735 8.58429C9.97568 8.23379 10.1157 7.89823 10.3632 7.65008C10.6107 7.40193 10.946 7.26113 11.2964 7.25809C11.7606 7.25446 12.2247 7.25446 12.6886 7.25809C13.0392 7.26094 13.3745 7.40155 13.6222 7.64955C13.8699 7.89755 14.0102 8.23304 14.0127 8.58356C14.0158 8.97038 14.0158 9.35612 14.0127 9.74076C14.0139 10.0036 13.9625 10.2639 13.8612 10.5064C13.76 10.7489 13.6111 10.9687 13.4234 11.1525C13.3784 11.1979 13.3146 11.2251 13.2591 11.2588L13.3004 11.319ZM14.9407 14.4936C14.9407 13.9971 14.9577 13.5217 14.9367 13.0481C14.9084 12.4204 14.4866 11.9359 13.8759 11.7901C13.7942 11.7761 13.7118 11.7672 13.629 11.7632C13.6972 12.0454 13.7584 12.3003 13.8234 12.5687C13.3487 12.7728 12.8703 12.956 12.4137 13.1852C12.1178 13.3324 11.8698 13.3331 11.5724 13.1852C11.1166 12.9578 10.6379 12.7747 10.1635 12.5687C10.2281 12.2974 10.2897 12.0389 10.3525 11.7759C9.73126 11.7502 9.10352 12.3083 9.06036 12.9389C9.027 13.4252 9.04586 13.9152 9.04296 14.4033C9.04831 14.4349 9.05782 14.4656 9.07125 14.4947C9.31821 14.4947 9.55901 14.4885 9.79908 14.4972C9.93144 14.5019 9.9804 14.461 9.97568 14.3242C9.96662 13.9931 9.9833 13.6606 9.96879 13.3299C9.96082 13.1547 10.0384 13.1326 10.1817 13.1348C10.3173 13.1369 10.4029 13.1438 10.3993 13.3244C10.388 13.9572 10.3993 14.5904 10.3924 15.2236C10.3924 15.3545 10.4243 15.4028 10.5632 15.402C11.516 15.3967 12.4686 15.3967 13.4212 15.402C13.5586 15.402 13.5945 15.3567 13.5931 15.2247C13.5873 14.5853 13.5971 13.9464 13.5865 13.3074C13.5833 13.1228 13.6855 13.1391 13.8041 13.1369C13.9227 13.1348 14.0246 13.1311 14.0177 13.3106C14.0039 13.6537 14.0098 13.9979 14.0177 14.3413C14.0177 14.3928 14.0783 14.4863 14.1138 14.4863C14.384 14.499 14.6527 14.4936 14.9407 14.4936ZM11.9996 11.3255C12.3918 11.3233 12.7695 11.1768 13.0607 10.9141C13.3518 10.6513 13.5362 10.2906 13.5786 9.90069C13.5845 9.83596 13.571 9.77093 13.5398 9.71393C13.3966 9.46322 13.2483 9.21565 13.0948 8.97123C12.9497 8.74059 12.6502 8.74131 12.4979 8.96724C12.2295 9.36615 11.7559 9.36869 11.4901 8.97123C11.3327 8.73623 11.0332 8.73986 10.8834 8.98211C10.7336 9.22436 10.5886 9.46443 10.4482 9.70994C10.4166 9.7666 10.4021 9.83123 10.4065 9.89598C10.4485 10.289 10.6346 10.6525 10.9287 10.9165C11.2229 11.1804 11.6044 11.3262 11.9996 11.3255ZM10.4134 8.90958C10.4627 8.83886 10.4906 8.80332 10.5139 8.76452C10.8232 8.26226 11.4988 8.23941 11.8386 8.72028C11.9474 8.87331 12.042 8.86933 12.1548 8.70722C12.2295 8.60163 12.3291 8.51616 12.4448 8.45842C12.5605 8.40068 12.6887 8.37247 12.818 8.37632C12.9473 8.38016 13.0736 8.41593 13.1856 8.48044C13.2977 8.54494 13.3921 8.63619 13.4603 8.74603C13.4886 8.79136 13.5202 8.83451 13.5503 8.87875C13.5804 8.81939 13.5939 8.75298 13.5895 8.68655C13.5895 8.06534 13.2072 7.68166 12.59 7.68057C12.3308 7.68057 12.0717 7.68057 11.8125 7.68057C11.6196 7.68057 11.4255 7.67006 11.2323 7.68529C10.6749 7.73026 10.3365 8.21693 10.4134 8.90958ZM9.04948 15.4009H9.64604C10.0022 15.4009 10.0192 15.3835 9.96879 15.0252C9.96335 14.9872 9.91186 14.9262 9.88031 14.9251C9.60688 14.9172 9.33343 14.9208 9.04948 14.9208V15.4009ZM14.9447 14.919C14.7271 14.919 14.5349 14.9157 14.3434 14.919C13.9738 14.927 14.017 14.8374 14.0123 15.2729C14.0123 15.3658 14.0457 15.4024 14.1385 15.4009C14.3666 15.3977 14.5951 15.4046 14.8228 15.3959C14.8645 15.394 14.9349 15.3415 14.9389 15.3059C14.9482 15.1766 14.9502 15.0468 14.9447 14.9172V14.919ZM12.4895 11.7658H11.4963L11.9931 12.5099L12.4895 11.7658ZM11.5554 12.7021L11.5851 12.6695C11.3951 12.3852 11.208 12.099 11.0129 11.8187C10.9878 11.7825 10.9084 11.7462 10.8783 11.7596C10.697 11.8466 10.7579 12.0497 10.697 12.1948C10.6803 12.2347 10.7137 12.3348 10.7499 12.3518C11.0136 12.4766 11.2856 12.5872 11.5554 12.7021ZM12.4021 12.6688L12.4304 12.7018L12.9247 12.4929C13.3483 12.3141 13.3483 12.3141 13.2167 11.8786C13.2153 11.8727 13.2129 11.867 13.2098 11.8619C13.1833 11.8256 13.1572 11.7632 13.1292 11.7625C13.077 11.7625 13.0016 11.7803 12.9751 11.8184C12.7782 12.098 12.5915 12.3845 12.4018 12.6688H12.4021Z" fill="black"/>
<path d="M5.00002 8.14278C4.99869 7.84583 5.05627 7.55156 5.16943 7.27702C5.28259 7.00247 5.44908 6.7531 5.65927 6.54333C5.86945 6.33356 6.11915 6.16757 6.39392 6.05495C6.66868 5.94233 6.96306 5.88534 7.26001 5.88725C7.55695 5.88917 7.85057 5.94997 8.12386 6.06613C8.39715 6.18228 8.64469 6.35149 8.85214 6.56396C9.0596 6.77642 9.22286 7.02793 9.33246 7.30391C9.44206 7.5799 9.49584 7.87488 9.49067 8.17179C9.48559 9.4095 8.46945 10.401 7.21252 10.3941C5.9915 10.3876 4.99603 9.37432 5.00002 8.14278ZM5.4468 8.14278C5.44391 8.61879 5.63 9.0765 5.96425 9.41543C6.29849 9.75437 6.75356 9.94683 7.22957 9.95057C8.21995 9.96108 9.05404 9.14187 9.04497 8.15402C9.03555 7.12157 8.23736 6.36001 7.26076 6.3524C7.02374 6.34908 6.78841 6.3929 6.56847 6.48132C6.34853 6.56974 6.14836 6.70098 5.97958 6.86743C5.81081 7.03388 5.67679 7.23221 5.58533 7.4509C5.49387 7.66959 5.44678 7.90428 5.4468 8.14133V8.14278Z" fill="black"/>
<path d="M16.7445 5.90335C17.1891 5.90393 17.6234 6.03644 17.9926 6.28409C18.3617 6.53174 18.6491 6.8834 18.8182 7.2945C18.9874 7.7056 19.0307 8.15765 18.9427 8.59339C18.8547 9.02912 18.6393 9.42893 18.3239 9.74217C18.0084 10.0554 17.6071 10.268 17.1708 10.3529C16.7345 10.4379 16.2827 10.3915 15.8728 10.2195C15.4629 10.0475 15.1133 9.7577 14.8682 9.38682C14.6231 9.01595 14.4936 8.58068 14.4961 8.13616C14.4968 7.84181 14.5555 7.55049 14.6689 7.27888C14.7824 7.00726 14.9482 6.76069 15.1571 6.55329C15.366 6.34588 15.6137 6.18171 15.8861 6.07018C16.1585 5.95866 16.4502 5.90196 16.7445 5.90335ZM18.5396 8.13797C18.5376 7.78222 18.4301 7.43506 18.2309 7.1403C18.0317 6.84554 17.7497 6.6164 17.4204 6.4818C17.0911 6.3472 16.7293 6.31317 16.3806 6.384C16.032 6.45483 15.7122 6.62736 15.4615 6.8798C15.2108 7.13224 15.0405 7.45328 14.9722 7.8024C14.9038 8.15153 14.9404 8.51308 15.0773 8.84143C15.2142 9.16979 15.4453 9.45023 15.7414 9.64735C16.0376 9.84447 16.3855 9.94944 16.7413 9.94902C17.7349 9.95446 18.5418 9.14177 18.5396 8.13906V8.13797Z" fill="black"/>
<path d="M7.25263 19.8886C6.95832 19.8906 6.66649 19.8345 6.39389 19.7235C6.12129 19.6125 5.87329 19.4488 5.66408 19.2418C5.45486 19.0348 5.28856 18.7885 5.17471 18.5171C5.06086 18.2457 5.00169 17.9545 5.0006 17.6602C4.98827 16.4235 5.98953 15.4034 7.21999 15.398C8.47402 15.3925 9.48726 16.3873 9.49088 17.6268C9.49371 17.9226 9.43792 18.2161 9.32673 18.4902C9.21554 18.7644 9.05115 19.0138 8.84305 19.2241C8.63496 19.4344 8.38728 19.6014 8.11431 19.7154C7.84133 19.8295 7.54848 19.8883 7.25263 19.8886ZM7.24066 19.4418C7.47769 19.4426 7.71254 19.3966 7.93174 19.3063C8.15093 19.2161 8.35015 19.0835 8.51797 18.9161C8.6858 18.7488 8.81892 18.5499 8.9097 18.3309C9.00049 18.112 9.04715 17.8772 9.04701 17.6402C9.04701 16.6589 8.23032 15.8422 7.249 15.8429C6.77597 15.8485 6.32411 16.04 5.99117 16.3761C5.65823 16.7121 5.47097 17.1657 5.46987 17.6388C5.46878 18.1119 5.65394 18.5664 5.98532 18.904C6.3167 19.2416 6.76766 19.4352 7.24066 19.4429V19.4418Z" fill="black"/>
<path d="M18.9863 17.6363C18.9884 17.9305 18.9324 18.2223 18.8216 18.495C18.7108 18.7676 18.5473 19.0157 18.3404 19.225C18.1336 19.4344 17.8875 19.6009 17.6163 19.715C17.345 19.8291 17.0539 19.8886 16.7596 19.8901C15.5234 19.9028 14.5011 18.9015 14.4956 17.6722C14.4902 16.4243 15.4791 15.4071 16.7045 15.3995C17.9741 15.3922 18.9794 16.3786 18.9863 17.6363ZM18.5395 17.6562C18.5413 17.419 18.4962 17.1837 18.4068 16.964C18.3173 16.7443 18.1853 16.5444 18.0184 16.3759C17.8514 16.2074 17.6528 16.0735 17.4339 15.9821C17.215 15.8906 16.9802 15.8433 16.7429 15.843C15.7598 15.835 14.9362 16.6611 14.9388 17.6522C14.941 18.6314 15.7464 19.4393 16.7219 19.443C17.7293 19.4473 18.5373 18.6527 18.5395 17.6562Z" fill="black"/>
<path d="M7.25375 6.55942C7.42854 6.55942 7.60371 6.5645 7.77814 6.55942C7.896 6.55507 7.94024 6.60367 7.9377 6.71826C7.93335 6.90503 7.94241 7.09215 7.93516 7.27855C7.93008 7.41491 7.97143 7.47619 8.11975 7.46785C8.31195 7.45697 8.50524 7.46785 8.6978 7.46459C8.79681 7.46277 8.84286 7.50085 8.84286 7.60203C8.84093 7.96927 8.84093 8.33675 8.84286 8.70447C8.84286 8.80565 8.79028 8.84192 8.69563 8.84155C8.49653 8.84155 8.29672 8.84554 8.09908 8.84155C7.98375 8.83902 7.93552 8.88543 7.93843 9.00148C7.94278 9.18824 7.9348 9.37501 7.94024 9.56177C7.94423 9.68797 7.90397 9.75071 7.76617 9.74817C7.41694 9.74273 7.06735 9.74418 6.71813 9.74817C6.60172 9.74817 6.55747 9.70284 6.5611 9.58643C6.5669 9.39386 6.55639 9.20094 6.56436 9.00837C6.56944 8.87999 6.51685 8.83829 6.395 8.84192C6.20244 8.84736 6.00951 8.83974 5.81659 8.84192C5.70344 8.84446 5.65449 8.80311 5.6563 8.6838C5.66162 8.32841 5.66162 7.9729 5.6563 7.61726C5.65449 7.49614 5.70634 7.46096 5.81876 7.46386C6.01749 7.46894 6.21767 7.46096 6.41495 7.46604C6.52374 7.46894 6.56654 7.42977 6.56328 7.3188C6.55784 7.1324 6.57198 6.94492 6.55928 6.75888C6.54768 6.59388 6.61404 6.54782 6.7678 6.55797C6.92809 6.56776 7.09128 6.55942 7.25375 6.55942ZM7.48403 9.25823V8.37737H8.38557C8.38557 8.29287 8.38557 8.23231 8.38557 8.1732C8.38158 7.88671 8.42691 7.90484 8.11177 7.90375C7.90398 7.90375 7.69618 7.90375 7.49527 7.90375C7.48929 7.88059 7.48468 7.8571 7.48149 7.8334C7.48149 7.65208 7.4815 7.47075 7.47932 7.28943C7.4746 6.98154 7.53661 7.00475 7.19173 6.99496C7.04269 6.99061 6.98866 7.03848 6.99591 7.19006C7.00679 7.4218 6.99881 7.65461 6.99881 7.9023H6.33699C6.09401 7.9023 6.09401 7.9023 6.09401 8.15325C6.09437 8.15929 6.09437 8.16535 6.09401 8.17138C6.07043 8.33095 6.12556 8.39876 6.29963 8.3868C6.52556 8.37156 6.7533 8.38317 6.99881 8.38317V8.89087C6.99881 9.32133 6.99881 9.32133 7.43579 9.27818C7.45247 9.27308 7.46862 9.2664 7.48403 9.25823Z" fill="black"/>
<path d="M16.1143 8.54759C16.1901 8.60525 16.2637 8.66654 16.3424 8.72021C16.395 8.75647 16.453 8.80108 16.5114 8.80579C16.6617 8.81462 16.8124 8.81583 16.9629 8.80942C17.0898 8.80724 17.1728 8.73979 17.1804 8.61359C17.1884 8.47687 17.1014 8.396 16.973 8.38621C16.8236 8.37316 16.672 8.38258 16.5215 8.37932C16.3539 8.3799 16.1918 8.31975 16.0651 8.21001C15.9384 8.10028 15.8558 7.94837 15.8325 7.78241C15.8109 7.61936 15.8496 7.45405 15.9413 7.31751C16.033 7.18096 16.1713 7.08257 16.3304 7.04079C16.4852 7.00235 16.5197 6.932 16.5117 6.79057C16.5081 6.71804 16.5291 6.58858 16.5578 6.58314C16.6809 6.56083 16.8071 6.56083 16.9302 6.58314C16.9574 6.58785 16.9821 6.70934 16.977 6.77425C16.9643 6.93164 17.0133 7.00779 17.1783 7.05022C17.4154 7.11187 17.5627 7.28957 17.6301 7.52601C17.6606 7.633 17.6359 7.70299 17.5043 7.69936C17.3592 7.69537 17.2044 7.73562 17.1159 7.5543C17.0941 7.51042 17.0038 7.48431 16.9429 7.47923C16.8047 7.47017 16.6659 7.47017 16.5277 7.47923C16.3888 7.48685 16.2967 7.56047 16.3043 7.70806C16.3112 7.84696 16.4051 7.90498 16.5368 7.90679C16.6684 7.90861 16.7906 7.90679 16.9164 7.90933C17.3005 7.91912 17.5939 8.15448 17.6417 8.48956C17.6943 8.86382 17.4992 9.15901 17.1057 9.27143C16.9969 9.30298 16.9832 9.35991 16.9806 9.45275C16.9727 9.76064 16.9549 9.77152 16.6477 9.74831C16.5505 9.74106 16.4936 9.70515 16.5114 9.60615C16.5516 9.38349 16.4591 9.28884 16.2448 9.21776C16.1085 9.17279 15.9837 9.02519 15.9043 8.89138C15.7621 8.65094 15.8078 8.58857 16.1143 8.54759Z" fill="black"/>
<path d="M7.26864 19.0862C6.85087 18.68 6.44362 18.3119 6.07191 17.9115C5.80173 17.6214 5.81805 17.1747 6.05703 16.8599C6.30363 16.5335 6.71922 16.4178 7.09093 16.5788C7.1372 16.6027 7.18828 16.6159 7.24034 16.6173C7.2924 16.6187 7.3441 16.6082 7.39157 16.5868C7.80897 16.4174 8.22565 16.5458 8.46028 16.8947C8.69782 17.2494 8.6514 17.6954 8.33481 18.0189C7.97978 18.3783 7.62077 18.7333 7.26864 19.0862ZM7.24325 17.2617C7.16021 17.1841 7.08695 17.105 7.00281 17.0394C6.92578 16.9798 6.83013 16.9495 6.73286 16.9539C6.63559 16.9582 6.543 16.9968 6.47154 17.063C6.31851 17.1993 6.26157 17.4539 6.39901 17.6015C6.67063 17.8952 6.9709 18.1629 7.2563 18.4381C7.5214 18.1792 7.80028 17.9213 8.06029 17.6472C8.21587 17.4844 8.19701 17.2523 8.04542 17.0905C7.97395 17.0112 7.87464 16.9625 7.76817 16.9546C7.6617 16.9467 7.55629 16.9802 7.47389 17.0481C7.39338 17.1105 7.32376 17.1859 7.24325 17.2617Z" fill="black"/>
<path d="M17.8654 18.4461L17.4944 18.8222C17.4176 18.7134 17.3617 18.6086 17.2823 18.5284C17.2574 18.5079 17.228 18.4936 17.1964 18.4867C17.1649 18.4798 17.1322 18.4804 17.101 18.4885C17.0495 18.5089 17.0114 18.5828 16.9857 18.6416C16.9725 18.6882 16.9715 18.7374 16.9828 18.7845C17.0096 18.9705 16.9284 19.0271 16.7478 19.0166C16.511 19.0024 16.5106 19.0129 16.5095 18.7736C16.5095 18.7254 16.524 18.6699 16.5052 18.6311C16.4772 18.5741 16.4326 18.5096 16.3804 18.486C16.3525 18.4767 16.3228 18.4742 16.2937 18.4786C16.2646 18.4831 16.237 18.4945 16.2132 18.5118C16.128 18.5944 16.0624 18.6978 15.9782 18.8069L15.5851 18.4022C15.6758 18.3362 15.7744 18.2829 15.8462 18.205C15.8883 18.1589 15.9209 18.057 15.8977 18.0106C15.8687 17.9529 15.7791 17.9232 15.712 17.8891C15.6881 17.8771 15.6529 17.8873 15.6228 17.8869C15.3809 17.8847 15.3915 17.8844 15.378 17.6468C15.3683 17.4673 15.4227 17.3854 15.6098 17.4133C15.6636 17.4207 15.7181 17.4207 15.7719 17.4133C15.8024 17.4085 15.8311 17.3958 15.8552 17.3765C15.8793 17.3572 15.898 17.332 15.9093 17.3033C15.9207 17.2746 15.9244 17.2434 15.9201 17.2129C15.9158 17.1823 15.9036 17.1534 15.8847 17.129C15.8484 17.0822 15.8005 17.043 15.7588 16.9995C15.7171 16.956 15.6769 16.9125 15.6178 16.8497L15.9499 16.5553L15.9978 16.4904C16.0642 16.5828 16.1208 16.6855 16.2013 16.7642C16.2408 16.8026 16.3369 16.8251 16.3826 16.8033C16.4381 16.7779 16.4751 16.7003 16.5055 16.6383C16.5177 16.5977 16.5185 16.5546 16.5077 16.5136C16.4769 16.3228 16.5675 16.2757 16.743 16.2847C16.9784 16.2971 16.9788 16.2876 16.9806 16.5313C16.9806 16.5734 16.9679 16.6224 16.9849 16.6561C17.0139 16.7138 17.052 16.7827 17.1046 16.807C17.1334 16.8157 17.1638 16.8175 17.1934 16.8123C17.223 16.807 17.251 16.7949 17.275 16.7769C17.3592 16.7014 17.4241 16.6046 17.5177 16.4915C17.6395 16.6365 17.7302 16.7453 17.8361 16.873C17.7582 16.946 17.6855 17.0244 17.6185 17.1076C17.584 17.1544 17.5612 17.2429 17.5822 17.2889C17.609 17.3444 17.6834 17.3879 17.7465 17.4122C17.7994 17.4322 17.8662 17.4224 17.9256 17.4155C18.0707 17.3988 18.1124 17.4652 18.1109 17.6033C18.1084 17.8866 18.1146 17.8866 17.8237 17.8887C17.7236 17.8887 17.6268 17.872 17.5721 18.0037C17.5173 18.1353 17.6112 18.1763 17.6714 18.2438C17.7316 18.3112 17.7929 18.3707 17.8654 18.4461ZM16.7412 17.183C16.6198 17.1824 16.5031 17.2299 16.4165 17.315C16.3298 17.4001 16.2804 17.516 16.2789 17.6374C16.278 17.6989 16.2894 17.76 16.3122 17.8172C16.335 17.8743 16.3688 17.9265 16.4117 17.9705C16.4547 18.0146 16.5059 18.0498 16.5624 18.0741C16.6189 18.0984 16.6797 18.1113 16.7412 18.1121C16.8655 18.1093 16.9838 18.058 17.0708 17.9691C17.1578 17.8803 17.2066 17.761 17.2069 17.6367C17.2023 17.5158 17.1514 17.4012 17.0648 17.3168C16.9781 17.2323 16.8622 17.1844 16.7412 17.183Z" fill="black"/>
</svg>
