<svg width="10" height="15" viewBox="0 0 10 15" fill="none" xmlns="http://www.w3.org/2000/svg">
<path d="M9.64478 14.0387V11.7652C8.90857 12.2582 8.19216 12.5025 7.49667 12.5025C7.16873 12.5025 6.80227 12.3991 6.3918 12.1977C6.14639 12.0315 6.00223 11.8488 5.95932 11.6441C5.83826 11.3976 5.76343 10.865 5.76343 10.0441V6.42242H9.06483V4.22149H5.76343V0.52832H3.81341C3.64944 1.38889 3.48547 2.00074 3.3204 2.3694C3.11791 2.82059 2.78997 3.22996 2.33988 3.59752C1.92206 3.94885 1.44254 4.2194 0.925781 4.39536V6.42242H2.46203V11.3976C2.46203 11.9699 2.54237 12.4585 2.70744 12.869C2.82959 13.1969 3.07499 13.5237 3.44585 13.8517C3.73087 14.14 4.14024 14.3843 4.67287 14.589C5.32765 14.7541 5.89879 14.8344 6.3918 14.8344C6.96404 14.8344 7.49667 14.7728 7.98748 14.6506C8.5658 14.5252 9.12367 14.3192 9.64478 14.0387Z" fill="white"/>
</svg>
