<svg width="20" height="15" viewBox="0 0 20 15" fill="none" xmlns="http://www.w3.org/2000/svg">
<path d="M19.9921 7.61971C19.9921 7.57127 19.9921 7.51623 19.9899 7.45238C19.9876 7.27405 19.9832 7.07371 19.9788 6.86015C19.9612 6.2459 19.9304 5.63385 19.882 5.05703C19.8159 4.26225 19.7191 3.59957 19.587 3.102C19.4476 2.58275 19.1743 2.10918 18.7945 1.72863C18.4148 1.34808 17.9417 1.07387 17.4228 0.933416C16.7997 0.766094 15.58 0.662618 13.8628 0.598772C13.046 0.567949 12.1719 0.548135 11.2979 0.537127C10.9919 0.532723 10.7079 0.530522 10.4525 0.52832H9.8052C9.54982 0.530522 9.26581 0.532723 8.95978 0.537127C8.08574 0.548135 7.21171 0.567949 6.39491 0.598772C4.67765 0.66482 3.45576 0.768296 2.8349 0.933416C2.31577 1.07353 1.84257 1.34762 1.46274 1.72822C1.0829 2.10883 0.809775 2.58258 0.670721 3.102C0.536423 3.59957 0.441754 4.26225 0.375706 5.05703C0.32727 5.63385 0.296448 6.2459 0.278835 6.86015C0.27223 7.07371 0.270028 7.27405 0.267827 7.45238C0.267827 7.51623 0.265625 7.57127 0.265625 7.61971V7.743C0.265625 7.79143 0.265625 7.84647 0.267827 7.91032C0.270028 8.08865 0.274431 8.289 0.278835 8.50255C0.296448 9.1168 0.32727 9.72885 0.375706 10.3057C0.441754 11.1005 0.538625 11.7631 0.670721 12.2607C0.952527 13.3153 1.78033 14.1475 2.8349 14.4293C3.45576 14.5966 4.67765 14.7001 6.39491 14.7639C7.21171 14.7948 8.08574 14.8146 8.95978 14.8256C9.26581 14.83 9.54982 14.8322 9.8052 14.8344H10.4525C10.7079 14.8322 10.9919 14.83 11.2979 14.8256C12.1719 14.8146 13.046 14.7948 13.8628 14.7639C15.58 14.6979 16.8019 14.5944 17.4228 14.4293C18.4773 14.1475 19.3051 13.3175 19.587 12.2607C19.7213 11.7631 19.8159 11.1005 19.882 10.3057C19.9304 9.72885 19.9612 9.1168 19.9788 8.50255C19.9854 8.289 19.9876 8.08865 19.9899 7.91032C19.9899 7.84647 19.9921 7.79143 19.9921 7.743V7.61971ZM18.4069 7.73419C18.4069 7.78042 18.4069 7.83106 18.4047 7.8905C18.4025 8.06223 18.3981 8.25157 18.3937 8.45632C18.3783 9.04195 18.3475 9.62757 18.3012 10.1714C18.2418 10.8803 18.1581 11.4615 18.0546 11.8512C17.9181 12.3598 17.5174 12.7627 17.0111 12.897C16.5487 13.0203 15.3841 13.1193 13.8011 13.1788C12.9997 13.2096 12.1367 13.2294 11.2759 13.2404C10.9743 13.2448 10.6947 13.247 10.4437 13.247H9.81401L8.9818 13.2404C8.12097 13.2294 7.26014 13.2096 6.45655 13.1788C4.8736 13.1171 3.70674 13.0203 3.24661 12.897C2.74023 12.7605 2.33954 12.3598 2.20304 11.8512C2.09957 11.4615 2.01591 10.8803 1.95646 10.1714C1.91023 9.62757 1.88161 9.04195 1.86399 8.45632C1.85739 8.25157 1.85519 8.06003 1.85299 7.8905C1.85299 7.83106 1.85078 7.77822 1.85078 7.73419V7.62851C1.85078 7.58228 1.85078 7.53164 1.85299 7.4722C1.85519 7.30047 1.85959 7.11113 1.86399 6.90638C1.87941 6.32076 1.91023 5.73513 1.95646 5.19133C2.01591 4.48241 2.09957 3.90119 2.20304 3.5115C2.33954 3.00293 2.74023 2.60004 3.24661 2.46574C3.70894 2.34245 4.8736 2.24337 6.45655 2.18393C7.25794 2.15311 8.12097 2.13329 8.9818 2.12229C9.28342 2.11788 9.56303 2.11568 9.81401 2.11568H10.4437L11.2759 2.12229C12.1367 2.13329 12.9975 2.15311 13.8011 2.18393C15.3841 2.24558 16.5509 2.34245 17.0111 2.46574C17.5174 2.60224 17.9181 3.00293 18.0546 3.5115C18.1581 3.90119 18.2418 4.48241 18.3012 5.19133C18.3475 5.73513 18.3761 6.32076 18.3937 6.90638C18.4003 7.11113 18.4025 7.30267 18.4047 7.4722C18.4047 7.53164 18.4069 7.58448 18.4069 7.62851V7.73419ZM8.16941 10.6315L13.2771 7.65934L8.16941 4.73119V10.6315Z" fill="white"/>
</svg>
