<svg width="55" height="31" viewBox="0 0 55 31" fill="none" xmlns="http://www.w3.org/2000/svg">
<path d="M54.9463 27.8448C54.6945 28.7557 54.2948 29.5716 53.5212 30.1839C52.1684 31.2561 50.2049 31.2787 48.8491 30.1974C48.5867 29.9878 48.3409 29.7571 48.1026 29.5203C41.4912 22.9104 34.8812 16.3004 28.2712 9.68742C28.2305 9.6467 28.1913 9.60447 28.1491 9.55621C27.9364 9.31643 27.5685 9.34056 27.3679 9.5909C27.3513 9.61201 27.3347 9.63011 27.3166 9.64821C20.6629 16.3155 13.9987 22.9737 7.34347 29.6395C6.17018 30.8143 4.82797 31.3074 3.19622 30.8037C0.77272 30.0542 -0.212063 26.9611 1.33675 24.9508C1.50867 24.7276 1.69718 24.5119 1.89625 24.3129C9.55735 16.6488 17.2184 8.98615 24.8826 1.32505C26.3152 -0.106123 28.0948 -0.4002 29.71 0.551407C30.1006 0.780636 30.4474 1.10337 30.7701 1.4261C38.2367 8.8836 45.6942 16.3502 53.1668 23.8016C54.0204 24.6537 54.7805 25.5329 54.9991 26.7726C54.9825 27.136 54.9644 27.4829 54.9463 27.8448Z" fill="black"/>
</svg>
