<svg width="55" height="31" viewBox="0 0 55 31" fill="none" xmlns="http://www.w3.org/2000/svg">
<path d="M0.0536536 3.15517C0.305508 2.24429 0.705151 1.42841 1.4788 0.816126C2.83156 -0.256126 4.79509 -0.278748 6.15087 0.802553C6.41328 1.01218 6.65909 1.24292 6.89737 1.47969C13.5088 8.08965 20.1188 14.6996 26.7288 21.3126C26.7695 21.3533 26.8087 21.3955 26.8509 21.4438C27.0636 21.6836 27.4315 21.6594 27.6321 21.4091C27.6487 21.388 27.6653 21.3699 27.6834 21.3518C34.3371 14.6845 41.0013 8.02631 47.6565 1.36055C48.8298 0.185746 50.172 -0.307399 51.8038 0.196303C54.2273 0.945824 55.2121 4.03892 53.6633 6.0492C53.4913 6.2724 53.3028 6.48806 53.1038 6.68712C45.4427 14.3512 37.7816 22.0138 30.1174 29.6749C28.6848 31.1061 26.9052 31.4002 25.29 30.4486C24.8994 30.2194 24.5526 29.8966 24.2299 29.5739C16.7633 22.1164 9.30579 14.6498 1.8332 7.19836C0.979625 6.34629 0.219547 5.46708 0.000873381 4.22743C0.0174635 3.86398 0.0355566 3.51712 0.0536536 3.15517Z" fill="black"/>
</svg>
